<svg width="493" height="453" viewBox="0 0 493 453" fill="none" xmlns="http://www.w3.org/2000/svg">
<g clip-path="url(#clip0_94_8)">
<path d="M188.386 435.086C188.386 435.086 268.646 458.476 340.526 412.016C412.406 365.556 442.336 278.536 468.526 208.726C494.716 138.916 468.816 70.3361 407.526 41.3461C346.236 12.3561 311.376 60.8761 230.086 66.9261C148.796 72.9761 125.656 62.5761 62.4758 110.756C-0.704151 158.936 -2.35415 265.866 58.8658 342.166C120.086 418.466 188.386 435.086 188.386 435.086Z" fill="#595449"/>
<path opacity="0.7" d="M188.386 435.086C188.386 435.086 268.646 458.476 340.526 412.016C412.406 365.556 442.336 278.536 468.526 208.726C494.716 138.916 468.816 70.3361 407.526 41.3461C346.236 12.3561 311.376 60.8761 230.086 66.9261C148.796 72.9761 125.656 62.5761 62.4758 110.756C-0.704151 158.936 -2.35415 265.866 58.8658 342.166C120.086 418.466 188.386 435.086 188.386 435.086Z" fill="white"/>
<path d="M299.676 128.87C323.4 105.146 323.4 66.6811 299.676 42.9567C275.951 19.2324 237.486 19.2324 213.762 42.9567C190.038 66.6811 190.038 105.146 213.762 128.87C237.486 152.595 275.951 152.595 299.676 128.87Z" stroke="#263238" stroke-linecap="round" stroke-linejoin="round"/>
<path d="M308.856 88.526L308.966 86.416C310.366 87.726 311.776 89.126 313.166 90.646C313.166 91.026 313.166 91.406 313.106 91.786L312.936 92.916C311.673 91.3653 310.31 89.8989 308.856 88.526Z" stroke="#263238" stroke-linecap="round" stroke-linejoin="round"/>
<path d="M308.086 95.466L308.406 93.376C309.036 94.116 309.666 94.886 310.286 95.686C310.932 96.4781 311.533 97.3061 312.086 98.166L311.516 100.376C310.976 99.516 310.426 98.676 309.876 97.866L309.046 96.666L308.086 95.466Z" stroke="#263238" stroke-linecap="round" stroke-linejoin="round"/>
<path d="M306.356 102.226C306.605 101.575 306.805 100.906 306.956 100.226C308.063 101.883 309.049 103.617 309.906 105.416L309.116 107.556C308.236 105.676 307.316 103.899 306.356 102.226Z" stroke="#263238" stroke-linecap="round" stroke-linejoin="round"/>
<path d="M303.716 108.676L304.626 106.776C305.413 108.529 306.159 110.379 306.866 112.326C306.525 113.012 306.148 113.68 305.736 114.326C305.195 112.398 304.52 110.51 303.716 108.676Z" stroke="#263238" stroke-linecap="round" stroke-linejoin="round"/>
<path d="M300.296 114.766L301.386 112.956C302.014 114.853 302.512 116.791 302.876 118.756L301.506 120.586C301.156 118.556 300.816 116.656 300.296 114.766Z" stroke="#263238" stroke-linecap="round" stroke-linejoin="round"/>
<path d="M296.026 120.286C296.515 119.782 296.976 119.251 297.406 118.696C297.739 120.652 297.963 122.625 298.076 124.606C297.546 125.156 297.076 125.756 296.506 126.276C296.466 124.246 296.256 122.166 296.026 120.286Z" stroke="#263238" stroke-linecap="round" stroke-linejoin="round"/>
<path d="M291.086 125.226L292.646 123.806C292.696 125.736 292.696 127.806 292.566 129.806L290.746 131.166C290.866 130.166 290.956 129.166 291.036 128.166C291.116 127.166 291.086 126.166 291.086 125.226Z" stroke="#263238" stroke-linecap="round" stroke-linejoin="round"/>
<path d="M285.566 129.486C286.157 129.106 286.727 128.695 287.276 128.256C287.186 129.256 287.106 130.256 286.946 131.256C286.786 132.256 286.596 133.186 286.386 134.176L284.386 135.366C284.906 133.336 285.276 131.386 285.566 129.486Z" stroke="#263238" stroke-linecap="round" stroke-linejoin="round"/>
<path d="M279.486 132.906L281.386 131.996C280.926 133.856 280.363 135.763 279.696 137.716C279.356 137.876 279.016 138.056 278.696 138.196L277.616 138.586C278.372 136.739 278.997 134.841 279.486 132.906Z" stroke="#263238" stroke-linecap="round" stroke-linejoin="round"/>
<path d="M273.026 135.556L275.026 134.826C274.686 135.746 274.316 136.666 273.916 137.596L273.296 138.996L272.616 140.316L270.396 140.886C270.896 139.996 271.396 139.116 271.816 138.236C272.273 137.368 272.677 136.473 273.026 135.556Z" stroke="#263238" stroke-linecap="round" stroke-linejoin="round"/>
<path d="M266.266 137.276L267.316 137.116L268.316 136.846C267.386 138.602 266.337 140.293 265.176 141.906L262.906 142.256C264.153 140.576 265.273 138.916 266.266 137.276Z" stroke="#263238" stroke-linecap="round" stroke-linejoin="round"/>
<path d="M259.336 138.056L261.446 137.946C260.286 139.476 259.026 141.026 257.656 142.566C256.893 142.616 256.128 142.616 255.366 142.566C256.792 141.157 258.119 139.65 259.336 138.056Z" stroke="#263238" stroke-linecap="round" stroke-linejoin="round"/>
<path d="M252.356 137.966L254.466 138.076C253.786 138.776 253.086 139.476 252.356 140.176C251.639 140.882 250.884 141.55 250.096 142.176L247.836 141.826C248.646 141.206 249.416 140.576 250.166 139.946L251.276 138.946L252.356 137.966Z" stroke="#263238" stroke-linecap="round" stroke-linejoin="round"/>
<path d="M245.456 136.936C246.135 137.12 246.827 137.254 247.526 137.336C245.985 138.598 244.358 139.751 242.656 140.786L240.446 140.216C242.216 139.166 243.886 138.056 245.456 136.936Z" stroke="#263238" stroke-linecap="round" stroke-linejoin="round"/>
<path d="M238.766 134.956L240.766 135.686C239.106 136.646 237.343 137.569 235.476 138.456C234.759 138.196 234.061 137.889 233.386 137.536C235.238 136.803 237.035 135.941 238.766 134.956Z" stroke="#263238" stroke-linecap="round" stroke-linejoin="round"/>
<path d="M232.376 132.166L234.276 133.086C232.45 133.896 230.573 134.584 228.656 135.146L226.656 133.956C227.656 133.696 228.606 133.426 229.546 133.136C230.486 132.846 231.436 132.556 232.376 132.166Z" stroke="#263238" stroke-linecap="round" stroke-linejoin="round"/>
<path d="M226.446 128.476C226.991 128.92 227.569 129.321 228.176 129.676C227.234 129.968 226.275 130.205 225.306 130.386C224.306 130.586 223.356 130.776 222.356 130.936C221.746 130.476 221.126 130.036 220.536 129.556C222.576 129.286 224.566 128.906 226.446 128.476Z" stroke="#263238" stroke-linecap="round" stroke-linejoin="round"/>
<path d="M221.086 124.056L222.646 125.476C220.739 125.729 218.739 125.903 216.646 125.996L215.086 124.306C216.086 124.306 217.086 124.306 218.086 124.306C219.086 124.306 220.086 124.166 221.086 124.056Z" stroke="#263238" stroke-linecap="round" stroke-linejoin="round"/>
<path d="M216.246 118.986C216.686 119.536 217.186 120.036 217.646 120.566C216.646 120.566 215.646 120.566 214.646 120.566C213.646 120.566 212.646 120.406 211.646 120.296L210.286 118.466C212.346 118.713 214.333 118.886 216.246 118.986Z" stroke="#263238" stroke-linecap="round" stroke-linejoin="round"/>
<path d="M212.236 113.276L213.326 115.076C211.436 114.796 209.486 114.436 207.486 113.966L206.896 112.966L206.386 111.966L207.816 112.376L209.306 112.716C210.296 112.926 211.276 113.166 212.236 113.276Z" stroke="#263238" stroke-linecap="round" stroke-linejoin="round"/>
<path d="M208.956 107.166L209.876 109.066C208.936 108.806 207.986 108.536 207.016 108.226C206.052 107.944 205.104 107.61 204.176 107.226L203.386 105.086C204.316 105.486 205.246 105.876 206.156 106.226L207.516 106.746L208.956 107.166Z" stroke="#263238" stroke-linecap="round" stroke-linejoin="round"/>
<path d="M206.556 100.566C206.656 100.906 206.716 101.246 206.836 101.566L207.196 102.566C205.35 101.818 203.559 100.943 201.836 99.946L201.276 97.736C203.086 98.786 204.826 99.726 206.556 100.566Z" stroke="#263238" stroke-linecap="round" stroke-linejoin="round"/>
<path d="M205.086 93.746L205.406 95.826C203.766 94.8393 202.099 93.736 200.406 92.516C200.284 91.7651 200.217 91.0065 200.206 90.246C201.748 91.5259 203.379 92.6955 205.086 93.746Z" stroke="#263238" stroke-linecap="round" stroke-linejoin="round"/>
<path d="M204.486 86.796L204.586 88.896C203.826 88.296 203.056 87.666 202.286 87.016L201.126 86.016C200.756 85.676 200.416 85.326 200.066 85.016L200.176 82.726C200.876 83.466 201.576 84.186 202.286 84.866L203.336 85.866C203.706 86.166 204.086 86.476 204.486 86.796Z" stroke="#263238" stroke-linecap="round" stroke-linejoin="round"/>
<path d="M204.826 79.816C204.711 80.5102 204.651 81.2124 204.646 81.916C203.229 80.5168 201.915 79.0162 200.716 77.426L201.086 75.166C202.296 76.826 203.556 78.376 204.826 79.816Z" stroke="#263238" stroke-linecap="round" stroke-linejoin="round"/>
<path d="M206.086 72.966L205.556 74.966C204.436 73.416 203.336 71.756 202.276 69.966C202.376 69.596 202.456 69.226 202.576 68.866L202.966 67.786C203.883 69.5839 204.925 71.3149 206.086 72.966Z" stroke="#263238" stroke-linecap="round" stroke-linejoin="round"/>
<path d="M208.266 66.326L207.546 68.326C207.076 67.476 206.606 66.596 206.156 65.686L205.486 64.316L204.916 62.936L205.916 60.876C206.266 61.876 206.636 62.766 207.016 63.666C207.388 64.5729 207.805 65.4607 208.266 66.326Z" stroke="#263238" stroke-linecap="round" stroke-linejoin="round"/>
<path d="M211.326 60.056L210.776 60.956L210.316 61.906L209.756 60.506L209.306 59.166C209.016 58.226 208.736 57.266 208.476 56.286L209.666 54.286C210.156 56.296 210.716 58.226 211.326 60.056Z" stroke="#263238" stroke-linecap="round" stroke-linejoin="round"/>
<path d="M215.196 54.2459L213.926 55.9359C213.493 54.0559 213.126 52.0893 212.826 50.0359C213.296 49.4459 213.826 48.9059 214.346 48.3359C214.426 49.3359 214.516 50.3359 214.646 51.3359C214.776 52.3359 214.996 53.2859 215.196 54.2459Z" stroke="#263238" stroke-linecap="round" stroke-linejoin="round"/>
<path d="M219.746 48.956L218.326 50.5159C218.216 49.5159 218.126 48.5159 218.056 47.5159C217.986 46.5159 218.056 45.5159 218.056 44.5159L219.746 42.976C219.659 45.056 219.659 47.0493 219.746 48.956Z" stroke="#263238" stroke-linecap="round" stroke-linejoin="round"/>
<path d="M225.086 44.3959C224.526 44.8259 223.956 45.2259 223.406 45.6759C223.476 43.7459 223.666 41.7859 223.926 39.7459C224.526 39.2753 225.154 38.8411 225.806 38.4459C225.603 39.4373 225.453 40.4387 225.356 41.4459C225.196 42.4459 225.086 43.4259 225.086 44.3959Z" stroke="#263238" stroke-linecap="round" stroke-linejoin="round"/>
<path d="M230.846 40.526L229.046 41.626C229.206 40.626 229.386 39.696 229.586 38.706C229.786 37.716 230.016 36.706 230.316 35.766L232.376 34.766C231.735 36.6489 231.224 38.5734 230.846 40.526Z" stroke="#263238" stroke-linecap="round" stroke-linejoin="round"/>
<path d="M237.086 37.4759C236.422 37.7062 235.777 37.987 235.156 38.3159C235.71 36.4063 236.398 34.5383 237.216 32.7259L239.366 31.9359C238.526 33.8159 237.776 35.6659 237.086 37.4759Z" stroke="#263238" stroke-linecap="round" stroke-linejoin="round"/>
<path d="M243.756 35.326L241.756 35.846C242.583 34.1193 243.516 32.3627 244.556 30.576C245.292 30.3827 246.04 30.239 246.796 30.146C245.661 31.7986 244.646 33.5297 243.756 35.326Z" stroke="#263238" stroke-linecap="round" stroke-linejoin="round"/>
<path d="M250.606 34.0259L248.526 34.3459C249.046 33.5159 249.596 32.6959 250.166 31.8559L251.056 30.6059L251.986 29.4559L254.276 29.3359C253.606 30.1059 252.966 30.8859 252.356 31.6459C251.732 32.4086 251.148 33.203 250.606 34.0259Z" stroke="#263238" stroke-linecap="round" stroke-linejoin="round"/>
<path d="M257.576 33.6859C256.877 33.6259 256.175 33.6259 255.476 33.6859C256.731 32.1408 258.094 30.6871 259.556 29.3359L261.836 29.4559C260.316 30.8693 258.896 32.2793 257.576 33.6859Z" stroke="#263238" stroke-linecap="round" stroke-linejoin="round"/>
<path d="M264.536 34.2859L262.446 33.9659C263.886 32.7059 265.446 31.4459 267.076 30.2059L268.206 30.3859L269.316 30.6759C267.64 31.7652 266.042 32.9715 264.536 34.2859Z" stroke="#263238" stroke-linecap="round" stroke-linejoin="round"/>
<path d="M271.356 35.7559L269.356 35.2359C270.156 34.6759 270.986 34.1359 271.836 33.5859C272.686 33.0359 273.576 32.5059 274.446 32.0759L276.596 32.8559C275.686 33.3059 274.796 33.7659 273.936 34.2359L272.656 34.9459L271.356 35.7559Z" stroke="#263238" stroke-linecap="round" stroke-linejoin="round"/>
<path d="M277.906 38.1659C277.586 38.0159 277.276 37.8459 276.956 37.7159L275.956 37.3559C277.715 36.4306 279.536 35.6286 281.406 34.9559L283.466 35.9559C281.526 36.6359 279.673 37.3726 277.906 38.1659Z" stroke="#263238" stroke-linecap="round" stroke-linejoin="round"/>
<path d="M284.086 41.426L282.286 40.336C284.106 39.716 286.023 39.156 288.036 38.656C288.696 39.046 289.266 39.546 289.886 39.986C288.886 40.176 287.946 40.346 286.966 40.596C285.986 40.846 285.006 41.166 284.086 41.426Z" stroke="#263238" stroke-linecap="round" stroke-linejoin="round"/>
<path d="M289.776 45.436L288.086 44.166C289.086 43.966 290.026 43.776 291.036 43.606C292.046 43.436 292.986 43.366 294.036 43.266L295.726 44.806C293.646 44.956 291.696 45.166 289.776 45.436Z" stroke="#263238" stroke-linecap="round" stroke-linejoin="round"/>
<path d="M294.846 50.2359C294.366 49.7359 293.926 49.1759 293.406 48.7059C295.387 48.5785 297.372 48.5518 299.356 48.6259C299.885 49.1776 300.382 49.7585 300.846 50.3659C298.85 50.2134 296.847 50.17 294.846 50.2359Z" stroke="#263238" stroke-linecap="round" stroke-linejoin="round"/>
<path d="M299.276 55.6359L298.006 53.9459C300.017 54.0667 302.019 54.2937 304.006 54.6259L305.196 56.6259C303.247 56.1616 301.269 55.8308 299.276 55.6359Z" stroke="#263238" stroke-linecap="round" stroke-linejoin="round"/>
<path d="M302.956 61.566C302.645 60.9344 302.294 60.3231 301.906 59.736C303.865 60.0936 305.796 60.5881 307.686 61.216L308.686 63.286C306.726 62.606 304.816 62.0326 302.956 61.566Z" stroke="#263238" stroke-linecap="round" stroke-linejoin="round"/>
<path d="M305.756 67.9559L305.026 65.9559C306.833 66.6226 308.676 67.3726 310.556 68.2059C310.827 68.9187 311.044 69.6507 311.206 70.3959C309.448 69.457 307.627 68.6417 305.756 67.9559Z" stroke="#263238" stroke-linecap="round" stroke-linejoin="round"/>
<path d="M307.736 74.646L307.206 72.646C308.086 73.076 308.966 73.546 309.846 74.036L311.176 74.786L312.416 75.606L312.766 77.866C311.939 77.2727 311.109 76.7127 310.276 76.186C309.458 75.6271 308.61 75.113 307.736 74.646Z" stroke="#263238" stroke-linecap="round" stroke-linejoin="round"/>
<path d="M308.766 81.5459C308.766 81.1959 308.766 80.8459 308.706 80.5459L308.546 79.5459C310.203 80.6427 311.78 81.8558 313.266 83.1759L313.376 85.4559C311.849 84.0159 310.313 82.7126 308.766 81.5459Z" stroke="#263238" stroke-linecap="round" stroke-linejoin="round"/>
<path d="M256.266 69.506L247.206 116.366" stroke="#263238" stroke-miterlimit="10"/>
<path d="M266.216 116.366L257.166 69.506" stroke="#263238" stroke-miterlimit="10"/>
<path d="M271.376 116.366L261.816 66.886" stroke="#263238" stroke-miterlimit="10"/>
<path d="M253.326 58.026L255.806 45.146" stroke="#263238" stroke-miterlimit="10"/>
<path d="M257.616 45.146L260.106 58.026" stroke="#263238" stroke-miterlimit="10"/>
<path d="M242.046 116.366L251.606 66.886" stroke="#263238" stroke-miterlimit="10"/>
<path d="M223.976 64.476H223.646C223.347 64.4734 223.061 64.3535 222.85 64.1422C222.638 63.9308 222.519 63.6449 222.516 63.346V63.166C222.519 62.8671 222.638 62.5812 222.85 62.3699C223.061 62.1585 223.347 62.0386 223.646 62.036H250.576" stroke="#263238" stroke-miterlimit="10"/>
<path d="M223.976 64.476H250.576" stroke="#263238" stroke-miterlimit="10"/>
<path d="M288.766 64.476H262.846" stroke="#263238" stroke-miterlimit="10"/>
<path d="M288.766 64.476H289.766C290.065 64.4734 290.351 64.3535 290.562 64.1422C290.773 63.9308 290.893 63.6449 290.896 63.346V63.166C290.893 62.8671 290.773 62.5812 290.562 62.3699C290.351 62.1585 290.065 62.0386 289.766 62.036H262.846" stroke="#263238" stroke-miterlimit="10"/>
<path d="M271.376 116.366H266.216" stroke="#263238" stroke-miterlimit="10"/>
<path d="M242.046 116.366H247.206" stroke="#263238" stroke-miterlimit="10"/>
<path d="M242.046 116.366H229.466V123.866H283.966V116.366H271.376" stroke="#263238" stroke-miterlimit="10"/>
<path d="M247.206 116.366H266.216" stroke="#263238" stroke-miterlimit="10"/>
<path d="M262.846 64.4759C263.006 63.6839 263.006 62.8679 262.846 62.0759" stroke="#263238" stroke-miterlimit="10"/>
<path d="M256.266 69.506H256.716H257.166" stroke="#263238" stroke-miterlimit="10"/>
<path d="M253.326 58.026C252.624 58.4752 252.018 59.0606 251.546 59.7476C251.074 60.4347 250.744 61.2094 250.576 62.026" stroke="#263238" stroke-miterlimit="10"/>
<path d="M253.326 58.0259C254.334 57.3664 255.512 57.0151 256.716 57.0151C257.92 57.0151 259.098 57.3664 260.106 58.0259" stroke="#263238" stroke-miterlimit="10"/>
<path d="M262.846 62.0759C262.68 61.2597 262.352 60.4851 261.882 59.798C261.411 59.1108 260.807 58.5253 260.106 58.0759" stroke="#263238" stroke-miterlimit="10"/>
<path d="M251.606 66.886C251.107 66.1619 250.766 65.3407 250.606 64.476" stroke="#263238" stroke-miterlimit="10"/>
<path d="M257.166 69.506C258.086 69.4396 258.981 69.1703 259.785 68.7173C260.589 68.2643 261.282 67.6389 261.816 66.886" stroke="#263238" stroke-miterlimit="10"/>
<path d="M250.576 64.4759C250.416 63.6839 250.416 62.8679 250.576 62.0759" stroke="#263238" stroke-miterlimit="10"/>
<path d="M261.816 66.886C262.315 66.1619 262.656 65.3407 262.816 64.476" stroke="#263238" stroke-miterlimit="10"/>
<path d="M256.266 69.506C255.344 69.4397 254.448 69.1705 253.643 68.7175C252.837 68.2646 252.142 67.6392 251.606 66.886" stroke="#263238" stroke-miterlimit="10"/>
<path d="M257.616 45.166C257.025 45.3391 256.397 45.3391 255.806 45.166" stroke="#263238" stroke-miterlimit="10"/>
<path d="M257.616 45.1659C258.464 44.9458 259.202 44.4242 259.693 43.6988C260.183 42.9734 260.393 42.0941 260.282 41.2254C260.171 40.3567 259.747 39.5582 259.09 38.9795C258.432 38.4008 257.587 38.0815 256.711 38.0815C255.835 38.0815 254.989 38.4008 254.332 38.9795C253.675 39.5582 253.251 40.3567 253.14 41.2254C253.029 42.0941 253.238 42.9734 253.729 43.6988C254.22 44.4242 254.958 44.9458 255.806 45.1659" stroke="#263238" stroke-miterlimit="10"/>
<path d="M232.076 87.566L223.976 64.476" stroke="#263238" stroke-miterlimit="10"/>
<path d="M223.976 64.476L215.876 87.566" stroke="#263238" stroke-miterlimit="10"/>
<path d="M213.966 87.866C214.416 90.1498 215.646 92.2065 217.444 93.6847C219.242 95.1629 221.498 95.971 223.826 95.971C226.154 95.971 228.409 95.1629 230.208 93.6847C232.006 92.2065 233.235 90.1498 233.686 87.866H213.966Z" stroke="#263238" stroke-miterlimit="10"/>
<path d="M288.766 64.476L296.866 87.566" stroke="#263238" stroke-miterlimit="10"/>
<path d="M288.766 64.476L280.666 87.566" stroke="#263238" stroke-miterlimit="10"/>
<path d="M288.616 95.966C290.944 95.9735 293.202 95.1685 295 93.6898C296.798 92.2112 298.024 90.1516 298.466 87.866H278.756C279.207 90.1489 280.437 92.2044 282.235 93.6816C284.034 95.1588 286.289 95.9662 288.616 95.966Z" stroke="#263238" stroke-miterlimit="10"/>
<path d="M88.1959 119.426H84.8159V378.256H88.1959V119.426Z" fill="#263238" stroke="#263238" stroke-linecap="round" stroke-linejoin="round"/>
<path d="M117.726 378.256L86.3358 127.206L62.5558 378.256H117.726Z" fill="#595449" stroke="#263238" stroke-linecap="round" stroke-linejoin="round"/>
<path d="M117.456 378.256L108.166 302.096L71.6359 360.976L96.0759 378.256H117.456Z" fill="#595449" stroke="#263238" stroke-linecap="round" stroke-linejoin="round"/>
<path d="M118.286 333.596L71.6359 360.976L86.3359 127.206L118.286 333.596Z" fill="#595449" stroke="#263238" stroke-linecap="round" stroke-linejoin="round"/>
<path d="M86.3358 127.206L118.286 333.596L93.4458 316.866L86.3358 127.206Z" fill="#595449" stroke="#263238" stroke-linecap="round" stroke-linejoin="round"/>
<path d="M93.4458 316.866L105.106 297.086L91.4158 272.236L93.4458 316.866Z" fill="#595449" stroke="#263238" stroke-linecap="round" stroke-linejoin="round"/>
<path d="M86.3359 127.206L66.5659 273.756L105.106 297.086L86.3359 127.206Z" fill="#595449" stroke="#263238" stroke-linecap="round" stroke-linejoin="round"/>
<path d="M84.8159 119.426L80.4659 111.756L86.7359 99.4661L93.0059 112.266L88.1959 119.426H84.8159Z" fill="white" stroke="#263238" stroke-linecap="round" stroke-linejoin="round"/>
<path d="M417.536 119.426H414.156V378.256H417.536V119.426Z" fill="#263238" stroke="#263238" stroke-linecap="round" stroke-linejoin="round"/>
<path d="M447.066 378.256L415.676 127.206L391.896 378.256H447.066Z" fill="#595449" stroke="#263238" stroke-linecap="round" stroke-linejoin="round"/>
<path d="M446.796 378.256L437.506 302.096L400.976 360.976L425.416 378.256H446.796Z" fill="#595449" stroke="#263238" stroke-linecap="round" stroke-linejoin="round"/>
<path d="M447.626 333.596L400.976 360.976L415.676 127.206L447.626 333.596Z" fill="#595449" stroke="#263238" stroke-linecap="round" stroke-linejoin="round"/>
<path d="M415.676 127.206L447.626 333.596L422.776 316.866L415.676 127.206Z" fill="#595449" stroke="#263238" stroke-linecap="round" stroke-linejoin="round"/>
<path d="M422.776 316.866L434.446 297.086L420.756 272.236L422.776 316.866Z" fill="#595449" stroke="#263238" stroke-linecap="round" stroke-linejoin="round"/>
<path d="M415.676 127.206L395.906 273.756L434.446 297.086L415.676 127.206Z" fill="#595449" stroke="#263238" stroke-linecap="round" stroke-linejoin="round"/>
<path d="M414.156 119.426L409.806 111.756L416.076 99.4661L422.346 112.266L417.536 119.426H414.156Z" fill="white" stroke="#263238" stroke-linecap="round" stroke-linejoin="round"/>
<path d="M197.866 185.696C197.866 185.696 182.866 178.316 175.226 191.376C167.586 204.436 172.696 310.106 172.696 310.106H193.486L197.866 185.696Z" fill="#8F8F8F" stroke="#263238" stroke-linecap="round" stroke-linejoin="round"/>
<path d="M319.616 185.696C319.616 185.696 334.616 178.316 342.256 191.376C349.896 204.436 344.786 310.106 344.786 310.106H323.996L319.616 185.696Z" fill="#8F8F8F" stroke="#263238" stroke-linecap="round" stroke-linejoin="round"/>
<path d="M197.866 185.696H321.976C325.836 185.696 328.976 189.116 329.166 193.436L333.446 311.236H186.386L190.666 193.436C190.826 189.166 193.996 185.696 197.866 185.696Z" fill="#8F8F8F" stroke="#263238" stroke-linecap="round" stroke-linejoin="round"/>
<path d="M242.366 233.396C242.366 233.396 206.616 254.166 196.476 259.766C186.336 265.366 179.226 268.166 179.226 272.166V375.606H340.486C340.486 375.606 337.196 273.456 336.176 270.676C335.156 267.896 280.656 233.396 277.356 232.386C274.056 231.376 242.366 233.396 242.366 233.396Z" fill="#263238" stroke="#263238" stroke-linecap="round" stroke-linejoin="round"/>
<path d="M333.386 271.436C333.386 271.436 336.176 268.896 338.716 272.956C341.256 277.016 365.086 326.706 365.596 331.526C366.106 336.346 363.596 336.346 364.596 339.386C365.596 342.426 374.996 359.386 373.476 364.236C371.956 369.086 365.806 375.336 363.276 375.586C360.746 375.836 309.276 375.586 309.276 375.586C305.444 374.683 302 372.581 299.446 369.586C295.636 364.766 285.496 351.336 285.496 349.046C285.496 346.756 296.656 338.656 298.936 336.116C301.216 333.576 308.316 333.836 309.336 333.116C310.356 332.396 322.996 303.166 326.086 295.516C328.008 290.623 329.618 285.613 330.906 280.516" fill="#263238"/>
<path d="M333.386 271.436C333.386 271.436 336.176 268.896 338.716 272.956C341.256 277.016 365.086 326.706 365.596 331.526C366.106 336.346 363.596 336.346 364.596 339.386C365.596 342.426 374.996 359.386 373.476 364.236C371.956 369.086 365.806 375.336 363.276 375.586C360.746 375.836 309.276 375.586 309.276 375.586C305.444 374.683 302 372.581 299.446 369.586C295.636 364.766 285.496 351.336 285.496 349.046C285.496 346.756 296.656 338.656 298.936 336.116C301.216 333.576 308.316 333.836 309.336 333.116C310.356 332.396 322.996 303.166 326.086 295.516C328.008 290.623 329.618 285.613 330.906 280.516" stroke="#263238" stroke-linecap="round" stroke-linejoin="round"/>
<path d="M299.416 369.556C299.416 369.556 281.706 350.846 285.416 346.036C289.126 341.226 306.246 333.756 306.246 333.756L327.076 286.756" stroke="#808080" stroke-linecap="round" stroke-linejoin="round"/>
<path d="M309.306 333.046C309.306 333.046 315.896 335.836 319.196 338.626C322.496 341.416 345.056 349.276 358.496 349.526" stroke="#808080" stroke-linecap="round" stroke-linejoin="round"/>
<path d="M319.446 332.286C319.446 332.286 339.726 336.596 357.986 326.956" stroke="#808080" stroke-linecap="round" stroke-linejoin="round"/>
<path d="M333.386 281.576C333.386 281.576 330.856 303.376 328.826 310.736" stroke="#808080" stroke-linecap="round" stroke-linejoin="round"/>
<path d="M338.966 284.106C339.476 284.866 345.056 306.926 345.056 315.546" stroke="#808080" stroke-linecap="round" stroke-linejoin="round"/>
<path d="M187.346 264.836C187.346 264.836 176.696 267.886 174.416 271.176C172.136 274.466 150.576 302.366 148.806 306.676C147.036 310.986 153.616 325.676 153.616 328.226C153.616 330.776 132.086 360.426 134.346 366.766C136.606 373.106 144.496 375.386 144.496 375.386H219.086C219.086 375.386 224.916 363.476 231.006 359.166C237.096 354.856 240.136 355.866 241.656 353.586C243.176 351.306 241.146 347.246 236.076 344.706C231.006 342.166 216.806 336.846 216.806 336.846C216.806 336.846 220.356 334.566 217.806 332.796C215.256 331.026 205.386 326.196 204.376 324.676C203.366 323.156 193.726 297.806 190.676 285.626" fill="#263238"/>
<path d="M187.346 264.836C187.346 264.836 176.696 267.886 174.416 271.176C172.136 274.466 150.576 302.366 148.806 306.676C147.036 310.986 153.616 325.676 153.616 328.226C153.616 330.776 132.086 360.426 134.346 366.766C136.606 373.106 144.496 375.386 144.496 375.386H219.086C219.086 375.386 224.916 363.476 231.006 359.166C237.096 354.856 240.136 355.866 241.656 353.586C243.176 351.306 241.146 347.246 236.076 344.706C231.006 342.166 216.806 336.846 216.806 336.846C216.806 336.846 220.356 334.566 217.806 332.796C215.256 331.026 205.386 326.196 204.376 324.676C203.366 323.156 193.726 297.806 190.676 285.626" stroke="#263238" stroke-linecap="round" stroke-linejoin="round"/>
<path d="M239.516 354.046C239.516 354.046 246.216 349.506 241.126 347.106C236.036 344.706 218.696 338.026 218.696 338.026C218.696 338.026 222.426 333.216 219.756 332.156C217.086 331.096 204.336 324.676 204.336 324.676L188.786 280.346" stroke="#808080" stroke-linecap="round" stroke-linejoin="round"/>
<path d="M155.396 312.506C155.396 312.506 191.146 322.146 185.566 322.906C179.986 323.666 163.006 322.906 160.976 323.406" stroke="#808080" stroke-linecap="round" stroke-linejoin="round"/>
<path d="M213.966 333.046C213.966 333.046 175.966 339.896 178.966 340.656C181.966 341.416 212.686 337.606 212.686 337.606" stroke="#808080" stroke-linecap="round" stroke-linejoin="round"/>
<path d="M182.016 278.276C182.016 278.276 178.726 305.156 178.726 311.746" stroke="#808080" stroke-linecap="round" stroke-linejoin="round"/>
<path d="M178.216 277.516C178.216 277.516 170.866 293.996 170.106 300.846" stroke="#808080" stroke-linecap="round" stroke-linejoin="round"/>
<path d="M198.756 278.026H248.196" stroke="#808080" stroke-linecap="round" stroke-linejoin="round"/>
<path d="M282.176 278.276H323.246" stroke="#808080" stroke-linecap="round" stroke-linejoin="round"/>
<path d="M258.596 292.986L252.756 338.626" stroke="#808080" stroke-linecap="round" stroke-linejoin="round"/>
<path d="M261.126 300.086V338.626" stroke="#808080" stroke-linecap="round" stroke-linejoin="round"/>
<path d="M265.946 292.986L270.766 341.416" stroke="#808080" stroke-linecap="round" stroke-linejoin="round"/>
<path d="M240.226 225.906C240.226 225.906 239.226 247.356 241.536 257.556C243.846 267.756 259.086 294.166 263.246 290.776C267.406 287.386 281.816 258.866 282.336 251.546C282.856 244.226 282.606 225.906 282.606 225.906C282.606 225.906 268.216 234.796 258.536 232.446C252.241 230.846 246.11 228.656 240.226 225.906Z" fill="white" stroke="#263238" stroke-linecap="round" stroke-linejoin="round"/>
<path d="M240.016 233.556C244.846 237.866 251.306 241.996 253.686 242.476C257.286 243.196 266.286 243.106 269.166 241.676C273.863 239.281 278.375 236.54 282.666 233.476C282.666 229.166 282.606 225.906 282.606 225.906C282.606 225.906 268.216 234.796 258.536 232.446C252.241 230.846 246.11 228.656 240.226 225.906C240.226 225.906 240.086 229.076 240.016 233.556Z" fill="#263238" stroke="#263238" stroke-linecap="round" stroke-linejoin="round"/>
<path d="M282.666 237.356C279.836 243.656 271.186 260.766 261.146 259.916C252.296 259.156 244.146 247.816 240.036 241.236C240.156 247.046 240.546 253.286 241.536 257.556C243.886 267.756 259.056 294.176 263.246 290.776C267.436 287.376 281.816 258.866 282.336 251.546C282.576 248.166 282.656 242.506 282.666 237.356Z" fill="white" stroke="#263238" stroke-linecap="round" stroke-linejoin="round"/>
<path d="M261.936 260.556C261.336 260.626 261.756 259.966 261.146 259.916C260.536 259.866 260.986 260.536 260.456 260.426L254.086 267.756L259.316 274.296L254.876 281.106C254.876 281.106 254.356 281.776 253.816 282.536C257.726 288.296 261.466 292.226 263.246 290.776C264.796 289.516 267.746 284.776 270.876 279.006L265.336 274.566L268.996 268.566L261.936 260.556Z" fill="#595449" stroke="#263238" stroke-linecap="round" stroke-linejoin="round"/>
<path d="M249.116 273.256L261.146 259.916L273.966 273.256" stroke="#263238" stroke-linecap="round" stroke-linejoin="round"/>
<path d="M234.606 202.496C234.606 202.496 232.056 197.626 229.726 197.836C227.396 198.046 224.636 201.836 227.816 208.226C230.996 214.616 234.176 214.376 234.386 211.836C234.596 209.296 234.606 202.496 234.606 202.496Z" fill="white" stroke="#263238" stroke-linecap="round" stroke-linejoin="round"/>
<path d="M228.686 206.376C228.686 206.376 227.356 200.826 230.026 201.376C232.696 201.926 234.806 206.156 234.806 206.156C234.806 206.156 229.166 200.876 228.686 206.376Z" fill="#263238"/>
<path d="M286.186 202.496C286.186 202.496 288.726 197.626 291.066 197.836C293.406 198.046 296.146 201.836 292.966 208.226C289.786 214.616 286.606 214.376 286.396 211.836C286.186 209.296 286.186 202.496 286.186 202.496Z" fill="white" stroke="#263238" stroke-linecap="round" stroke-linejoin="round"/>
<path d="M286.636 206.376C286.636 206.376 291.636 198.916 292.376 201.976C292.632 202.758 292.73 203.584 292.665 204.404C292.6 205.225 292.372 206.024 291.996 206.756C291.996 206.756 291.696 200.546 286.636 206.376Z" fill="#263238"/>
<path d="M236.446 172.706C236.446 172.706 232.136 216.916 234.656 222.316C237.176 227.716 250.096 236.776 253.656 237.496C257.216 238.216 266.256 238.126 269.136 236.696C272.016 235.266 286.026 227.696 287.466 223.396C288.906 219.096 284.596 177.736 282.796 172.396C280.996 167.056 269.136 163.396 258.346 163.396C247.556 163.396 237.526 169.466 236.446 172.706Z" fill="white" stroke="#263238" stroke-linecap="round" stroke-linejoin="round"/>
<path d="M240.956 175.166C240.956 175.166 249.566 185.376 259.816 187.616C270.066 189.856 280.816 185.896 280.816 185.896L240.956 175.166Z" fill="#263238" stroke="#263238" stroke-linecap="round" stroke-linejoin="round"/>
<path d="M264.716 192.956C264.716 192.956 263.016 197.836 263.016 198.466C263.016 199.096 263.866 208.226 263.866 208.226" stroke="#263238" stroke-linecap="round" stroke-linejoin="round"/>
<path d="M246.686 213.316C246.906 212.046 255.386 208.646 255.386 208.646C255.386 208.646 252.626 210.556 254.326 211.196C256.026 211.836 260.476 215.016 261.956 214.376C263.436 213.736 269.386 210.776 269.596 209.926C269.806 209.076 268.746 207.376 268.746 207.376C268.746 207.376 275.326 212.046 275.956 213.736" stroke="#263238" stroke-linecap="round" stroke-linejoin="round"/>
<path d="M254.536 189.566C254.536 189.566 248.816 186.386 245.846 188.506C242.876 190.626 243.506 191.896 244.356 191.896C245.206 191.896 246.686 189.986 248.596 189.986C250.506 189.986 253.906 191.896 254.536 189.566Z" fill="#DBDBDB" stroke="#263238" stroke-linecap="round" stroke-linejoin="round"/>
<path d="M265.496 189.566C265.496 189.566 271.216 186.386 274.186 188.506C277.156 190.626 276.526 191.896 275.676 191.896C274.826 191.896 273.336 189.986 271.436 189.986C269.536 189.986 266.086 191.896 265.496 189.566Z" fill="#DBDBDB" stroke="#263238" stroke-linecap="round" stroke-linejoin="round"/>
<path d="M249.556 201.646C250.434 201.646 251.146 200.603 251.146 199.316C251.146 198.029 250.434 196.986 249.556 196.986C248.678 196.986 247.966 198.029 247.966 199.316C247.966 200.603 248.678 201.646 249.556 201.646Z" fill="#263238"/>
<path d="M270.126 201.646C271.004 201.646 271.716 200.603 271.716 199.316C271.716 198.029 271.004 196.986 270.126 196.986C269.248 196.986 268.536 198.029 268.536 199.316C268.536 200.603 269.248 201.646 270.126 201.646Z" fill="#263238"/>
<path d="M248.176 215.016C248.176 215.016 250.716 218.016 252.176 218.616C253.636 219.216 266.176 219.676 269.986 218.826C271.061 218.602 272.042 218.057 272.799 217.262C273.557 216.467 274.054 215.46 274.226 214.376" stroke="#263238" stroke-linecap="round" stroke-linejoin="round"/>
<path d="M253.086 201.436C253.086 201.436 252.866 205.256 245.656 206.956" stroke="#263238" stroke-linecap="round" stroke-linejoin="round"/>
<path d="M267.476 201.866C267.476 201.866 269.916 205.336 276.066 205.766" stroke="#263238" stroke-linecap="round" stroke-linejoin="round"/>
<path d="M279.586 186.366C279.586 186.366 278.506 190.366 280.306 192.476C282.106 194.586 283.546 196.066 283.546 196.066C283.546 196.066 283.186 202.896 285.336 202.896C287.486 202.896 286.776 199.666 286.776 199.666L285.696 183.166L279.586 186.366Z" fill="#DBDBDB" stroke="#263238" stroke-linecap="round" stroke-linejoin="round"/>
<path d="M239.686 174.506C239.686 174.506 252.266 184.566 264.846 186.366C277.426 188.166 287.136 187.446 288.576 183.486C290.016 179.526 291.866 169.356 278.926 164.326C265.986 159.296 250.296 158.596 241.486 164.796C240.135 165.679 238.989 166.843 238.126 168.208C237.263 169.572 236.704 171.106 236.486 172.706C236.486 172.706 233.256 173.786 233.256 176.706V201.466H235.776C235.776 201.466 235.056 192.836 238.286 191.036C241.516 189.236 244.036 185.286 244.036 182.406C244.036 179.526 239.686 174.506 239.686 174.506Z" fill="#DBDBDB" stroke="#263238" stroke-linecap="round" stroke-linejoin="round"/>
<path d="M241.576 359.046C241.576 359.046 263.366 366.396 266.906 367.656C270.446 368.916 278.816 373.736 278.816 375.256C278.816 376.776 278.566 377.036 277.046 377.036H256.526C255.256 377.036 233.526 377.296 232.476 376.656C231.085 376.099 229.631 375.717 228.146 375.516C228.146 375.516 232.196 359.806 241.576 359.046Z" fill="white" stroke="#263238" stroke-linecap="round" stroke-linejoin="round"/>
<path d="M248.166 372.726C248.166 372.726 258.046 374.726 261.846 377.036L248.166 372.726Z" fill="white"/>
<path d="M248.166 372.726C248.166 372.726 258.046 374.726 261.846 377.036" stroke="#263238" stroke-linecap="round" stroke-linejoin="round"/>
<path d="M253.226 368.676C253.226 368.676 264.886 373.236 267.926 377.036L253.226 368.676Z" fill="white"/>
<path d="M253.226 368.676C253.226 368.676 264.886 373.236 267.926 377.036" stroke="#263238" stroke-linecap="round" stroke-linejoin="round"/>
<path d="M259.816 367.406C259.816 367.406 271.216 372.476 274.506 376.526L259.816 367.406Z" fill="white"/>
<path d="M259.816 367.406C259.816 367.406 271.216 372.476 274.506 376.526" stroke="#263238" stroke-linecap="round" stroke-linejoin="round"/>
<path d="M236.026 353.836L244.896 358.906C244.896 358.906 236.026 363.476 233.486 368.036C230.946 372.596 229.176 376.146 229.176 376.146H219.086C219.086 376.146 219.796 362.166 236.026 353.836Z" fill="white" stroke="#263238" stroke-linecap="round" stroke-linejoin="round"/>
<path d="M283.006 360.636C283.006 360.636 282.116 358.556 283.196 357.346C284.276 356.136 293.526 354.346 297.446 356.896C301.366 359.446 305.106 369.516 304.936 372.556C304.766 375.596 293.756 376.996 290.286 375.556C286.816 374.116 283.006 360.636 283.006 360.636Z" fill="white" stroke="#263238" stroke-linecap="round" stroke-linejoin="round"/>
<path d="M285.406 358.746L280.026 359.456C280.026 359.456 249.446 356.946 247.596 358.106C245.746 359.266 231.526 377.256 231.526 377.256L248.986 378.256C248.986 378.256 263.566 371.976 264.836 372.046C266.106 372.116 272.036 374.996 276.556 375.766C281.076 376.536 292.146 374.166 292.146 374.166C292.146 374.166 293.336 371.166 291.146 365.466C288.956 359.766 285.406 358.746 285.406 358.746Z" fill="white" stroke="#263238" stroke-linecap="round" stroke-linejoin="round"/>
<path d="M244.686 378.006C244.686 378.006 257.516 366.806 259.346 365.896L244.686 378.006Z" fill="white"/>
<path d="M244.686 378.006C244.686 378.006 257.516 366.806 259.346 365.896" stroke="#263238" stroke-linecap="round" stroke-linejoin="round"/>
<path d="M253.146 363.256L239.906 377.226" stroke="#263238" stroke-linecap="round" stroke-linejoin="round"/>
<path d="M248.186 361.196L235.066 377.456" stroke="#263238" stroke-linecap="round" stroke-linejoin="round"/>
<path d="M108.336 355.756L149.216 372.256C149.731 372.464 150.151 372.858 150.391 373.359C150.632 373.86 150.676 374.434 150.516 374.966C150.423 375.272 150.265 375.554 150.054 375.794C149.842 376.033 149.58 376.224 149.288 376.353C148.996 376.482 148.679 376.547 148.359 376.542C148.039 376.537 147.724 376.464 147.436 376.326L107.956 357.676L108.336 355.756Z" fill="white" stroke="#263238" stroke-linecap="round" stroke-linejoin="round"/>
<path d="M91.6559 343.166H97.4159V369.466H91.6559C88.7659 369.466 86.4259 363.576 86.4259 356.316C86.4259 349.056 88.7659 343.166 91.6559 343.166Z" fill="white" stroke="#263238" stroke-linecap="round" stroke-linejoin="round"/>
<path d="M97.4159 369.466C100.299 369.466 102.636 363.579 102.636 356.316C102.636 349.053 100.299 343.166 97.4159 343.166C94.533 343.166 92.1959 349.053 92.1959 356.316C92.1959 363.579 94.533 369.466 97.4159 369.466Z" fill="white" stroke="#263238" stroke-linecap="round" stroke-linejoin="round"/>
<path d="M98.0859 344.166H121.916V368.426H98.0859C95.4259 368.426 93.2659 362.996 93.2659 356.296C93.2659 349.596 95.4459 344.166 98.0859 344.166Z" fill="white" stroke="#263238" stroke-linecap="round" stroke-linejoin="round"/>
<path d="M117.086 356.316C117.086 363.016 119.246 368.446 121.906 368.446C124.566 368.446 126.726 363.016 126.726 356.316C126.726 349.616 124.596 344.166 121.936 344.166C119.276 344.166 117.086 349.616 117.086 356.316Z" fill="white" stroke="#263238" stroke-linecap="round" stroke-linejoin="round"/>
<path d="M123.296 343.166H129.086V369.466H123.316C120.436 369.466 118.096 363.576 118.096 356.316C118.096 349.056 120.416 343.166 123.296 343.166Z" fill="white" stroke="#263238" stroke-linecap="round" stroke-linejoin="round"/>
<path d="M129.066 369.466C131.949 369.466 134.286 363.579 134.286 356.316C134.286 349.053 131.949 343.166 129.066 343.166C126.183 343.166 123.846 349.053 123.846 356.316C123.846 363.579 126.183 369.466 129.066 369.466Z" fill="white" stroke="#263238" stroke-linecap="round" stroke-linejoin="round"/>
<path d="M137.306 372.786H83.6059V372.306C83.6059 371.465 83.9399 370.659 84.5344 370.064C85.1288 369.47 85.9352 369.136 86.7759 369.136H134.136C134.977 369.136 135.783 369.47 136.377 370.064C136.972 370.659 137.306 371.465 137.306 372.306V372.786Z" fill="white" stroke="#263238" stroke-linecap="round" stroke-linejoin="round"/>
<path d="M146.126 376.436H75.5859V375.936C75.5859 375.053 75.9367 374.206 76.5612 373.581C77.1857 372.957 78.0327 372.606 78.9159 372.606H142.796C143.679 372.606 144.526 372.957 145.151 373.581C145.775 374.206 146.126 375.053 146.126 375.936V376.436Z" fill="white" stroke="#263238" stroke-linecap="round" stroke-linejoin="round"/>
<path d="M464.776 382.726H35.2358V450.026H464.776V382.726Z" fill="white"/>
<path opacity="0.3" d="M450.326 385.556H55.6359V391.696H450.326V385.556Z" fill="black"/>
<path d="M474.276 375.976H29.3759V387.466H474.276V375.976Z" fill="#263238" stroke="#263238" stroke-linecap="round" stroke-linejoin="round"/>
<path d="M159.826 387.546H55.4659V398.796H159.826V387.546Z" stroke="#263238" stroke-linecap="round" stroke-linejoin="round"/>
<path d="M141.716 410.046H73.5859L65.0759 398.796H150.226L141.716 410.046Z" stroke="#263238" stroke-linecap="round" stroke-linejoin="round"/>
<path d="M73.5858 410.046V452.916" stroke="#263238" stroke-linecap="round" stroke-linejoin="round"/>
<path d="M141.536 452.916V410.046" stroke="#263238" stroke-linecap="round" stroke-linejoin="round"/>
<path d="M81.0558 453.166V417.016H104.636V452.916" stroke="#263238" stroke-linecap="round" stroke-linejoin="round"/>
<path d="M109.966 453.166V417.016H133.546V452.916" stroke="#263238" stroke-linecap="round" stroke-linejoin="round"/>
<path d="M450.396 387.546H346.036V398.796H450.396V387.546Z" stroke="#263238" stroke-linecap="round" stroke-linejoin="round"/>
<path d="M432.286 410.046H364.156L355.646 398.796H440.796L432.286 410.046Z" stroke="#263238" stroke-linecap="round" stroke-linejoin="round"/>
<path d="M364.156 452.916V410.046" stroke="#263238" stroke-linecap="round" stroke-linejoin="round"/>
<path d="M432.116 410.046V452.916" stroke="#263238" stroke-linecap="round" stroke-linejoin="round"/>
<path d="M371.636 453.166V417.016H395.216V452.916" stroke="#263238" stroke-linecap="round" stroke-linejoin="round"/>
<path d="M400.536 453.166V417.016H424.116V452.916" stroke="#263238" stroke-linecap="round" stroke-linejoin="round"/>
<path d="M142.046 424.256H363.656" stroke="#263238" stroke-linecap="round" stroke-linejoin="round"/>
<path d="M297.896 394.076H209.996V417.596H297.896V394.076Z" fill="white"/>
<path d="M231.416 411.876C231.686 411.876 232.006 411.876 232.286 411.876C233.086 411.876 233.726 411.586 233.726 410.346V398.166H236.246V410.166C236.246 413.376 234.526 414.166 232.626 414.166C232.222 414.175 231.818 414.159 231.416 414.116V411.876Z" fill="#263238"/>
<path d="M240.366 398.166V410.546C240.366 411.686 240.876 412.096 241.676 412.096C242.476 412.096 242.986 411.686 242.986 410.546V398.166H245.366V410.386C245.366 412.946 244.086 414.386 241.606 414.386C239.126 414.386 237.846 412.916 237.846 410.386V398.166H240.366Z" fill="#263238"/>
<path d="M247.086 398.166H251.086C253.606 398.166 254.836 399.566 254.836 402.166V410.166C254.836 412.726 253.606 414.166 251.086 414.166H247.086V398.166ZM249.606 400.456V411.916H251.026C251.826 411.916 252.306 411.506 252.306 410.356V402.016C252.306 400.866 251.826 400.456 251.026 400.456H249.606Z" fill="#263238"/>
<path d="M260.216 405.226H263.746V410.316C263.746 412.886 262.456 414.316 259.986 414.316C257.516 414.316 256.226 412.846 256.226 410.316V401.976C256.226 399.406 257.506 397.976 259.986 397.976C262.466 397.976 263.746 399.436 263.746 401.976V403.536H261.356V401.816C261.356 400.666 260.856 400.236 260.056 400.236C259.256 400.236 258.746 400.666 258.746 401.816V410.476C258.746 411.626 259.256 412.036 260.056 412.036C260.856 412.036 261.356 411.626 261.356 410.476V407.526H260.216V405.226Z" fill="#263238"/>
<path d="M267.886 404.886H271.346V407.166H267.886V411.866H272.246V414.166H265.366V398.166H272.246V400.456H267.886V404.886Z" fill="#263238"/>
<path d="M296.376 395.596V416.086H211.516V395.596H296.376ZM299.376 392.596H208.476V419.166H299.416V392.556L299.376 392.596Z" fill="#263238"/>
</g>
<defs>
<clipPath id="clip0_94_8">
<rect width="493" height="453" fill="white"/>
</clipPath>
</defs>
</svg>
