<svg width="238" height="252" viewBox="0 0 238 252" fill="none" xmlns="http://www.w3.org/2000/svg">
<g filter="url(#filter0_d_51_4404)">
<rect x="4" width="230" height="244" rx="32" fill="#99907D"/>
<path d="M204.6 168.285C216.166 144.718 216.945 113.316 208.958 88.142C202.074 66.4694 186.777 49.93 169.106 40.09C148.606 28.6674 124.166 25.2685 102.162 32.4763C96.36 34.3746 90.7389 36.113 85.29 39.229C62.9122 51.98 67.25 83.4598 59.3821 94.4068C52.777 103.615 40.1531 100.901 32.1909 107.957C10.711 127.01 23.1422 176.083 46.176 193.696C72.99 214.205 175.941 226.64 204.6 168.285Z" fill="#932F52"/>
<path opacity="0.8" d="M204.6 168.285C216.166 144.718 216.945 113.316 208.958 88.142C202.074 66.4694 186.777 49.93 169.106 40.09C148.606 28.6674 124.166 25.2685 102.162 32.4763C96.36 34.3746 90.7389 36.113 85.29 39.229C62.9122 51.98 67.25 83.4598 59.3821 94.4068C52.777 103.615 40.1531 100.901 32.1909 107.957C10.711 127.01 23.1422 176.083 46.176 193.696C72.99 214.205 175.941 226.64 204.6 168.285Z" fill="white"/>
<path d="M60.2799 43.5791C57.0519 44.6451 53.8047 45.6824 50.5383 46.691C47.3622 44.8678 44.2107 43.0174 41.0837 41.1396L42.818 29.1225C49.0746 30.0245 55.3408 30.8199 61.6165 31.5087C61.1792 35.5349 60.7337 39.5583 60.2799 43.5791Z" fill="#932F52" stroke="#263238" stroke-width="0.41" stroke-miterlimit="10"/>
<path d="M84.06 45.6783C80.8839 46.881 77.6859 48.0549 74.466 49.2002C71.2052 47.5001 67.9798 45.7835 64.79 44.0506L66.02 31.972C72.3067 32.6116 78.5934 33.1432 84.88 33.5669C84.6067 37.604 84.3334 41.6412 84.06 45.6783Z" stroke="#263238" stroke-width="0.41" stroke-miterlimit="10"/>
<path d="M107.84 46.7812C104.721 48.1151 101.578 49.4216 98.4101 50.7008C95.0891 49.151 91.7954 47.5725 88.5291 45.9653C88.7669 41.9227 89.006 37.8828 89.2466 33.8457C95.5332 34.2174 101.834 34.4839 108.148 34.6452L107.84 46.7812Z" fill="#932F52" stroke="#263238" stroke-width="0.41" stroke-miterlimit="10"/>
<path d="M131.686 46.8796C128.635 48.3419 125.549 49.7796 122.428 51.1928C119.047 49.7824 115.687 48.3433 112.35 46.8755L112.559 34.7354C118.862 34.8474 125.167 34.8474 131.473 34.7354C131.544 38.7862 131.615 42.8342 131.686 46.8796Z" stroke="#263238" stroke-width="0.41" stroke-miterlimit="10"/>
<path d="M155.499 45.9735C152.492 47.5643 149.467 49.1319 146.425 50.6762C142.989 49.4107 139.573 48.1137 136.175 46.7853C136.077 42.74 135.977 38.6946 135.876 34.6493C142.179 34.4935 148.479 34.2297 154.777 33.858L155.499 45.9735Z" fill="#932F52" stroke="#263238" stroke-width="0.41" stroke-miterlimit="10"/>
<path d="M179.266 44.0711C176.336 45.7904 173.379 47.4837 170.394 49.151C166.906 48.0303 163.439 46.8769 159.992 45.6906L159.172 33.5792C165.459 33.1583 171.745 32.6294 178.032 31.9925C178.448 36.0242 178.859 40.0504 179.266 44.0711Z" stroke="#263238" stroke-width="0.41" stroke-miterlimit="10"/>
<path d="M202.96 41.1642C200.098 43.0064 197.21 44.8228 194.297 46.6131C190.76 45.6428 187.243 44.6383 183.747 43.5996C183.307 39.5761 182.867 35.554 182.427 31.5333C188.714 30.8445 194.981 30.0505 201.23 29.1512C201.809 33.1637 202.386 37.168 202.96 41.1642Z" fill="#932F52" stroke="#263238" stroke-width="0.41" stroke-miterlimit="10"/>
<path d="M35.3191 27.9868C92.8279 37.097 151.412 37.097 208.921 27.9868" stroke="#263238" stroke-width="0.41" stroke-miterlimit="10"/>
<path d="M184.92 57.31H48.8V136.85H184.92V57.31Z" fill="white" stroke="#263238" stroke-width="0.41" stroke-miterlimit="10"/>
<path d="M129.697 75.1286V72.7465C129.697 72.193 129.652 71.3853 129.562 70.3152C129.472 69.2451 129.422 68.5276 129.422 68.1586C129.422 67.7896 129.422 67.3386 129.459 66.8343C129.496 66.33 129.496 65.9405 129.496 65.6822C129.444 65.8462 129.235 66.7058 128.869 68.2611C127.923 72.2764 127.247 74.284 126.839 74.284C126.734 74.2892 126.63 74.2726 126.532 74.2351C126.433 74.1977 126.344 74.1404 126.269 74.0667C126.127 73.9057 126.053 73.6951 126.064 73.4804C125.951 72.25 125.719 71.0335 125.372 69.8478C124.904 68.011 124.515 66.6047 124.191 65.6289C123.956 70.0022 123.838 72.9624 123.838 74.5095L123.863 75.0671C123.874 75.2301 123.829 75.392 123.736 75.5263C123.685 75.584 123.622 75.6287 123.55 75.6565C123.479 75.6844 123.402 75.6945 123.326 75.6862C123.166 75.6935 123.008 75.6457 122.879 75.5509C122.827 75.5166 122.784 75.4704 122.755 75.4162C122.725 75.3619 122.708 75.3012 122.707 75.2393C122.707 73.971 122.802 72.0714 122.994 69.5403C123.185 67.0092 123.281 65.1109 123.281 63.8454C123.206 63.7306 123.168 63.5966 123.17 63.46C123.17 63.3894 123.191 63.3205 123.232 63.2625C123.272 63.2046 123.329 63.1605 123.395 63.1361C123.549 63.062 123.717 63.0241 123.887 63.0254C124.161 63.0254 124.688 64.2745 125.47 66.7728C126.252 69.2711 126.738 70.9985 126.93 71.9552C126.983 71.7707 127.098 71.3115 127.27 70.5735C127.442 69.8355 127.627 69.0729 127.819 68.2775C128.012 67.4821 128.229 66.6703 128.455 65.8585C128.98 63.9889 129.422 63.0541 129.783 63.0541C129.949 63.0544 130.111 63.1013 130.251 63.1894C130.318 63.2252 130.374 63.2791 130.412 63.345C130.451 63.4109 130.47 63.4862 130.468 63.5625C130.468 64.4604 130.505 65.8011 130.587 67.5846C130.669 69.3681 130.706 70.6637 130.706 71.4714L130.656 73.4353C130.656 73.5747 130.693 74.0175 130.767 74.7637L130.804 75.1245C130.856 75.255 130.884 75.3939 130.886 75.5345C130.878 75.7067 130.818 75.8725 130.714 76.0101C130.667 76.0887 130.6 76.1536 130.52 76.1982C130.44 76.2429 130.35 76.2656 130.259 76.2643C129.89 76.293 129.697 75.9076 129.697 75.1286Z" fill="#932F52"/>
<path d="M136.13 71.537L136.331 72.6809C136.363 73.055 136.422 73.4263 136.507 73.792C136.596 74.1722 136.655 74.5588 136.683 74.9482C136.698 75.058 136.676 75.1694 136.62 75.2651C136.564 75.3608 136.478 75.4354 136.376 75.4771C136.165 75.4879 135.954 75.4442 135.765 75.35C135.688 75.2949 135.627 75.2202 135.589 75.1337C135.551 75.0471 135.537 74.9519 135.548 74.858C135.521 74.0849 135.429 73.3155 135.273 72.5579L133.436 72.2832C133.314 72.7281 133.226 73.1818 133.174 73.6403C133.135 74.0013 133.076 74.3599 132.997 74.7145C132.891 75.1737 132.686 75.4033 132.391 75.4033C132.242 75.4049 132.097 75.3557 131.981 75.2639C131.923 75.2233 131.876 75.1692 131.844 75.1063C131.812 75.0434 131.795 74.9737 131.796 74.9031L131.841 74.7391C132.652 71.636 133.275 68.487 133.707 65.3091C133.707 65.2271 133.735 64.977 133.76 64.5629C133.822 63.6527 133.936 63.0746 134.104 62.8245H134.732C134.889 62.8204 135.044 62.8617 135.179 62.9434C135.239 62.981 135.288 63.0337 135.322 63.0963C135.356 63.1588 135.373 63.229 135.371 63.3001C135.409 64.7115 135.535 66.1192 135.749 67.5149C135.954 68.847 136.081 70.19 136.13 71.537ZM135.154 71.906C135.111 71.5922 135.093 71.2755 135.101 70.9589C135.101 70.5038 135.076 69.9421 135.023 69.2738C134.97 68.6055 134.9 67.8224 134.801 66.9368C134.703 66.0512 134.637 65.4034 134.601 65.0016C134.038 68.1258 133.674 70.3275 133.51 71.6067C134.033 71.8134 134.592 71.9151 135.154 71.906Z" fill="#932F52"/>
<path d="M138.951 75.022L138.914 73.5911C138.914 73.5911 138.914 73.3738 138.942 72.9556C138.893 72.7971 138.795 71.3949 138.647 68.749C138.5 66.1031 138.419 64.4864 138.405 63.8987H138.332C137.323 63.8987 136.823 63.6978 136.823 63.3452C136.826 63.284 136.846 63.2248 136.881 63.1742C136.916 63.1237 136.964 63.0835 137.02 63.0582C137.144 62.9845 137.285 62.9449 137.43 62.9434L139.959 63.1156H140.259C140.669 63.1156 140.841 63.2673 140.841 63.5625C140.842 63.6348 140.826 63.7063 140.793 63.7707C140.76 63.835 140.712 63.8903 140.652 63.9315C140.528 64.0237 140.377 64.0727 140.222 64.0709L139.369 63.9438L139.332 64.1365C139.332 65.3146 139.434 67.0762 139.639 69.4214C139.844 71.7666 139.948 73.5323 139.951 74.7186C139.949 74.7939 139.93 74.8677 139.895 74.9345C139.86 75.0012 139.811 75.0592 139.75 75.104C139.63 75.2123 139.473 75.2721 139.311 75.2721L138.951 75.022Z" fill="#932F52"/>
<path d="M142.838 64.0996L142.764 68.749C143.099 68.8224 143.442 68.8541 143.785 68.8433H144.457C144.5 68.6455 144.516 68.4426 144.502 68.2406C144.502 67.8962 144.461 67.1336 144.379 65.961C144.297 64.7884 144.256 63.911 144.256 63.3083C144.255 63.2415 144.269 63.1753 144.297 63.1149C144.326 63.0545 144.368 63.0014 144.42 62.9598C144.503 62.8773 144.611 62.8265 144.728 62.8163C144.808 62.8134 144.888 62.823 144.965 62.845C145.034 62.8643 145.101 62.889 145.166 62.9188L145.339 62.9803C145.339 64.5957 145.397 66.9546 145.515 70.0569C145.632 73.1592 145.693 74.7624 145.695 74.8662C145.688 74.9285 145.666 74.9882 145.632 75.0408C145.598 75.0934 145.552 75.1375 145.498 75.1696C145.374 75.2694 145.219 75.323 145.06 75.3213C144.9 75.3213 144.773 75.2024 144.674 74.9646C144.555 74.6269 144.489 74.2729 144.478 73.915C144.445 73.4517 144.424 73.0499 144.412 72.7096C144.412 72.562 144.412 72.398 144.412 72.2094C144.412 71.9552 144.412 71.6641 144.412 71.3361C144.412 70.758 144.412 70.4259 144.412 70.3357V70.2619L144.441 69.7248L144.33 69.5526C144.22 69.5782 144.107 69.5905 143.994 69.5895L142.792 69.4173V71.5575L142.903 74.6202C142.906 74.7873 142.859 74.9514 142.768 75.0917C142.724 75.1594 142.663 75.2141 142.591 75.2502C142.519 75.2862 142.438 75.3023 142.358 75.2967C142.112 75.2967 141.948 75.0712 141.845 74.6161C141.737 74.006 141.689 73.3866 141.702 72.767L141.759 69.9257C141.769 69.6015 141.759 69.2771 141.731 68.954V68.8638C141.78 68.2133 141.804 67.8484 141.804 67.7691L141.677 63.5666C141.676 63.4221 141.73 63.2826 141.829 63.1771C141.876 63.1246 141.933 63.0825 141.998 63.0535C142.062 63.0246 142.132 63.0094 142.202 63.009C142.641 62.9885 142.838 63.3616 142.838 64.0996Z" fill="#932F52"/>
<path d="M150.738 79.4172H120.751C120.642 79.4172 120.538 79.374 120.461 79.2971C120.384 79.2202 120.341 79.1159 120.341 79.0072C120.341 78.8984 120.384 78.7942 120.461 78.7173C120.538 78.6404 120.642 78.5972 120.751 78.5972H150.738C150.847 78.5972 150.951 78.6404 151.028 78.7173C151.105 78.7942 151.148 78.8984 151.148 79.0072C151.148 79.1159 151.105 79.2202 151.028 79.2971C150.951 79.374 150.847 79.4172 150.738 79.4172Z" fill="#932F52"/>
<path d="M120.751 78.0273C120.642 78.0273 120.538 77.9841 120.461 77.9072C120.384 77.8303 120.341 77.726 120.341 77.6173C120.341 77.5085 120.384 77.4043 120.461 77.3274C120.538 77.2505 120.642 77.2073 120.751 77.2073L147.963 76.9326C148.071 76.9326 148.176 76.9758 148.252 77.0527C148.329 77.1296 148.373 77.2338 148.373 77.3426C148.373 77.4513 148.329 77.5556 148.252 77.6325C148.176 77.7094 148.071 77.7526 147.963 77.7526L120.755 78.0273H120.751Z" fill="#932F52"/>
<path d="M118.25 69.4214C118.183 69.4211 118.116 69.4042 118.057 69.3722L114.449 67.4288C114.353 67.3771 114.282 67.2896 114.251 67.1854C114.22 67.0812 114.231 66.9689 114.283 66.8732C114.335 66.7776 114.422 66.7063 114.526 66.6752C114.631 66.644 114.743 66.6555 114.839 66.7072L118.447 68.6506C118.527 68.694 118.591 68.7631 118.627 68.8469C118.664 68.9306 118.672 69.0242 118.649 69.1128C118.627 69.2014 118.575 69.2799 118.503 69.3358C118.43 69.3917 118.341 69.4219 118.25 69.4214Z" fill="#932F52"/>
<path d="M119.64 66.9245C119.566 66.9232 119.494 66.902 119.431 66.863L116.655 65.1984C116.601 65.1761 116.552 65.1424 116.512 65.0996C116.472 65.0568 116.442 65.0059 116.423 64.9504C116.404 64.8948 116.398 64.8359 116.403 64.7776C116.409 64.7193 116.428 64.663 116.457 64.6124C116.487 64.5618 116.527 64.5181 116.575 64.4843C116.623 64.4505 116.677 64.4274 116.735 64.4165C116.793 64.4056 116.852 64.4072 116.909 64.4211C116.966 64.435 117.019 64.461 117.065 64.4973L119.845 66.1619C119.938 66.218 120.005 66.3087 120.031 66.4139C120.057 66.5192 120.04 66.6306 119.984 66.7236C119.949 66.7836 119.898 66.8336 119.838 66.8687C119.778 66.9039 119.71 66.9231 119.64 66.9245Z" fill="#932F52"/>
<path d="M149.07 68.0315C148.993 68.0313 148.918 68.0097 148.853 67.9692C148.789 67.9286 148.736 67.8708 148.703 67.8021C148.669 67.7334 148.655 67.6567 148.663 67.5806C148.67 67.5045 148.699 67.432 148.746 67.3714L151.521 63.7634C151.588 63.6769 151.686 63.6204 151.794 63.6061C151.902 63.5919 152.011 63.6212 152.098 63.6875C152.184 63.7539 152.241 63.8518 152.255 63.9598C152.269 64.0679 152.24 64.1771 152.173 64.2636L149.398 67.8716C149.359 67.9217 149.309 67.9623 149.252 67.99C149.196 68.0178 149.133 68.032 149.07 68.0315Z" fill="#932F52"/>
<path d="M149.627 71.086C149.573 71.0863 149.52 71.076 149.47 71.0556C149.42 71.0352 149.375 71.0051 149.336 70.9671C149.26 70.8903 149.217 70.7864 149.217 70.678C149.217 70.5697 149.26 70.4658 149.336 70.389L153.502 66.2234C153.539 66.1805 153.584 66.1456 153.635 66.121C153.686 66.0964 153.741 66.0826 153.797 66.0804C153.854 66.0782 153.91 66.0877 153.963 66.1083C154.015 66.1289 154.063 66.1602 154.103 66.2002C154.143 66.2401 154.174 66.2879 154.195 66.3405C154.216 66.3931 154.225 66.4494 154.223 66.5059C154.221 66.5624 154.207 66.6178 154.182 66.6686C154.158 66.7195 154.123 66.7647 154.08 66.8015L149.914 70.9671C149.838 71.0428 149.735 71.0855 149.627 71.086Z" fill="#932F52"/>
<path d="M184.92 133.615H48.8V136.85H184.92V133.615Z" fill="#263238" stroke="#263238" stroke-width="0.41" stroke-miterlimit="10"/>
<path d="M121.78 94.374L122.018 87.8427C122.018 87.7649 122.039 87.6885 122.079 87.6215C122.118 87.5545 122.175 87.4992 122.243 87.4614C122.374 87.3728 122.528 87.3231 122.686 87.3179L123.096 87.7279V88.8472C123.096 91.2717 123.078 93.0798 123.043 94.2715L123.785 94.2141C124.297 94.2141 124.552 94.3822 124.552 94.7143C124.552 95.0464 124.211 95.2842 123.522 95.2842C123.248 95.2842 123.112 95.3539 123.112 95.4892C123.112 96.014 123.133 96.7192 123.182 97.654C123.177 98.2066 123.242 98.7576 123.375 99.294C123.344 99.4603 123.327 99.6291 123.326 99.7983C123.32 99.9437 123.36 100.087 123.44 100.208V100.618C123.44 101.205 123.239 101.496 122.834 101.496C122.709 101.497 122.587 101.463 122.481 101.399C122.374 101.334 122.288 101.241 122.231 101.131C122.094 100.907 122.02 100.651 122.018 100.389V100.311C122.108 100.038 122.156 99.7533 122.157 99.4662L121.968 97.1989L121.993 96.1862C121.995 95.9461 121.978 95.7063 121.944 95.4687L120.533 95.5917C120.168 95.5734 119.817 95.4415 119.529 95.2145C119.522 94.9112 119.561 94.6085 119.644 94.3166C119.56 93.8789 119.521 93.4338 119.529 92.9882C119.551 92.1898 119.616 91.3932 119.726 90.602C119.831 89.8187 119.896 89.0304 119.918 88.2404V83.9354C119.91 83.8138 119.941 83.6926 120.009 83.591C120.066 83.5172 120.197 83.4803 120.398 83.4803C120.589 83.4772 120.777 83.533 120.935 83.6402C121.007 83.6822 121.067 83.7419 121.11 83.8137C121.152 83.8855 121.175 83.9669 121.177 84.0502L121.062 85.8624V86.2724C121.061 86.4106 121.078 86.5484 121.112 86.6824V86.7603C121.168 87.2338 121.194 87.7103 121.189 88.1871C121.189 88.7242 121.128 89.6549 121.005 90.971C120.882 92.2871 120.825 93.1604 120.825 93.5786C120.819 93.8743 120.831 94.17 120.861 94.4642C121.17 94.4642 121.477 94.4339 121.78 94.374Z" fill="#932F52"/>
<path d="M131.21 94.7594L131.452 96.629C131.452 96.7183 131.43 96.8062 131.388 96.8849C131.345 96.9636 131.284 97.0306 131.21 97.08C131.041 97.195 130.841 97.2564 130.636 97.2563C130.431 97.2567 130.231 97.1984 130.058 97.0882C129.982 97.0495 129.917 96.991 129.871 96.9189C129.825 96.8468 129.799 96.7637 129.796 96.6782L129.632 94.4109V94.2387L128.201 94.3412C127.471 94.3412 127.106 94.0952 127.106 93.6032C127.108 93.4524 127.163 93.3072 127.262 93.1932C127.312 93.1342 127.375 93.0871 127.446 93.0552C127.517 93.0233 127.594 93.0074 127.672 93.0087L129.193 93.0907C129.391 93.0915 129.588 93.0764 129.783 93.0456L129.632 91.3359C129.632 90.4749 129.91 90.0485 130.452 90.0485C130.54 90.0458 130.628 90.0615 130.71 90.0947C130.792 90.1279 130.866 90.1778 130.927 90.2412C131.047 90.3717 131.112 90.5437 131.108 90.7209V91.0038C131.108 92.3937 131.218 93.0907 131.448 93.0907L132.94 93.0005C133.83 93.0005 134.273 93.2342 134.273 93.7057C134.274 93.7928 134.256 93.8791 134.219 93.958C134.182 94.0369 134.128 94.1063 134.06 94.1608C133.918 94.2843 133.735 94.3502 133.547 94.3453L132.03 94.21C131.501 94.21 131.21 94.3904 131.21 94.7594Z" fill="#932F52"/>
<path d="M137.262 91.0325C137.262 85.6697 138.183 82.9883 140.025 82.9883C140.173 82.9921 140.317 83.0422 140.435 83.1318C140.498 83.1742 140.549 83.2316 140.585 83.2989C140.62 83.3663 140.637 83.4413 140.636 83.5172C140.627 83.6126 140.594 83.7043 140.541 83.7843C140.488 83.8643 140.417 83.9302 140.333 83.9764C140.129 84.1179 139.897 84.2131 139.652 84.2552C139.435 84.4438 139.242 84.985 139.062 85.8706C138.783 87.3158 138.607 88.7791 138.537 90.2494C138.672 90.225 138.809 90.2126 138.947 90.2125C140.641 90.2125 141.638 92.1258 141.936 95.9525C142.005 96.7438 142.038 97.4244 142.038 98.0025C142.038 98.5806 142.038 98.9742 142.014 99.1997C141.992 99.4541 141.944 99.7056 141.87 99.95C141.809 100.194 141.696 100.422 141.538 100.618C141.337 100.827 141.091 100.989 140.82 101.091C140.548 101.193 140.257 101.233 139.968 101.209C138.352 101.118 137.456 98.7951 137.278 94.2387L137.262 91.0325ZM140.152 100.229C140.595 100.229 140.821 99.704 140.821 98.6462C140.811 97.4579 140.735 96.2711 140.591 95.0915C140.29 92.5003 139.787 91.1336 139.082 90.9915C138.876 91.1109 138.716 91.2956 138.627 91.5163C138.549 91.7486 138.513 91.9929 138.52 92.2379C138.52 92.5249 138.52 92.7955 138.52 93.0579C138.52 93.3203 138.52 93.6852 138.545 94.1485C138.57 94.6118 138.582 95.0505 138.615 95.4646C138.648 95.8787 138.689 96.3256 138.742 96.8094C138.783 97.2435 138.85 97.6748 138.943 98.1009C139.025 98.4822 139.123 98.8389 139.23 99.171C139.459 99.8762 139.767 100.225 140.152 100.229Z" fill="#932F52"/>
<path d="M146.38 92.2871L145.4 92.3199C144.367 92.3199 143.85 92.0985 143.85 91.6475C143.848 91.5762 143.861 91.5052 143.889 91.4394C143.916 91.3736 143.958 91.3145 144.01 91.2662C144.125 91.1702 144.271 91.1205 144.42 91.1268H149.037C150.371 91.1268 151.036 91.3318 151.034 91.7418C151.031 92.1518 150.126 92.3568 148.319 92.3568C147.549 92.3568 146.938 92.3322 146.483 92.2871H146.38ZM150.312 94.4642L144.884 94.3494C144.195 94.3494 143.85 94.1813 143.85 93.8369C143.847 93.7655 143.86 93.6942 143.888 93.6283C143.915 93.5624 143.957 93.5034 144.01 93.4556C144.124 93.3585 144.27 93.3073 144.42 93.3121H148.282C150.035 93.3121 150.909 93.5171 150.906 93.9271C150.91 94.0005 150.896 94.0736 150.867 94.1411C150.838 94.2085 150.794 94.2685 150.738 94.3166C150.618 94.4166 150.465 94.469 150.308 94.4642H150.312Z" fill="#932F52"/>
<path d="M156.355 99.6917H155.744C155.575 99.7038 155.405 99.6713 155.252 99.5974C155.199 99.5547 155.157 99.4993 155.131 99.4363C155.104 99.3732 155.094 99.3046 155.101 99.2366C155.101 99.0644 155.134 98.9496 155.199 98.9004C155.354 98.838 155.521 98.8141 155.687 98.8307C155.954 98.8307 156.097 98.7282 156.097 98.5191C156.097 97.3 155.993 95.4865 155.785 93.0784C155.578 90.6703 155.474 88.8937 155.474 87.7484L155.507 87.0678C155.507 86.4856 155.269 86.1945 154.793 86.1945L154.322 86.215C153.936 86.215 153.74 86.0797 153.74 85.805C153.74 85.477 154.293 85.3171 155.38 85.3171C155.954 85.3171 156.302 85.4196 156.429 85.6246C156.355 85.9294 156.315 86.2416 156.31 86.5553C156.333 87.0771 156.385 87.5972 156.466 88.1133C156.566 88.8265 156.618 89.5456 156.622 90.2658C156.622 90.9464 156.696 92.2625 156.839 94.2223C156.983 96.1821 157.06 97.6499 157.06 98.6339V98.7487C157.384 98.7159 157.635 98.6954 157.815 98.6954C158.393 98.6954 158.684 98.8512 158.684 99.1587C158.684 99.4662 157.909 99.6917 156.355 99.6917Z" fill="#932F52"/>
<path d="M159.451 88.5192C159.451 86.9995 159.745 86.0428 160.332 85.6492C160.589 85.4858 160.889 85.4029 161.193 85.4114C163.159 85.4114 164.141 88.567 164.141 94.8783C164.141 97.9916 163.406 99.5482 161.935 99.5482C160.842 99.5482 160.111 98.0312 159.742 94.9972C159.517 92.8455 159.419 90.6824 159.451 88.5192ZM160.513 90.6266L160.722 92.4429C160.703 94.0682 160.854 95.6911 161.173 97.285C161.386 98.2362 161.706 98.7118 162.124 98.7118C162.325 98.7118 162.501 98.5273 162.657 98.1583C162.833 97.7281 162.947 97.2754 162.997 96.8135C163.113 96.0532 163.178 95.2863 163.194 94.5175C163.194 93.9708 163.182 93.446 163.157 92.9431C163.133 92.4402 163.1 91.8457 163.059 91.1596C163.016 90.5271 162.938 89.8975 162.825 89.2736C162.725 88.7203 162.595 88.1728 162.436 87.6336C162.108 86.5184 161.616 85.9198 160.964 85.8337C160.791 85.9589 160.651 86.1233 160.554 86.3134C160.475 86.5158 160.439 86.732 160.447 86.9489L160.513 90.6266Z" fill="#932F52"/>
<path d="M123.658 125.128H123.289C122.501 125.128 122.108 124.944 122.108 124.575C122.106 124.506 122.124 124.438 122.161 124.38C122.197 124.321 122.25 124.275 122.313 124.247C122.465 124.169 122.634 124.131 122.805 124.136C122.992 124.135 123.175 124.191 123.33 124.296C123.674 124.189 123.945 123.832 124.15 123.226C124.327 122.744 124.428 122.238 124.449 121.725C124.449 121.315 124.449 121.02 124.449 120.807C124.449 120.593 124.449 120.319 124.424 119.987C124.4 119.655 124.387 119.372 124.355 119.167C124.322 118.962 124.281 118.699 124.223 118.412C124.179 118.172 124.111 117.937 124.018 117.711C123.929 117.511 123.825 117.318 123.707 117.133C123.598 116.957 123.459 116.802 123.297 116.674C122.921 116.41 122.473 116.267 122.014 116.264C121.878 116.282 121.74 116.256 121.62 116.19C121.501 116.123 121.406 116.02 121.349 115.895C121.259 115.657 121.216 115.403 121.222 115.149L121.337 114.156C121.272 112.778 121.096 111.407 120.812 110.056L121.181 109.712H122.94C123.539 109.712 123.834 109.876 123.834 110.208V110.315L123.424 110.61H122.887V110.553H121.968C122.004 111.373 122.141 112.92 122.378 115.194C122.411 115.194 122.551 115.214 122.788 115.231L123.305 115.288C123.592 115.322 123.87 115.41 124.125 115.546C124.549 115.897 124.839 116.384 124.945 116.924C125.3 118.122 125.477 119.365 125.47 120.614C125.498 121.299 125.463 121.985 125.367 122.664C125.298 122.913 125.216 123.158 125.121 123.398C125.051 123.618 124.944 123.824 124.806 124.009C124.485 124.441 124.098 124.819 123.658 125.128Z" fill="#932F52"/>
<path d="M130.365 119.503L130.566 121.069C130.566 121.147 130.546 121.223 130.508 121.29C130.47 121.358 130.415 121.414 130.349 121.454C130.21 121.552 130.043 121.603 129.873 121.602C129.701 121.604 129.531 121.556 129.385 121.463C129.32 121.429 129.265 121.378 129.226 121.315C129.187 121.252 129.165 121.18 129.164 121.106L129.029 119.208V119.064L127.827 119.15C127.217 119.15 126.913 118.941 126.913 118.527C126.911 118.397 126.958 118.271 127.044 118.174C127.088 118.124 127.142 118.084 127.203 118.058C127.264 118.031 127.331 118.019 127.397 118.023L128.672 118.088C128.837 118.09 129.001 118.077 129.164 118.051L129.041 116.616C129.041 115.899 129.271 115.538 129.734 115.538C129.81 115.533 129.887 115.545 129.958 115.573C130.029 115.601 130.093 115.646 130.144 115.702C130.196 115.757 130.237 115.821 130.264 115.891C130.29 115.962 130.303 116.037 130.3 116.112V116.35C130.3 117.514 130.394 118.097 130.583 118.097L131.837 118.019C132.579 118.019 132.952 118.22 132.952 118.613C132.954 118.686 132.939 118.759 132.907 118.825C132.876 118.891 132.83 118.949 132.772 118.994C132.658 119.092 132.512 119.146 132.362 119.146L131.087 119.044C130.595 119.035 130.365 119.191 130.365 119.503Z" fill="#932F52"/>
<path d="M138.897 124.743L135.617 124.927C135.422 124.931 135.23 124.874 135.068 124.763C134.994 124.719 134.932 124.656 134.89 124.58C134.847 124.505 134.825 124.419 134.826 124.333V124.259C135.159 123.882 135.417 123.445 135.585 122.971C135.79 122.444 135.926 122.095 135.995 121.926C136.74 120.473 137.354 118.955 137.827 117.391C138.24 115.941 138.443 114.439 138.43 112.931C138.43 111.336 138.086 110.507 137.397 110.471C137.159 110.585 136.987 110.881 136.913 111.405C136.839 111.93 136.614 112.123 136.269 112.123C135.925 112.123 135.753 111.922 135.753 111.52C135.741 111.234 135.789 110.949 135.895 110.683C136 110.416 136.16 110.175 136.364 109.974C136.465 109.871 136.587 109.789 136.72 109.734C136.854 109.678 136.998 109.65 137.143 109.651C137.446 109.621 137.753 109.663 138.037 109.773C138.322 109.882 138.577 110.057 138.783 110.282C138.992 110.529 139.151 110.814 139.25 111.122C139.316 111.373 139.365 111.569 139.389 111.713C139.414 111.856 139.43 112.049 139.447 112.279C139.467 112.623 139.476 113.123 139.476 113.779C139.448 114.644 139.321 115.502 139.098 116.338C138.892 117.246 138.618 118.139 138.278 119.007C137.983 119.737 137.606 120.614 137.159 121.635C136.712 122.656 136.384 123.447 136.187 123.984C137.031 123.855 137.884 123.789 138.738 123.787C139.041 123.984 139.193 124.16 139.193 124.316C139.179 124.405 139.145 124.489 139.094 124.563C139.043 124.637 138.976 124.698 138.897 124.743Z" fill="#932F52"/>
<path d="M142.796 117.428L141.976 117.457C141.115 117.457 140.681 117.272 140.681 116.895C140.678 116.836 140.688 116.776 140.711 116.721C140.734 116.666 140.768 116.616 140.812 116.575C140.91 116.492 141.036 116.449 141.165 116.457H145.031C146.15 116.457 146.708 116.629 146.708 116.973C146.708 117.318 145.949 117.486 144.432 117.486C143.919 117.493 143.406 117.473 142.895 117.428H142.796ZM146.076 119.253L141.525 119.158C140.947 119.158 140.66 119.015 140.66 118.748C140.658 118.689 140.668 118.629 140.691 118.574C140.713 118.519 140.748 118.469 140.792 118.429C140.89 118.347 141.016 118.304 141.144 118.31H144.379C145.847 118.31 146.581 118.482 146.581 118.826C146.583 118.888 146.571 118.949 146.546 119.005C146.521 119.061 146.484 119.11 146.437 119.15C146.338 119.224 146.216 119.26 146.093 119.253H146.076Z" fill="#932F52"/>
<path d="M198.45 119.085L198.753 162.68H201.148V143.279H203.805V162.68H206.297V143.279H208.815V162.68H211.041V143.291H213.091V162.68H215.481V140.889C215.481 140.889 217.343 133.455 214.44 129.47C211.537 125.485 205.945 124.96 205.945 124.96L204.912 117.99L202.312 81.623L204.69 76.5677C204.69 76.5677 210.935 75.3787 210.639 74.1897C210.344 73.0007 205.863 73.3 205.863 73.3L206.683 70.7949C206.683 70.7949 207.872 70.7949 207.872 69.7371C207.872 68.6793 206.42 68.2816 206.023 68.8105C205.625 69.3394 206.023 70.1307 206.023 70.1307L203.862 72.5415L204.305 69.6059C204.305 69.6059 205.363 68.9417 204.965 68.2816C204.567 67.6215 202.985 67.8716 202.985 68.6916V69.4829L201.09 72.4226C201.09 72.4226 193.28 68.0192 191.082 72.4226C188.212 78.1626 198.118 81.6435 198.118 81.6435L198.45 119.085Z" stroke="#263238" stroke-width="0.41" stroke-miterlimit="10"/>
<path d="M204.358 125.227C204.358 125.227 200.644 129.474 201.706 131.069C202.767 132.664 206.749 131.598 206.749 130.274C206.749 128.949 205.687 125.493 204.358 125.227Z" stroke="#263238" stroke-width="0.41" stroke-miterlimit="10"/>
<path d="M212.853 134.8C212.853 134.8 208.077 131.352 208.077 134.271C208.077 137.19 210.467 139.847 211.529 139.314C212.591 138.781 214.44 137.707 212.853 134.8Z" stroke="#263238" stroke-width="0.41" stroke-miterlimit="10"/>
<path d="M204.358 134.8C204.358 134.8 201.968 136.928 202.767 138.252C203.567 139.577 206.482 141.971 206.482 139.847C206.482 137.723 205.953 134.521 204.358 134.8Z" stroke="#263238" stroke-width="0.41" stroke-miterlimit="10"/>
<path d="M190.98 82.8694H195.469" stroke="#263238" stroke-width="0.41" stroke-miterlimit="10"/>
<path d="M190.98 84.7554H193.756" stroke="#263238" stroke-width="0.41" stroke-miterlimit="10"/>
<path d="M190.98 86.3749H195.469" stroke="#263238" stroke-width="0.41" stroke-miterlimit="10"/>
<path d="M190.98 88.2609H193.756" stroke="#263238" stroke-width="0.41" stroke-miterlimit="10"/>
<path d="M190.98 89.8763H195.469" stroke="#263238" stroke-width="0.41" stroke-miterlimit="10"/>
<path d="M190.98 91.7623H193.756" stroke="#263238" stroke-width="0.41" stroke-miterlimit="10"/>
<path d="M190.98 93.3818H195.469" stroke="#263238" stroke-width="0.41" stroke-miterlimit="10"/>
<path d="M190.98 95.2678H193.756" stroke="#263238" stroke-width="0.41" stroke-miterlimit="10"/>
<path d="M190.98 96.8832H195.469" stroke="#263238" stroke-width="0.41" stroke-miterlimit="10"/>
<path d="M190.98 98.7692H193.756" stroke="#263238" stroke-width="0.41" stroke-miterlimit="10"/>
<path d="M190.98 100.389H195.469" stroke="#263238" stroke-width="0.41" stroke-miterlimit="10"/>
<path d="M190.98 102.275H193.756" stroke="#263238" stroke-width="0.41" stroke-miterlimit="10"/>
<path d="M190.98 103.89H195.469" stroke="#263238" stroke-width="0.41" stroke-miterlimit="10"/>
<path d="M190.98 105.776H193.756" stroke="#263238" stroke-width="0.41" stroke-miterlimit="10"/>
<path d="M190.98 107.396H195.469" stroke="#263238" stroke-width="0.41" stroke-miterlimit="10"/>
<path d="M190.98 109.282H193.756" stroke="#263238" stroke-width="0.41" stroke-miterlimit="10"/>
<path d="M190.98 110.897H195.469" stroke="#263238" stroke-width="0.41" stroke-miterlimit="10"/>
<path d="M190.98 112.787H193.756" stroke="#263238" stroke-width="0.41" stroke-miterlimit="10"/>
<path d="M190.98 114.402H195.469" stroke="#263238" stroke-width="0.41" stroke-miterlimit="10"/>
<path d="M190.98 116.289H193.756" stroke="#263238" stroke-width="0.41" stroke-miterlimit="10"/>
<path d="M190.98 117.904H195.469" stroke="#263238" stroke-width="0.41" stroke-miterlimit="10"/>
<path d="M190.98 119.794H193.756" stroke="#263238" stroke-width="0.41" stroke-miterlimit="10"/>
<path d="M190.98 121.409H195.469" stroke="#263238" stroke-width="0.41" stroke-miterlimit="10"/>
<path d="M190.98 123.295H193.756" stroke="#263238" stroke-width="0.41" stroke-miterlimit="10"/>
<path d="M190.98 124.874H195.469" stroke="#263238" stroke-width="0.41" stroke-miterlimit="10"/>
<path d="M190.98 126.76H193.756" stroke="#263238" stroke-width="0.41" stroke-miterlimit="10"/>
<path d="M190.98 128.375H195.469" stroke="#263238" stroke-width="0.41" stroke-miterlimit="10"/>
<path d="M190.98 130.261H193.756" stroke="#263238" stroke-width="0.41" stroke-miterlimit="10"/>
<path d="M190.98 131.881H195.469" stroke="#263238" stroke-width="0.41" stroke-miterlimit="10"/>
<path d="M190.98 133.767H193.756" stroke="#263238" stroke-width="0.41" stroke-miterlimit="10"/>
<path d="M190.98 135.382H195.469" stroke="#263238" stroke-width="0.41" stroke-miterlimit="10"/>
<path d="M190.98 137.272H193.756" stroke="#263238" stroke-width="0.41" stroke-miterlimit="10"/>
<path d="M190.98 138.888H195.469" stroke="#263238" stroke-width="0.41" stroke-miterlimit="10"/>
<path d="M190.98 140.774H193.756" stroke="#263238" stroke-width="0.41" stroke-miterlimit="10"/>
<path d="M190.98 142.393H195.469" stroke="#263238" stroke-width="0.41" stroke-miterlimit="10"/>
<path d="M190.98 144.279H193.756" stroke="#263238" stroke-width="0.41" stroke-miterlimit="10"/>
<path d="M190.98 145.895H195.469" stroke="#263238" stroke-width="0.41" stroke-miterlimit="10"/>
<path d="M190.98 147.781H193.756" stroke="#263238" stroke-width="0.41" stroke-miterlimit="10"/>
<path d="M190.98 149.4H195.469" stroke="#263238" stroke-width="0.41" stroke-miterlimit="10"/>
<path d="M190.98 151.286H193.756" stroke="#263238" stroke-width="0.41" stroke-miterlimit="10"/>
<path d="M190.98 152.902H195.469" stroke="#263238" stroke-width="0.41" stroke-miterlimit="10"/>
<path d="M190.98 154.788H193.756" stroke="#263238" stroke-width="0.41" stroke-miterlimit="10"/>
<path d="M190.98 156.407H195.469" stroke="#263238" stroke-width="0.41" stroke-miterlimit="10"/>
<path d="M190.98 158.293H193.756" stroke="#263238" stroke-width="0.41" stroke-miterlimit="10"/>
<path d="M190.98 159.908H195.469" stroke="#263238" stroke-width="0.41" stroke-miterlimit="10"/>
<path d="M190.98 161.794H193.756" stroke="#263238" stroke-width="0.41" stroke-miterlimit="10"/>
<path d="M202.64 74.6612C202.64 75.0287 202.531 75.388 202.327 75.6935C202.123 75.999 201.832 76.2371 201.493 76.3775C201.153 76.518 200.779 76.5545 200.419 76.4825C200.059 76.4105 199.728 76.2332 199.468 75.9731C199.209 75.7129 199.032 75.3816 198.961 75.021C198.89 74.6605 198.927 74.2869 199.068 73.9476C199.209 73.6083 199.448 73.3185 199.754 73.1149C200.06 72.9113 200.419 72.8031 200.787 72.8039C201.031 72.8039 201.272 72.852 201.497 72.9454C201.722 73.0387 201.927 73.1756 202.099 73.3481C202.271 73.5207 202.407 73.7254 202.5 73.9508C202.593 74.1761 202.641 74.4175 202.64 74.6612Z" stroke="#263238" stroke-width="0.41" stroke-miterlimit="10"/>
<path d="M200.852 76.3791C201.536 76.3791 202.091 75.8247 202.091 75.1409C202.091 74.4571 201.536 73.9027 200.852 73.9027C200.169 73.9027 199.614 74.4571 199.614 75.1409C199.614 75.8247 200.169 76.3791 200.852 76.3791Z" fill="#263238"/>
<path d="M196.318 80.7743C196.318 80.7743 199.274 79.8149 200.028 78.1667L201.127 78.5767" stroke="#263238" stroke-width="0.41" stroke-miterlimit="10"/>
<path d="M202.505 84.78C202.505 84.78 200.865 88.0805 199.754 88.4905C198.643 88.9005 198.114 90.5405 199.344 91.7705C200.122 92.5428 200.975 93.2363 201.89 93.841L203.235 94.7676L202.505 84.78Z" stroke="#263238" stroke-width="0.41" stroke-miterlimit="10"/>
<path d="M198.274 97.8672C198.274 97.8672 199.069 96.8504 199.754 99.0521C200.438 101.254 199.479 103.447 200.717 104.411C201.955 105.374 202.505 107.023 201.402 108.121C200.299 109.22 198.429 109.7 198.429 109.7L198.274 97.8672Z" stroke="#263238" stroke-width="0.41" stroke-miterlimit="10"/>
<path d="M195.769 70.6063C195.769 70.6063 197.282 75.8297 192.337 78.0273" stroke="#263238" stroke-width="0.41" stroke-miterlimit="10"/>
<path d="M193.637 73.4681C193.637 73.5662 193.608 73.6622 193.553 73.7437C193.499 73.8253 193.421 73.8889 193.33 73.9265C193.24 73.964 193.14 73.9738 193.044 73.9547C192.948 73.9355 192.859 73.8883 192.79 73.8189C192.72 73.7495 192.673 73.6611 192.654 73.5649C192.635 73.4687 192.645 73.3689 192.682 73.2783C192.72 73.1876 192.783 73.1101 192.865 73.0556C192.947 73.0011 193.043 72.972 193.141 72.972C193.272 72.9731 193.397 73.0257 193.49 73.1185C193.583 73.2113 193.636 73.3369 193.637 73.4681Z" stroke="#263238" stroke-width="0.41" stroke-miterlimit="10"/>
<path d="M204.165 107.683C204.165 107.683 202.78 110.729 201.681 112.106C200.582 113.484 200.303 114.439 201.541 115.128C202.564 115.654 203.62 116.112 204.703 116.502L204.165 107.683Z" stroke="#263238" stroke-width="0.41" stroke-miterlimit="10"/>
<path d="M216.904 64.3702H188.417V164.685H216.904V64.3702Z" stroke="#263238" stroke-width="0.41" stroke-miterlimit="10"/>
<path d="M44.2893 59.7732L24.1267 60.7946L25.4792 87.4924L45.6417 86.471L44.2893 59.7732Z" stroke="#263238" stroke-width="0.41" stroke-miterlimit="10"/>
<path d="M35.877 73.5788C35.877 73.5788 32.843 68.5235 30.3174 69.8683C27.7918 71.2131 28.8004 73.0704 30.8217 73.915L32.843 74.7555C32.843 74.7555 29.6409 73.915 28.8004 76.6087C27.9599 79.3024 29.809 80.147 31.1579 80.2987C32.5068 80.4504 34.6962 78.7858 34.6962 78.7858C34.6962 78.7858 31.6622 81.4795 34.5281 82.9965C37.394 84.5135 40.0877 82.8284 40.2681 80.9752C40.3658 79.8934 40.1881 78.8045 39.7515 77.81C40.4939 77.7094 41.1861 77.3783 41.7304 76.8634C42.2748 76.3485 42.6438 75.6757 42.7855 74.94C43.4579 72.2463 42.2812 71.0655 40.2558 71.0655C38.2304 71.0655 35.877 73.5788 35.877 73.5788Z" stroke="#932F52" stroke-width="0.41" stroke-miterlimit="10"/>
<path d="M38.2343 76.7768C38.2343 77.1766 38.1157 77.5674 37.8936 77.8998C37.6715 78.2322 37.3558 78.4912 36.9865 78.6442C36.6171 78.7972 36.2107 78.8372 35.8186 78.7593C35.4265 78.6813 35.0664 78.4887 34.7837 78.2061C34.501 77.9234 34.3085 77.5632 34.2305 77.1711C34.1525 76.779 34.1925 76.3726 34.3455 76.0033C34.4985 75.6339 34.7576 75.3182 35.09 75.0961C35.4224 74.874 35.8132 74.7555 36.213 74.7555C36.7487 74.7566 37.2622 74.9699 37.641 75.3487C38.0199 75.7275 38.2332 76.241 38.2343 76.7768Z" stroke="#932F52" stroke-width="0.41" stroke-miterlimit="10"/>
<path d="M26.2295 64.5096L42.5762 63.6814" stroke="#263238" stroke-width="0.41" stroke-miterlimit="10"/>
<path d="M26.4099 68.052L42.7566 67.2238" stroke="#263238" stroke-width="0.41" stroke-miterlimit="10"/>
<path d="M46.081 93.5627L25.9658 91.8453L23.6918 118.48L43.807 120.198L46.081 93.5627Z" stroke="#263238" stroke-width="0.41" stroke-miterlimit="10"/>
<path d="M27.5457 95.8131L43.8514 97.203" stroke="#263238" stroke-width="0.41" stroke-miterlimit="10"/>
<path d="M27.2422 99.3473L43.552 100.737" stroke="#263238" stroke-width="0.41" stroke-miterlimit="10"/>
<path d="M26.9429 102.877L43.2486 104.271" stroke="#263238" stroke-width="0.41" stroke-miterlimit="10"/>
<path d="M26.6396 106.412L42.9494 107.806" stroke="#263238" stroke-width="0.41" stroke-miterlimit="10"/>
<path d="M26.3403 109.946L42.646 111.34" stroke="#263238" stroke-width="0.41" stroke-miterlimit="10"/>
<path d="M26.0369 113.48L42.3467 114.87" stroke="#263238" stroke-width="0.41" stroke-miterlimit="10"/>
<path d="M36.9141 184.094V140.122" stroke="#932F52" stroke-width="0.41" stroke-linecap="round" stroke-linejoin="round"/>
<path d="M36.586 180.125C36.586 180.125 34.2695 176.821 31.2929 175.169C28.3163 173.516 23.3594 173.529 23.3594 173.529C23.3594 173.529 26.0039 183.102 36.586 180.125Z" fill="#932F52"/>
<path d="M36.9099 180.125C36.9099 180.125 39.2264 176.821 42.1989 175.169C45.1714 173.516 50.1365 173.529 50.1365 173.529C50.1365 173.529 47.492 183.102 36.9099 180.125Z" fill="#932F52"/>
<path d="M36.586 168.223C36.586 168.223 34.2695 164.919 31.2929 163.266C28.3163 161.614 23.3594 161.626 23.3594 161.626C23.3594 161.626 26.0039 171.2 36.586 168.223Z" fill="#932F52"/>
<path d="M36.9099 168.223C36.9099 168.223 39.2264 164.919 42.1989 163.266C45.1714 161.614 50.1365 161.626 50.1365 161.626C50.1365 161.626 47.492 171.2 36.9099 168.223Z" fill="#932F52"/>
<path d="M36.586 156.321C36.586 156.321 34.2695 153.016 31.2929 151.364C28.3163 149.712 23.3594 149.724 23.3594 149.724C23.3594 149.724 26.0039 159.297 36.586 156.321Z" fill="#932F52"/>
<path d="M36.9099 156.321C36.9099 156.321 39.2264 153.016 42.1989 151.364C45.1714 149.712 50.1365 149.724 50.1365 149.724C50.1365 149.724 47.492 159.297 36.9099 156.321Z" fill="#932F52"/>
<path d="M36.586 144.423C36.586 144.423 34.2695 141.114 31.2929 139.462C28.3163 137.809 23.3594 137.822 23.3594 137.822C23.3594 137.822 26.0039 147.395 36.586 144.423Z" fill="#932F52"/>
<path d="M36.9099 144.423C36.9099 144.423 39.2264 141.114 42.1989 139.462C45.1714 137.809 50.1365 137.822 50.1365 137.822C50.1365 137.822 47.492 147.395 36.9099 144.423Z" fill="#932F52"/>
<path d="M36.91 140.13C36.91 140.13 34.2655 136.571 34.1302 133.16C33.9949 129.749 36.2335 125.333 36.2335 125.333C36.2335 125.333 44.3433 132.024 36.91 140.13Z" fill="#932F52"/>
<path d="M31.5801 182.987H41.7153L39.1815 210.716H34.1139L31.5801 182.987Z" fill="#263238" stroke="#263238" stroke-width="0.41" stroke-miterlimit="10"/>
<path d="M165.052 179.576C164.864 182.138 164.864 184.71 165.052 187.272C165.367 191.511 165.498 200.224 165.298 202.503C165.097 204.783 164.191 209.584 164.728 210.224C165.265 210.863 167.909 210.974 168.992 210.564C170.074 210.154 170.718 210.461 170.685 209.658C170.652 208.854 170.021 203.34 169.972 202.097C169.922 200.855 171.981 193.733 173.12 189.293C174.26 184.853 173.625 180.039 173.444 179.166C173.264 178.293 172.887 178.088 172.887 178.088C172.887 178.088 168.569 179.654 165.052 179.576Z" fill="white" stroke="#263238" stroke-width="0.41" stroke-miterlimit="10"/>
<path d="M168.93 211.097C169.959 211.097 170.734 210.461 170.701 209.658C170.681 209.153 170.406 205.853 170.217 204.328C169.643 204.864 168.917 205.21 168.139 205.32C167.07 205.535 165.96 205.327 165.043 204.738C164.732 207.05 163.994 209.965 164.387 210.433C164.928 211.06 167.774 211.117 168.93 211.097Z" fill="#263238" stroke="#263238" stroke-width="0.41" stroke-miterlimit="10"/>
<path d="M168.93 211.097C169.959 211.097 170.734 210.461 170.701 209.658C170.703 209.64 170.703 209.622 170.701 209.605C168.241 210.117 165.486 209.605 164.309 209.354C164.226 209.714 164.255 210.09 164.391 210.433C164.928 211.06 167.774 211.117 168.93 211.097Z" fill="white" stroke="#263238" stroke-width="0.41" stroke-miterlimit="10"/>
<path d="M154.055 177.723C154.055 177.723 153.67 185.127 155.06 189.035C156.45 192.942 157.93 202.598 157.557 203.569C157.183 204.541 156.63 207.575 156.22 207.727C155.81 207.878 154.338 208.489 154.359 209.035C154.379 209.58 156.204 210.736 157.577 210.818C158.951 210.9 160.607 211.38 161.767 209.555C162.655 208.157 163.068 206.509 162.944 204.857C162.895 203.627 162.009 202.024 161.98 201.343C161.952 200.662 163.514 191.843 163.489 187.875C163.465 183.906 162.034 178.908 162.034 178.908L154.055 177.723Z" fill="white" stroke="#263238" stroke-width="0.41" stroke-miterlimit="10"/>
<path d="M159.422 202.265C158.488 202.93 157.725 203.807 157.196 204.824C156.872 206.054 156.507 207.62 156.22 207.727C155.81 207.883 154.531 207.55 154.359 209.035C154.109 211.195 156.204 210.736 157.577 210.818C158.951 210.9 160.607 211.38 161.767 209.555C162.655 208.157 163.068 206.509 162.944 204.857C162.907 203.938 162.403 202.807 162.124 202.011C162.058 201.921 161.193 201.023 159.422 202.265Z" fill="#263238" stroke="#263238" stroke-width="0.41" stroke-miterlimit="10"/>
<path d="M157.577 210.818C158.947 210.9 160.607 211.38 161.767 209.555C162.655 208.157 163.068 206.509 162.944 204.857C162.899 204.321 162.78 203.794 162.592 203.29C162.193 203.249 161.791 203.267 161.398 203.344C160.291 203.565 159.291 204.119 158.295 206.111C157.298 208.104 157.631 209.658 156.191 209.768C154.752 209.879 154.359 209.035 154.359 209.035C154.109 211.195 156.22 210.736 157.577 210.818Z" fill="white" stroke="#263238" stroke-width="0.41" stroke-miterlimit="10"/>
<path d="M162.78 205.32C162.78 205.32 162.202 203.733 160.426 205.049C158.651 206.366 158.741 208.78 158.118 209.687C157.805 210.122 157.39 210.474 156.909 210.712C157.125 210.769 157.346 210.806 157.569 210.822C158.938 210.904 160.599 211.384 161.759 209.559C162.579 208.28 162.992 206.782 162.944 205.263L162.78 205.32Z" fill="white" stroke="#263238" stroke-width="0.41" stroke-miterlimit="10"/>
<path d="M151.353 158.137L146.577 175.427C146.577 175.427 156.417 182.007 167.315 180.884C178.212 179.761 185.687 171.798 185.687 171.798L178.655 156.899C178.655 156.899 175.211 159.638 166.04 159.461C156.868 159.285 151.353 158.137 151.353 158.137Z" fill="#263238" stroke="#263238" stroke-width="0.41" stroke-miterlimit="10"/>
<path d="M152.214 152.356L150.619 160.355C150.619 160.355 154.17 163.635 162.636 163.291C171.103 162.946 179.389 158.104 179.389 158.104L176.745 150.138C176.745 150.138 162.05 155.517 152.214 152.356Z" fill="white" stroke="#263238" stroke-width="0.41" stroke-miterlimit="10"/>
<path d="M167.446 157.026C172.919 156.104 176.138 154.845 177.974 153.849L176.744 150.159C176.744 150.159 162.05 155.538 152.214 152.377L151.624 155.345C153.641 156.317 159.16 158.424 167.446 157.026Z" fill="#263238" stroke="#263238" stroke-width="0.41" stroke-miterlimit="10"/>
<path d="M152.333 128.687C152.333 128.687 149.463 137.641 145.384 144.058C142.931 147.928 140.115 151.555 136.975 154.89C136.975 154.89 134.031 155.12 132.875 154.48C131.718 153.84 130.759 155.591 130.443 156.169C130.128 156.747 129.508 158.367 129.976 158.691C130.443 159.015 131.993 160.769 132.415 159.958C132.838 159.146 131.677 158.621 131.677 158.621C131.677 158.621 135.462 159.531 137.13 158.514C144.022 154.332 147.827 150.003 149.43 147.777C151.033 145.55 152.637 143.062 152.637 143.062C152.637 143.062 151.595 149.958 151.193 151.335C150.792 152.713 150.48 153.66 150.48 153.66C150.48 153.66 156.552 157.621 167.163 155.829C177.774 154.037 179.93 150.995 179.93 150.995C179.93 150.995 176.65 143.057 175.703 139.228C174.756 135.399 174.28 132.123 174.28 132.123C174.28 132.123 173.952 123.951 174.424 121.545C174.895 119.138 177.191 114.046 177.126 112.455C177.06 110.864 167.987 100.094 167.987 100.094C167.987 100.094 168.885 96.9857 168.852 96.0796C168.819 95.1735 167.745 94.0788 167.027 93.2096C166.31 92.3404 165.494 91.7951 164.703 91.9386C163.912 92.0821 163.547 91.4179 163.014 92.3486C162.481 93.2793 161.968 94.5503 161.333 95.7106C160.697 96.8709 162.534 97.3506 163.022 98.146C163.51 98.9414 165.314 101.463 165.482 102.365C165.65 103.267 169.992 118.326 169.992 118.326L152.333 128.687Z" fill="white" stroke="#263238" stroke-width="0.41" stroke-miterlimit="10"/>
<path d="M179.947 150.991C179.947 150.991 176.667 143.053 175.72 139.224C174.772 135.394 174.297 132.119 174.297 132.119C174.297 132.119 173.969 123.947 174.44 121.541C174.912 119.134 177.208 114.042 177.142 112.451C177.105 111.569 174.272 107.83 171.771 104.694C169.895 105.253 168.232 106.366 166.999 107.888C168.311 112.504 169.988 118.31 169.988 118.31L152.333 128.687C152.333 128.687 149.463 137.641 145.384 144.058C144.334 145.718 143.264 147.243 142.255 148.596C142.639 149.786 143.385 150.827 144.387 151.573C144.76 151.844 145.097 152.081 145.404 152.291C146.883 150.914 148.232 149.404 149.434 147.781C151.05 145.558 152.641 143.066 152.641 143.066C152.641 143.066 151.599 149.962 151.197 151.339C150.796 152.717 150.48 153.66 150.48 153.66C150.48 153.66 156.552 157.621 167.163 155.829C177.774 154.037 179.947 150.991 179.947 150.991Z" fill="#932F52" stroke="#263238" stroke-width="0.41" stroke-miterlimit="10"/>
<path d="M163.383 92.7381L164.203 95.8459C164.231 95.9499 164.281 96.0468 164.349 96.1302C164.417 96.2135 164.503 96.2815 164.599 96.3295C164.696 96.3775 164.801 96.4046 164.909 96.4089C165.016 96.4131 165.124 96.3945 165.224 96.3543C165.323 96.3162 165.413 96.258 165.488 96.1832C165.563 96.1084 165.622 96.0188 165.66 95.92C165.699 95.8212 165.717 95.7155 165.712 95.6095C165.707 95.5036 165.681 95.3998 165.634 95.3047L164.154 92.3691C164.154 92.3691 163.354 92.0575 163.383 92.7381Z" fill="white" stroke="#263238" stroke-width="0.41" stroke-miterlimit="10"/>
<path d="M158.176 101.623C158.176 101.623 155.63 100.475 152.481 104.124C149.332 107.773 149.074 112.672 150.209 115.469C151.345 118.265 150.845 122.849 149.533 124.136C148.221 125.423 145.712 128.043 147.36 129.466C149.008 130.889 151.489 130.323 151.489 130.323C151.489 130.323 148.5 135.103 152.719 138.113C156.937 141.122 158.799 136.85 158.799 136.85C158.799 136.85 161.435 145.837 167.138 143.447C172.841 141.057 170.209 135.026 170.209 135.026C170.209 135.026 174.809 136.44 175.9 132.853C176.991 129.265 175.351 127.646 175.351 127.646C175.351 127.646 178.971 127.158 178.134 123.324C177.298 119.491 174.297 118.363 172.755 116.834C171.214 115.305 169.475 114.013 168.135 109.405C166.794 104.796 165.65 103.82 165.65 103.82C165.65 103.82 167.778 103.054 166.704 101.734C165.629 100.413 161.087 97.6376 158.176 101.623Z" fill="#263238" stroke="#263238" stroke-width="0.41" stroke-miterlimit="10"/>
<path d="M78.6727 172.758C78.6727 172.758 76.8318 176.768 77.2664 181.216C77.701 185.665 78.3488 198.354 78.3488 201.175C78.3488 203.996 77.8076 207.034 77.8076 208.116C77.8633 209.068 78.0088 210.013 78.2422 210.937H92.8833C92.8833 210.937 93.5352 209.744 93.5352 209.297C93.5352 208.85 92.4487 207.563 91.6902 207.247C90.9317 206.931 87.5697 205.197 86.7005 203.996C85.8313 202.794 85.2901 202.04 85.2901 200.634C85.2901 199.227 89.5213 185.665 89.632 180.347C89.7427 175.029 90.042 171.454 90.042 171.454L78.6727 172.758Z" fill="white" stroke="#263238" stroke-width="0.41" stroke-miterlimit="10"/>
<path d="M91.69 207.247C90.9315 206.923 87.5695 205.197 86.7003 203.996C85.9623 202.979 85.4703 202.274 85.3309 201.212C84.9778 201.077 84.5896 201.064 84.2283 201.175C83.8671 201.287 83.5537 201.516 83.3383 201.827C82.8721 202.455 82.4383 203.106 82.0386 203.778L78.2953 202.819C78.16 205.099 77.8074 207.243 77.8074 208.116C77.8631 209.068 78.0086 210.013 78.242 210.937H92.8831C92.8831 210.937 93.535 209.744 93.535 209.297C93.535 208.85 92.4485 207.575 91.69 207.247Z" fill="#932F52" stroke="#263238" stroke-width="0.41" stroke-miterlimit="10"/>
<path d="M77.9714 209.637C78.0944 210.342 78.242 210.937 78.242 210.937H92.8831C93.1112 210.519 93.3072 210.085 93.4694 209.637H77.9714Z" fill="white" stroke="#263238" stroke-width="0.41" stroke-miterlimit="10"/>
<path d="M63.8144 168.633C64.1984 169.972 64.3455 171.368 64.249 172.758C64.1383 175.361 62.5147 179.806 63.8144 184.906C65.1141 190.006 67.5044 196.944 68.3695 200.851C69.2346 204.758 68.1522 207.034 68.2629 208.768C68.3736 210.502 69.128 210.937 69.128 210.937H79.6527C79.8658 210.686 80.016 210.387 80.0908 210.067C80.1657 209.746 80.1631 209.412 80.0832 209.092C79.7593 208.116 77.4797 206.165 76.6146 204.102C75.7495 202.04 74.7696 199.441 74.7696 196.837C74.7696 194.234 75.6388 182.409 75.6388 178.723V172.212L63.8144 168.633Z" fill="white" stroke="#263238" stroke-width="0.41" stroke-miterlimit="10"/>
<path d="M80.0829 209.092C79.759 208.116 77.4794 206.165 76.6143 204.102C76.1379 203.003 75.7272 201.876 75.3843 200.728C74.5589 200.596 73.7147 200.795 73.035 201.282C70.5381 202.922 70.7554 203.885 70.7554 203.885L68.7054 203.221C68.8284 205.738 68.1929 207.419 68.2954 208.768C68.402 210.502 69.1605 210.937 69.1605 210.937H79.6852C79.8927 210.683 80.0369 210.383 80.106 210.062C80.1752 209.742 80.1672 209.409 80.0829 209.092Z" fill="#932F52" stroke="#263238" stroke-width="0.41" stroke-miterlimit="10"/>
<path d="M68.3899 209.637C68.6359 210.654 69.1279 210.937 69.1279 210.937H79.6526C79.9545 210.568 80.1337 210.113 80.1651 209.637H68.3899Z" fill="white" stroke="#263238" stroke-width="0.41" stroke-miterlimit="10"/>
<path d="M62.3302 120.86C62.3302 120.86 58.4352 128.24 58.0252 137.055C57.6152 145.87 60.6902 169.445 60.6902 169.445C60.6902 169.445 69.0952 173.955 77.9102 173.955C83.3648 173.917 88.7728 172.946 93.9002 171.085C93.9002 171.085 97.1802 144.64 97.1802 136.03C97.2069 130.944 95.937 125.934 93.4902 121.475C93.4902 121.475 75.2452 122.295 62.3302 120.86Z" fill="#263238" stroke="#263238" stroke-width="0.41" stroke-miterlimit="10"/>
<path d="M76.4054 82.32L70.6654 87.24L69.1648 121.405C69.1648 121.405 76.2701 124.685 83.6501 124.55C91.0301 124.415 93.7648 122.5 93.7648 122.5C93.7648 122.5 91.4401 92.2953 91.4401 91.4753C91.4401 90.6553 87.8854 84.78 87.8854 84.78C87.8854 84.78 81.4648 79.5853 76.4054 82.32Z" fill="white" stroke="#263238" stroke-width="0.41" stroke-miterlimit="10"/>
<path d="M91.8788 86.7808C91.8788 86.7808 95.745 88.1625 96.565 91.6475C97.385 95.1325 104.663 111.43 104.868 113.583C105.073 115.735 105.483 116.35 104.15 117.478C102.818 118.605 98.41 117.785 97.385 116.555C96.36 115.325 95.4375 114.813 95.0275 111.84C94.6175 108.868 92.7725 90.0075 92.7725 90.0075C92.7725 90.0075 90.9563 86.6783 91.8788 86.7808Z" fill="#932F52" stroke="#263238" stroke-width="0.41" stroke-miterlimit="10"/>
<path d="M77.6024 71.865C77.6024 71.865 77.2949 78.015 77.2949 80.475C77.2949 82.935 75.3474 83.4475 73.9124 84.0625C72.4774 84.6775 73.1949 90.11 75.6549 93.6975C78.1149 97.285 82.4199 99.13 85.8024 97.3875C89.1849 95.645 88.4674 89.5975 87.8524 87.65C87.2374 85.7025 86.5199 84.575 86.5199 83.2425C86.582 82.194 86.789 81.1592 87.1349 80.1675L77.6024 71.865Z" fill="white" stroke="#263238" stroke-width="0.41" stroke-miterlimit="10"/>
<path d="M86.5201 83.2425C86.5822 82.194 86.7891 81.1592 87.1351 80.1675L77.6026 71.865C77.6026 71.865 77.537 73.1729 77.4673 74.8211C78.8408 78.1011 81.7559 83.3122 86.6349 84.1732C86.5597 83.8686 86.5211 83.5562 86.5201 83.2425Z" fill="#263238" stroke="#263238" stroke-width="0.41" stroke-miterlimit="10"/>
<path d="M96.237 65.7478C96.237 65.7478 95.6302 70.6022 95.2858 72.8572C94.9462 75.2137 94.0878 77.4654 92.7725 79.45C91.2145 81.9633 89.308 82.6562 87.4876 82.484C85.6672 82.3118 82.8054 80.1429 81.5057 78.671C80.206 77.1991 77.5205 73.4722 77.5205 72.2586C77.5205 71.045 77.6927 67.4042 79.1605 65.3255C80.6283 63.2468 86.5405 62.2054 88.9513 61.5986C91.3621 60.9918 96.237 65.7478 96.237 65.7478Z" fill="white" stroke="#263238" stroke-width="0.41" stroke-miterlimit="10"/>
<path d="M90.8947 76.375C90.8947 76.375 88.7053 77.4 86.1797 75.2803" stroke="#263238" stroke-width="0.41" stroke-miterlimit="10"/>
<path d="M86.9629 68.4087C86.9629 68.4087 88.853 67.4985 90.6529 67.9987" stroke="#263238" stroke-width="0.41" stroke-miterlimit="10"/>
<path d="M93.8999 67.9905C93.8999 67.9905 94.7199 67.5805 95.5809 68.4784" stroke="#263238" stroke-width="0.41" stroke-miterlimit="10"/>
<path d="M84.8801 68.954L85.1999 71.5903C85.231 71.8436 85.3536 72.0768 85.5446 72.246C85.7357 72.4152 85.982 72.5086 86.2372 72.5087H89.4803C89.6838 72.5084 89.8829 72.449 90.0532 72.3376C90.2236 72.2262 90.3578 72.0677 90.4397 71.8814L91.6369 69.1303L84.8801 68.954Z" stroke="#263238" stroke-width="0.82" stroke-miterlimit="10"/>
<path d="M93.4656 69.0442L93.7854 71.6764C93.8172 71.9293 93.9401 72.162 94.131 72.331C94.3219 72.5001 94.5677 72.5938 94.8227 72.5948L96.4053 72.5292C96.609 72.5299 96.8085 72.4709 96.979 72.3594C97.1496 72.2479 97.2837 72.0888 97.3647 71.9019L98.566 69.1508L93.4656 69.0442Z" stroke="#263238" stroke-width="0.82" stroke-miterlimit="10"/>
<path d="M91.645 69.1303L93.4654 69.0442" stroke="#263238" stroke-width="0.82" stroke-miterlimit="10"/>
<path d="M84.8883 68.954L78.2791 69.3189" stroke="#263238" stroke-width="0.82" stroke-miterlimit="10"/>
<path d="M89.1688 71.701C89.4587 71.701 89.6936 71.2623 89.6936 70.7211C89.6936 70.1799 89.4587 69.7412 89.1688 69.7412C88.879 69.7412 88.644 70.1799 88.644 70.7211C88.644 71.2623 88.879 71.701 89.1688 71.701Z" fill="#263238"/>
<path d="M94.8758 70.6514C94.8758 71.1516 94.6708 71.5616 94.4207 71.5616C94.1706 71.5616 93.9656 71.1516 93.9656 70.6514C93.9656 70.1512 94.1706 69.7412 94.4207 69.7412C94.6708 69.7412 94.8758 70.1471 94.8758 70.6514Z" fill="#263238"/>
<path d="M93.0554 69.8683C92.9278 70.5506 92.8865 71.2462 92.9324 71.9388C93.0554 72.6727 94.2731 73.0376 94.0312 73.8904C93.7893 74.7432 92.6905 75.4771 91.2268 74.6202" stroke="#263238" stroke-width="0.41" stroke-miterlimit="10"/>
<path d="M78.9924 70.0815C80.5441 69.4987 82.0514 68.804 83.5024 68.0028C84.9071 67.2242 86.2418 66.3257 87.4917 65.3173C87.4917 65.3173 84.8062 67.3099 87.6639 67.3099C90.5216 67.3099 99.1029 66.2685 101.096 62.9762C103.088 59.6839 93.9861 54.1366 87.9181 52.923C81.8501 51.7094 74.9211 55.3502 73.2729 60.549C71.6247 65.7478 72.7563 72.849 74.1421 74.6735C75.5279 76.498 78.7341 75.2803 78.7341 75.2803C78.7341 75.2803 77.9551 75.1081 77.9551 73.0294C77.9551 70.9507 78.9924 70.0815 78.9924 70.0815Z" fill="#263238" stroke="#263238" stroke-width="0.41" stroke-miterlimit="10"/>
<path d="M80.12 71.5575C80.12 71.5575 79.2549 68.6096 77.6067 68.3513C75.9585 68.093 75.4419 71.3812 76.9999 73.1155C78.5579 74.8498 79.8699 73.8084 79.8699 73.8084" fill="white"/>
<path d="M80.12 71.5575C80.12 71.5575 79.2549 68.6096 77.6067 68.3513C75.9585 68.093 75.4419 71.3812 76.9999 73.1155C78.5579 74.8498 79.8699 73.8084 79.8699 73.8084" stroke="#263238" stroke-width="0.41" stroke-miterlimit="10"/>
<path d="M77.295 80.475C77.295 80.475 79.14 100.668 79.8575 111.123C80.575 121.578 78.2175 136.235 78.2175 136.235C78.2175 136.235 71.965 136.133 66.43 134.39C63.0342 133.305 59.8208 131.715 56.8975 129.675L62.4325 114.71L63.4575 88.3675C63.4575 88.3675 68.3775 86.5225 70.12 85.7025C71.8625 84.8825 75.86 82.115 77.295 80.475Z" fill="#932F52" stroke="#263238" stroke-width="0.41" stroke-miterlimit="10"/>
<path d="M79.9846 114.173C79.9641 113.127 79.9231 112.123 79.8575 111.123C79.14 100.668 77.295 80.475 77.295 80.475C76.3566 81.4504 75.3254 82.332 74.2159 83.1072C73.8551 85.518 73.1704 90.8193 73.3959 95.03C73.7034 100.668 77.3934 108.253 78.6234 111.02C79.1974 112.299 79.6525 113.378 79.9846 114.173Z" fill="#932F52" stroke="#263238" stroke-width="0.41" stroke-miterlimit="10"/>
<path d="M86.52 83.2425C86.52 83.2425 87.34 97.285 87.75 106.612C88.16 115.94 88.2625 135.107 88.2625 135.107C88.2625 135.107 89.8 134.8 93.285 132.237C96.77 129.675 99.3325 127.317 99.3325 127.317L96.6675 118.195C96.6675 118.195 97.0529 106.457 96.6183 103.308C96.1058 99.6179 94.6175 89.29 93.3875 87.9575C92.1575 86.625 86.52 83.2425 86.52 83.2425Z" fill="#932F52" stroke="#263238" stroke-width="0.41" stroke-miterlimit="10"/>
<path d="M90.21 95.3375C90.21 88.47 88.8775 84.78 88.8775 84.78L88.9062 84.7226C87.5942 83.9026 86.52 83.2425 86.52 83.2425C86.52 83.2425 87.34 97.285 87.75 106.612C87.8156 108.129 87.8771 109.913 87.9263 111.828C88.324 110.081 90.21 101.483 90.21 95.3375Z" fill="#932F52" stroke="#263238" stroke-width="0.41" stroke-miterlimit="10"/>
<path d="M98.0779 114.821C98.0779 114.821 86.8275 124.931 85.085 125.751C83.3371 126.488 81.5161 127.038 79.6525 127.391C78.935 127.494 76.885 128.519 76.065 129.339C75.245 130.159 73.81 131.799 73.9125 132.414C74.015 133.029 74.9375 132.721 75.3475 132.311C75.7575 131.901 76.1675 131.286 76.475 131.184C76.7825 131.081 77.8075 130.774 77.8075 130.774C77.8075 130.774 74.015 133.644 73.81 134.566C73.605 135.489 76.885 135.899 77.705 135.899C78.525 135.899 81.4975 134.669 82.01 133.951C82.9686 132.667 83.9951 131.436 85.085 130.261C85.905 129.441 94.2075 126.981 97.0775 125.649C99.9475 124.316 105.663 119.433 105.765 117.588C105.781 116.221 105.411 114.877 104.699 113.71" fill="#932F52"/>
<path d="M98.0779 114.821C98.0779 114.821 86.8275 124.931 85.085 125.751C83.3371 126.488 81.5161 127.038 79.6525 127.391C78.935 127.494 76.885 128.519 76.065 129.339C75.245 130.159 73.81 131.799 73.9125 132.414C74.015 133.029 74.9375 132.721 75.3475 132.311C75.7575 131.901 76.1675 131.286 76.475 131.184C76.7825 131.081 77.8075 130.774 77.8075 130.774C77.8075 130.774 74.015 133.644 73.81 134.566C73.605 135.489 76.885 135.899 77.705 135.899C78.525 135.899 81.4975 134.669 82.01 133.951C82.9686 132.667 83.9951 131.436 85.085 130.261C85.905 129.441 94.2075 126.981 97.0775 125.649C99.9475 124.316 105.663 119.433 105.765 117.588C105.781 116.221 105.411 114.877 104.699 113.71" stroke="#263238" stroke-width="0.41" stroke-miterlimit="10"/>
<path d="M79.6525 127.391C78.935 127.494 76.885 128.519 76.065 129.339C75.245 130.159 73.81 131.799 73.9125 132.414C74.015 133.029 74.9375 132.721 75.3475 132.311C75.7575 131.901 76.1675 131.286 76.475 131.184C76.7825 131.081 77.8075 130.774 77.8075 130.774C77.8075 130.774 74.015 133.644 73.81 134.566C73.605 135.489 76.885 135.899 77.705 135.899C78.525 135.899 81.4975 134.669 82.01 133.951C82.9686 132.667 83.9951 131.436 85.085 130.261C85.7574 129.585 91.4769 127.801 95.089 126.452C94.1583 123.172 92.3461 122.045 90.9357 121.668C88.365 123.582 85.8517 125.39 85.085 125.768C83.3365 126.499 81.5155 127.043 79.6525 127.391Z" fill="white" stroke="#263238" stroke-width="0.41" stroke-miterlimit="10"/>
<path d="M74.3923 135.099C74.3923 135.099 75.8027 134.279 76.9466 133.619C77.7292 133.144 78.4711 132.605 79.1647 132.008" stroke="#263238" stroke-width="0.41" stroke-miterlimit="10"/>
<path d="M75.938 135.571C75.938 135.571 77.7543 134.698 78.6932 134.226C79.2946 133.908 79.8391 133.492 80.3045 132.996" stroke="#263238" stroke-width="0.41" stroke-miterlimit="10"/>
<path d="M78.0208 135.706C79.1882 135.239 80.2422 134.527 81.1121 133.619" stroke="#263238" stroke-width="0.41" stroke-miterlimit="10"/>
<path d="M65.8603 87.4204C65.8603 87.4204 62.4778 88.0354 61.6578 88.9579C60.8378 89.8804 54.5607 120.639 54.8477 120.938C58.3368 124.513 80.2677 128.933 80.2677 128.933C80.2677 128.933 81.7027 130.88 82.3177 131.495C82.9327 132.11 84.8802 134.058 85.5977 133.75C86.2533 133.405 86.8716 132.993 87.4427 132.52C88.0135 132.387 88.5647 132.18 89.0827 131.905C89.4927 131.598 90.2102 130.573 89.9027 130.06C89.5952 129.548 88.2627 127.19 87.2377 126.678C86.2127 126.165 81.9077 124.73 81.9077 124.73L65.971 116.071C65.7773 115.967 65.6227 115.803 65.5303 115.603C65.4379 115.403 65.4127 115.179 65.4585 114.964L67.8078 96.957" fill="#932F52"/>
<path d="M65.8603 87.4204C65.8603 87.4204 62.4778 88.0354 61.6578 88.9579C60.8378 89.8804 54.5607 120.639 54.8477 120.938C58.3368 124.513 80.2677 128.933 80.2677 128.933C80.2677 128.933 81.7027 130.88 82.3177 131.495C82.9327 132.11 84.8802 134.058 85.5977 133.75C86.2533 133.405 86.8716 132.993 87.4427 132.52C88.0135 132.387 88.5647 132.18 89.0827 131.905C89.4927 131.598 90.2102 130.573 89.9027 130.06C89.5952 129.548 88.2627 127.19 87.2377 126.678C86.2127 126.165 81.9077 124.73 81.9077 124.73L65.971 116.071C65.7773 115.967 65.6227 115.803 65.5303 115.603C65.4379 115.403 65.4127 115.179 65.4585 114.964L67.8078 96.957" stroke="#263238" stroke-width="0.41" stroke-miterlimit="10"/>
<path d="M89.0824 131.901C89.4924 131.594 90.2099 130.569 89.9024 130.056C89.5949 129.544 88.2624 127.186 87.2374 126.674C86.2124 126.161 81.9074 124.726 81.9074 124.726L70.616 118.576C69.5459 119.778 67.5902 122.885 67.7173 125.895C71.8436 127.125 76.033 128.132 80.2674 128.912C80.2674 128.912 81.7024 130.86 82.3174 131.475C82.9324 132.09 84.8799 134.037 85.5974 133.73C86.2531 133.384 86.8713 132.972 87.4424 132.5C88.0125 132.371 88.5637 132.17 89.0824 131.901Z" fill="white" stroke="#263238" stroke-width="0.41" stroke-miterlimit="10"/>
<path d="M210.323 210.937H214.44" stroke="#263238" stroke-width="0.41" stroke-miterlimit="10"/>
<path d="M24.5896 210.937H203.022" stroke="#263238" stroke-width="0.41" stroke-miterlimit="10"/>
</g>
<defs>
<filter id="filter0_d_51_4404" x="0" y="0" width="238" height="252" filterUnits="userSpaceOnUse" color-interpolation-filters="sRGB">
<feFlood flood-opacity="0" result="BackgroundImageFix"/>
<feColorMatrix in="SourceAlpha" type="matrix" values="0 0 0 0 0 0 0 0 0 0 0 0 0 0 0 0 0 0 127 0" result="hardAlpha"/>
<feOffset dy="4"/>
<feGaussianBlur stdDeviation="2"/>
<feComposite in2="hardAlpha" operator="out"/>
<feColorMatrix type="matrix" values="0 0 0 0 0 0 0 0 0 0 0 0 0 0 0 0 0 0 0.25 0"/>
<feBlend mode="normal" in2="BackgroundImageFix" result="effect1_dropShadow_51_4404"/>
<feBlend mode="normal" in="SourceGraphic" in2="effect1_dropShadow_51_4404" result="shape"/>
</filter>
</defs>
</svg>
