<svg width="238" height="252" viewBox="0 0 238 252" fill="none" xmlns="http://www.w3.org/2000/svg">
<g filter="url(#filter0_d_51_4391)">
<rect x="4" width="230" height="244" rx="32" fill="#99907D"/>
<path d="M52.4133 201.38C89.6925 220.44 150.13 220.444 187.41 201.38C224.689 182.316 224.689 151.4 187.41 132.357C150.13 113.314 89.6925 113.298 52.4133 132.357C15.1341 151.417 15.1341 182.333 52.4133 201.38Z" fill="#F5F5F5"/>
<path d="M76.3827 180.325L56.2563 168.784L82.7751 153.87L76.5045 180.535" fill="#E0E0E0"/>
<path d="M188.153 173.261C199.166 173.261 208.095 168.408 208.095 162.421C208.095 156.434 199.166 151.581 188.153 151.581C177.14 151.581 168.211 156.434 168.211 162.421C168.211 168.408 177.14 173.261 188.153 173.261Z" fill="#E0E0E0"/>
<path d="M113.8 169.985L131.722 180.334C132.39 180.672 133.128 180.847 133.876 180.847C134.625 180.847 135.363 180.672 136.031 180.334L172.151 159.485C173.34 158.796 173.34 157.683 172.151 156.999L154.23 146.65C153.562 146.312 152.823 146.136 152.075 146.136C151.326 146.136 150.588 146.312 149.92 146.65L113.8 167.499C112.608 168.2 112.608 169.3 113.8 169.985Z" fill="#E0E0E0"/>
<path d="M46.9783 162.072C46.7137 158.809 45.2185 153.445 41.4217 148.338C37.3603 142.878 32.4043 139.459 28.7251 141.055C25.2979 142.546 26.5957 147.276 32.5051 151.946C36.6421 155.218 40.9345 159.481 43.2445 164.626L46.9867 171.174L46.9783 162.072Z" fill="#B0BEC5"/>
<g opacity="0.1">
<path d="M46.9783 162.072C46.7137 158.809 45.2185 153.445 41.4217 148.338C37.3603 142.878 32.4043 139.459 28.7251 141.055C25.2979 142.546 26.5957 147.276 32.5051 151.946C36.6421 155.218 40.9345 159.481 43.2445 164.626L46.9867 171.174L46.9783 162.072Z" fill="black"/>
</g>
<path d="M46.6466 164.563C46.5985 164.563 46.5517 164.548 46.5125 164.52C46.4734 164.492 46.4439 164.453 46.4282 164.407C43.1396 155.356 36.2936 146.196 30.5018 143.101C30.4742 143.086 30.4497 143.067 30.4297 143.043C30.4097 143.019 30.3946 142.992 30.3853 142.962C30.3759 142.932 30.3725 142.901 30.3752 142.87C30.3779 142.839 30.3866 142.809 30.401 142.782C30.4153 142.754 30.4349 142.729 30.4587 142.709C30.4825 142.69 30.51 142.674 30.5397 142.665C30.5693 142.656 30.6005 142.652 30.6315 142.655C30.6625 142.658 30.6926 142.666 30.7202 142.681C36.6002 145.827 43.5428 155.092 46.865 164.244C46.8852 164.301 46.8821 164.364 46.8561 164.419C46.8302 164.474 46.7835 164.517 46.7264 164.538C46.7019 164.552 46.6747 164.56 46.6466 164.563Z" fill="white"/>
<path d="M46.6465 173.24C44.7465 174.734 42.4869 175.702 40.0945 176.046C35.9659 176.692 34.1599 174.718 34.1599 174.718C34.1599 174.718 35.7853 170.846 38.1331 169.758C35.5958 170.326 33.173 171.32 30.9679 172.698C30.9679 172.698 28.4479 172.736 27.4441 168.889C27.4441 168.889 28.9351 166.575 33.9457 165.323C33.9457 165.323 30.9007 164.554 26.5075 165.676C26.1757 165.806 24.7729 160.833 24.3487 158.536C23.9245 156.238 24.8443 156.264 26.6335 155.785C28.4227 155.306 34.5127 155.008 35.6341 155.995C36.7555 156.982 37.3141 160.342 37.3141 160.342C37.3141 160.342 38.3851 158.439 38.1289 156.738C39.3773 156.382 40.7045 156.414 41.9341 156.831C43.9459 157.528 43.8157 158.511 43.8157 159.972C43.8244 161.445 43.6221 162.912 43.2151 164.328C43.2151 164.328 44.6053 163.126 44.6515 158.7C44.6515 158.7 47.3689 161.022 48.4609 163.021C49.5529 165.021 49.2799 170.25 46.6465 173.24Z" fill="#B0BEC5"/>
<path d="M46.6466 173.463C46.6028 173.463 46.5599 173.451 46.5227 173.428C46.4855 173.405 46.4556 173.372 46.4366 173.332C43.106 166.411 30.7202 158.372 26.2766 157.507C26.2161 157.495 26.1629 157.459 26.1283 157.408C26.0938 157.357 26.0806 157.294 26.0918 157.234C26.0978 157.204 26.1096 157.176 26.1266 157.15C26.1436 157.125 26.1654 157.104 26.1907 157.087C26.2161 157.07 26.2445 157.058 26.2744 157.053C26.3043 157.047 26.335 157.047 26.3648 157.053C30.884 157.931 43.4714 166.1 46.8566 173.131C46.8827 173.187 46.8859 173.25 46.8655 173.308C46.845 173.367 46.8026 173.414 46.7474 173.442C46.7159 173.456 46.6813 173.464 46.6466 173.463Z" fill="white"/>
<path d="M45.7898 99.824V175.222L116.152 134.596V66.5474L68.0876 94.2758L66.2816 87.9674L45.7898 99.824Z" fill="#37474F"/>
<path d="M45.7898 175.222L49.3976 109.014L119.76 68.3912L116.152 134.596L45.7898 175.222Z" fill="#F0F0F0"/>
<path d="M45.7898 175.222L52.1612 110.857L122.524 70.235L116.152 134.596L45.7898 175.222Z" fill="#455A64"/>
<path d="M76.2483 180.619C76.0509 180.619 76.0215 180.393 76.0215 180.258V83.3894C76.0364 83.1374 76.1099 82.8923 76.236 82.6736C76.3621 82.4549 76.5374 82.2686 76.7481 82.1294L144.729 42.9098C144.806 42.86 144.894 42.831 144.985 42.8258C145.179 42.8258 145.208 43.0526 145.208 43.187V140.06C145.193 140.312 145.12 140.557 144.994 140.776C144.867 140.995 144.692 141.181 144.481 141.32L76.5045 180.535C76.4274 180.584 76.3393 180.613 76.2483 180.619Z" fill="#FAFAFA"/>
<path d="M144.952 43.0778C144.958 43.114 144.958 43.1509 144.952 43.187V140.06C144.934 140.268 144.871 140.47 144.767 140.651C144.662 140.831 144.519 140.987 144.347 141.106L76.3825 180.325C76.35 180.345 76.3146 180.359 76.2775 180.367C76.2742 180.331 76.2742 180.295 76.2775 180.258V83.3894C76.2936 83.1814 76.3558 82.9796 76.4597 82.7987C76.5636 82.6178 76.7066 82.4623 76.8781 82.3436L144.851 43.1198C144.882 43.1012 144.916 43.0871 144.952 43.0778ZM144.985 42.5822C144.851 42.5855 144.721 42.6246 144.607 42.6956L76.6261 81.9194C76.3805 82.0813 76.1765 82.2987 76.0306 82.5541C75.8846 82.8095 75.8009 83.0956 75.7861 83.3894V180.258C75.7861 180.64 75.9751 180.863 76.2565 180.863C76.3901 180.858 76.5202 180.819 76.6345 180.75L144.62 141.526C144.865 141.363 145.068 141.145 145.214 140.89C145.36 140.635 145.444 140.349 145.46 140.056V43.187C145.46 42.8006 145.267 42.5822 144.99 42.5822H144.985Z" fill="#E6E6E6"/>
<path d="M81.7502 85.859L101.658 74.3636V97.3502L81.7502 108.846V85.859Z" fill="#B0BEC5"/>
<path d="M98.672 80.1092V87.0056L98.0462 87.3542V85.2542C98.0462 84.0866 97.097 83.6918 95.9252 84.368L87.5 89.24C86.3282 89.9162 85.3748 91.4114 85.3748 92.5748V94.6748L84.7532 95.0486V88.1564L98.672 80.1092Z" fill="#FAFAFA"/>
<path d="M94.8331 97.6862C93.8083 98.2784 92.9809 97.6568 92.9809 96.3044V85.2416L90.4399 86.636V97.7828C90.4399 99.1352 89.5999 100.723 88.5877 101.298L86.7397 102.365V103.1L96.6937 97.3502V96.6194L94.8331 97.6862Z" fill="#FAFAFA"/>
<path d="M105.64 73.217C105.64 73.8512 106.211 74.057 106.9 73.637L138.198 55.577C138.539 55.3807 138.83 55.1085 139.049 54.7814C139.267 54.4543 139.407 54.0813 139.458 53.6912C139.458 53.057 138.887 52.8722 138.198 53.2712L106.9 71.3312C106.558 71.5267 106.267 71.7988 106.048 72.126C105.83 72.4532 105.69 72.8267 105.64 73.217Z" fill="#E0E0E0"/>
<path d="M105.64 80.1092C105.64 80.7476 106.211 80.9492 106.9 80.5292L138.198 62.4692C138.539 62.2729 138.83 62.0006 139.049 61.6736C139.267 61.3465 139.407 60.9734 139.458 60.5834C139.458 59.9492 138.887 59.7434 138.198 60.1634L106.9 78.2234C106.558 78.4189 106.267 78.691 106.048 79.0182C105.83 79.3454 105.69 79.7188 105.64 80.1092Z" fill="#E0E0E0"/>
<path d="M105.64 87.0056C105.64 87.644 106.211 87.8456 106.9 87.4256L138.198 69.3656C138.539 69.1693 138.83 68.8971 139.049 68.57C139.267 68.2429 139.407 67.8699 139.458 67.4798C139.458 66.8456 138.887 66.6398 138.198 67.0598L106.9 85.1198C106.558 85.3153 106.267 85.5874 106.048 85.9146C105.83 86.2418 105.69 86.6153 105.64 87.0056Z" fill="#E0E0E0"/>
<path d="M105.64 93.902C105.64 94.5362 106.211 94.742 106.9 94.322L138.198 76.262C138.539 76.0657 138.83 75.7935 139.049 75.4664C139.267 75.1393 139.407 74.7663 139.458 74.3762C139.458 73.742 138.887 73.5572 138.198 73.9562L106.9 92.0162C106.558 92.2117 106.267 92.4838 106.048 92.811C105.83 93.1382 105.69 93.5117 105.64 93.902Z" fill="#E0E0E0"/>
<path d="M81.7502 114.595C81.7502 115.23 82.3214 115.414 83.0102 115.015L138.198 83.1794C138.539 82.9831 138.83 82.7108 139.049 82.3837C139.267 82.0567 139.407 81.6836 139.458 81.2936C139.458 80.6594 138.887 80.4746 138.198 80.8736L83.0102 112.714C82.6699 112.91 82.3792 113.181 82.1607 113.508C81.9422 113.834 81.8017 114.206 81.7502 114.595Z" fill="#E0E0E0"/>
<path d="M81.7502 121.492C81.7502 122.126 82.3214 122.332 83.0102 121.912L138.211 90.08C138.552 89.8837 138.843 89.6115 139.061 89.2844C139.28 88.9573 139.42 88.5842 139.471 88.1942C139.471 87.56 138.9 87.3752 138.211 87.7742L83.0228 119.606C82.6796 119.801 82.3861 120.072 82.1653 120.4C81.9446 120.727 81.8025 121.101 81.7502 121.492Z" fill="#E0E0E0"/>
<path d="M81.7502 128.388C81.7502 129.022 82.3214 129.228 83.0102 128.808L138.198 96.9722C138.539 96.7759 138.83 96.5036 139.049 96.1766C139.267 95.8495 139.407 95.4764 139.458 95.0864C139.458 94.4522 138.887 94.2464 138.198 94.6664L83.0102 126.507C82.6699 126.702 82.3792 126.974 82.1607 127.3C81.9422 127.627 81.8017 127.999 81.7502 128.388Z" fill="#E0E0E0"/>
<path d="M81.7502 135.28C81.7502 135.915 82.3214 136.12 83.0102 135.7L138.198 103.86C138.539 103.665 138.83 103.394 139.049 103.067C139.268 102.741 139.408 102.368 139.458 101.979C139.458 101.34 138.887 101.139 138.198 101.559L83.0102 133.399C82.6693 133.594 82.3781 133.865 82.1595 134.192C81.9409 134.518 81.8008 134.891 81.7502 135.28Z" fill="#E0E0E0"/>
<path d="M81.7502 142.16C81.7502 142.794 82.3214 142.979 83.0102 142.58L138.198 110.74C138.539 110.544 138.83 110.271 139.049 109.944C139.267 109.617 139.407 109.244 139.458 108.854C139.458 108.22 138.887 108.035 138.198 108.434L83.0102 140.27C82.6688 140.467 82.3775 140.74 82.1589 141.067C81.9404 141.395 81.8005 141.769 81.7502 142.16Z" fill="#E0E0E0"/>
<path d="M81.7502 149.073C81.7502 149.707 82.3214 149.913 83.0102 149.493L138.198 117.657C138.539 117.461 138.83 117.189 139.049 116.862C139.267 116.534 139.407 116.161 139.458 115.771C139.458 115.137 138.887 114.931 138.198 115.351L83.0228 147.2C82.6812 147.394 82.3886 147.663 82.1679 147.988C81.9473 148.313 81.8043 148.684 81.7502 149.073Z" fill="#E0E0E0"/>
<path d="M81.7502 155.965C81.7502 156.6 82.3214 156.805 83.0102 156.385L138.198 124.545C138.539 124.35 138.83 124.079 139.049 123.752C139.268 123.426 139.408 123.053 139.458 122.664C139.458 122.025 138.887 121.824 138.198 122.244L83.0102 154.084C82.6693 154.279 82.3781 154.55 82.1595 154.877C81.9409 155.203 81.8008 155.576 81.7502 155.965Z" fill="#E0E0E0"/>
<path d="M81.7502 162.862C81.7502 163.496 82.3214 163.681 83.0102 163.282L138.198 131.442C138.539 131.245 138.83 130.973 139.049 130.646C139.267 130.319 139.407 129.946 139.458 129.556C139.458 128.922 138.887 128.716 138.198 129.136L83.0102 160.972C82.6688 161.168 82.3775 161.441 82.1589 161.769C81.9404 162.097 81.8005 162.471 81.7502 162.862Z" fill="#E0E0E0"/>
<path d="M81.7502 169.758C81.7502 170.392 82.3214 170.598 83.0102 170.178L138.198 138.342C138.539 138.146 138.83 137.874 139.049 137.547C139.267 137.22 139.407 136.846 139.458 136.456C139.458 135.822 138.887 135.637 138.198 136.036L83.0102 167.877C82.6699 168.072 82.3792 168.344 82.1607 168.67C81.9422 168.997 81.8017 169.369 81.7502 169.758Z" fill="#E0E0E0"/>
<path d="M166.741 120.093C166.757 117.646 167.456 115.252 168.757 113.18V109.278C168.775 109.079 168.744 108.879 168.667 108.695C168.59 108.51 168.47 108.347 168.316 108.22C168.278 108.193 168.237 108.171 168.195 108.153L155.54 100.832C155.349 100.749 155.139 100.716 154.931 100.739C154.724 100.761 154.525 100.836 154.356 100.958L144.381 106.716C143.9 107.048 143.501 107.486 143.215 107.995C142.929 108.505 142.763 109.073 142.73 109.656C142.617 112.512 141.684 117.8 136.64 120.711C131.596 123.621 130.651 119.358 130.546 116.637C130.504 115.553 129.836 115.116 128.899 115.658L118.92 121.416C118.429 121.74 118.021 122.175 117.73 122.686C117.438 123.197 117.27 123.769 117.24 124.356V128.258C117.24 128.258 119.256 128.821 119.256 132.844C119.256 136.868 116.14 144.163 116.14 154.29C116.14 159.359 117.748 163.593 121.125 165.537L133.805 172.854C137.165 174.836 142.314 174.534 149.4 170.426C163.503 162.282 169.912 148.078 169.912 137.956C169.912 127.834 166.741 124.1 166.741 120.093Z" fill="#B0BEC5"/>
<path d="M154.314 100.945L144.339 106.704C143.857 107.035 143.458 107.472 143.172 107.982C142.886 108.492 142.72 109.06 142.688 109.644C142.583 112.277 141.785 116.973 137.711 119.967L130.038 115.536L129.996 115.515C129.812 115.433 129.609 115.402 129.409 115.425C129.209 115.448 129.018 115.524 128.857 115.645L118.878 121.404C118.739 121.485 118.608 121.579 118.488 121.685C118.163 121.964 117.889 122.296 117.677 122.668C117.373 123.177 117.203 123.755 117.181 124.348V128.25L117.732 128.569C118.336 129.056 119.197 130.207 119.197 132.832C119.197 136.855 116.081 144.172 116.081 154.277C116.081 159.346 117.69 163.588 121.066 165.533L133.7 172.82C130.386 170.85 128.811 166.65 128.811 161.627C128.811 151.501 131.923 144.201 131.923 140.178C131.923 136.154 129.907 135.595 129.907 135.595V131.694C129.94 131.107 130.108 130.535 130.4 130.025C130.691 129.515 131.098 129.079 131.587 128.754L141.567 122.995C141.722 122.879 141.905 122.805 142.097 122.778C142.29 122.752 142.486 122.775 142.667 122.844H142.709C142.879 122.971 143.015 123.139 143.103 123.332C143.191 123.525 143.229 123.737 143.213 123.949C143.314 126.675 144.229 130.959 149.307 128.027C154.385 125.095 155.284 119.829 155.401 116.973C155.433 116.389 155.597 115.821 155.883 115.311C156.168 114.801 156.567 114.364 157.048 114.033L167.023 108.274C167.186 108.158 167.375 108.084 167.574 108.058C167.772 108.033 167.974 108.057 168.161 108.127L155.54 100.832C155.344 100.739 155.127 100.701 154.911 100.721C154.696 100.741 154.489 100.818 154.314 100.945Z" fill="#B0BEC5"/>
<path opacity="0.1" d="M117.74 128.565L129.92 135.591V131.689C129.939 131.096 130.111 130.517 130.42 130.009L117.677 122.672C117.373 123.181 117.202 123.759 117.181 124.352V128.254L117.74 128.565Z" fill="black"/>
<path opacity="0.4" d="M137.711 119.967L130.038 115.536L129.996 115.515C129.812 115.433 129.609 115.402 129.409 115.425C129.208 115.448 129.018 115.524 128.857 115.645L118.878 121.404C118.739 121.484 118.608 121.579 118.488 121.685C118.163 121.963 117.889 122.296 117.677 122.668L130.424 130.026C130.709 129.511 131.121 129.077 131.621 128.766L141.6 123.008C141.756 122.892 141.939 122.817 142.131 122.791C142.323 122.764 142.519 122.787 142.701 122.857L137.711 119.967Z" fill="white"/>
<path opacity="0.4" d="M168.195 108.14L155.54 100.832C155.346 100.743 155.132 100.706 154.92 100.726C154.708 100.746 154.504 100.822 154.33 100.945L144.355 106.704C143.864 107.013 143.464 107.448 143.196 107.964L155.939 115.318C156.207 114.802 156.607 114.367 157.098 114.058L167.073 108.3C167.233 108.184 167.419 108.109 167.614 108.082C167.81 108.054 168.009 108.074 168.195 108.14Z" fill="white"/>
<path opacity="0.1" d="M155.922 115.322C155.636 115.839 155.468 116.413 155.431 117.002C155.317 119.858 154.381 125.146 149.341 128.056C144.301 130.967 143.347 126.704 143.247 123.978C143.262 123.767 143.224 123.554 143.136 123.361C143.048 123.168 142.913 123 142.743 122.874H142.701L137.711 119.992C141.785 116.998 142.583 112.302 142.688 109.669C142.724 109.079 142.892 108.505 143.179 107.989L155.922 115.322Z" fill="black"/>
<path opacity="0.2" d="M133.7 172.82L121.05 165.525C117.69 163.58 116.064 159.338 116.064 154.269C116.064 144.147 119.181 136.847 119.181 132.823C119.181 130.219 118.341 129.069 117.732 128.569L129.912 135.595C129.912 135.595 131.928 136.158 131.928 140.178C131.928 144.197 128.815 151.518 128.815 161.627C128.828 166.654 130.403 170.854 133.7 172.82Z" fill="black"/>
<path d="M152.235 155.491L146.775 158.641L147.615 148.767C146.96 148.422 146.544 147.574 146.544 146.356C146.544 144.18 147.867 141.656 149.484 140.711C151.101 139.766 152.424 140.77 152.424 142.945C152.39 144.234 152.022 145.491 151.357 146.595L152.235 155.491Z" fill="#455A64"/>
<path d="M152.235 155.491L147.291 152.635L146.775 158.641L152.235 155.491Z" fill="#37474F"/>
<path d="M149.505 140.711C148.438 141.328 147.505 142.622 146.985 144.071L151.386 146.612C152.052 145.508 152.419 144.251 152.453 142.962C152.457 140.77 151.134 139.77 149.505 140.711Z" fill="#37474F"/>
<path d="M155.675 83.3054C152.974 81.7472 149.585 81.9236 146.363 83.78L134.465 90.6512C129.307 93.629 125.418 100.366 125.418 106.317V122.382C125.418 123.046 125.863 123.714 126.741 124.222C127.728 124.723 128.819 124.984 129.926 124.984C131.033 124.984 132.125 124.723 133.112 124.222C133.99 123.714 134.435 123.046 134.435 122.382V106.317C134.435 103.579 136.598 99.8324 138.971 98.4632L150.87 91.592H150.899V107.686C150.899 108.354 151.344 109.018 152.222 109.526C153.209 110.027 154.301 110.288 155.408 110.288C156.515 110.288 157.606 110.027 158.594 109.526C159.471 109.018 159.917 108.354 159.917 107.686V91.6088C159.917 87.8876 158.371 84.8636 155.675 83.3054Z" fill="#37474F"/>
<path d="M150.92 91.6088V107.67C150.92 108.337 151.365 109.001 152.243 109.509C152.66 109.743 153.106 109.921 153.57 110.038V90.0464L150.92 91.5752V91.6088Z" fill="#263238"/>
<path d="M204.772 108.447C204.075 108.245 203.512 107.85 202.509 107.649C201.81 107.562 201.143 107.307 200.564 106.905C199.808 106.397 198.325 104.213 197.154 102.037C195.928 99.5635 195.133 96.899 194.802 94.1582C194.529 90.8528 193.764 86.4302 193.567 84.4982C193.248 81.449 192.34 79.8782 188.817 80.0924C188.817 80.0924 189.762 81.1676 189.489 83.9228C189.216 86.678 190.009 91.4828 190.606 95.2124C190.896 97.0184 191.841 99.4964 193.609 102.806C194.839 105.116 195.957 107.065 197.674 109.039C198.141 109.576 198.355 110.093 199.128 111.227C199.418 111.715 199.78 112.155 200.203 112.533C200.748 112.976 201.355 113.336 202.005 113.604C202.825 113.947 203.724 114.062 204.604 113.936C205.083 113.874 205.54 113.701 205.94 113.432C206.344 113.15 206.633 112.733 206.755 112.256C206.78 112.161 206.78 112.061 206.755 111.966C206.704 111.794 206.532 111.693 206.377 111.605C205.45 111.179 204.546 110.705 203.668 110.185C202.979 109.711 202.559 109.282 202.719 109.24C202.878 109.198 203.269 109.505 203.979 109.597C204.688 109.69 205.402 109.358 205.419 108.967C205.436 108.577 205.47 108.648 204.772 108.447Z" fill="#9A4A4D"/>
<path d="M188.577 79.9034C189.837 79.8194 192.55 79.4834 193.365 82.0412C194.18 84.599 195.121 94.1582 195.373 95.372C195.79 97.211 196.352 99.0143 197.053 100.765C197.792 102.579 199.938 106.279 199.938 106.279L197.263 108.56C197.263 108.56 193.516 104.213 191.593 99.5972C189.669 94.9814 189.073 89.0216 188.976 85.4726C188.949 83.6101 188.816 81.7507 188.577 79.9034Z" fill="#B0BEC5"/>
<path opacity="0.1" d="M188.577 79.9034C189.837 79.8194 192.55 79.4834 193.365 82.0412C194.18 84.599 195.121 94.1582 195.373 95.372C195.79 97.211 196.352 99.0143 197.053 100.765C197.792 102.579 199.938 106.279 199.938 106.279L197.263 108.56C197.263 108.56 193.516 104.213 191.593 99.5972C189.669 94.9814 189.073 89.0216 188.976 85.4726C188.949 83.6101 188.816 81.7507 188.577 79.9034Z" fill="black"/>
<path d="M190.967 157.763L194.705 157.893L194.894 151.11L191.152 150.98L190.967 157.763Z" fill="#9A4A4D"/>
<path d="M176.968 162.417H180.711V156.007H176.968V162.417Z" fill="#9A4A4D"/>
<path d="M180.711 160.573V160.035C181.068 160.191 181.899 163.366 183.386 164.722C184.566 165.798 186.175 167.041 186.587 168.242C186.998 169.443 184.344 170.182 183.227 169.985C181.946 169.758 179.724 168.855 179.165 168.019C178.607 167.184 178.346 165.949 177.905 165.336C177.464 164.722 176.41 164.038 176.162 163.328C176.028 162.937 176.187 162.068 176.376 161.362C176.565 160.657 176.742 159.972 176.964 160.035V160.455C177.498 160.875 178.159 161.099 178.838 161.089C179.384 161.098 180.715 160.989 180.711 160.573Z" fill="#263238"/>
<path d="M194.747 156.738C194.94 156.738 195.1 157.02 195.528 157.482C196.167 158.13 196.911 158.665 197.729 159.065C199.132 159.771 201.858 160.85 203.088 161.404C203.861 161.749 203.823 162.664 203.029 163.21C202.236 163.756 200.308 164.122 197.989 163.605C196.729 163.324 195.096 162.165 194.058 162.228C193.021 162.291 191.085 162.274 190.32 161.745C189.556 161.215 189.858 160.094 190.077 159.124C190.312 158.07 190.648 156.453 191.001 156.524V156.856C191.45 157.54 193.743 157.818 194.73 157.314L194.747 156.738Z" fill="#263238"/>
<path d="M178.564 102.919C175.624 108.942 178.527 131.656 178.527 131.656C178.422 132.639 177.246 134.558 176.725 138.897C176.112 144.021 176.641 157.192 176.641 157.192C176.641 157.192 179.085 158.275 181.076 157.377C181.076 157.377 184.591 137.83 185.356 132.739C186.019 128.296 187.326 118.518 187.326 118.518L190.064 132.823C189.581 134.249 189.221 135.713 188.989 137.2C188.628 140.194 190.778 154.172 190.778 154.172C192.108 154.73 193.586 154.829 194.978 154.453C194.978 154.453 196.238 135.902 196.608 132.29C197.204 126.225 195.444 107.254 194.823 103.285L178.564 102.919Z" fill="#263238"/>
<path d="M182.479 80.0378C181.534 80.147 179.35 80.5292 179.35 80.5292C177.901 81.0584 178.056 81.9488 177.67 83.339C177.174 85.061 177.498 88.1354 178.09 89.828L180.895 97.9382C179.845 100.458 178.837 101.206 178.333 103.134C182.916 106.531 192.765 106.33 194.881 103.465C194.97 102.856 194.163 95.8802 193.827 92.7764C195.255 90.185 195.801 88.3286 195.054 86.342C193.773 82.9442 190.261 79.769 188.594 79.9034L182.479 80.0378Z" fill="#B0BEC5"/>
<path d="M185.327 77.1188H183.945C182.012 77.1188 180.159 76.3511 178.792 74.9845C177.425 73.6179 176.658 71.7645 176.658 69.8318C176.658 67.8892 177.429 66.0261 178.803 64.6524C180.177 63.2787 182.04 62.507 183.983 62.507H185.289C187.231 62.507 189.094 63.2787 190.468 64.6524C191.842 66.0261 192.614 67.8892 192.614 69.8318C192.614 71.7645 191.846 73.6179 190.479 74.9845C189.113 76.3511 187.259 77.1188 185.327 77.1188Z" fill="#263238"/>
<path d="M172.924 80.4704C173.514 80.471 174.098 80.3552 174.643 80.1298C175.188 79.9045 175.684 79.5738 176.101 79.1569C176.519 78.7399 176.85 78.2447 177.076 77.6997C177.302 77.1547 177.418 76.5706 177.418 75.9806V66.3584C176.226 66.3584 175.083 66.8319 174.24 67.6747C173.397 68.5175 172.924 69.6605 172.924 70.8524V80.4704Z" fill="#263238"/>
<path d="M190.228 65.1656C191.106 65.6864 192.193 67.8998 192.084 72.5366C191.996 76.4636 190.719 77.4338 190.081 77.7152C189.442 77.9966 188.208 77.8244 187.006 77.6228V80L186.767 82.7678L182.071 80.6216V74.9054C182.071 74.9054 181.261 75.9848 179.938 75.107C178.615 74.2292 178.564 72.0494 179.333 71.2682C180.102 70.487 181.765 70.7348 182.071 71.8142C182.071 71.8142 182.609 70.6844 185.356 69.7436C188.25 68.7524 189.211 67.0136 190.228 65.1656Z" fill="#B16668"/>
<path d="M187.259 71.5496C187.259 71.6467 187.231 71.7419 187.178 71.8233C187.126 71.9047 187.05 71.9688 186.961 72.0075C186.872 72.0463 186.773 72.0581 186.678 72.0414C186.582 72.0247 186.493 71.9803 186.423 71.9136C186.352 71.847 186.303 71.7611 186.28 71.6666C186.258 71.572 186.264 71.4731 186.298 71.3819C186.331 71.2908 186.391 71.2116 186.469 71.154C186.547 71.0965 186.641 71.0631 186.738 71.0582C186.872 71.0548 187.002 71.1046 187.099 71.1966C187.197 71.2887 187.254 71.4155 187.259 71.5496Z" fill="#263238"/>
<path d="M187.83 74.8802L188.976 75.2456C188.957 75.3231 188.922 75.3959 188.874 75.4595C188.825 75.5231 188.765 75.5762 188.695 75.6155C188.625 75.6548 188.549 75.6795 188.469 75.6881C188.39 75.6967 188.309 75.6891 188.233 75.6656C188.076 75.6136 187.946 75.5022 187.871 75.3553C187.795 75.2084 187.781 75.0378 187.83 74.8802Z" fill="#9A4A4D"/>
<path d="M191.307 70.0292L190.308 69.3362C190.35 69.2676 190.405 69.2084 190.471 69.1624C190.537 69.1164 190.612 69.0845 190.691 69.0687C190.77 69.0529 190.851 69.0536 190.93 69.0707C191.008 69.0879 191.082 69.121 191.148 69.1682C191.281 69.263 191.372 69.4058 191.401 69.5664C191.431 69.7271 191.397 69.893 191.307 70.0292Z" fill="#263238"/>
<path d="M191.081 71.18C191.089 71.2477 191.084 71.3165 191.065 71.3821C191.046 71.4476 191.013 71.5085 190.969 71.5609C190.926 71.6133 190.871 71.6561 190.81 71.6866C190.749 71.7171 190.682 71.7346 190.614 71.7381C190.546 71.7416 190.478 71.7309 190.414 71.7068C190.35 71.6827 190.292 71.6456 190.243 71.598C190.194 71.5503 190.156 71.493 190.13 71.4298C190.104 71.3665 190.092 71.2987 190.094 71.2304C190.088 71.1644 190.096 71.098 190.117 71.0351C190.138 70.9723 190.171 70.9141 190.214 70.8641C190.258 70.8141 190.311 70.7732 190.37 70.7438C190.429 70.7144 190.494 70.697 190.56 70.6928C190.693 70.6894 190.823 70.7385 190.92 70.8297C191.017 70.9209 191.075 71.0467 191.081 71.18Z" fill="#263238"/>
<path d="M188.666 70.907L188.745 73.8806L190.308 73.3976L188.666 70.907Z" fill="#9A4A4D"/>
<path d="M187.006 77.6228C185.746 77.459 183.147 76.7114 182.739 75.6824C182.901 76.2036 183.219 76.6624 183.651 76.997C184.428 77.6606 187.011 78.4124 187.011 78.4124L187.006 77.6228Z" fill="#9A4A4D"/>
<path d="M187.326 118.518L188.754 111.584C188.754 111.584 191.736 111.084 193.319 109.954C192.42 111.044 191.256 111.884 189.938 112.395L188.3 118.938L188.72 125.742L187.326 118.518Z" fill="black"/>
<path d="M181.975 67.2824C181.975 67.2824 187.62 71.1254 191.542 69.206C195.465 67.2866 190.383 64.586 190.383 64.586L181.975 67.2824Z" fill="#37474F"/>
<path d="M190.341 59.2268C186.981 58.286 183.34 57.6812 179.106 59.2268C174.873 60.7724 173.949 63.3848 173.949 63.3848C173.949 63.3848 178.258 65.09 181.765 64.5146C185.272 63.9392 190.341 59.2268 190.341 59.2268Z" fill="#B0BEC5"/>
<path opacity="0.4" d="M190.341 59.2268C186.981 58.286 183.34 57.6812 179.106 59.2268C174.873 60.7724 173.949 63.3848 173.949 63.3848C173.949 63.3848 178.258 65.09 181.765 64.5146C185.272 63.9392 190.341 59.2268 190.341 59.2268Z" fill="white"/>
<path d="M176.305 64.9682C176.305 64.9682 174.15 63.9434 173.949 63.3764C175.625 63.5673 177.322 63.4578 178.959 63.053C181.761 62.3768 184.676 59.6552 187.83 59.1764C190.984 58.6976 192.328 60.3062 192.328 60.3062C192.328 60.3062 191.631 62.549 190.539 63.9098C190.539 63.9098 189.564 66.0392 185.852 66.5306C182.139 67.022 176.305 64.9682 176.305 64.9682Z" fill="#B0BEC5"/>
<path d="M176.305 64.9682L176.481 65.5814C176.548 65.7889 176.658 65.9803 176.802 66.1437C176.947 66.307 177.123 66.4387 177.321 66.5306C180.061 67.6214 183.054 67.9127 185.952 67.3706C188.561 66.8876 189.732 66.2198 190.207 65.7158C190.377 65.5666 190.505 65.3759 190.578 65.1624C190.652 64.9488 190.669 64.7198 190.627 64.4978L190.539 63.9014C190.539 63.9014 189.732 65.027 185.469 65.8628C181.206 66.6986 176.305 64.9682 176.305 64.9682Z" fill="#455A64"/>
<path d="M188.157 60.4322C188.124 61.0916 187.431 62.3012 186.511 61.73V63.41C186.511 64.439 187.116 64.796 188.094 64.5902C188.581 64.4981 189.02 64.2368 189.333 63.8525C189.646 63.4682 189.812 62.9856 189.804 62.4902C189.804 62.1752 189.804 61.0622 189.804 61.0622C189.081 62.0366 188.145 60.68 188.157 60.4322Z" fill="#FAFAFA"/>
<path d="M182.072 72.8306V70.6004H182.941V71.9612C182.941 72.1918 182.849 72.4129 182.686 72.576C182.523 72.739 182.302 72.8306 182.072 72.8306Z" fill="#263238"/>
<path d="M186.767 82.751L182.071 79.328V78.488C182.071 78.488 181.084 78.656 180.845 80.5376C181.58 82.1608 182.836 83.4915 184.415 84.3176L185.385 82.5998L186.767 82.751Z" fill="#B0BEC5"/>
<path opacity="0.1" d="M186.767 82.751L182.071 79.328V78.488C182.071 78.488 181.084 78.656 180.845 80.5376C181.58 82.1608 182.836 83.4915 184.415 84.3176L185.385 82.5998L186.767 82.751Z" fill="black"/>
<path d="M187.006 78.6812C187.617 78.7796 188.166 79.1089 188.539 79.601C189.001 80.3612 188.896 83.2592 188.896 83.2592L187.666 81.8564L186.767 82.751C186.868 81.785 187.006 79.9832 187.006 79.9832V78.6812Z" fill="#B0BEC5"/>
<path opacity="0.1" d="M187.006 78.6812C187.617 78.7796 188.166 79.1089 188.539 79.601C189.001 80.3612 188.896 83.2592 188.896 83.2592L187.666 81.8564L186.767 82.751C186.868 81.785 187.006 79.9832 187.006 79.9832V78.6812Z" fill="black"/>
<path d="M183.142 113.096C182.559 112.676 182.176 112.096 181.303 111.555C180.677 111.23 180.141 110.757 179.74 110.177C179.211 109.434 178.585 106.872 178.249 104.423C177.85 101.533 178.291 97.6106 178.497 95.9894C178.952 92.8762 179.583 89.7913 180.387 86.7494C180.421 86.6108 179.665 82.3856 178.833 81.7094C178.833 81.7094 177.88 81.575 176.658 84.0614C175.435 86.5478 174.835 92.0414 174.499 95.7332C174.222 98.465 174.272 101.22 174.65 103.94C174.994 106.536 175.36 108.749 176.28 111.202C176.527 111.87 176.548 112.428 176.876 113.76C176.979 114.317 177.163 114.856 177.422 115.36C177.78 115.964 178.223 116.514 178.737 116.994C179.387 117.602 180.189 118.024 181.059 118.216C181.534 118.329 182.029 118.329 182.504 118.216C182.982 118.085 183.399 117.789 183.68 117.38C183.74 117.3 183.778 117.206 183.789 117.107C183.778 116.928 183.696 116.76 183.562 116.641C182.845 115.917 182.165 115.158 181.525 114.364C181.042 113.676 180.799 113.125 180.967 113.146C181.135 113.167 181.387 113.587 182.034 113.928C182.68 114.268 183.453 114.201 183.609 113.839C183.764 113.478 183.726 113.524 183.142 113.096Z" fill="#9A4A4D"/>
<path d="M179.283 80.5376C179.283 80.5376 181.383 84.7754 180.446 88.5176C179.585 91.9364 179.098 96.3128 178.913 97.5392C178.655 99.4064 178.542 101.291 178.577 103.176C178.636 105.133 179.354 109.35 179.354 109.35L176.065 110.568C176.065 110.568 174.075 105.183 173.886 100.185C173.697 95.1872 174.18 89.2652 174.99 85.796C175.347 84.3008 175.767 81.1382 179.283 80.5376Z" fill="#B0BEC5"/>
<path opacity="0.1" d="M179.283 80.5376C179.283 80.5376 181.383 84.7754 180.446 88.5176C179.585 91.9364 179.098 96.3128 178.913 97.5392C178.655 99.4064 178.542 101.291 178.577 103.176C178.636 105.133 179.354 109.35 179.354 109.35L176.065 110.568C176.065 110.568 174.075 105.183 173.886 100.185C173.697 95.1872 174.18 89.2652 174.99 85.796C175.347 84.3008 175.767 81.1382 179.283 80.5376Z" fill="black"/>
<path d="M182.664 87.749C182.664 87.749 185.797 87.6188 187.086 87.119V86.4932C185.78 86.993 182.664 87.14 182.664 87.14V87.749Z" fill="#37474F"/>
<path d="M175.818 85.46C175.818 85.46 176.805 85.1156 178.165 85.88L178.199 85.7414C178.214 85.6695 178.205 85.5947 178.173 85.5286C178.141 85.4624 178.088 85.4088 178.023 85.376C177.437 85.0683 176.772 84.9467 176.116 85.0274C176.054 85.0382 175.997 85.0671 175.951 85.1105C175.905 85.1538 175.874 85.2096 175.86 85.271L175.818 85.46Z" fill="#37474F"/>
<path d="M177.56 87.3778C177.723 86.6443 177.409 85.9502 176.859 85.8277C176.309 85.7051 175.731 86.2004 175.567 86.934C175.404 87.6675 175.717 88.3616 176.267 88.4841C176.818 88.6067 177.396 88.1114 177.56 87.3778Z" fill="#37474F"/>
</g>
<defs>
<filter id="filter0_d_51_4391" x="0" y="0" width="238" height="252" filterUnits="userSpaceOnUse" color-interpolation-filters="sRGB">
<feFlood flood-opacity="0" result="BackgroundImageFix"/>
<feColorMatrix in="SourceAlpha" type="matrix" values="0 0 0 0 0 0 0 0 0 0 0 0 0 0 0 0 0 0 127 0" result="hardAlpha"/>
<feOffset dy="4"/>
<feGaussianBlur stdDeviation="2"/>
<feComposite in2="hardAlpha" operator="out"/>
<feColorMatrix type="matrix" values="0 0 0 0 0 0 0 0 0 0 0 0 0 0 0 0 0 0 0.25 0"/>
<feBlend mode="normal" in2="BackgroundImageFix" result="effect1_dropShadow_51_4391"/>
<feBlend mode="normal" in="SourceGraphic" in2="effect1_dropShadow_51_4391" result="shape"/>
</filter>
</defs>
</svg>
