<svg width="238" height="252" viewBox="0 0 238 252" fill="none" xmlns="http://www.w3.org/2000/svg">
<g filter="url(#filter0_d_51_4390)">
<rect x="4" width="230" height="244" rx="32" fill="#99907D"/>
<path d="M35.9416 150.397C35.9416 150.397 46.7405 178.883 77.2021 189.533C107.664 200.182 141.236 189.702 168.656 181.933C196.075 174.164 211.419 151.516 206.611 127.313C201.804 103.109 179.006 103.666 158.891 81.3616C138.776 59.0568 136.804 50.0638 107.765 42.3151C78.7252 34.5663 45.3548 57.663 35.5659 92.2616C25.7769 126.86 35.9416 150.397 35.9416 150.397Z" fill="#306042"/>
<path opacity="0.7" d="M35.9416 150.397C35.9416 150.397 46.7405 178.883 77.2021 189.533C107.664 200.182 141.236 189.702 168.656 181.933C196.075 174.164 211.419 151.516 206.611 127.313C201.804 103.109 179.006 103.666 158.891 81.3616C138.776 59.0568 136.804 50.0638 107.765 42.3151C78.7252 34.5663 45.3548 57.663 35.5659 92.2616C25.7769 126.86 35.9416 150.397 35.9416 150.397Z" fill="white"/>
<path d="M99.7939 54.7865C98.778 55.8869 98.064 57.2313 97.7214 58.6892C96.9716 57.6767 95.8774 56.9735 94.645 56.7123C93.4125 56.4511 92.1271 56.6499 91.0311 57.2711C90.8286 54.8524 89.7618 52.5874 88.026 50.8909C86.2902 49.1943 84.0014 48.1796 81.5787 48.0324C79.1559 47.8853 76.7612 48.6155 74.8328 50.0895C72.9044 51.5635 71.5713 53.6827 71.0776 56.0591C69.8917 54.8915 68.3073 54.2168 66.6437 54.1711C64.9801 54.1253 63.361 54.7119 62.1128 55.8127" stroke="#263238" stroke-width="0.404" stroke-miterlimit="10"/>
<path d="M127.343 44.125C126.657 44.0193 125.964 43.9666 125.27 43.9674C122.225 43.9664 119.271 45.008 116.9 46.9191C114.528 48.8301 112.883 51.4953 112.237 54.4714C110.868 53.1215 109.089 52.2657 107.179 52.0389C105.27 51.8121 103.34 52.2273 101.693 53.219" stroke="#263238" stroke-width="0.404" stroke-miterlimit="10"/>
<path d="M134.833 48.0155C133.892 47.0488 132.808 46.2314 131.621 45.5915" stroke="#263238" stroke-width="0.404" stroke-miterlimit="10"/>
<path d="M130.033 60.996H154.677C154.365 60.4732 153.946 60.0225 153.447 59.6733C152.949 59.3241 152.382 59.0844 151.784 58.9699C151.186 58.8554 150.57 58.8688 149.978 59.0091C149.386 59.1494 148.83 59.4135 148.347 59.784C148.02 58.8396 147.49 57.9786 146.794 57.2618C146.098 56.545 145.253 55.9901 144.319 55.6362C143.384 55.2823 142.383 55.1382 141.387 55.2141C140.391 55.29 139.424 55.584 138.554 56.0753C138.332 53.6596 137.451 51.3512 136.008 49.4012" stroke="#263238" stroke-width="0.404" stroke-miterlimit="10"/>
<path d="M61.0826 56.956C60.2974 58.0624 59.874 59.3848 59.8706 60.7415C59.8706 60.8223 59.8706 60.9031 59.8706 60.9839H125.157" stroke="#263238" stroke-width="0.404" stroke-miterlimit="10"/>
<path d="M148.492 65.3753C147.712 64.7099 146.772 64.2585 145.765 64.065C144.757 63.8716 143.717 63.9429 142.746 64.2718C141.774 64.6008 140.905 65.1762 140.223 65.9418C139.54 66.7074 139.068 67.637 138.853 68.6397C138.366 68.1563 137.758 67.8118 137.094 67.6419C136.429 67.4719 135.731 67.4827 135.072 67.673C134.413 67.8633 133.817 68.2263 133.345 68.7244C132.873 69.2225 132.543 69.8376 132.389 70.5061C132.053 70.0583 131.566 69.7476 131.018 69.6316C130.471 69.5157 129.9 69.6025 129.411 69.8759C129.325 68.7958 128.852 67.7832 128.078 67.0243C127.305 66.2654 126.284 65.8112 125.202 65.7454C124.121 65.6795 123.052 66.0063 122.192 66.6658C121.332 67.3252 120.74 68.2729 120.523 69.3345C120.111 68.9303 119.59 68.6566 119.023 68.5478C118.456 68.439 117.87 68.5 117.338 68.7231C116.806 68.9462 116.352 69.3215 116.032 69.8019C115.713 70.2822 115.542 70.8463 115.542 71.4232C115.542 71.4596 115.542 71.4919 115.542 71.5283H157.731C157.591 71.2961 157.402 71.0963 157.179 70.9419C156.956 70.7874 156.703 70.6818 156.436 70.6318C156.169 70.5819 155.894 70.5888 155.63 70.652C155.366 70.7153 155.119 70.8335 154.903 70.999C154.758 70.579 154.523 70.1961 154.213 69.8773C153.904 69.5586 153.528 69.3118 153.112 69.1545C152.696 68.9972 152.251 68.9333 151.808 68.9672C151.365 69.0011 150.935 69.132 150.548 69.3507C150.51 68.9082 150.421 68.4716 150.282 68.0498" stroke="#263238" stroke-width="0.404" stroke-miterlimit="10"/>
<path d="M37.687 115.063C37.687 115.063 93.0956 63.6422 99.4424 63.2705C105.721 62.9029 150.799 109.476 150.799 109.476C150.799 109.476 181.834 82.505 185.159 82.505C188.484 82.505 192.932 88.3953 192.932 88.3953" stroke="#263238" stroke-width="0.404" stroke-linecap="round" stroke-linejoin="round"/>
<path d="M137.128 100.96L134.336 98.2933" stroke="#263238" stroke-width="0.404" stroke-linecap="round" stroke-linejoin="round"/>
<path d="M105.409 74.5179L114.96 83.2241" stroke="#263238" stroke-width="0.404" stroke-linecap="round" stroke-linejoin="round"/>
<path d="M102.396 71.7707L104.173 73.3867" stroke="#263238" stroke-width="0.404" stroke-linecap="round" stroke-linejoin="round"/>
<path d="M131.278 95.3684L112.375 77.3096" stroke="#263238" stroke-width="0.404" stroke-linecap="round" stroke-linejoin="round"/>
<path d="M198.851 184.216C198.483 181.295 193.372 185.678 193.372 185.678C194.063 183.933 194.434 182.077 194.467 180.2C194.467 177.279 190.831 180.927 190.831 180.927C190.831 180.927 193.389 176.18 193.025 171.07C192.661 165.959 187.179 171.801 187.179 171.801C187.179 171.801 189.373 164.125 189.736 161.939C190.1 159.754 179.511 164.497 179.511 164.497C179.511 164.497 180.242 161.208 180.606 157.924C180.796 156.243 178.99 156.942 177.164 158.029C176.76 156.566 175.681 156.465 174.481 156.922C174.558 156.558 174.643 156.162 174.736 155.738C175.14 153.771 172.336 155.989 170.005 158.085C169.723 155.53 168.567 153.151 166.733 151.351C164.967 149.585 163.064 151.553 161.481 154.316L158.859 155.124C158.826 154.615 158.774 154.09 158.697 153.548C158.224 150.244 155.465 153.807 153.57 156.74L151.55 157.362C151.227 155.294 150.435 152.276 148.488 149.896C145.204 145.88 137.532 157.201 137.532 157.201C137.532 157.201 132.785 149.525 130.958 153.565C129.132 157.605 131.69 165.983 131.69 165.983C131.69 165.983 130.595 163.059 129.136 162.347C127.678 161.636 123.658 164.901 123.658 164.901C123.658 164.901 125.848 159.79 123.658 157.964C121.675 156.312 119.101 162.121 118.624 163.252C118.96 162.396 120.24 158.687 119.275 153.581C118.18 147.739 113.797 155.407 113.797 155.407C113.797 155.407 114.528 148.102 110.512 147.008C106.496 145.913 112.338 147.008 108.318 154.312C104.299 161.616 105.765 149.201 99.9192 149.929C94.0733 150.656 95.5398 172.573 95.5398 172.573L72.4997 159.394C72.4997 159.394 71.4048 157.201 67.6961 156.538C63.9874 155.875 66.2942 161.592 66.2942 161.592C66.2942 161.592 61.1796 156.845 58.9899 156.845C58.4203 156.845 56.671 159.378 54.3924 163.127C54.2268 162.743 54.0571 162.352 53.8793 161.956C52.4936 158.913 51.322 165.717 50.8332 169.195L50.4292 169.894C50.1342 168.177 49.2737 165.228 46.9386 165.228C44.1106 165.228 45.6094 174.972 46.0821 177.679V177.712C45.7185 176.172 44.6722 172.46 42.939 172.165C40.7493 171.801 42.5714 180.2 42.5714 180.2C42.5714 180.2 41.1129 179.105 40.0181 179.105C39.2101 179.105 40.3292 184.2 41.0079 187.064C38.7051 191.347 37.1416 194.316 37.1416 194.316L51.6856 186.41H128.118L124.422 191.524H197.376C197.376 191.524 199.214 187.145 198.851 184.216Z" fill="black"/>
<path d="M110.577 191.44H113.231L114.847 132.86L118.249 122.614L114.665 129.365L115.194 122.772L120.931 111.096L115.404 118.368L114.96 100.887L114.209 111.645L111.498 110.029L113.873 113.625L113.227 126.351L111.082 122.962L112.928 128.993L110.577 191.44Z" fill="#263238"/>
<path d="M120.705 195.322C119.759 191.573 118.212 186.919 116.055 185.182C112.225 182.095 105.995 186.947 102.642 184.741C99.2888 182.535 106.472 160.933 94.966 159.612C83.46 158.291 79.1534 180.334 73.8812 182.535C68.609 184.737 66.694 176.807 59.5069 176.366C53.2247 175.962 41.0804 191.427 38.1272 195.322H120.705Z" fill="#306042"/>
<path opacity="0.46" d="M120.705 195.322C119.759 191.573 118.212 186.919 116.055 185.182C112.225 182.095 105.995 186.947 102.642 184.741C99.2888 182.535 106.472 160.933 94.966 159.612C83.46 158.291 79.1534 180.334 73.8812 182.535C68.609 184.737 66.694 176.807 59.5069 176.366C53.2247 175.962 41.0804 191.427 38.1272 195.322H120.705Z" fill="black"/>
<path d="M95.1641 191.44H97.8183L99.4343 132.86L102.84 122.594L99.2566 129.345L99.7858 122.751L105.523 111.076L100.012 118.364L99.5353 100.887L98.8001 111.645L96.0892 110.029L98.4647 113.625L97.8183 126.351L95.6731 122.962L97.5194 128.993L95.1641 191.44Z" fill="#C7CACB"/>
<path d="M59.4463 191.44H62.1006L63.7166 132.86L67.1183 122.614L63.5307 129.365L64.064 122.772L69.8089 111.092L64.2822 118.364L63.8095 100.887L63.0581 111.645L60.3472 110.029L62.7227 113.625L62.0763 126.351L59.9271 122.962L61.7774 128.993L59.4463 191.44Z" fill="#A8ADAF"/>
<path d="M135.596 191.44H138.251L139.867 146.414L143.285 138.564L139.697 143.751L140.226 138.685L145.963 129.676L140.436 135.292L139.96 121.863L139.2 130.133L136.493 128.896L138.869 131.656L138.218 141.436L136.073 138.831L137.919 143.465L135.596 191.44Z" fill="#C7CACB"/>
<path d="M104.594 191.44H107.248L108.864 146.414L112.278 138.564L108.694 143.751L109.223 138.685L114.96 129.676L109.433 135.292L108.957 121.863L108.205 130.133L105.494 128.896L107.874 131.656L107.224 141.436L105.078 138.831L106.925 143.465L104.594 191.44Z" fill="#C7CACB"/>
<path d="M124.894 191.44H127.545L129.161 146.414L132.578 138.564L128.991 143.751L129.524 138.685L135.257 129.676L129.73 135.292L129.253 121.863L128.506 130.133L125.795 128.896L128.171 131.656L127.524 141.436L125.375 138.831L127.225 143.465L124.894 191.44Z" fill="#C7CACB"/>
<path d="M183.668 191.44H186.322L187.938 132.86L191.34 122.614L187.757 129.365L188.286 122.772L194.023 111.096L188.496 118.368L188.019 100.891L187.276 111.645L184.565 110.029L186.941 113.625L186.294 126.351L184.149 122.962L185.995 128.993L183.668 191.44Z" fill="#263238"/>
<path d="M167.609 191.44H170.26L171.876 132.86L175.281 122.614L171.694 129.365L172.227 122.772L177.984 111.092L172.457 118.364L171.981 100.887L171.233 111.645L168.522 110.029L170.898 113.625L170.252 126.351L168.102 122.962L169.953 128.993L167.609 191.44Z" fill="#8A9094"/>
<path d="M140.077 191.44H142.727L144.343 132.86L147.745 122.614L144.157 129.365L144.69 122.772L150.439 111.092L144.913 118.364L144.452 100.887L143.705 111.645L140.994 110.029L143.369 113.625L142.723 126.351L140.574 122.962L142.424 128.993L140.077 191.44Z" fill="#263238"/>
<path d="M180.056 195.322C179.248 191.573 177.899 186.919 176.037 185.182C172.72 182.095 167.326 186.947 164.426 184.741C161.525 182.535 167.742 160.933 157.792 159.612C147.841 158.291 144.108 180.334 139.547 182.535C134.986 184.737 133.326 176.807 127.108 176.366C121.67 175.962 111.162 191.427 108.605 195.322H180.056Z" fill="#306042"/>
<path opacity="0.25" d="M180.056 195.322C179.248 191.573 177.899 186.919 176.037 185.182C172.72 182.095 167.326 186.947 164.426 184.741C161.525 182.535 167.742 160.933 157.792 159.612C147.841 158.291 144.108 180.334 139.547 182.535C134.986 184.737 133.326 176.807 127.108 176.366C121.67 175.962 111.162 191.427 108.605 195.322H180.056Z" fill="black"/>
<path d="M134.546 102.786C134.546 102.786 128.805 102.786 127.133 112.114C125.46 121.442 129.763 123.83 124.498 128.622C119.234 133.413 118.519 136.758 121.149 138.911C123.779 141.065 125.218 143.456 121.868 147.044C118.519 150.631 118.039 155.896 130.001 159.245C141.963 162.594 151.053 154.461 151.534 148.959C152.015 143.456 147.943 139.865 147.704 135.32C147.466 130.775 155.841 126.468 154.883 120.251C153.926 114.033 145.313 116.421 142.921 111.637C140.529 106.854 140.287 102.786 134.546 102.786Z" fill="#306042"/>
<path opacity="0.46" d="M134.546 102.786C134.546 102.786 128.805 102.786 127.133 112.114C125.46 121.442 129.763 123.83 124.498 128.622C119.234 133.413 118.519 136.758 121.149 138.911C123.779 141.065 125.218 143.456 121.868 147.044C118.519 150.631 118.039 155.896 130.001 159.245C141.963 162.594 151.053 154.461 151.534 148.959C152.015 143.456 147.943 139.865 147.704 135.32C147.466 130.775 155.841 126.468 154.883 120.251C153.926 114.033 145.313 116.421 142.921 111.637C140.529 106.854 140.287 102.786 134.546 102.786Z" fill="black"/>
<path d="M130.312 193.455H132.409L135.374 135.086L138.065 127.006L135.237 132.342L135.641 127.131L140.174 117.895L135.806 123.66L135.427 109.844L134.837 118.328L132.692 117.059L134.57 119.887L134.057 129.947L132.36 127.268L133.823 132.035L130.312 193.455Z" fill="#92989B"/>
<path d="M98.6223 195.322C99.2364 191.864 100.238 187.565 101.648 185.965C104.145 183.117 108.197 187.581 110.383 185.561C112.568 183.541 107.886 163.592 115.372 162.372C122.858 161.152 125.666 181.493 129.108 183.529C132.55 185.565 133.786 178.237 138.465 177.833C142.557 177.477 150.46 191.734 152.383 195.326L98.6223 195.322Z" fill="#306042"/>
<path opacity="0.46" d="M98.6223 195.322C99.2364 191.864 100.238 187.565 101.648 185.965C104.145 183.117 108.197 187.581 110.383 185.561C112.568 183.541 107.886 163.592 115.372 162.372C122.858 161.152 125.666 181.493 129.108 183.529C132.55 185.565 133.786 178.237 138.465 177.833C142.557 177.477 150.46 191.734 152.383 195.326L98.6223 195.322Z" fill="black"/>
<path d="M127.145 195.322C126.591 192.938 125.682 189.973 124.422 188.858C122.176 186.895 118.527 189.981 116.564 188.579C114.601 187.177 118.806 173.421 112.071 172.581C105.337 171.74 102.808 185.771 99.7212 187.173C96.6346 188.575 95.5115 183.537 91.3018 183.246C87.6214 183 80.507 192.837 78.7778 195.314L127.145 195.322Z" fill="#306042"/>
<path d="M50.1181 161.245C50.1181 161.245 44.6075 161.826 36.7861 154.288C28.9647 146.749 44.3288 120.065 50.4171 114.263C56.5053 108.462 69.0011 145.586 64.3389 152.546C59.6767 159.507 54.7641 160.958 50.1181 161.245Z" fill="#306042"/>
<path opacity="0.46" d="M50.1181 161.245C50.1181 161.245 44.6075 161.826 36.7861 154.288C28.9647 146.749 44.3288 120.065 50.4171 114.263C56.5053 108.462 69.0011 145.586 64.3389 152.546C59.6767 159.507 54.7641 160.958 50.1181 161.245Z" fill="black"/>
<path d="M47.7951 191.698L48.6677 152.837L44.8943 148.777L48.9545 151.096V144.135L43.7349 138.047L48.6677 141.816L48.0859 136.887L49.5363 139.206L50.4049 125.285L50.9867 146.454L60.5574 141.234L50.9867 149.355V153.124V192.858" fill="#263238"/>
<path d="M184.173 128.799C184.173 128.799 178.663 129.377 170.841 121.838C163.02 114.3 178.388 87.6156 184.448 81.8141C190.508 76.0127 203.032 113.136 198.37 120.097C193.708 127.058 188.811 128.508 184.173 128.799Z" fill="#306042"/>
<path d="M179.729 190.038L182.723 120.388L178.954 116.328L183.014 118.647V111.686L177.79 105.598L182.723 109.367L182.141 104.438L183.591 106.757L184.464 92.8353L185.042 114.009L194.613 108.785L185.042 116.906V120.679L182.921 191.197" fill="#A8ADAF"/>
<path d="M62.4885 194.316C62.4217 193.993 62.2903 193.687 62.1022 193.416C61.914 193.146 61.673 192.916 61.3937 192.74C60.311 192.151 60.311 192.74 59.0303 192.336C58.1819 192.074 58.3516 190.163 58.2829 189.508C58.0688 187.509 56.9618 185.779 54.9216 185.262C53.9067 184.995 52.8406 184.991 51.8236 185.25C50.8065 185.508 49.8721 186.022 49.108 186.741C46.6477 189.104 46.9426 191.185 45.367 191.27C43.7914 191.355 42.9066 189.399 40.1514 190.579C38.4586 191.306 37.5819 193.068 37.1577 194.32L62.4885 194.316Z" fill="#306042"/>
<path opacity="0.5" d="M62.4885 194.316C62.4217 193.993 62.2903 193.687 62.1022 193.416C61.914 193.146 61.673 192.916 61.3937 192.74C60.311 192.151 60.311 192.74 59.0303 192.336C58.1819 192.074 58.3516 190.163 58.2829 189.508C58.0688 187.509 56.9618 185.779 54.9216 185.262C53.9067 184.995 52.8406 184.991 51.8236 185.25C50.8065 185.508 49.8721 186.022 49.108 186.741C46.6477 189.104 46.9426 191.185 45.367 191.27C43.7914 191.355 42.9066 189.399 40.1514 190.579C38.4586 191.306 37.5819 193.068 37.1577 194.32L62.4885 194.316Z" fill="white"/>
<path d="M39.7029 194.175C39.7029 194.175 40.1392 192.377 41.6098 192.215C43.0803 192.054 44.1146 194.449 46.2962 192.433C48.4778 190.417 49.7827 185.295 53.1642 185.46C56.5456 185.626 56.4891 189.71 56.1053 191.399C55.7215 193.088 57.9596 193.015 58.9333 192.813C59.9069 192.611 61.0583 193.686 61.0583 194.34" stroke="#263238" stroke-width="0.365169" stroke-linecap="round" stroke-linejoin="round"/>
<path d="M42.7532 194.284L41.5574 193.197" stroke="#263238" stroke-width="0.365169" stroke-linecap="round" stroke-linejoin="round"/>
<path d="M50.0535 194.34L53.2693 187.804" stroke="#263238" stroke-width="0.365169" stroke-linecap="round" stroke-linejoin="round"/>
<path d="M51.6331 188.292L52.0169 190.417L54.5782 188.999" stroke="#263238" stroke-width="0.365169" stroke-linecap="round" stroke-linejoin="round"/>
<path d="M49.5645 190.47L50.8734 192.87L53.4307 192.05" stroke="#263238" stroke-width="0.365169" stroke-linecap="round" stroke-linejoin="round"/>
<path d="M116.612 193.645C116.538 193.288 116.392 192.95 116.184 192.651C115.976 192.352 115.709 192.098 115.4 191.904C114.188 191.25 114.188 191.904 112.786 191.468C111.849 191.181 112.035 189.068 111.958 188.345C111.724 186.131 110.5 184.22 108.241 183.646C107.115 183.345 105.931 183.335 104.8 183.618C103.67 183.901 102.629 184.467 101.777 185.262C99.0545 187.876 99.3818 190.163 97.6405 190.272C95.8993 190.381 94.9176 188.204 91.8674 189.508C89.9968 190.316 89.0394 192.26 88.5586 193.645H116.612Z" fill="#306042"/>
<path opacity="0.5" d="M116.612 193.645C116.538 193.288 116.392 192.95 116.184 192.651C115.976 192.352 115.709 192.098 115.4 191.904C114.188 191.25 114.188 191.904 112.786 191.468C111.849 191.181 112.035 189.068 111.958 188.345C111.724 186.131 110.5 184.22 108.241 183.646C107.115 183.345 105.931 183.335 104.8 183.618C103.67 183.901 102.629 184.467 101.777 185.262C99.0545 187.876 99.3818 190.163 97.6405 190.272C95.8993 190.381 94.9176 188.204 91.8674 189.508C89.9968 190.316 89.0394 192.26 88.5586 193.645H116.612Z" fill="white"/>
<path d="M94.7802 193.605L93.4551 192.401" stroke="#263238" stroke-width="0.404" stroke-linecap="round" stroke-linejoin="round"/>
<path d="M102.856 193.666L106.411 186.434" stroke="#263238" stroke-width="0.404" stroke-linecap="round" stroke-linejoin="round"/>
<path d="M104.605 186.975L105.026 189.327L107.858 187.759" stroke="#263238" stroke-width="0.404" stroke-linecap="round" stroke-linejoin="round"/>
<path d="M102.315 189.387L103.761 192.041L106.593 191.137" stroke="#263238" stroke-width="0.404" stroke-linecap="round" stroke-linejoin="round"/>
<path d="M71.6067 75.4026C71.6067 75.4026 63.3368 75.4026 60.9249 88.8397C58.5131 102.277 64.7145 105.723 57.1354 112.611C49.5564 119.499 48.5221 124.327 52.3157 127.426C56.1093 130.524 58.1696 133.971 53.3459 139.142C48.5221 144.313 47.8353 151.892 65.0619 156.716C82.2884 161.539 95.3619 149.823 96.0689 141.901C96.7759 133.979 90.8977 128.807 90.5543 122.263C90.2109 115.718 102.27 109.516 100.889 100.56C99.5069 91.603 87.1082 95.0451 83.6661 88.1569C80.224 81.2687 79.8766 75.4026 71.6067 75.4026Z" fill="#306042"/>
<path opacity="0.18" d="M71.6067 75.4026C71.6067 75.4026 63.3368 75.4026 60.9249 88.8397C58.5131 102.277 64.7145 105.723 57.1354 112.611C49.5564 119.499 48.5221 124.327 52.3157 127.426C56.1093 130.524 58.1696 133.971 53.3459 139.142C48.5221 144.313 47.8353 151.892 65.0619 156.716C82.2884 161.539 95.3619 149.823 96.0689 141.901C96.7759 133.979 90.8977 128.807 90.5543 122.263C90.2109 115.718 102.27 109.516 100.889 100.56C99.5069 91.603 87.1082 95.0451 83.6661 88.1569C80.224 81.2687 79.8766 75.4026 71.6067 75.4026Z" fill="black"/>
<path d="M65.4861 205.975H68.4999L72.7702 121.919L76.6486 110.256L72.5642 117.932L73.1702 110.425L79.6988 97.1298L73.4045 105.436L72.8631 85.535L72.0107 97.7883L68.9241 95.9541L71.6309 100.047L70.8916 114.534L68.4676 110.676L70.5724 117.544L65.4861 205.975Z" fill="#263238"/>
<path d="M149.962 83.317C149.962 83.317 141.701 83.6038 139.757 97.1176C137.814 110.631 144.129 113.855 136.796 121.006C129.464 128.157 128.595 133.013 132.489 135.978C136.384 138.944 138.57 142.317 133.928 147.65C129.286 152.983 128.866 160.578 146.246 164.8C163.626 169.022 176.307 156.861 176.719 148.919C177.131 140.976 171.1 136.015 170.526 129.486C169.952 122.957 181.79 116.344 180.101 107.456C178.412 98.568 166.139 102.426 162.454 95.6592C158.77 88.8922 158.224 83.0301 149.962 83.317Z" fill="#306042"/>
<g opacity="0.5">
<path d="M149.962 83.317C149.962 83.317 141.701 83.6038 139.757 97.1176C137.814 110.631 144.129 113.855 136.796 121.006C129.464 128.157 128.595 133.013 132.489 135.978C136.384 138.944 138.57 142.317 133.928 147.65C129.286 152.983 128.866 160.578 146.246 164.8C163.626 169.022 176.307 156.861 176.719 148.919C177.131 140.976 171.1 136.015 170.526 129.486C169.952 122.957 181.79 116.344 180.101 107.456C178.412 98.568 166.139 102.426 162.454 95.6592C158.77 88.8922 158.224 83.0301 149.962 83.317Z" fill="white"/>
</g>
<path d="M147.539 198.009L150.556 197.904L152.746 129.765L156.212 117.96L152.399 125.781L152.742 118.259L158.802 104.745L152.803 113.261L151.566 93.3887L151.138 105.662L147.991 103.941L150.839 107.937L150.605 122.444L148.027 118.671L150.367 125.458L147.539 198.009Z" fill="#263238"/>
<path d="M200.85 195.322C200.131 192.211 198.948 188.345 197.299 186.903C194.374 184.341 189.623 188.369 187.054 186.539C184.484 184.709 189.979 166.771 181.196 165.672C172.413 164.574 169.116 182.879 165.088 184.709C161.06 186.539 159.598 179.95 154.108 179.582C149.308 179.263 140.032 192.106 137.774 195.338L200.85 195.322Z" fill="#306042"/>
<path d="M101.681 196.122C101.955 193.989 102.105 190.062 99.9555 187.921C96.9053 184.871 92.332 189.824 91.1887 189.824C90.0454 189.824 89.6616 186.777 86.2316 184.107C82.8016 181.437 78.6081 184.871 76.3215 184.107C74.0348 183.343 78.2284 171.53 71.7482 171.151C65.268 170.771 62.9814 187.157 58.4162 187.157C53.851 187.157 53.0794 184.107 48.5061 186.777C44.9226 188.866 42.9794 193.993 42.3047 196.122H101.681Z" fill="#306042"/>
<path opacity="0.25" d="M101.681 196.122C101.955 193.989 102.105 190.062 99.9555 187.921C96.9053 184.871 92.332 189.824 91.1887 189.824C90.0454 189.824 89.6616 186.777 86.2316 184.107C82.8016 181.437 78.6081 184.871 76.3215 184.107C74.0348 183.343 78.2284 171.53 71.7482 171.151C65.268 170.771 62.9814 187.157 58.4162 187.157C53.851 187.157 53.0794 184.107 48.5061 186.777C44.9226 188.866 42.9794 193.993 42.3047 196.122H101.681Z" fill="black"/>
<path d="M54.6064 195.609L50.5139 188.963" stroke="#263238" stroke-width="0.404" stroke-linecap="round" stroke-linejoin="round"/>
<path d="M69.2637 195.096L71.3079 175.837" stroke="#263238" stroke-width="0.404" stroke-linecap="round" stroke-linejoin="round"/>
<path d="M81.0239 195.439L83.0682 187.941" stroke="#263238" stroke-width="0.404" stroke-linecap="round" stroke-linejoin="round"/>
<path d="M95.5073 195.778L97.5556 190.494" stroke="#263238" stroke-width="0.404" stroke-linecap="round" stroke-linejoin="round"/>
<path d="M54.9458 189.133L52.9016 192.712L48.1304 190.838" stroke="#263238" stroke-width="0.404" stroke-linecap="round" stroke-linejoin="round"/>
<path d="M68.2415 177.372L70.6251 181.634L73.8651 177.712" stroke="#263238" stroke-width="0.404" stroke-linecap="round" stroke-linejoin="round"/>
<path d="M66.876 184.192L69.9464 187.941L73.0127 185.553" stroke="#263238" stroke-width="0.404" stroke-linecap="round" stroke-linejoin="round"/>
<path d="M82.2158 191.177L86.3043 188.793" stroke="#263238" stroke-width="0.404" stroke-linecap="round" stroke-linejoin="round"/>
<path d="M81.8764 192.542L79.8281 187.258" stroke="#263238" stroke-width="0.404" stroke-linecap="round" stroke-linejoin="round"/>
<path d="M96.5335 193.051L95.5073 189.642" stroke="#263238" stroke-width="0.404" stroke-linecap="round" stroke-linejoin="round"/>
<path d="M96.1902 193.734L99.0869 192.542" stroke="#263238" stroke-width="0.404" stroke-linecap="round" stroke-linejoin="round"/>
<path d="M116.548 100.838C115.238 98.2935 113.549 95.9627 111.538 93.926C110.102 92.4719 108.356 91.3615 106.429 90.678C104.503 89.9945 102.448 89.7555 100.416 89.9789C92.223 90.9081 89.9808 101.352 87.6618 107.702C82.1189 122.873 75.2429 145.371 95.9681 151.997C104.9 154.853 117.17 151.997 120.762 142.422C123.868 134.14 123.82 125.022 121.937 116.465C120.822 111.46 119.17 105.759 116.548 100.838Z" fill="#306042"/>
<path d="M99.6079 205.862H102.63L104.456 139.146L108.33 127.482L104.246 135.158L104.86 127.656L111.389 114.36L105.102 122.671L104.561 102.77L103.704 115.019L100.618 113.189L103.325 117.281L102.585 131.769L100.161 127.911L102.262 134.779L99.6079 205.862Z" fill="#263238"/>
<path d="M103.773 164.133L103.83 162.162C103.349 162.162 102.666 162.327 102.666 163.054C102.666 163.656 103.244 163.972 103.773 164.133Z" fill="#99907D"/>
<path d="M103.163 141.537C103.163 142.18 103.814 142.491 104.375 142.644L104.432 140.624C103.951 140.645 103.163 140.758 103.163 141.537Z" fill="#99907D"/>
<path d="M102.792 150.619C102.792 151.306 103.539 151.617 104.117 151.755L104.173 149.735C103.725 149.706 102.792 149.767 102.792 150.619Z" fill="#99907D"/>
<path d="M103.911 129.228C104.068 128.589 103.313 128.565 102.747 128.63L102.646 130.65C103.066 130.399 103.741 129.898 103.911 129.228Z" fill="#99907D"/>
<path d="M101.422 194.272C101.422 195.023 102.315 195.326 102.905 195.443L102.961 193.395C102.638 193.359 101.422 193.302 101.422 194.272Z" fill="#99907D"/>
<path d="M103.078 122.154L102.977 124.133C103.524 123.832 103.944 123.344 104.161 122.76C104.31 122.154 103.648 122.101 103.078 122.154Z" fill="#99907D"/>
<path d="M103.648 116.417C103.648 117.091 104.375 117.402 104.949 117.544L104.892 115.524C104.428 115.536 103.648 115.645 103.648 116.417Z" fill="#99907D"/>
<path d="M102.84 181.077C103.143 179.865 101.571 179.897 100.557 180.039L100.42 183.711C101.147 183.295 102.517 182.362 102.84 181.077Z" fill="#99907D"/>
<path d="M103.163 184.943C103.163 184.943 101.547 184.697 101.547 185.816C101.547 186.624 102.557 186.907 103.139 187.028L103.191 185.113L103.163 184.943Z" fill="#99907D"/>
<path d="M101.919 169.555C101.919 170.52 102.727 171.094 103.571 171.425L103.668 167.915C102.84 168.02 101.919 168.395 101.919 169.555Z" fill="#99907D"/>
<path d="M101.079 166.056L101.006 168.024C101.544 167.724 101.957 167.241 102.169 166.662C102.323 166.036 101.628 166.004 101.079 166.056Z" fill="#99907D"/>
<path d="M101.846 145.521L101.781 147.21C102.141 146.942 102.407 146.567 102.541 146.139C102.658 145.67 102.278 145.537 101.846 145.521Z" fill="#99907D"/>
<path d="M102.169 177.235C102.363 176.463 101.208 176.589 100.683 176.685L100.602 178.827C100.844 178.705 101.947 178.12 102.169 177.235Z" fill="#99907D"/>
<path d="M180.788 70.3567C179.48 67.8109 177.79 65.4799 175.778 63.4442C174.342 61.9896 172.594 60.8789 170.668 60.1953C168.741 59.5118 166.684 59.2731 164.652 59.4972C156.463 60.4223 154.217 70.8698 151.898 77.2166C146.343 92.3908 139.467 114.89 160.208 121.515C169.144 124.371 181.414 121.515 185.001 111.94C188.108 103.654 188.06 94.5401 186.181 85.9834C185.062 80.9778 183.41 75.2774 180.788 70.3567Z" fill="#306042"/>
<path opacity="0.18" d="M180.788 70.3567C179.48 67.8109 177.79 65.4799 175.778 63.4442C174.342 61.9896 172.594 60.8789 170.668 60.1953C168.741 59.5118 166.684 59.2731 164.652 59.4972C156.463 60.4223 154.217 70.8698 151.898 77.2166C146.343 92.3908 139.467 114.89 160.208 121.515C169.144 124.371 181.414 121.515 185.001 111.94C188.108 103.654 188.06 94.5401 186.181 85.9834C185.062 80.9778 183.41 75.2774 180.788 70.3567Z" fill="black"/>
<path d="M162.685 194.316H165.706L168.692 108.668L172.566 97.0045L168.486 104.681L169.096 97.1823L175.629 83.8866L169.334 92.1888L168.801 72.308L167.945 84.5573L164.862 82.7271L167.565 86.8197L166.83 101.307L164.385 97.4489L166.486 104.317L162.685 194.316Z" fill="#263238"/>
<path d="M166.87 116.316C167.024 115.714 166.563 115.508 166.014 115.483L165.921 117.693C166.369 117.34 166.7 116.86 166.87 116.316Z" fill="#5C5C5C"/>
<path d="M164.595 150.745L164.494 153.399C165.064 153.035 165.856 152.393 166.066 151.561C166.276 150.728 165.343 150.684 164.595 150.745Z" fill="#5C5C5C"/>
<path d="M167.323 91.5707L167.189 94.221C167.759 93.8533 168.539 93.219 168.745 92.3908C168.951 91.5626 168.066 91.5061 167.323 91.5707Z" fill="#5C5C5C"/>
<path d="M166.567 123.903C166.608 123.771 166.608 123.63 166.567 123.499C167.144 122.946 167.563 122.248 167.779 121.479C168.086 120.267 166.971 119.972 165.832 119.988L165.61 125.281C166.06 124.928 166.393 124.448 166.567 123.903Z" fill="#5C5C5C"/>
<path d="M169.153 85.1431L169.084 82.7191C168.804 82.7483 168.546 82.8809 168.359 83.091C168.172 83.301 168.07 83.5733 168.074 83.8544C168.074 84.4967 168.579 84.8967 169.153 85.1431Z" fill="#5C5C5C"/>
<path d="M166.159 103.222C166.396 102.988 166.592 102.714 166.737 102.414L166.704 103.012C167.274 102.665 168.187 101.99 168.409 101.089C168.631 100.188 167.638 100.196 166.878 100.281L166.83 101.271L166.797 101.218V101.497C166.571 101.23 166.054 101.194 165.585 101.226L166.159 103.222Z" fill="#5C5C5C"/>
<path d="M167.541 97.2065C167.541 98.0145 168.284 98.4185 168.987 98.6448L169.056 97.7883L169.108 96.0067C168.462 96.0269 167.541 96.2248 167.541 97.2065Z" fill="#5C5C5C"/>
<path d="M163.953 167.955C164.28 167.793 165.767 167.002 166.066 165.81C166.325 164.767 164.769 164.937 164.046 165.066L163.953 167.955Z" fill="#5C5C5C"/>
<path d="M166.737 146.701C166.742 146.91 166.8 147.115 166.905 147.296C167.01 147.478 167.159 147.63 167.339 147.739L167.411 145.67C167.204 145.749 167.028 145.891 166.906 146.076C166.785 146.261 166.726 146.48 166.737 146.701Z" fill="#5C5C5C"/>
<path d="M168.078 126.694C167.605 126.65 166.034 126.598 166.034 127.882C166.034 128.557 166.567 128.961 167.161 129.203C166.984 129.407 166.892 129.67 166.902 129.939C166.902 130.569 167.371 130.965 167.92 131.211L168.078 126.694Z" fill="#5C5C5C"/>
<path d="M167.407 117.701C167.425 117.977 167.524 118.242 167.692 118.461C167.859 118.681 168.088 118.847 168.349 118.938L168.433 116.562C168.151 116.589 167.888 116.72 167.698 116.931C167.508 117.143 167.404 117.417 167.407 117.701Z" fill="#5C5C5C"/>
<path d="M168.502 104.689L168.571 103.808C167.553 104.006 166.551 104.555 166.551 105.965C166.551 107.27 167.621 108.038 168.777 108.49L168.902 103.965L168.502 104.689Z" fill="#5C5C5C"/>
<path d="M165.731 155.459C165.746 155.881 165.87 156.291 166.092 156.649C166.314 157.008 166.625 157.302 166.995 157.504L167.137 153.464C166.713 153.591 166.344 153.857 166.09 154.219C165.835 154.581 165.708 155.017 165.731 155.459Z" fill="#5C5C5C"/>
<path d="M166.486 172.096L166.567 169.817C165.933 169.413 164.761 169.486 163.893 169.607L163.707 174.52C164.807 173.936 165.758 173.106 166.486 172.096Z" fill="#5C5C5C"/>
<path d="M165.937 187.67C165.684 187.72 165.456 187.858 165.296 188.06C165.135 188.262 165.052 188.515 165.06 188.773C165.072 189.023 165.155 189.265 165.297 189.471C165.44 189.676 165.638 189.838 165.868 189.937L165.937 187.67Z" fill="#5C5C5C"/>
<path d="M165.226 177.376C165.226 178.011 165.703 178.407 166.256 178.653L166.341 176.229C165.787 176.318 165.226 176.609 165.226 177.376Z" fill="#5C5C5C"/>
<path d="M71.9785 112.441C71.9785 112.441 65.4943 114.239 62.0361 121.96C58.5778 129.68 64.1571 135.748 61.4624 143.436C58.7677 151.124 51.1281 154.995 57.9557 161.002C64.7833 167.01 73.4491 157.552 78.0304 158.36C82.6118 159.168 82.9714 167.478 95.4307 163.903C107.89 160.327 103.915 149.654 99.1394 144.814C94.3641 139.974 98.0729 131.991 94.8288 121.281C92.3361 113.064 80.915 109.019 71.9785 112.441Z" fill="#306042"/>
<path opacity="0.5" d="M71.9785 112.441C71.9785 112.441 65.4943 114.239 62.0361 121.96C58.5778 129.68 64.1571 135.748 61.4624 143.436C58.7677 151.124 51.1281 154.995 57.9557 161.002C64.7833 167.01 73.4491 157.552 78.0304 158.36C82.6118 159.168 82.9714 167.478 95.4307 163.903C107.89 160.327 103.915 149.654 99.1394 144.814C94.3641 139.974 98.0729 131.991 94.8288 121.281C92.3361 113.064 80.915 109.019 71.9785 112.441Z" fill="white"/>
<path d="M77.0486 210.892L79.1656 149.726L64.5852 139.513L79.3272 147.702L79.4443 138.863L76.1921 133.708L79.8726 137.077L80.8745 125.426L81.6461 143.056L91.9966 137.304L81.7794 146.078L81.5007 156.946L89.9402 153.799L81.3593 159.475L80.0705 210.759L77.0486 210.892Z" fill="#263238"/>
<path d="M80.2161 155.859C80.6187 156.076 81.084 156.148 81.5332 156.061L81.5817 154.215C81.0241 154.51 79.4081 155.455 80.2161 155.859Z" fill="#99907D"/>
<path d="M77.8648 187.303L77.8123 188.822V189.149C78.332 188.849 78.8158 188.491 79.2545 188.082C79.6989 187.626 78.7293 187.408 77.8648 187.303Z" fill="#99907D"/>
<path d="M78.4342 170.783L78.3777 172.488C78.8263 172.217 79.2448 171.898 79.626 171.538C80.0502 171.114 79.2422 170.884 78.4342 170.783Z" fill="#99907D"/>
<path d="M78.1516 179.069C78.6841 178.766 79.179 178.401 79.6262 177.982C80.0908 177.518 79.0849 177.3 78.2163 177.199L78.188 177.978L78.1516 179.069Z" fill="#99907D"/>
<path d="M79.3838 143.412V144.22C79.7844 143.971 80.1581 143.681 80.4988 143.355C80.9028 142.951 80.1797 142.729 79.404 142.612L79.3838 143.412Z" fill="#99907D"/>
<path d="M79.0605 152.785C79.8961 152.306 80.673 151.731 81.3755 151.072C82.1107 150.341 80.5392 149.993 79.1615 149.832L79.0605 152.785Z" fill="#99907D"/>
<path d="M80.107 175.001C80.3728 175.138 80.6647 175.218 80.9635 175.235L81.0039 173.619C80.3373 174.039 79.4727 174.686 80.107 175.001Z" fill="#99907D"/>
<path d="M79.7758 168.84C80.1982 169.055 80.6481 169.211 81.113 169.304L81.1938 166.072C79.8121 167.006 78.5113 168.21 79.7758 168.84Z" fill="#99907D"/>
<path d="M79.517 181.958C79.9088 182.164 80.3431 182.276 80.7856 182.285L80.8421 180.022C79.921 180.58 78.6242 181.509 79.517 181.958Z" fill="#99907D"/>
<path d="M80.6603 187.246L80.7047 185.436C80.0906 185.775 78.6847 186.648 79.4321 187.024C79.8078 187.226 80.2377 187.303 80.6603 187.246Z" fill="#99907D"/>
<path d="M78.7132 162.804L78.6526 164.59C79.1426 164.304 79.5981 163.962 80.01 163.572C80.4544 163.111 79.5535 162.889 78.7132 162.804Z" fill="#99907D"/>
<path d="M116.249 205.975C116.176 205.618 116.03 205.28 115.822 204.98C115.614 204.681 115.346 204.427 115.037 204.234C113.825 203.58 113.825 204.234 112.423 203.798C111.486 203.511 111.672 201.374 111.595 200.671C111.36 198.461 110.136 196.55 107.878 195.976C106.752 195.672 105.567 195.661 104.436 195.944C103.305 196.227 102.264 196.794 101.414 197.592C98.691 200.206 99.0182 202.493 97.277 202.598C95.5357 202.703 94.554 200.53 91.5038 201.839C89.6333 202.647 88.6758 204.59 88.1951 205.975H116.249Z" fill="#306042"/>
<path opacity="0.5" d="M116.249 205.975C116.176 205.618 116.03 205.28 115.822 204.98C115.614 204.681 115.346 204.427 115.037 204.234C113.825 203.58 113.825 204.234 112.423 203.798C111.486 203.511 111.672 201.374 111.595 200.671C111.36 198.461 110.136 196.55 107.878 195.976C106.752 195.672 105.567 195.661 104.436 195.944C103.305 196.227 102.264 196.794 101.414 197.592C98.691 200.206 99.0182 202.493 97.277 202.598C95.5357 202.703 94.554 200.53 91.5038 201.839C89.6333 202.647 88.6758 204.59 88.1951 205.975H116.249Z" fill="white"/>
<path d="M94.4167 205.935L93.0916 204.731" stroke="#263238" stroke-width="0.404" stroke-linecap="round" stroke-linejoin="round"/>
<path d="M102.493 205.996L106.052 198.764" stroke="#263238" stroke-width="0.404" stroke-linecap="round" stroke-linejoin="round"/>
<path d="M104.242 199.305L104.662 201.657L107.498 200.089" stroke="#263238" stroke-width="0.404" stroke-linecap="round" stroke-linejoin="round"/>
<path d="M101.951 201.717L103.397 204.368L106.23 203.463" stroke="#263238" stroke-width="0.404" stroke-linecap="round" stroke-linejoin="round"/>
<path d="M93.5481 211.126C93.2451 209.939 92.53 208.173 90.8615 207.264C88.2032 205.814 88.2032 207.264 85.0641 206.299C82.9835 205.656 83.3956 200.97 83.2259 199.366C82.7047 194.457 79.9939 190.215 74.9762 188.951C69.902 187.666 64.4722 188.87 60.6665 192.53C54.6308 198.328 55.3539 203.398 51.4876 203.64C47.6214 203.883 45.4721 199.051 38.697 201.948C34.5641 203.729 32.4027 208.052 31.3604 211.126H93.5481Z" fill="#306042"/>
<path d="M45.1328 211.038L42.1917 208.367" stroke="#263238" stroke-width="0.404" stroke-linecap="round" stroke-linejoin="round"/>
<path d="M63.0459 211.175L70.936 195.128" stroke="#263238" stroke-width="0.404" stroke-linecap="round" stroke-linejoin="round"/>
<path d="M83.6379 210.771L86.1751 209.167" stroke="#263238" stroke-width="0.404" stroke-linecap="round" stroke-linejoin="round"/>
<path d="M66.9243 196.332L67.8616 201.548L74.1438 198.069" stroke="#263238" stroke-width="0.404" stroke-linecap="round" stroke-linejoin="round"/>
<path d="M61.842 201.681L65.0538 207.563L71.336 205.559" stroke="#263238" stroke-width="0.404" stroke-linecap="round" stroke-linejoin="round"/>
<path d="M44.9992 207.696L44.4619 210.638L41.5208 210.104" stroke="#263238" stroke-width="0.404" stroke-linecap="round" stroke-linejoin="round"/>
<path d="M84.4378 210.104L84.0378 208.634" stroke="#263238" stroke-width="0.404" stroke-linecap="round" stroke-linejoin="round"/>
<path d="M66.9042 196.578C67.1429 196.578 67.3365 196.385 67.3365 196.146C67.3365 195.907 67.1429 195.714 66.9042 195.714C66.6655 195.714 66.4719 195.907 66.4719 196.146C66.4719 196.385 66.6655 196.578 66.9042 196.578Z" fill="#263238"/>
<path d="M71.3644 195.124C71.37 195.21 71.3497 195.296 71.3061 195.37C71.2625 195.445 71.1976 195.505 71.1198 195.542C71.042 195.579 70.9547 195.592 70.8694 195.58C70.784 195.567 70.7044 195.529 70.6408 195.471C70.5772 195.412 70.5325 195.336 70.5125 195.252C70.4925 195.168 70.4981 195.08 70.5286 195C70.559 194.919 70.613 194.849 70.6835 194.799C70.7539 194.749 70.8377 194.722 70.924 194.72C71.0356 194.717 71.1441 194.757 71.2263 194.833C71.3086 194.908 71.3581 195.013 71.3644 195.124Z" fill="#263238"/>
<path d="M74.5316 198.316C74.7704 198.316 74.9639 198.122 74.9639 197.883C74.9639 197.645 74.7704 197.451 74.5316 197.451C74.2929 197.451 74.0994 197.645 74.0994 197.883C74.0994 198.122 74.2929 198.316 74.5316 198.316Z" fill="#263238"/>
<path d="M72.0027 205.483C72.0035 205.568 71.9788 205.653 71.9316 205.724C71.8844 205.796 71.8169 205.852 71.7377 205.885C71.6586 205.918 71.5713 205.927 71.4871 205.911C71.4029 205.894 71.3255 205.853 71.2648 205.792C71.2041 205.732 71.1628 205.654 71.1463 205.57C71.1297 205.486 71.1386 205.398 71.1719 205.319C71.2051 205.24 71.2611 205.173 71.3328 205.126C71.4045 205.078 71.4886 205.054 71.5745 205.054C71.6877 205.055 71.796 205.101 71.8761 205.181C71.9562 205.261 72.0017 205.369 72.0027 205.483Z" fill="#263238"/>
<path d="M61.8017 202.036C62.0404 202.036 62.2339 201.843 62.2339 201.604C62.2339 201.365 62.0404 201.172 61.8017 201.172C61.5629 201.172 61.3694 201.365 61.3694 201.604C61.3694 201.843 61.5629 202.036 61.8017 202.036Z" fill="#263238"/>
<path d="M84.038 209.066C84.2767 209.066 84.4703 208.873 84.4703 208.634C84.4703 208.395 84.2767 208.201 84.038 208.201C83.7993 208.201 83.6057 208.395 83.6057 208.634C83.6057 208.873 83.7993 209.066 84.038 209.066Z" fill="#263238"/>
<path d="M86.5872 209.074C86.588 209.16 86.5633 209.244 86.5163 209.315C86.4693 209.387 86.4021 209.443 86.3232 209.476C86.2443 209.51 86.1572 209.519 86.0731 209.503C85.989 209.486 85.9116 209.446 85.8507 209.385C85.7898 209.325 85.7483 209.248 85.7313 209.164C85.7143 209.08 85.7226 208.993 85.7552 208.914C85.7878 208.834 85.8432 208.767 85.9143 208.719C85.9855 208.671 86.0692 208.646 86.1549 208.646C86.2689 208.646 86.3782 208.691 86.4592 208.771C86.5401 208.851 86.5861 208.96 86.5872 209.074Z" fill="#263238"/>
<path d="M44.9994 208.129C45.2382 208.129 45.4317 207.935 45.4317 207.697C45.4317 207.458 45.2382 207.264 44.9994 207.264C44.7607 207.264 44.5671 207.458 44.5671 207.697C44.5671 207.935 44.7607 208.129 44.9994 208.129Z" fill="#263238"/>
<path d="M42.4825 208.141C42.4825 208.226 42.4571 208.31 42.4096 208.381C42.3621 208.452 42.2946 208.508 42.2156 208.54C42.1366 208.573 42.0497 208.582 41.9659 208.565C41.882 208.548 41.805 208.507 41.7445 208.447C41.6841 208.386 41.6429 208.309 41.6262 208.225C41.6095 208.141 41.6181 208.054 41.6508 207.975C41.6835 207.896 41.7389 207.829 41.81 207.781C41.8811 207.734 41.9647 207.709 42.0502 207.709C42.1648 207.709 42.2748 207.754 42.3559 207.835C42.4369 207.916 42.4825 208.026 42.4825 208.141Z" fill="#263238"/>
<path d="M41.331 210.512C41.5697 210.512 41.7632 210.319 41.7632 210.08C41.7632 209.841 41.5697 209.648 41.331 209.648C41.0922 209.648 40.8987 209.841 40.8987 210.08C40.8987 210.319 41.0922 210.512 41.331 210.512Z" fill="#263238"/>
<path d="M130.938 194.041C130.938 194.041 111.95 195.144 113.873 196.243C115.796 197.342 131.213 198.72 128.736 201.495C126.26 204.271 95.7053 211.676 95.7053 211.676" stroke="#263238" stroke-width="0.404" stroke-linecap="round" stroke-linejoin="round"/>
<path d="M141.398 194.041C141.398 194.041 134.239 195.144 135.338 195.968C136.437 196.793 186.242 197.895 183.228 212.209" stroke="#263238" stroke-width="0.404" stroke-linecap="round" stroke-linejoin="round"/>
<path d="M174.962 161.531C174.962 161.531 168.413 162.222 159.113 153.266C149.813 144.309 168.07 112.611 175.305 105.723C182.541 98.8347 197.376 142.927 191.841 151.197C186.306 159.467 180.473 161.188 174.962 161.531Z" fill="#306042"/>
<path d="M172.203 197.706L173.237 151.54L168.761 146.721L173.584 149.476V141.206L167.383 133.971L173.237 138.451L172.55 132.593L174.271 135.348L175.305 118.812L175.992 143.961L187.365 137.76L175.992 147.408V151.888V199.083" fill="#263238"/>
<path d="M174.728 177.752C175.019 177.025 173.164 176.944 172.671 176.916L172.623 179.122C173.269 178.863 174.485 178.346 174.728 177.752Z" fill="#99907D"/>
<path d="M175.992 159.099C175.051 159.334 173.124 159.907 173.685 160.457C174.13 160.897 175.204 161.075 175.992 161.144V159.099Z" fill="#99907D"/>
<path d="M174.865 165.317C175.16 164.582 172.95 164.582 172.95 164.582V164.618L172.906 166.557C173.427 166.371 174.635 165.891 174.865 165.317Z" fill="#99907D"/>
<path d="M174.72 155.746C174.938 155.197 173.77 155.055 173.16 155.019L173.12 156.849C173.706 156.611 174.534 156.207 174.72 155.746Z" fill="#99907D"/>
<path d="M172.55 187.795L172.405 188.818L172.376 190.086C172.881 189.916 174.449 189.335 174.728 188.632C175.063 187.795 172.55 187.795 172.55 187.795Z" fill="#99907D"/>
<path d="M173.387 172.205C173.888 172.706 175.096 172.904 175.992 172.989V170.666C174.914 170.937 172.752 171.571 173.387 172.205Z" fill="#99907D"/>
<path d="M173.54 150.886C174.009 151.355 175.196 151.524 175.992 151.585V149.492C175.124 149.698 172.946 150.28 173.54 150.886Z" fill="#99907D"/>
<path d="M175.823 137.756C174.857 138.039 173.673 138.491 174.13 138.968C174.473 139.311 175.196 139.493 175.875 139.594L175.823 137.756Z" fill="#99907D"/>
<path d="M175.992 181.562C174.914 181.832 172.76 182.467 173.386 183.101C173.887 183.602 175.095 183.804 175.992 183.885V181.562Z" fill="#99907D"/>
<path d="M173.584 143.085V144.971C174.17 144.745 175.108 144.313 175.306 143.816C175.56 143.214 174.11 143.105 173.584 143.085Z" fill="#99907D"/>
<path d="M197.376 198.211C197.675 195.484 195.457 192.555 192.649 192.413C190.128 192.292 187.357 193.985 185.256 192.587C183.539 191.444 183.503 189.003 183.309 186.931C183.115 184.858 182.549 182.806 181.208 181.275C179.867 179.744 177.612 178.851 175.689 179.554C171.815 180.98 171.577 187.335 167.609 188.506C164.87 189.314 162.014 187.04 159.202 187.545C155.76 188.159 154.205 191.969 151.562 193.831C151.288 194.025 150.14 194.857 148.823 195.819C147.72 196.627 146.5 197.52 145.591 198.211H197.376Z" fill="#306042"/>
<path opacity="0.5" d="M197.376 198.211C197.675 195.484 195.457 192.555 192.649 192.413C190.128 192.292 187.357 193.985 185.256 192.587C183.539 191.444 183.503 189.003 183.309 186.931C183.115 184.858 182.549 182.806 181.208 181.275C179.867 179.744 177.612 178.851 175.689 179.554C171.815 180.98 171.577 187.335 167.609 188.506C164.87 189.314 162.014 187.04 159.202 187.545C155.76 188.159 154.205 191.969 151.562 193.831C151.288 194.025 150.14 194.857 148.823 195.819C147.72 196.627 146.5 197.52 145.591 198.211H197.376Z" fill="white"/>
<path d="M165.246 197.984L163.073 191.633" stroke="#263238" stroke-width="0.404" stroke-linecap="round" stroke-linejoin="round"/>
<path d="M172.934 198.154L177.447 185.953" stroke="#263238" stroke-width="0.404" stroke-linecap="round" stroke-linejoin="round"/>
<path d="M189.312 198.154L191.987 195.645" stroke="#263238" stroke-width="0.404" stroke-linecap="round" stroke-linejoin="round"/>
<path d="M164.648 196.481L166.082 192.639" stroke="#263238" stroke-width="0.404" stroke-linecap="round" stroke-linejoin="round"/>
<path d="M164.369 195.544L159.396 194.308" stroke="#263238" stroke-width="0.404" stroke-linecap="round" stroke-linejoin="round"/>
<path d="M176.109 189.63L174.772 187.456" stroke="#263238" stroke-width="0.404" stroke-linecap="round" stroke-linejoin="round"/>
<path d="M174.772 192.971L179.616 190.3" stroke="#263238" stroke-width="0.404" stroke-linecap="round" stroke-linejoin="round"/>
<path d="M173.326 197.213L177.778 195.645" stroke="#263238" stroke-width="0.404" stroke-linecap="round" stroke-linejoin="round"/>
<path d="M173.936 195.48L171.096 190.466" stroke="#263238" stroke-width="0.404" stroke-linecap="round" stroke-linejoin="round"/>
<path d="M177.875 185.953C177.875 186.039 177.85 186.123 177.802 186.194C177.754 186.265 177.686 186.32 177.607 186.353C177.528 186.386 177.441 186.394 177.357 186.377C177.273 186.36 177.196 186.318 177.136 186.257C177.075 186.197 177.035 186.119 177.018 186.035C177.002 185.951 177.011 185.864 177.045 185.785C177.078 185.706 177.134 185.639 177.206 185.592C177.277 185.545 177.361 185.52 177.447 185.521C177.503 185.521 177.559 185.532 177.612 185.554C177.664 185.576 177.711 185.608 177.751 185.648C177.791 185.688 177.822 185.736 177.844 185.788C177.865 185.841 177.876 185.897 177.875 185.953Z" fill="#263238"/>
<path d="M175.156 187.42C175.156 187.505 175.131 187.589 175.083 187.66C175.036 187.731 174.968 187.786 174.889 187.819C174.81 187.852 174.723 187.86 174.639 187.844C174.556 187.827 174.479 187.786 174.418 187.725C174.358 187.665 174.316 187.588 174.3 187.504C174.283 187.42 174.292 187.333 174.324 187.254C174.357 187.175 174.413 187.108 174.484 187.06C174.555 187.013 174.638 186.987 174.724 186.987C174.781 186.987 174.837 186.998 174.89 187.019C174.943 187.041 174.99 187.073 175.031 187.113C175.071 187.153 175.103 187.201 175.124 187.254C175.146 187.306 175.157 187.363 175.156 187.42Z" fill="#263238"/>
<path d="M179.616 190.733C179.855 190.733 180.048 190.539 180.048 190.3C180.048 190.062 179.855 189.868 179.616 189.868C179.377 189.868 179.184 190.062 179.184 190.3C179.184 190.539 179.377 190.733 179.616 190.733Z" fill="#263238"/>
<path d="M171.096 190.898C171.335 190.898 171.528 190.705 171.528 190.466C171.528 190.227 171.335 190.034 171.096 190.034C170.857 190.034 170.664 190.227 170.664 190.466C170.664 190.705 170.857 190.898 171.096 190.898Z" fill="#263238"/>
<path d="M178.004 196.013C178.243 196.013 178.437 195.819 178.437 195.581C178.437 195.342 178.243 195.148 178.004 195.148C177.766 195.148 177.572 195.342 177.572 195.581C177.572 195.819 177.766 196.013 178.004 196.013Z" fill="#263238"/>
<path d="M191.817 196.182C192.056 196.182 192.249 195.989 192.249 195.75C192.249 195.511 192.056 195.318 191.817 195.318C191.578 195.318 191.385 195.511 191.385 195.75C191.385 195.989 191.578 196.182 191.817 196.182Z" fill="#263238"/>
<path d="M163.505 191.633C163.505 191.719 163.481 191.803 163.434 191.875C163.387 191.946 163.32 192.002 163.241 192.036C163.162 192.069 163.075 192.078 162.991 192.062C162.906 192.046 162.829 192.005 162.768 191.945C162.707 191.884 162.666 191.807 162.649 191.723C162.632 191.639 162.64 191.552 162.673 191.473C162.705 191.394 162.761 191.326 162.832 191.278C162.903 191.231 162.987 191.205 163.072 191.205C163.186 191.205 163.296 191.25 163.377 191.33C163.458 191.411 163.504 191.519 163.505 191.633Z" fill="#263238"/>
<path d="M166.006 193.084C166.244 193.084 166.438 192.89 166.438 192.652C166.438 192.413 166.244 192.219 166.006 192.219C165.767 192.219 165.573 192.413 165.573 192.652C165.573 192.89 165.767 193.084 166.006 193.084Z" fill="#263238"/>
<path d="M159.396 194.74C159.635 194.74 159.828 194.547 159.828 194.308C159.828 194.069 159.635 193.876 159.396 193.876C159.157 193.876 158.964 194.069 158.964 194.308C158.964 194.547 159.157 194.74 159.396 194.74Z" fill="#263238"/>
<path d="M209.803 204.23C209.715 203.794 209.538 203.381 209.285 203.016C209.031 202.65 208.706 202.341 208.329 202.105C206.866 201.297 206.866 202.105 205.141 201.576C203.998 201.224 204.224 198.647 204.131 197.762C203.844 195.067 202.349 192.736 199.594 192.037C198.223 191.668 196.78 191.654 195.402 191.999C194.024 192.343 192.756 193.034 191.72 194.005C188.399 197.193 188.799 199.98 186.674 200.113C184.549 200.247 183.353 197.592 179.636 199.184C177.354 200.162 176.174 202.537 175.596 204.23H209.803Z" fill="#306042"/>
<path d="M183.179 204.182L181.563 202.711" stroke="#263238" stroke-width="0.404" stroke-linecap="round" stroke-linejoin="round"/>
<path d="M193.029 204.254L197.368 195.435" stroke="#263238" stroke-width="0.404" stroke-linecap="round" stroke-linejoin="round"/>
<path d="M195.162 196.098L195.675 198.962L199.129 197.051" stroke="#263238" stroke-width="0.404" stroke-linecap="round" stroke-linejoin="round"/>
<path d="M192.371 199.039L194.132 202.271L197.586 201.168" stroke="#263238" stroke-width="0.404" stroke-linecap="round" stroke-linejoin="round"/>
</g>
<defs>
<filter id="filter0_d_51_4390" x="0" y="0" width="238" height="252" filterUnits="userSpaceOnUse" color-interpolation-filters="sRGB">
<feFlood flood-opacity="0" result="BackgroundImageFix"/>
<feColorMatrix in="SourceAlpha" type="matrix" values="0 0 0 0 0 0 0 0 0 0 0 0 0 0 0 0 0 0 127 0" result="hardAlpha"/>
<feOffset dy="4"/>
<feGaussianBlur stdDeviation="2"/>
<feComposite in2="hardAlpha" operator="out"/>
<feColorMatrix type="matrix" values="0 0 0 0 0 0 0 0 0 0 0 0 0 0 0 0 0 0 0.25 0"/>
<feBlend mode="normal" in2="BackgroundImageFix" result="effect1_dropShadow_51_4390"/>
<feBlend mode="normal" in="SourceGraphic" in2="effect1_dropShadow_51_4390" result="shape"/>
</filter>
</defs>
</svg>
