<svg width="238" height="252" viewBox="0 0 238 252" fill="none" xmlns="http://www.w3.org/2000/svg">
<g filter="url(#filter0_d_51_4389)">
<g clip-path="url(#clip0_51_4389)">
<rect x="4" width="230" height="244" rx="32" fill="#99907D"/>
<g clip-path="url(#clip1_51_4389)">
<path d="M218.85 197.042H202.224V197.167H218.85V197.042Z" fill="#EBEBEB"/>
<path d="M159.273 198.407H154.91V198.533H159.273V198.407Z" fill="#EBEBEB"/>
<path d="M201.722 192.383H192.088V192.509H201.722V192.383Z" fill="#EBEBEB"/>
<path d="M41.0163 193.227H19.335V193.352H41.0163V193.227Z" fill="#EBEBEB"/>
<path d="M48.6667 193.227H45.489V193.352H48.6667V193.227Z" fill="#EBEBEB"/>
<path d="M106.025 195.345H58.998V195.471H106.025V195.345Z" fill="#EBEBEB"/>
<path d="M244 188.965H-7V189.09H244V188.965Z" fill="#EBEBEB"/>
<path d="M90.5137 161.325C90.5137 161.325 95.4031 153.674 95.6341 156.375C95.6341 156.375 99.4744 153.027 99.7856 156.034C99.7856 156.034 103.149 153.313 102.948 156.174C102.948 156.174 105.664 154.909 104.876 157.921C104.876 157.921 109.509 158.97 106.648 160.125C106.648 160.125 110.99 161.631 108.054 163.398C108.054 163.398 110.011 166.48 107.913 166.912C107.913 166.912 107.973 170.727 105.609 170.893C105.609 170.893 106.763 175.12 104.891 174.547C104.891 174.547 105.795 178.498 102.009 177.303C102.009 177.303 100.539 179.311 97.8981 177.098C97.8981 177.098 98.129 181.013 95.107 177.489C95.107 177.489 91.3972 178.95 91.7787 175.386C91.7787 175.386 89.7356 177.961 88.9273 174.979C88.9273 174.979 86.1463 180.19 84.5549 173.579C84.5549 173.579 81.2769 174.778 83.0489 170.742C83.0489 170.742 79.1685 170.496 81.9596 168.689C81.9596 168.689 78.4004 166.897 83.4656 166.179C83.4656 166.179 80.9004 164.106 85.2176 163.373C85.2176 163.343 84.6503 162.103 90.5137 161.325Z" fill="#EBEBEB"/>
<path d="M91.2414 189.075H94.891L94.1882 182.991L94.133 177.369L97.5817 172.755L102.441 168.84L105.935 168.639L105.995 168.247L102.797 168.177L104.007 166.254L103.646 165.993L101.959 168.122L97.7072 171.475L98.7664 165.466L101.397 160.612L100.995 160.21L98.2996 164.743L94.133 161.094L93.8318 161.435L98.0435 165.657L96.6179 172.103L93.5406 175.848L92.5667 171.957L92.145 168.061L93.5607 166.711L93.4101 166.31L91.7234 167.554L89.6752 165.11L89.4945 165.511L91.1561 167.941L91.382 171.581L86.7837 169L86.5427 169.347L91.5175 172.755L92.386 176.631L92.7474 179.823L92.5667 181.003L92.2053 183.413L91.2414 189.075Z" fill="#E0E0E0"/>
<path d="M64.5652 129.357C64.5652 129.357 42.0404 137.153 46.2823 130.863C46.2823 130.863 26.875 135.602 31.4934 128.504C31.4934 128.504 21.4534 127.264 26.7796 121.411C26.7796 121.411 20.5197 116.561 27.2264 111.441C27.2264 111.441 24.4855 100.156 31.9151 102.817C31.9151 102.817 29.3549 94.8498 38.0144 96.2906C38.0144 96.2906 40.2182 88.118 44.9219 90.9894C44.9219 90.9894 47.7632 77.4354 52.5322 81.341C52.5322 81.341 57.6677 70.0711 60.2229 74.6996C60.2229 74.6996 65.3533 64.4788 70.4587 73.9164C70.4587 73.9164 76.7136 72.2096 77.8933 81.7878C77.8933 81.7878 85.2124 76.2909 83.852 85.9845C83.852 85.9845 93.7113 92.2043 90.7495 95.4321C90.7495 95.4321 100.935 94.8649 97.3006 102.802C97.3006 102.802 107.029 104.182 100.313 116.14C100.313 116.14 107.993 122.164 102.155 125.366C102.155 125.366 105.408 131.601 96.9793 130.492C96.9793 130.492 98.3146 136.968 87.4413 129.413C87.4413 129.413 90.4533 139.422 81.0358 133.208C81.0308 133.183 77.0248 138.273 64.5652 129.357Z" fill="#F0F0F0"/>
<path d="M63.0189 149.713C63.0189 149.713 80.1421 157.971 77.3611 152.595C77.3611 152.595 92.3006 158.117 89.2936 152.093C89.2936 152.093 97.3708 152.043 93.6861 146.912C93.6861 146.912 99.0926 143.649 94.2483 138.976C94.2483 138.976 97.4662 130.286 91.3367 131.707C91.3367 131.707 94.0977 125.633 87.1099 125.959C87.1099 125.959 86.1059 119.282 82.125 121.12C82.125 121.12 81.121 110.116 76.9896 112.776C76.9896 112.776 73.9776 103.369 71.5077 106.802C71.5077 106.802 68.3903 98.2333 63.4757 105.236C63.4757 105.236 58.6766 103.309 56.8594 110.788C56.8594 110.788 51.5733 105.768 51.754 113.559C51.754 113.559 43.3706 117.575 45.4138 120.407C45.4138 120.407 37.3818 119.016 39.5454 125.638C39.5454 125.638 31.7092 125.833 35.936 135.929C35.936 135.929 29.2946 140 33.6218 143.067C33.6218 143.067 30.4743 147.705 37.2462 147.585C37.2462 147.585 35.5947 152.605 44.9017 147.61C44.9017 147.61 41.5685 155.261 49.6256 151.209C49.6205 151.224 52.3213 155.632 63.0189 149.713Z" fill="#F0F0F0"/>
<path d="M53.6165 189.206H64.279L60.1224 169.447L62.0551 151.179L72.1303 136.194L86.3118 128.961L96.5124 128.308L96.6881 127.023L87.366 126.802L90.885 120.557L89.8258 119.699L84.9112 126.631L72.4917 132.043L69.9666 112.525L80.7998 96.7473L79.6301 95.4421L68.6062 110.176L56.4277 98.3136L55.5492 99.418L67.8582 113.133L69.309 134.071L60.3282 146.24L54.3193 135.567L54.1436 120.949L58.2851 116.571L57.8383 115.266L52.9137 119.307L48.3405 115.266L47.8134 116.571L51.2671 120.557L50.8655 134.342L37.4421 129.091L36.7393 130.216L51.2671 138.147L56.9548 148.79L55.9006 159.166L47.8134 153.032L47.1106 154.683L55.3735 162.991L54.3193 170.817L53.6165 189.206Z" fill="#E0E0E0"/>
<path d="M187.851 83.6351H159.935V188.709H187.851V83.6351Z" fill="#F5F5F5"/>
<path d="M161.948 75.558H136.808V188.709H161.948V75.558Z" fill="#F0F0F0"/>
<path d="M141.226 130.271H116.085V188.709H141.226V130.271Z" fill="#F5F5F5"/>
<path d="M211.561 115.633H183.645V188.709H211.561V115.633Z" fill="#F0F0F0"/>
<path d="M143.796 86.6672H141.226V89.2626H143.796V86.6672Z" fill="white"/>
<path d="M157.526 86.6672H154.955V89.2626H157.526V86.6672Z" fill="white"/>
<path d="M143.796 95.0757H141.226V97.6711H143.796V95.0757Z" fill="white"/>
<path d="M150.663 95.0757H148.093V97.6711H150.663V95.0757Z" fill="white"/>
<path d="M157.526 103.479H154.955V106.075H157.526V103.479Z" fill="white"/>
<path d="M143.796 111.888H141.226V114.483H143.796V111.888Z" fill="white"/>
<path d="M150.663 111.888H148.093V114.483H150.663V111.888Z" fill="white"/>
<path d="M150.663 120.291H148.093V122.887H150.663V120.291Z" fill="white"/>
<path d="M157.526 120.291H154.955V122.887H157.526V120.291Z" fill="white"/>
<path d="M150.663 128.7H148.093V131.295H150.663V128.7Z" fill="white"/>
<path d="M157.526 128.7H154.955V131.295H157.526V128.7Z" fill="white"/>
<path d="M157.526 137.103H154.955V139.698H157.526V137.103Z" fill="white"/>
<path d="M150.663 145.512H148.093V148.107H150.663V145.512Z" fill="white"/>
<path d="M179.473 153.604H182.043V151.009H179.473V153.604Z" fill="white"/>
<path d="M165.743 153.604H168.313V151.009H165.743V153.604Z" fill="white"/>
<path d="M179.473 145.195H182.043V142.6H179.473V145.195Z" fill="white"/>
<path d="M172.606 145.195H175.176V142.6H172.606V145.195Z" fill="white"/>
<path d="M165.743 136.792H168.313V134.197H165.743V136.792Z" fill="white"/>
<path d="M179.473 128.383H182.043V125.788H179.473V128.383Z" fill="white"/>
<path d="M172.606 128.383H175.176V125.788H172.606V128.383Z" fill="white"/>
<path d="M172.606 119.98H175.176V117.385H172.606V119.98Z" fill="white"/>
<path d="M165.743 119.98H168.313V117.385H165.743V119.98Z" fill="white"/>
<path d="M172.606 111.571H175.176V108.976H172.606V111.571Z" fill="white"/>
<path d="M165.743 111.571H168.313V108.976H165.743V111.571Z" fill="white"/>
<path d="M165.743 103.168H168.313V100.573H165.743V103.168Z" fill="white"/>
<path d="M172.606 94.7595H175.176V92.1641H172.606V94.7595Z" fill="white"/>
<path d="M203.187 122.887H205.758V120.291H203.187V122.887Z" fill="white"/>
<path d="M189.452 122.887H192.023V120.291H189.452V122.887Z" fill="white"/>
<path d="M203.187 131.29H205.758V128.695H203.187V131.29Z" fill="white"/>
<path d="M196.32 131.29H198.89V128.695H196.32V131.29Z" fill="white"/>
<path d="M189.452 139.699H192.023V137.103H189.452V139.699Z" fill="white"/>
<path d="M203.187 148.102H205.758V145.507H203.187V148.102Z" fill="white"/>
<path d="M196.32 148.102H198.89V145.507H196.32V148.102Z" fill="white"/>
<path d="M196.32 156.51H198.89V153.915H196.32V156.51Z" fill="white"/>
<path d="M189.452 156.51H192.023V153.915H189.452V156.51Z" fill="white"/>
<path d="M196.32 164.919H198.89V162.324H196.32V164.919Z" fill="white"/>
<path d="M189.452 164.919H192.023V162.324H189.452V164.919Z" fill="white"/>
<path d="M189.452 173.323H192.023V170.727H189.452V173.323Z" fill="white"/>
<path d="M196.32 181.731H198.89V179.136H196.32V181.731Z" fill="white"/>
<path d="M192.66 73.2688C187.475 75.8591 173.444 77.3752 169.93 69.549C165.773 60.2871 175.683 68.043 175.683 68.043C175.683 68.043 175.683 61.9337 178.986 61.9337C183.504 61.9337 183.117 67.5209 183.117 67.5209C183.542 66.756 184.189 66.1379 184.972 65.7481C185.755 65.3582 186.638 65.215 187.505 65.3372C190.672 65.6786 188.825 69.8 188.825 69.8C188.825 69.8 196.812 71.2056 192.66 73.2688Z" fill="#F5F5F5"/>
<path d="M169.824 55.6537C159.784 59.1124 132.225 59.8905 130.061 45.448C127.491 28.3097 142.42 39.2885 142.42 39.2885C142.42 39.2885 142.551 31.2565 149.448 30.4733C156.346 29.6902 156.25 38.7865 156.25 38.7865C156.25 38.7865 168.635 31.2063 167.455 45.7843C167.46 45.7843 186.772 49.7953 169.824 55.6537Z" fill="#F5F5F5"/>
<path d="M84.5044 60.3173C75.5336 63.4146 50.8704 64.1124 48.9126 51.1859C46.6134 35.8448 59.9566 45.6639 59.9566 45.6639C59.9566 45.6639 60.072 38.4853 66.2516 37.7775C72.4313 37.0697 72.3409 45.2171 72.3409 45.2171C72.3409 45.2171 83.4251 38.4351 82.3809 51.4821C82.3859 51.4871 99.6798 55.0764 84.5044 60.3173Z" fill="#F5F5F5"/>
<path d="M49.8765 68.786C45.5744 70.9295 33.938 72.1895 31.0214 65.6987C27.5726 58.0131 35.7904 64.4638 35.7904 64.4638C35.7904 64.4638 35.7904 59.3936 38.5363 59.3936C42.2712 59.3936 41.96 64.032 41.96 64.032C42.3122 63.3974 42.8486 62.8845 43.4984 62.5609C44.1481 62.2374 44.8807 62.1185 45.5995 62.2198C48.2249 62.5009 46.6938 65.9196 46.6938 65.9196C46.6938 65.9196 53.3052 67.0641 49.8765 68.786Z" fill="#F5F5F5"/>
<path d="M213.237 59.5793C210.01 61.1907 201.27 62.1344 199.081 57.26C196.491 51.492 202.665 56.3363 202.665 56.3363C202.665 56.3363 202.665 52.5312 204.724 52.5312C207.53 52.5312 207.294 56.01 207.294 56.01C207.559 55.5336 207.963 55.1486 208.451 54.9058C208.939 54.6629 209.49 54.5736 210.03 54.6496C211.998 54.8605 210.848 57.4307 210.848 57.4307C210.848 57.4307 215.813 58.2941 213.237 59.5793Z" fill="#F5F5F5"/>
<path d="M118.5 211.359C172.255 211.359 215.833 208.815 215.833 205.676C215.833 202.538 172.255 199.994 118.5 199.994C64.7446 199.994 21.1672 202.538 21.1672 205.676C21.1672 208.815 64.7446 211.359 118.5 211.359Z" fill="#F5F5F5"/>
<path d="M56.0815 184.111H51.93C49.2601 184.111 47.0957 186.275 47.0957 188.945V198.518C47.0957 201.188 49.2601 203.352 51.93 203.352H56.0815C58.7514 203.352 60.9158 201.188 60.9158 198.518V188.945C60.9158 186.275 58.7514 184.111 56.0815 184.111Z" fill="#263238"/>
<path opacity="0.8" d="M56.0815 184.111H51.93C49.2601 184.111 47.0957 186.275 47.0957 188.945V198.518C47.0957 201.188 49.2601 203.352 51.93 203.352H56.0815C58.7514 203.352 60.9158 201.188 60.9158 198.518V188.945C60.9158 186.275 58.7514 184.111 56.0815 184.111Z" fill="black"/>
<path d="M138.083 184.111H133.931C131.262 184.111 129.097 186.275 129.097 188.945V198.518C129.097 201.188 131.262 203.352 133.931 203.352H138.083C140.753 203.352 142.917 201.188 142.917 198.518V188.945C142.917 186.275 140.753 184.111 138.083 184.111Z" fill="#263238"/>
<path opacity="0.8" d="M138.083 184.111H133.931C131.262 184.111 129.097 186.275 129.097 188.945V198.518C129.097 201.188 131.262 203.352 133.931 203.352H138.083C140.753 203.352 142.917 201.188 142.917 198.518V188.945C142.917 186.275 140.753 184.111 138.083 184.111Z" fill="black"/>
<path d="M68.2949 111.491H66.4275L68.2447 107.545H71.6533L68.2949 111.491Z" fill="#263238"/>
<path d="M121.341 111.491H123.209L121.391 107.545H117.988L121.341 111.491Z" fill="#263238"/>
<path d="M141.984 184.612H137.832C135.162 184.612 132.998 186.777 132.998 189.447V199.02C132.998 201.69 135.162 203.854 137.832 203.854H141.984C144.653 203.854 146.818 201.69 146.818 199.02V189.447C146.818 186.777 144.653 184.612 141.984 184.612Z" fill="#263238"/>
<g opacity="0.5">
<path d="M139.905 202.193C139.702 202.193 139.506 202.112 139.362 201.968C139.218 201.824 139.137 201.628 139.137 201.424V198.086C139.137 197.985 139.156 197.884 139.194 197.791C139.233 197.697 139.289 197.612 139.36 197.54C139.432 197.468 139.517 197.411 139.61 197.372C139.704 197.333 139.804 197.313 139.905 197.313C140.007 197.313 140.107 197.333 140.2 197.372C140.294 197.411 140.379 197.468 140.45 197.54C140.522 197.612 140.578 197.697 140.616 197.791C140.655 197.884 140.674 197.985 140.673 198.086V201.424C140.673 201.628 140.592 201.824 140.448 201.968C140.304 202.112 140.109 202.193 139.905 202.193Z" fill="black"/>
</g>
<g opacity="0.5">
<path d="M139.905 195.004C139.804 195.005 139.704 194.985 139.611 194.947C139.517 194.908 139.432 194.852 139.361 194.78C139.289 194.709 139.233 194.624 139.194 194.531C139.156 194.437 139.137 194.337 139.137 194.236V192.619C139.137 192.518 139.156 192.418 139.194 192.325C139.233 192.231 139.289 192.146 139.361 192.075C139.432 192.003 139.517 191.947 139.611 191.908C139.704 191.87 139.804 191.851 139.905 191.851C140.006 191.851 140.107 191.87 140.2 191.908C140.293 191.947 140.378 192.003 140.45 192.075C140.521 192.146 140.578 192.231 140.616 192.325C140.655 192.418 140.674 192.518 140.673 192.619V194.236C140.674 194.337 140.655 194.437 140.616 194.531C140.578 194.624 140.521 194.709 140.45 194.78C140.378 194.852 140.293 194.908 140.2 194.947C140.107 194.985 140.006 195.005 139.905 195.004Z" fill="black"/>
</g>
<g opacity="0.5">
<path d="M136.452 202.192C136.247 202.192 136.052 202.112 135.907 201.968C135.762 201.824 135.68 201.629 135.678 201.424V201.163C135.678 201.062 135.698 200.962 135.737 200.868C135.776 200.775 135.833 200.69 135.905 200.619C135.977 200.547 136.062 200.491 136.156 200.452C136.25 200.414 136.35 200.395 136.452 200.395C136.655 200.395 136.851 200.476 136.995 200.62C137.139 200.764 137.22 200.96 137.22 201.163V201.424C137.218 201.628 137.137 201.822 136.993 201.966C136.849 202.11 136.655 202.191 136.452 202.192Z" fill="black"/>
</g>
<g opacity="0.5">
<path d="M136.452 198.563C136.35 198.564 136.25 198.544 136.156 198.506C136.062 198.468 135.977 198.411 135.905 198.34C135.833 198.269 135.776 198.184 135.737 198.09C135.698 197.997 135.678 197.896 135.678 197.795V192.619C135.678 192.518 135.698 192.418 135.737 192.324C135.776 192.231 135.833 192.146 135.905 192.075C135.977 192.003 136.062 191.947 136.156 191.908C136.25 191.87 136.35 191.851 136.452 191.851C136.655 191.851 136.851 191.932 136.995 192.076C137.139 192.22 137.22 192.416 137.22 192.619V197.8C137.218 198.003 137.137 198.197 136.993 198.34C136.849 198.483 136.654 198.563 136.452 198.563Z" fill="black"/>
</g>
<g opacity="0.5">
<path d="M143.359 202.192C143.155 202.192 142.96 202.112 142.816 201.968C142.672 201.823 142.591 201.628 142.591 201.424V201.163C142.59 201.062 142.61 200.962 142.648 200.869C142.687 200.775 142.743 200.69 142.815 200.619C142.886 200.547 142.971 200.491 143.064 200.452C143.158 200.414 143.258 200.395 143.359 200.395C143.46 200.395 143.56 200.414 143.654 200.452C143.747 200.491 143.832 200.547 143.904 200.619C143.975 200.69 144.032 200.775 144.07 200.869C144.108 200.962 144.128 201.062 144.127 201.163V201.424C144.127 201.628 144.046 201.823 143.902 201.968C143.758 202.112 143.563 202.192 143.359 202.192Z" fill="black"/>
</g>
<g opacity="0.5">
<path d="M143.359 198.563C143.157 198.563 142.963 198.483 142.819 198.34C142.676 198.196 142.596 198.002 142.596 197.8V192.619C142.595 192.518 142.615 192.418 142.653 192.325C142.691 192.231 142.748 192.146 142.819 192.075C142.891 192.003 142.976 191.947 143.069 191.908C143.163 191.87 143.263 191.851 143.364 191.851C143.465 191.851 143.565 191.87 143.659 191.908C143.752 191.947 143.837 192.003 143.909 192.075C143.98 192.146 144.037 192.231 144.075 192.325C144.113 192.418 144.133 192.518 144.132 192.619V197.8C144.132 197.901 144.112 198.001 144.073 198.094C144.034 198.188 143.977 198.272 143.905 198.343C143.833 198.414 143.748 198.47 143.654 198.508C143.56 198.546 143.46 198.564 143.359 198.563Z" fill="black"/>
</g>
<path d="M51.6838 184.612H47.5323C44.8624 184.612 42.698 186.777 42.698 189.447V199.02C42.698 201.69 44.8624 203.854 47.5323 203.854H51.6838C54.3537 203.854 56.5181 201.69 56.5181 199.02V189.447C56.5181 186.777 54.3537 184.612 51.6838 184.612Z" fill="#263238"/>
<g opacity="0.5">
<path d="M49.6057 202.193C49.4024 202.191 49.2078 202.11 49.0641 201.966C48.9203 201.822 48.839 201.628 48.8376 201.424V198.086C48.8376 197.882 48.9184 197.686 49.0623 197.541C49.2062 197.396 49.4015 197.314 49.6057 197.313C49.8107 197.313 50.0074 197.395 50.1524 197.54C50.2973 197.684 50.3788 197.881 50.3788 198.086V201.424C50.3775 201.629 50.2954 201.824 50.1506 201.968C50.0057 202.112 49.8099 202.193 49.6057 202.193Z" fill="black"/>
</g>
<g opacity="0.5">
<path d="M49.6057 195.004C49.402 195.004 49.2066 194.923 49.0626 194.779C48.9186 194.635 48.8376 194.44 48.8376 194.236V192.619C48.8376 192.416 48.9186 192.22 49.0626 192.076C49.2066 191.932 49.402 191.851 49.6057 191.851C49.707 191.851 49.8074 191.87 49.9012 191.908C49.9949 191.947 50.0802 192.003 50.1521 192.075C50.2239 192.146 50.2809 192.231 50.3198 192.324C50.3588 192.418 50.3788 192.518 50.3788 192.619V194.236C50.3788 194.337 50.3588 194.437 50.3198 194.531C50.2809 194.624 50.2239 194.709 50.1521 194.781C50.0802 194.852 49.9949 194.909 49.9012 194.947C49.8074 194.985 49.707 195.005 49.6057 195.004Z" fill="black"/>
</g>
<g opacity="0.5">
<path d="M46.1518 202.192C45.9486 202.191 45.754 202.11 45.6102 201.966C45.4664 201.822 45.3851 201.628 45.3838 201.424V201.163C45.3838 200.96 45.4647 200.764 45.6087 200.62C45.7528 200.476 45.9481 200.395 46.1518 200.395C46.2531 200.395 46.3535 200.414 46.4473 200.452C46.5411 200.491 46.6263 200.547 46.6982 200.619C46.7701 200.69 46.8271 200.775 46.866 200.868C46.9049 200.962 46.9249 201.062 46.9249 201.163V201.424C46.9236 201.629 46.8416 201.824 46.6967 201.968C46.5519 202.112 46.356 202.192 46.1518 202.192Z" fill="black"/>
</g>
<g opacity="0.5">
<path d="M46.1518 198.563C45.9481 198.563 45.7528 198.482 45.6087 198.338C45.4647 198.194 45.3838 197.999 45.3838 197.795V192.619C45.3838 192.416 45.4647 192.22 45.6087 192.076C45.7528 191.932 45.9481 191.851 46.1518 191.851C46.2531 191.851 46.3535 191.87 46.4473 191.908C46.5411 191.947 46.6263 192.003 46.6982 192.075C46.7701 192.146 46.8271 192.231 46.866 192.324C46.9049 192.418 46.9249 192.518 46.9249 192.619V197.8C46.9243 197.901 46.9038 198.001 46.8645 198.094C46.8253 198.187 46.7682 198.271 46.6964 198.342C46.6246 198.413 46.5396 198.469 46.4462 198.507C46.3527 198.545 46.2527 198.564 46.1518 198.563Z" fill="black"/>
</g>
<g opacity="0.5">
<path d="M53.0643 202.192C52.8602 202.192 52.6643 202.112 52.5195 201.968C52.3746 201.824 52.2926 201.629 52.2913 201.424V201.163C52.2913 201.062 52.3113 200.962 52.3502 200.868C52.3891 200.775 52.4461 200.69 52.518 200.619C52.5898 200.547 52.6751 200.491 52.7689 200.452C52.8626 200.414 52.9631 200.395 53.0643 200.395C53.268 200.395 53.4634 200.476 53.6074 200.62C53.7515 200.764 53.8324 200.96 53.8324 201.163V201.424C53.8311 201.628 53.7497 201.822 53.606 201.966C53.4622 202.11 53.2676 202.191 53.0643 202.192Z" fill="black"/>
</g>
<g opacity="0.5">
<path d="M53.0643 198.563C52.9631 198.564 52.8626 198.544 52.7689 198.506C52.6751 198.468 52.5898 198.411 52.518 198.34C52.4461 198.269 52.3891 198.184 52.3502 198.09C52.3113 197.997 52.2913 197.896 52.2913 197.795V192.619C52.2913 192.518 52.3113 192.418 52.3502 192.324C52.3891 192.231 52.4461 192.146 52.518 192.075C52.5898 192.003 52.6751 191.947 52.7689 191.908C52.8626 191.87 52.9631 191.851 53.0643 191.851C53.268 191.851 53.4634 191.932 53.6074 192.076C53.7515 192.22 53.8324 192.416 53.8324 192.619V197.8C53.8311 198.003 53.7496 198.197 53.6057 198.34C53.4618 198.483 53.2672 198.563 53.0643 198.563Z" fill="black"/>
</g>
<path d="M137.671 139.011H51.9097L42.698 156.731C41.9807 158.11 41.607 159.641 41.6086 161.194V190.486C41.6086 191.072 41.8414 191.634 42.2556 192.048C42.6698 192.462 43.2316 192.695 43.8174 192.695H145.814C146.4 192.695 146.961 192.462 147.376 192.048C147.79 191.634 148.023 191.072 148.023 190.486V161.204C148.023 159.643 147.646 158.105 146.923 156.721L137.671 139.011Z" fill="#153B5B"/>
<path opacity="0.3" d="M148.023 190.486V169.482C148.024 170.372 147.849 171.254 147.508 172.076C147.168 172.899 146.669 173.646 146.039 174.276C145.41 174.905 144.663 175.404 143.84 175.745C143.018 176.085 142.136 176.26 141.246 176.259H48.3759C47.4857 176.26 46.6042 176.085 45.7817 175.745C44.9591 175.404 44.2118 174.905 43.5823 174.276C42.9529 173.646 42.4537 172.899 42.1134 172.076C41.7731 171.254 41.5982 170.372 41.5989 169.482V190.486C41.5989 191.072 41.8316 191.634 42.2458 192.048C42.6601 192.462 43.2219 192.695 43.8077 192.695H145.814C146.4 192.695 146.962 192.462 147.376 192.048C147.79 191.634 148.023 191.072 148.023 190.486Z" fill="black"/>
<path d="M136.848 138.434H140.98V132.605C142.118 132.256 143.303 132.086 144.494 132.103C148.329 132.103 151.436 133.825 151.436 135.949C151.436 138.072 148.329 139.799 144.494 139.799C143.775 139.797 143.057 139.732 142.35 139.603L138.48 141.144L136.848 138.434Z" fill="#153B5B"/>
<path opacity="0.5" d="M140.979 136.516V132.605C142.118 132.256 143.303 132.086 144.493 132.103C148.329 132.103 151.436 133.825 151.436 135.949C151.433 136.033 151.424 136.117 151.411 136.2C148.942 136.473 146.46 136.604 143.976 136.591C142.927 136.556 141.933 136.556 140.979 136.516Z" fill="white"/>
<path d="M52.9691 138.434H48.8376V132.605C47.6996 132.256 46.514 132.086 45.3236 132.103C41.4934 132.103 38.386 133.825 38.386 135.949C38.386 138.072 41.4934 139.799 45.3236 139.799C46.0425 139.797 46.7599 139.732 47.4672 139.603L51.3426 141.144L52.9691 138.434Z" fill="#153B5B"/>
<path opacity="0.5" d="M48.8374 136.516V132.605C47.6994 132.256 46.5138 132.086 45.3234 132.103C41.4932 132.103 38.3858 133.825 38.3858 135.949C38.3808 136.032 38.3808 136.116 38.3858 136.2C40.8544 136.473 43.3368 136.604 45.8204 136.591C46.8897 136.556 47.8887 136.556 48.8374 136.516Z" fill="white"/>
<path d="M123.6 111.491H66.091C65.1619 111.492 64.2543 111.771 63.4863 112.294C62.7182 112.817 62.125 113.559 61.7838 114.423L52.0601 139.021H137.576L127.907 114.423C127.566 113.559 126.973 112.817 126.205 112.294C125.437 111.771 124.529 111.492 123.6 111.491Z" fill="#263238"/>
<path opacity="0.8" d="M123.6 111.491H66.091C65.1619 111.492 64.2543 111.771 63.4863 112.294C62.7182 112.817 62.125 113.559 61.7838 114.423L52.0601 139.021H137.576L127.907 114.423C127.566 113.559 126.973 112.817 126.205 112.294C125.437 111.771 124.529 111.492 123.6 111.491Z" fill="white"/>
<path d="M136.01 138.433L127.476 116.742C127.292 116.271 126.97 115.867 126.553 115.582C126.136 115.298 125.642 115.145 125.137 115.146H64.5502C64.0455 115.145 63.5523 115.296 63.135 115.58C62.7177 115.864 62.3956 116.267 62.2109 116.737L53.6267 138.433H136.01Z" fill="#263238"/>
<path opacity="0.2" d="M136.01 138.433L127.476 116.742C127.292 116.271 126.97 115.867 126.553 115.582C126.136 115.298 125.642 115.145 125.137 115.146H64.5502C64.0455 115.145 63.5523 115.296 63.135 115.58C62.7177 115.864 62.3956 116.267 62.2109 116.737L53.6267 138.433H136.01Z" fill="white"/>
<path d="M124.961 101.296H64.6756C63.2034 101.296 62.01 102.489 62.01 103.961V105.944C62.01 107.416 63.2034 108.61 64.6756 108.61H124.961C126.433 108.61 127.626 107.416 127.626 105.944V103.961C127.626 102.489 126.433 101.296 124.961 101.296Z" fill="#263238"/>
<path opacity="0.5" d="M124.961 101.296H64.6756C63.2034 101.296 62.01 102.489 62.01 103.961V105.944C62.01 107.416 63.2034 108.61 64.6756 108.61H124.961C126.433 108.61 127.626 107.416 127.626 105.944V103.961C127.626 102.489 126.433 101.296 124.961 101.296Z" fill="white"/>
<path d="M69.1232 102.832H65.0219C64.2096 102.832 63.551 103.49 63.551 104.303V105.593C63.551 106.405 64.2096 107.064 65.0219 107.064H69.1232C69.9356 107.064 70.5941 106.405 70.5941 105.593V104.303C70.5941 103.49 69.9356 102.832 69.1232 102.832Z" fill="#153B5B"/>
<path d="M77.0197 102.832H72.9184C72.106 102.832 71.4475 103.49 71.4475 104.303V105.593C71.4475 106.405 72.106 107.064 72.9184 107.064H77.0197C77.832 107.064 78.4906 106.405 78.4906 105.593V104.303C78.4906 103.49 77.832 102.832 77.0197 102.832Z" fill="#153B5B"/>
<path d="M84.9211 102.832H80.8197C80.0074 102.832 79.3489 103.49 79.3489 104.303V105.593C79.3489 106.405 80.0074 107.064 80.8197 107.064H84.9211C85.7334 107.064 86.3919 106.405 86.3919 105.593V104.303C86.3919 103.49 85.7334 102.832 84.9211 102.832Z" fill="#153B5B"/>
<path d="M92.8176 102.832H88.7162C87.9039 102.832 87.2454 103.49 87.2454 104.303V105.593C87.2454 106.405 87.9039 107.064 88.7162 107.064H92.8176C93.6299 107.064 94.2884 106.405 94.2884 105.593V104.303C94.2884 103.49 93.6299 102.832 92.8176 102.832Z" fill="#153B5B"/>
<path d="M100.92 102.832H96.8188C96.0064 102.832 95.3479 103.49 95.3479 104.303V105.593C95.3479 106.405 96.0064 107.064 96.8188 107.064H100.92C101.732 107.064 102.391 106.405 102.391 105.593V104.303C102.391 103.49 101.732 102.832 100.92 102.832Z" fill="#153B5B"/>
<path opacity="0.7" d="M92.8176 102.832H88.7162C87.9039 102.832 87.2454 103.49 87.2454 104.303V105.593C87.2454 106.405 87.9039 107.064 88.7162 107.064H92.8176C93.6299 107.064 94.2884 106.405 94.2884 105.593V104.303C94.2884 103.49 93.6299 102.832 92.8176 102.832Z" fill="white"/>
<path opacity="0.7" d="M100.92 102.832H96.8188C96.0064 102.832 95.3479 103.49 95.3479 104.303V105.593C95.3479 106.405 96.0064 107.064 96.8188 107.064H100.92C101.732 107.064 102.391 106.405 102.391 105.593V104.303C102.391 103.49 101.732 102.832 100.92 102.832Z" fill="white"/>
<path d="M108.817 102.832H104.715C103.903 102.832 103.244 103.49 103.244 104.303V105.593C103.244 106.405 103.903 107.064 104.715 107.064H108.817C109.629 107.064 110.287 106.405 110.287 105.593V104.303C110.287 103.49 109.629 102.832 108.817 102.832Z" fill="#153B5B"/>
<path d="M116.718 102.832H112.617C111.804 102.832 111.146 103.49 111.146 104.303V105.593C111.146 106.405 111.804 107.064 112.617 107.064H116.718C117.53 107.064 118.189 106.405 118.189 105.593V104.303C118.189 103.49 117.53 102.832 116.718 102.832Z" fill="#153B5B"/>
<path d="M124.614 102.832H120.513C119.701 102.832 119.042 103.49 119.042 104.303V105.593C119.042 106.405 119.701 107.064 120.513 107.064H124.614C125.427 107.064 126.085 106.405 126.085 105.593V104.303C126.085 103.49 125.427 102.832 124.614 102.832Z" fill="#153B5B"/>
<g opacity="0.4">
<path d="M108.817 102.832H104.715C103.903 102.832 103.244 103.49 103.244 104.303V105.593C103.244 106.405 103.903 107.064 104.715 107.064H108.817C109.629 107.064 110.287 106.405 110.287 105.593V104.303C110.287 103.49 109.629 102.832 108.817 102.832Z" fill="black"/>
<path d="M116.718 102.832H112.617C111.804 102.832 111.146 103.49 111.146 104.303V105.593C111.146 106.405 111.804 107.064 112.617 107.064H116.718C117.53 107.064 118.189 106.405 118.189 105.593V104.303C118.189 103.49 117.53 102.832 116.718 102.832Z" fill="black"/>
<path d="M124.614 102.832H120.513C119.701 102.832 119.042 103.49 119.042 104.303V105.593C119.042 106.405 119.701 107.064 120.513 107.064H124.614C125.427 107.064 126.085 106.405 126.085 105.593V104.303C126.085 103.49 125.427 102.832 124.614 102.832Z" fill="black"/>
</g>
<path opacity="0.5" d="M64.992 163.378L49.932 159.819C49.0948 159.621 48.3665 159.107 47.8989 158.385C47.4313 157.663 47.2604 156.788 47.422 155.943L48.3205 151.114C48.4146 150.614 48.6215 150.143 48.9257 149.735C49.2298 149.327 49.623 148.995 50.0754 148.762C50.5277 148.53 51.0271 148.404 51.5356 148.394C52.0441 148.384 52.5481 148.49 53.0092 148.704L63.0141 153.348C63.8542 153.737 64.5957 154.31 65.1833 155.026C65.7709 155.741 66.1894 156.58 66.4076 157.479L67.2811 161.069C67.3584 161.386 67.3531 161.717 67.2658 162.031C67.1786 162.345 67.0122 162.632 66.7826 162.864C66.5529 163.095 66.2678 163.264 65.9543 163.354C65.6408 163.444 65.3095 163.452 64.992 163.378Z" fill="white"/>
<path opacity="0.5" d="M61.0311 161.395C63.0855 161.395 64.7509 159.73 64.7509 157.675C64.7509 155.621 63.0855 153.955 61.0311 153.955C58.9767 153.955 57.3113 155.621 57.3113 157.675C57.3113 159.73 58.9767 161.395 61.0311 161.395Z" fill="white"/>
<g opacity="0.9">
<path d="M61.8844 156.019C61.748 155.952 61.605 155.9 61.4577 155.863C61.338 155.845 61.2289 155.784 61.1505 155.692C61.0721 155.599 61.0296 155.482 61.031 155.361V155.235C61.0285 155.157 61.0442 155.08 61.0769 155.009C61.1096 154.938 61.1583 154.876 61.2192 154.827C61.2801 154.779 61.3515 154.745 61.4277 154.729C61.504 154.712 61.583 154.714 61.6585 154.733C61.9416 154.79 62.2142 154.89 62.4667 155.03C62.5366 155.064 62.5975 155.114 62.6448 155.176C62.692 155.238 62.7241 155.31 62.7387 155.386C62.7533 155.463 62.75 155.541 62.7289 155.616C62.7078 155.691 62.6696 155.76 62.6173 155.818L62.532 155.918C62.454 156.01 62.3457 156.07 62.2268 156.089C62.108 156.107 61.9865 156.082 61.8844 156.019Z" fill="white"/>
</g>
<g opacity="0.9">
<path d="M61.0311 160.687C60.3411 160.687 59.672 160.451 59.1356 160.017C58.5992 159.583 58.2281 158.978 58.0844 158.303C58.0648 158.227 58.0632 158.148 58.0795 158.072C58.0958 157.996 58.1296 157.924 58.1784 157.863C58.2271 157.802 58.2893 157.754 58.3601 157.721C58.431 157.688 58.5084 157.673 58.5864 157.675H58.7119C58.8329 157.674 58.9504 157.716 59.0427 157.795C59.1349 157.873 59.1957 157.982 59.2139 158.102C59.3106 158.51 59.5421 158.873 59.8709 159.133C60.1998 159.393 60.6068 159.535 61.0261 159.535C61.4453 159.535 61.8524 159.393 62.1812 159.133C62.5101 158.873 62.7416 158.51 62.8383 158.102C62.8565 157.982 62.9173 157.873 63.0095 157.795C63.1018 157.716 63.2192 157.674 63.3403 157.675H63.4658C63.5438 157.673 63.6212 157.688 63.692 157.721C63.7629 157.754 63.8251 157.802 63.8738 157.863C63.9225 157.924 63.9564 157.996 63.9727 158.072C63.989 158.148 63.9873 158.227 63.9678 158.303C63.8244 158.976 63.4548 159.58 62.9205 160.013C62.3862 160.447 61.7194 160.685 61.0311 160.687Z" fill="white"/>
</g>
<path opacity="0.5" d="M56.3152 155.178C56.7871 153.178 55.5487 151.175 53.5493 150.703C51.5498 150.231 49.5464 151.469 49.0745 153.469C48.6025 155.468 49.8409 157.472 51.8403 157.944C53.8398 158.416 55.8432 157.177 56.3152 155.178Z" fill="white"/>
<g opacity="0.9">
<path d="M53.546 152.675C53.4092 152.606 53.2641 152.553 53.1143 152.52C52.9977 152.496 52.8925 152.433 52.8159 152.342C52.7394 152.251 52.6959 152.137 52.6926 152.018V151.892C52.6902 151.814 52.7059 151.737 52.7385 151.666C52.7712 151.595 52.8199 151.533 52.8808 151.484C52.9417 151.435 53.0131 151.402 53.0894 151.385C53.1656 151.369 53.2446 151.371 53.3201 151.39C53.6019 151.451 53.8739 151.551 54.1284 151.686C54.1991 151.72 54.2608 151.771 54.3087 151.833C54.3565 151.895 54.389 151.968 54.4037 152.045C54.4183 152.122 54.4147 152.202 54.393 152.277C54.3713 152.353 54.3323 152.422 54.279 152.479L54.1936 152.575C54.1156 152.666 54.0073 152.727 53.8885 152.745C53.7696 152.764 53.6481 152.739 53.546 152.675Z" fill="white"/>
</g>
<g opacity="0.9">
<path d="M52.693 157.344C52.003 157.344 51.3338 157.107 50.7975 156.673C50.2611 156.239 49.89 155.634 49.7462 154.959C49.7267 154.884 49.725 154.805 49.7413 154.729C49.7576 154.652 49.7915 154.581 49.8402 154.52C49.8889 154.459 49.9512 154.41 50.022 154.378C50.0928 154.345 50.1703 154.329 50.2482 154.332H50.3737C50.4941 154.33 50.6109 154.372 50.7031 154.449C50.7952 154.527 50.8565 154.635 50.8757 154.753C50.9724 155.161 51.2039 155.525 51.5328 155.785C51.8617 156.045 52.2687 156.186 52.688 156.186C53.1072 156.186 53.5142 156.045 53.8431 155.785C54.172 155.525 54.4035 155.161 54.5002 154.753C54.5194 154.635 54.5807 154.527 54.6728 154.449C54.765 154.372 54.8818 154.33 55.0022 154.332H55.1277C55.2056 154.329 55.2831 154.345 55.3539 154.378C55.4247 154.41 55.487 154.459 55.5357 154.52C55.5844 154.581 55.6183 154.652 55.6346 154.729C55.6509 154.805 55.6492 154.884 55.6297 154.959C55.4863 155.632 55.1167 156.236 54.5824 156.67C54.048 157.104 53.3812 157.342 52.693 157.344Z" fill="white"/>
</g>
<path d="M74.3241 159.181C73.9773 159.177 73.6354 159.263 73.3316 159.43C73.0277 159.597 72.7724 159.84 72.5904 160.135C72.4084 160.431 72.306 160.768 72.2931 161.114C72.2802 161.461 72.3573 161.805 72.5169 162.113C73.3502 163.769 74.4797 165.627 75.5741 166.335C83.7215 171.445 105.9 171.445 114.042 166.335C115.142 165.642 116.266 163.769 117.105 162.113C117.264 161.805 117.341 161.46 117.328 161.113C117.315 160.766 117.212 160.429 117.03 160.133C116.847 159.838 116.591 159.595 116.287 159.428C115.982 159.261 115.639 159.176 115.292 159.181H74.3241Z" fill="#263238"/>
<path opacity="0.6" d="M74.3241 159.181C73.9773 159.177 73.6354 159.263 73.3316 159.43C73.0277 159.597 72.7724 159.84 72.5904 160.135C72.4084 160.431 72.306 160.768 72.2931 161.114C72.2802 161.461 72.3573 161.805 72.5169 162.113C73.3502 163.769 74.4797 165.627 75.5741 166.335C83.7215 171.445 105.9 171.445 114.042 166.335C115.142 165.642 116.266 163.769 117.105 162.113C117.264 161.805 117.341 161.46 117.328 161.113C117.315 160.766 117.212 160.429 117.03 160.133C116.847 159.838 116.591 159.595 116.287 159.428C115.982 159.261 115.639 159.176 115.292 159.181H74.3241Z" fill="white"/>
<path opacity="0.5" d="M127.461 182.499C128.128 183.477 128.727 184.5 129.253 185.561C129.435 185.926 129.521 186.331 129.502 186.738C129.484 187.146 129.362 187.541 129.148 187.888C128.934 188.235 128.634 188.522 128.279 188.721C127.923 188.92 127.522 189.024 127.114 189.025H62.5219C62.1141 189.025 61.7132 188.92 61.3572 188.721C61.0013 188.523 60.7021 188.236 60.4883 187.889C60.2744 187.541 60.153 187.145 60.1355 186.738C60.118 186.33 60.2051 185.925 60.3884 185.561C60.911 184.499 61.5082 183.476 62.1755 182.499C62.6004 181.902 63.1623 181.416 63.8139 181.082C64.4655 180.747 65.1879 180.574 65.9204 180.576H123.716C124.448 180.574 125.171 180.747 125.822 181.082C126.474 181.416 127.036 181.902 127.461 182.499Z" fill="white"/>
<path opacity="0.8" d="M110.714 171.335H78.9172V179.03H110.714V171.335Z" fill="white"/>
<path d="M65.0221 139.011C63.9026 140.336 63.3856 143.052 64.0633 145.456C65.2128 149.558 66.769 154.201 68.2851 155.908H121.351C122.857 154.201 124.424 149.558 125.573 145.456C126.251 143.052 125.734 140.336 124.614 139.011H65.0221Z" fill="#263238"/>
<path opacity="0.8" d="M65.0221 139.011C63.9026 140.336 63.3856 143.052 64.0633 145.456C65.2128 149.558 66.769 154.201 68.2851 155.908H121.351C122.857 154.201 124.424 149.558 125.573 145.456C126.251 143.052 125.734 140.336 124.614 139.011H65.0221Z" fill="white"/>
<path d="M81.3068 144.452C81.4607 144.562 81.5865 144.706 81.6737 144.874C81.761 145.042 81.8073 145.227 81.8088 145.416C81.805 145.947 81.6594 146.467 81.3871 146.922C81.0905 147.487 80.6843 147.987 80.1923 148.393C79.677 148.82 79.0861 149.147 78.4504 149.357C77.7793 149.583 77.0753 149.697 76.3671 149.693H74.7205L73.2145 151.807H71.2065L77.2305 144.141H80.0668C80.5023 144.115 80.9351 144.224 81.3068 144.452ZM78.6361 147.876C79.0517 147.645 79.3983 147.307 79.6401 146.897C79.8962 146.465 79.9614 146.134 79.851 145.893C79.7405 145.652 79.4393 145.552 78.9574 145.552H77.6422L75.7346 148.212H77.1954C77.6964 148.224 78.1922 148.109 78.6361 147.876Z" fill="#263238"/>
<path d="M82.2807 151.4C82.0175 151.254 81.7907 151.05 81.6169 150.804C81.4431 150.558 81.3268 150.276 81.2767 149.979C81.2029 149.274 81.3521 148.563 81.7034 147.946C82.089 147.197 82.5981 146.518 83.2094 145.938C83.7916 145.364 84.4608 144.884 85.1923 144.518C85.8272 144.195 86.5282 144.023 87.2405 144.016C87.8441 143.994 88.4382 144.17 88.9322 144.518C89.4036 144.878 89.7538 145.374 89.9362 145.938C90.1591 146.584 90.2076 147.276 90.0768 147.946C89.9482 148.699 89.6167 149.402 89.1179 149.979C88.576 150.6 87.8972 151.087 87.135 151.4C86.3106 151.74 85.4263 151.911 84.5347 151.902C83.7522 151.937 82.9744 151.764 82.2807 151.4ZM86.4824 150.09C86.9294 149.889 87.3257 149.591 87.6421 149.216C87.9526 148.849 88.1726 148.414 88.2846 147.946C88.3935 147.53 88.3935 147.093 88.2846 146.676C88.2006 146.332 88.0025 146.026 87.7224 145.808C87.432 145.594 87.0789 145.483 86.7184 145.492C86.289 145.497 85.8671 145.605 85.4885 145.808C85.0543 146.028 84.6619 146.322 84.3289 146.676C83.9762 147.048 83.6908 147.477 83.4855 147.946C83.2946 148.341 83.2181 148.781 83.2646 149.216C83.2915 149.394 83.3559 149.564 83.4538 149.715C83.5516 149.865 83.6805 149.993 83.8319 150.09C84.1995 150.31 84.6235 150.419 85.0517 150.401C85.544 150.407 86.0318 150.308 86.4824 150.11V150.09Z" fill="#263238"/>
<path d="M91.919 144.116H93.425C93.2694 146.601 93.1891 147.846 93.0285 150.336H97.2202C97.2704 150.913 97.2904 151.204 97.3406 151.782H90.915L91.919 144.116Z" fill="#263238"/>
<path d="M97.5767 144.116H99.0827L100.513 151.782H98.4803C98.1238 148.714 97.9431 147.183 97.5767 144.116Z" fill="#263238"/>
<path d="M104.258 151.405C103.479 151.091 102.779 150.607 102.21 149.99C101.685 149.411 101.317 148.708 101.141 147.946C100.962 147.277 100.962 146.573 101.141 145.903C101.289 145.345 101.615 144.85 102.07 144.493C102.547 144.142 103.129 143.965 103.721 143.991C104.303 143.997 104.877 144.116 105.413 144.342C106.019 144.597 106.587 144.935 107.1 145.346C106.904 145.768 106.798 145.979 106.568 146.395C105.979 145.868 105.232 145.55 104.444 145.492C104.07 145.474 103.701 145.585 103.4 145.808C103.124 146.023 102.936 146.332 102.873 146.676C102.796 147.101 102.827 147.537 102.963 147.946C103.105 148.418 103.35 148.852 103.681 149.216C104.019 149.591 104.433 149.889 104.896 150.09C105.371 150.296 105.884 150.402 106.402 150.401C107.24 150.401 107.817 150.1 108.079 149.493C108.761 149.914 109.083 150.125 109.825 150.542C109.637 150.996 109.276 151.357 108.821 151.546C108.215 151.799 107.561 151.919 106.904 151.897C105.998 151.91 105.099 151.742 104.258 151.405Z" fill="#263238"/>
<path d="M117.496 150.356L118.61 151.782H111.798L107.511 144.116H112.476L113.585 145.537H109.921L110.96 147.203H114.419L115.488 148.604H111.838L112.953 150.376L117.496 150.356Z" fill="#263238"/>
<path d="M46.6389 184.306V177.218C46.6389 176.964 46.7399 176.72 46.9198 176.54C47.0996 176.36 47.3435 176.259 47.5977 176.259H54.686C54.876 176.258 55.0619 176.314 55.2203 176.419C55.3786 176.524 55.5022 176.673 55.5753 176.849C55.6485 177.024 55.6679 177.217 55.6311 177.404C55.5943 177.59 55.503 177.761 55.3687 177.896L48.2805 184.984C48.1466 185.12 47.9754 185.212 47.7886 185.25C47.6019 185.288 47.408 185.27 47.2318 185.197C47.0557 185.124 46.9052 185.001 46.7996 184.842C46.694 184.683 46.638 184.497 46.6389 184.306Z" fill="#263238"/>
<path opacity="0.5" d="M46.6389 184.306V177.218C46.6389 176.964 46.7399 176.72 46.9198 176.54C47.0996 176.36 47.3435 176.259 47.5977 176.259H54.686C54.876 176.258 55.0619 176.314 55.2203 176.419C55.3786 176.524 55.5022 176.673 55.5753 176.849C55.6485 177.024 55.6679 177.217 55.6311 177.404C55.5943 177.59 55.503 177.761 55.3687 177.896L48.2805 184.984C48.1466 185.12 47.9754 185.212 47.7886 185.25C47.6019 185.288 47.408 185.27 47.2318 185.197C47.0557 185.124 46.9052 185.001 46.7996 184.842C46.694 184.683 46.638 184.497 46.6389 184.306Z" fill="white"/>
<path d="M54.7663 181.609C55.2382 179.61 53.9999 177.606 52.0005 177.134C50.001 176.662 47.9975 177.901 47.5256 179.9C47.0537 181.9 48.292 183.903 50.2915 184.375C52.291 184.847 54.2944 183.609 54.7663 181.609Z" fill="#153B5B"/>
<path opacity="0.5" d="M54.7663 181.609C55.2382 179.61 53.9999 177.606 52.0005 177.134C50.001 176.662 47.9975 177.901 47.5256 179.9C47.0537 181.9 48.292 183.903 50.2915 184.375C52.291 184.847 54.2944 183.609 54.7663 181.609Z" fill="white"/>
<g opacity="0.8">
<path d="M51.9951 179.111C51.8602 179.039 51.7168 178.985 51.5684 178.95C51.4496 178.931 51.3417 178.869 51.2643 178.777C51.1869 178.685 51.1452 178.568 51.1467 178.448V178.317C51.1443 178.239 51.16 178.162 51.1926 178.091C51.2253 178.02 51.274 177.958 51.3349 177.909C51.3958 177.861 51.4672 177.827 51.5435 177.81C51.6197 177.794 51.6987 177.796 51.7742 177.815C52.0547 177.875 52.3252 177.975 52.5774 178.112C52.6482 178.146 52.7099 178.196 52.7577 178.258C52.8056 178.32 52.8381 178.393 52.8527 178.47C52.8674 178.547 52.8637 178.627 52.8421 178.702C52.8204 178.778 52.7814 178.847 52.728 178.905L52.6477 179C52.5708 179.095 52.4623 179.158 52.3422 179.178C52.2221 179.198 52.0988 179.174 51.9951 179.111Z" fill="white"/>
</g>
<g opacity="0.8">
<path d="M51.1466 183.779C50.4557 183.781 49.7854 183.544 49.248 183.11C48.7106 182.676 48.3388 182.07 48.1948 181.395C48.1744 181.319 48.172 181.239 48.1879 181.162C48.2037 181.085 48.2375 181.013 48.2863 180.952C48.3351 180.89 48.3977 180.841 48.469 180.808C48.5403 180.775 48.6183 180.759 48.6968 180.762H48.8223C48.9418 180.767 49.0563 180.811 49.1473 180.888C49.2384 180.966 49.3007 181.072 49.3243 181.189C49.4189 181.598 49.6493 181.963 49.9779 182.224C50.3066 182.486 50.7141 182.628 51.134 182.628C51.554 182.628 51.9615 182.486 52.2902 182.224C52.6188 181.963 52.8492 181.598 52.9438 181.189C52.9682 181.072 53.0308 180.967 53.1217 180.889C53.2125 180.812 53.3266 180.767 53.4458 180.762H53.5713C53.6498 180.759 53.7278 180.775 53.7991 180.808C53.8704 180.841 53.933 180.89 53.9818 180.952C54.0306 181.013 54.0644 181.085 54.0802 181.162C54.0961 181.239 54.0937 181.319 54.0733 181.395C53.9302 182.066 53.5621 182.669 53.0298 183.102C52.4976 183.536 51.8331 183.775 51.1466 183.779Z" fill="white"/>
</g>
<path d="M143.5 184.306V177.218C143.5 176.964 143.399 176.72 143.219 176.54C143.039 176.36 142.795 176.259 142.541 176.259H135.453C135.263 176.259 135.078 176.316 134.92 176.421C134.763 176.526 134.64 176.676 134.567 176.851C134.495 177.026 134.476 177.219 134.513 177.405C134.55 177.591 134.641 177.762 134.775 177.896L141.863 184.984C141.997 185.118 142.168 185.209 142.354 185.246C142.54 185.283 142.733 185.264 142.908 185.192C143.083 185.119 143.233 184.996 143.338 184.839C143.443 184.681 143.5 184.496 143.5 184.306Z" fill="#263238"/>
<path opacity="0.5" d="M143.5 184.306V177.218C143.5 176.964 143.399 176.72 143.219 176.54C143.039 176.36 142.795 176.259 142.541 176.259H135.453C135.263 176.259 135.078 176.316 134.92 176.421C134.763 176.526 134.64 176.676 134.567 176.851C134.495 177.026 134.476 177.219 134.513 177.405C134.55 177.591 134.641 177.762 134.775 177.896L141.863 184.984C141.997 185.118 142.168 185.209 142.354 185.246C142.54 185.283 142.733 185.264 142.908 185.192C143.083 185.119 143.233 184.996 143.338 184.839C143.443 184.681 143.5 184.496 143.5 184.306Z" fill="white"/>
<path d="M142.429 182.182C143.215 180.284 142.314 178.108 140.416 177.322C138.518 176.536 136.342 177.437 135.556 179.335C134.769 181.233 135.671 183.409 137.569 184.195C139.467 184.982 141.643 184.08 142.429 182.182Z" fill="#153B5B"/>
<path opacity="0.5" d="M142.429 182.182C143.215 180.284 142.314 178.108 140.416 177.322C138.518 176.536 136.342 177.437 135.556 179.335C134.769 181.233 135.671 183.409 137.569 184.195C139.467 184.982 141.643 184.08 142.429 182.182Z" fill="white"/>
<g opacity="0.8">
<path d="M138.143 179.111C138.278 179.039 138.422 178.985 138.57 178.95C138.688 178.927 138.794 178.865 138.871 178.774C138.949 178.683 138.993 178.568 138.997 178.448V178.317C138.999 178.239 138.984 178.161 138.951 178.09C138.918 178.018 138.869 177.956 138.807 177.907C138.746 177.858 138.673 177.824 138.596 177.808C138.52 177.793 138.44 177.795 138.364 177.815C138.084 177.875 137.813 177.975 137.561 178.112C137.49 178.146 137.428 178.196 137.381 178.258C137.333 178.32 137.3 178.393 137.286 178.47C137.271 178.547 137.275 178.627 137.296 178.702C137.318 178.778 137.357 178.847 137.41 178.905L137.491 179C137.568 179.095 137.676 179.158 137.796 179.178C137.916 179.198 138.04 179.174 138.143 179.111Z" fill="white"/>
</g>
<g opacity="0.8">
<path d="M138.997 183.779C139.687 183.779 140.356 183.543 140.892 183.109C141.429 182.675 141.8 182.07 141.943 181.395C141.964 181.319 141.966 181.239 141.95 181.162C141.935 181.085 141.901 181.013 141.852 180.952C141.803 180.89 141.741 180.841 141.669 180.808C141.598 180.775 141.52 180.759 141.441 180.762H141.316C141.197 180.767 141.083 180.812 140.992 180.889C140.901 180.967 140.838 181.072 140.814 181.189C140.719 181.598 140.489 181.963 140.16 182.224C139.832 182.486 139.424 182.628 139.004 182.628C138.584 182.628 138.177 182.486 137.848 182.224C137.519 181.963 137.289 181.598 137.195 181.189C137.171 181.072 137.109 180.966 137.018 180.888C136.926 180.811 136.812 180.767 136.693 180.762H136.572C136.494 180.759 136.416 180.775 136.344 180.808C136.273 180.841 136.21 180.89 136.162 180.952C136.113 181.013 136.079 181.085 136.063 181.162C136.047 181.239 136.05 181.319 136.07 181.395C136.213 182.066 136.581 182.669 137.113 183.102C137.646 183.536 138.31 183.775 138.997 183.779Z" fill="white"/>
</g>
<path opacity="0.5" d="M124.644 163.378L139.704 159.819C140.541 159.619 141.268 159.106 141.736 158.384C142.203 157.662 142.375 156.788 142.214 155.943L141.316 151.114C141.222 150.614 141.015 150.143 140.711 149.735C140.407 149.327 140.013 148.995 139.561 148.762C139.109 148.53 138.609 148.404 138.101 148.394C137.592 148.384 137.088 148.49 136.627 148.704L126.622 153.348C125.782 153.737 125.041 154.31 124.453 155.026C123.866 155.741 123.447 156.58 123.229 157.479L122.355 161.069C122.278 161.386 122.283 161.717 122.371 162.031C122.458 162.345 122.624 162.632 122.854 162.864C123.083 163.095 123.369 163.264 123.682 163.354C123.996 163.444 124.327 163.452 124.644 163.378Z" fill="white"/>
<path opacity="0.5" d="M128.605 161.395C130.66 161.395 132.325 159.73 132.325 157.675C132.325 155.621 130.66 153.955 128.605 153.955C126.551 153.955 124.885 155.621 124.885 157.675C124.885 159.73 126.551 161.395 128.605 161.395Z" fill="white"/>
<g opacity="0.9">
<path d="M127.752 156.019C127.89 155.951 128.034 155.899 128.184 155.863C128.302 155.844 128.41 155.782 128.488 155.69C128.565 155.598 128.607 155.481 128.605 155.361V155.235C128.608 155.157 128.592 155.08 128.559 155.009C128.527 154.938 128.478 154.876 128.417 154.827C128.356 154.779 128.285 154.745 128.209 154.729C128.132 154.712 128.053 154.714 127.978 154.733C127.695 154.79 127.422 154.89 127.17 155.03C127.1 155.064 127.039 155.114 126.992 155.176C126.944 155.238 126.912 155.31 126.898 155.386C126.883 155.463 126.886 155.541 126.907 155.616C126.928 155.691 126.967 155.76 127.019 155.818L127.104 155.918C127.182 156.01 127.291 156.07 127.409 156.089C127.528 156.107 127.65 156.082 127.752 156.019Z" fill="white"/>
</g>
<g opacity="0.9">
<path d="M128.605 160.687C129.296 160.689 129.966 160.452 130.504 160.018C131.041 159.584 131.413 158.978 131.557 158.303C131.576 158.227 131.578 158.148 131.562 158.072C131.545 157.996 131.512 157.924 131.463 157.863C131.414 157.802 131.352 157.754 131.281 157.721C131.21 157.688 131.133 157.673 131.055 157.675H130.929C130.808 157.674 130.691 157.716 130.599 157.795C130.506 157.873 130.446 157.982 130.427 158.102C130.331 158.51 130.099 158.873 129.77 159.133C129.441 159.393 129.034 159.535 128.615 159.535C128.196 159.535 127.789 159.393 127.46 159.133C127.131 158.873 126.9 158.51 126.803 158.102C126.785 157.982 126.724 157.873 126.632 157.795C126.54 157.716 126.422 157.674 126.301 157.675H126.175C126.098 157.673 126.02 157.688 125.949 157.721C125.878 157.754 125.816 157.802 125.767 157.863C125.719 157.924 125.685 157.996 125.669 158.072C125.652 158.148 125.654 158.227 125.673 158.303C125.817 158.975 126.186 159.578 126.719 160.012C127.252 160.446 127.918 160.684 128.605 160.687Z" fill="white"/>
</g>
<path opacity="0.5" d="M140.382 155.757C141.168 153.859 140.267 151.683 138.369 150.897C136.471 150.111 134.295 151.012 133.509 152.91C132.723 154.808 133.624 156.984 135.522 157.77C137.42 158.557 139.596 157.655 140.382 155.757Z" fill="white"/>
<g opacity="0.9">
<path d="M136.07 152.675C136.207 152.606 136.352 152.553 136.502 152.52C136.618 152.496 136.724 152.433 136.8 152.342C136.877 152.251 136.92 152.137 136.923 152.018V151.892C136.926 151.814 136.91 151.737 136.878 151.666C136.845 151.595 136.796 151.533 136.735 151.484C136.674 151.435 136.603 151.402 136.527 151.385C136.45 151.369 136.371 151.371 136.296 151.39C136.014 151.451 135.742 151.551 135.488 151.686C135.417 151.72 135.355 151.771 135.307 151.833C135.26 151.895 135.227 151.968 135.212 152.045C135.198 152.122 135.201 152.202 135.223 152.277C135.245 152.353 135.284 152.422 135.337 152.479L135.422 152.575C135.5 152.666 135.609 152.727 135.728 152.745C135.846 152.764 135.968 152.739 136.07 152.675Z" fill="white"/>
</g>
<g opacity="0.9">
<path d="M136.944 157.344C137.634 157.345 138.305 157.109 138.842 156.675C139.38 156.241 139.751 155.635 139.895 154.959C139.915 154.884 139.917 154.805 139.9 154.729C139.884 154.652 139.85 154.581 139.801 154.52C139.753 154.459 139.69 154.41 139.62 154.378C139.549 154.345 139.471 154.329 139.393 154.332H139.268C139.147 154.33 139.031 154.372 138.938 154.449C138.846 154.527 138.785 154.635 138.766 154.753C138.669 155.161 138.438 155.525 138.109 155.785C137.78 156.045 137.373 156.186 136.954 156.186C136.534 156.186 136.127 156.045 135.798 155.785C135.47 155.525 135.238 155.161 135.141 154.753C135.122 154.635 135.061 154.527 134.969 154.449C134.877 154.372 134.76 154.33 134.639 154.332H134.514C134.436 154.329 134.358 154.345 134.288 154.378C134.217 154.41 134.155 154.459 134.106 154.52C134.057 154.581 134.023 154.652 134.007 154.729C133.991 154.805 133.992 154.884 134.012 154.959C134.155 155.632 134.524 156.235 135.057 156.669C135.591 157.102 136.256 157.341 136.944 157.344Z" fill="white"/>
</g>
<path d="M135.824 137.962C132.044 136.702 127.245 135.191 124.956 134.839C118.109 133.8 98.8971 134.628 95.0367 134.809C91.1813 134.628 71.9447 133.805 65.1225 134.839C62.733 135.206 57.5925 136.847 53.7472 138.127L53.6267 138.434H136.01L135.824 137.962Z" fill="#263238"/>
<g opacity="0.2">
<path d="M87.7928 115.146H76.6133L66.9648 138.433H78.1494L87.7928 115.146Z" fill="white"/>
<path d="M131.848 127.856L127.476 116.742C127.292 116.271 126.97 115.867 126.553 115.582C126.135 115.298 125.642 115.145 125.136 115.146H95.1017L85.4583 138.433H127.466L131.848 127.856Z" fill="white"/>
</g>
<path d="M116.351 165.853V167.68H73.2849V165.833H70.0168V193.945C70.0168 194.301 70.087 194.653 70.2232 194.982C70.3594 195.311 70.5591 195.61 70.8108 195.861C71.0625 196.113 71.3614 196.313 71.6903 196.449C72.0192 196.585 72.3717 196.655 72.7277 196.655H74.9063C75.4668 196.655 76.0044 196.433 76.4007 196.036C76.7971 195.64 77.0197 195.103 77.0197 194.542V192.675H73.2849V182.333H116.351V192.675H112.617V194.542C112.617 195.103 112.839 195.64 113.236 196.036C113.632 196.433 114.169 196.655 114.73 196.655H116.909C117.628 196.655 118.317 196.37 118.825 195.861C119.334 195.353 119.619 194.664 119.619 193.945V165.833L116.351 165.853ZM73.2849 178.794V171.264H116.351V178.794H73.2849Z" fill="#263238"/>
<path opacity="0.6" d="M116.351 165.853V167.68H73.2849V165.833H70.0168V193.945C70.0168 194.301 70.087 194.653 70.2232 194.982C70.3594 195.311 70.5591 195.61 70.8108 195.861C71.0625 196.113 71.3614 196.313 71.6903 196.449C72.0192 196.585 72.3717 196.655 72.7277 196.655H74.9063C75.4668 196.655 76.0044 196.433 76.4007 196.036C76.7971 195.64 77.0197 195.103 77.0197 194.542V192.675H73.2849V182.333H116.351V192.675H112.617V194.542C112.617 195.103 112.839 195.64 113.236 196.036C113.632 196.433 114.169 196.655 114.73 196.655H116.909C117.628 196.655 118.317 196.37 118.825 195.861C119.334 195.353 119.619 194.664 119.619 193.945V165.833L116.351 165.853ZM73.2849 178.794V171.264H116.351V178.794H73.2849Z" fill="black"/>
<path d="M153.851 110.407C153.9 110.83 154.024 111.242 154.217 111.622C154.51 112.193 154.978 112.655 155.553 112.942C156.055 113.185 156.611 113.297 157.169 113.268C157.534 113.25 157.896 113.191 158.248 113.093L157.982 113.158C159.423 112.881 160.83 112.45 162.179 111.873C163.454 111.371 164.689 110.793 165.864 110.196C167.038 109.599 168.223 108.981 169.378 108.334C170.532 107.686 171.652 107.023 172.791 106.29C173.359 105.943 173.766 105.384 173.921 104.737C174.077 104.09 173.969 103.407 173.622 102.839C173.275 102.271 172.716 101.865 172.068 101.709C171.421 101.553 170.739 101.661 170.171 102.008H170.141C169.076 102.631 167.972 103.293 166.873 103.916C165.773 104.538 164.674 105.161 163.574 105.763C162.475 106.366 161.366 106.938 160.266 107.46C159.478 107.827 158.66 108.188 157.927 108.464C157.927 108.399 157.927 108.334 157.927 108.268C157.977 107.631 158.088 106.948 158.203 106.26C158.319 105.573 158.469 104.855 158.595 104.177V104.117C158.648 103.83 158.6 103.534 158.46 103.279C158.319 103.024 158.095 102.825 157.824 102.717C157.554 102.609 157.254 102.597 156.976 102.685C156.698 102.773 156.46 102.954 156.3 103.198C155.874 103.855 155.486 104.538 155.141 105.241C154.781 105.962 154.476 106.709 154.227 107.475C154.09 107.896 153.981 108.325 153.901 108.76C153.802 109.304 153.785 109.859 153.851 110.407ZM157.997 109.714C157.962 109.638 157.94 109.557 157.932 109.473L157.972 109.538C158.037 109.689 158.012 109.734 157.997 109.714Z" fill="#FF8B7B"/>
<path d="M156.19 104.995L153.961 102.325L157.932 101.416C157.932 101.416 159.789 103.685 158.253 104.825L156.19 104.995Z" fill="#FF8B7B"/>
<path d="M154.433 100.025L156.009 99.4331C156.265 99.3264 156.553 99.3239 156.811 99.4261C157.069 99.5283 157.276 99.7272 157.39 99.9803L157.932 101.416L153.961 102.325L153.755 101.085C153.731 100.857 153.785 100.628 153.908 100.436C154.031 100.243 154.216 100.098 154.433 100.025Z" fill="#FF8B7B"/>
<path d="M172.967 100.146C169.107 100.146 163.509 104.925 163.509 104.925L167.023 110.482C168.991 109.967 170.814 109.005 172.349 107.671C173.158 106.978 176.888 100.156 172.967 100.146Z" fill="#153B5B"/>
<path opacity="0.2" d="M170.743 106.225C168.288 108.298 166.928 108.981 166.18 109.172L167.008 110.482C168.976 109.967 170.799 109.005 172.334 107.671C172.498 107.51 172.643 107.332 172.766 107.139C172.912 105.563 172.485 104.749 170.743 106.225Z" fill="black"/>
<path d="M171.376 201.465L168.193 201.414L168.529 194.02L171.712 194.07L171.376 201.465Z" fill="#FF8B7B"/>
<path d="M168.068 200.451L171.546 200.506C171.609 200.505 171.669 200.527 171.716 200.568C171.763 200.609 171.794 200.665 171.802 200.727L172.249 203.568C172.257 203.638 172.25 203.71 172.228 203.777C172.206 203.845 172.171 203.907 172.123 203.959C172.076 204.012 172.018 204.054 171.953 204.082C171.888 204.111 171.818 204.126 171.747 204.125C170.497 204.085 168.69 203.985 167.114 203.96C165.271 203.929 165.452 204.005 163.294 203.96C161.983 203.96 161.707 202.614 162.259 202.504C164.769 202.002 165.045 201.972 167.279 200.676C167.517 200.532 167.789 200.454 168.068 200.451Z" fill="#263238"/>
<path d="M167.505 200.732C167.519 200.728 167.53 200.72 167.539 200.709C167.548 200.698 167.554 200.685 167.555 200.671C167.556 200.656 167.552 200.64 167.544 200.627C167.536 200.614 167.524 200.603 167.51 200.596C167.365 200.516 166.059 199.848 165.683 200.059C165.647 200.078 165.617 200.106 165.596 200.14C165.575 200.175 165.563 200.214 165.562 200.255C165.557 200.325 165.569 200.395 165.596 200.459C165.623 200.524 165.665 200.581 165.718 200.626C166.074 200.943 166.988 200.832 167.495 200.737L167.505 200.732ZM165.783 200.179C166.024 200.099 166.727 200.375 167.239 200.626C166.541 200.732 166.014 200.692 165.813 200.516C165.779 200.485 165.752 200.447 165.735 200.404C165.717 200.362 165.71 200.316 165.713 200.27C165.712 200.254 165.716 200.237 165.724 200.223C165.732 200.209 165.744 200.197 165.758 200.19L165.783 200.179Z" fill="#263238"/>
<path d="M167.505 200.732C167.515 200.724 167.523 200.714 167.528 200.703C167.533 200.691 167.536 200.679 167.535 200.666C167.486 200.21 167.298 199.779 166.998 199.431C166.941 199.381 166.874 199.343 166.801 199.32C166.729 199.297 166.652 199.288 166.577 199.296C166.366 199.296 166.31 199.416 166.3 199.502C166.255 199.858 167.038 200.561 167.43 200.742C167.455 200.748 167.482 200.745 167.505 200.732ZM166.536 199.447H166.617C166.673 199.441 166.729 199.447 166.783 199.464C166.836 199.482 166.886 199.51 166.928 199.547C167.175 199.829 167.333 200.179 167.38 200.551C166.978 200.305 166.441 199.758 166.471 199.547C166.471 199.502 166.476 199.472 166.536 199.447Z" fill="#263238"/>
<path d="M176.23 162.66C176.411 157.028 177.761 152.228 178.605 148.448C180.266 141.009 181.782 136.104 180.813 130.758L169.197 130.893C169.197 130.893 167.626 155.145 167.49 163.067C167.35 171.32 167.611 198.121 167.611 198.121L172.741 198.197C172.741 198.197 175.151 184.176 175.703 173.403C175.904 169.417 176.135 165.672 176.23 162.66Z" fill="#263238"/>
<path d="M167.34 197.534L167.44 199.612L172.902 199.833L173.128 197.755L167.34 197.534Z" fill="#263238"/>
<path opacity="0.4" d="M178.605 148.423C179.071 146.35 179.518 144.472 179.91 142.731L178.539 137.856L176.531 139.081C175.741 145.286 175.79 151.569 176.677 157.76C177.189 154.201 178.017 151.059 178.605 148.423Z" fill="black"/>
<path d="M193.745 201.465L190.562 201.414L189.879 194.02L193.062 194.07L193.745 201.465Z" fill="#FF8B7B"/>
<path d="M190.441 200.451L193.92 200.506C193.983 200.505 194.043 200.527 194.09 200.568C194.137 200.609 194.168 200.665 194.176 200.727L194.623 203.568C194.631 203.638 194.624 203.71 194.602 203.777C194.58 203.845 194.545 203.907 194.497 203.959C194.45 204.012 194.392 204.054 194.327 204.082C194.262 204.111 194.192 204.126 194.121 204.125C192.871 204.085 191.059 203.985 189.483 203.96C187.64 203.929 187.826 204.005 185.662 203.96C184.357 203.96 184.081 202.614 184.633 202.504C187.143 202.002 187.414 201.972 189.653 200.676C189.891 200.531 190.163 200.453 190.441 200.451Z" fill="#263238"/>
<path d="M189.879 200.732C189.892 200.728 189.904 200.72 189.912 200.709C189.921 200.699 189.925 200.685 189.924 200.671C189.927 200.656 189.924 200.641 189.917 200.627C189.91 200.613 189.898 200.603 189.884 200.596C189.739 200.516 188.433 199.848 188.052 200.059C188.017 200.078 187.987 200.106 187.967 200.141C187.947 200.175 187.936 200.215 187.936 200.255C187.93 200.324 187.941 200.394 187.967 200.459C187.993 200.523 188.034 200.581 188.087 200.626C188.448 200.943 189.357 200.832 189.869 200.737L189.879 200.732ZM188.157 200.179C188.393 200.099 189.101 200.375 189.613 200.626C188.915 200.732 188.388 200.692 188.187 200.516C188.152 200.486 188.124 200.448 188.107 200.405C188.089 200.362 188.083 200.316 188.087 200.27C188.086 200.254 188.09 200.237 188.098 200.223C188.106 200.209 188.118 200.197 188.132 200.19L188.157 200.179Z" fill="#263238"/>
<path d="M189.879 200.732C189.885 200.722 189.888 200.71 189.888 200.699C189.888 200.688 189.885 200.676 189.879 200.666C189.832 200.21 189.647 199.779 189.347 199.431C189.289 199.381 189.221 199.343 189.148 199.32C189.075 199.297 188.997 199.288 188.921 199.296C188.715 199.296 188.66 199.416 188.65 199.502C188.599 199.858 189.387 200.561 189.779 200.742C189.795 200.749 189.813 200.752 189.831 200.75C189.848 200.748 189.865 200.742 189.879 200.732ZM188.911 199.447H188.986C189.042 199.441 189.099 199.446 189.152 199.464C189.206 199.481 189.255 199.509 189.297 199.547C189.548 199.827 189.707 200.178 189.754 200.551C189.352 200.305 188.815 199.758 188.84 199.547C188.845 199.502 188.85 199.472 188.911 199.447Z" fill="#263238"/>
<path d="M188.815 197.534L189.252 199.612L194.884 199.833L195.11 197.755L188.815 197.534Z" fill="#263238"/>
<path d="M189.563 162.66C188.921 159.036 188.243 151.877 188.519 147.971C189.021 140.718 189.182 135.823 187.264 130.577L175.567 130.893C175.567 130.893 177.947 153.529 180.643 163.067C183.449 172.986 189.488 198.121 189.488 198.121L194.628 198.197C194.628 198.197 193.915 182.439 191.491 171.194C190.818 168.016 189.945 164.788 189.563 162.66Z" fill="#263238"/>
<path d="M173.835 100.246C177.374 99.552 180.992 99.3644 184.583 99.689C185.52 99.7417 186.408 100.123 187.091 100.766C187.774 101.408 188.209 102.271 188.318 103.203C188.9 107.721 189.774 116.586 187.661 130.748C185.964 131.431 180.989 131.827 177.038 131.887C176.606 131.887 175.572 130.984 175.572 130.984C175.572 130.984 174.614 131.882 174.066 131.867C171.451 131.782 169.373 131.516 168.901 131.044C167.897 128.594 167.314 122.204 170.261 116.185C170.352 112.726 169.734 108.896 169.759 105.191C169.785 104.029 170.202 102.91 170.941 102.013C171.68 101.116 172.7 100.494 173.835 100.246Z" fill="#153B5B"/>
<path d="M187.982 129.608C177.39 132.058 170.291 130.698 168.705 130.321L168.529 132.384C170.992 132.889 173.501 133.128 176.014 133.097C180.101 133.072 184.172 132.592 188.152 131.667L187.982 129.608Z" fill="#263238"/>
<path opacity="0.5" d="M187.982 129.608C177.39 132.058 170.291 130.698 168.705 130.321L168.529 132.384C170.992 132.889 173.501 133.128 176.014 133.097C180.101 133.072 184.172 132.592 188.152 131.667L187.982 129.608Z" fill="black"/>
<path d="M177.947 130.733H173.74V133.318H177.947V130.733Z" fill="#263238"/>
<path opacity="0.6" d="M177.947 130.733H173.74V133.318H177.947V130.733Z" fill="white"/>
<path d="M184.9 130.083L183.661 130.28L184.044 132.69L185.284 132.492L184.9 130.083Z" fill="#263238"/>
<path d="M171.49 130.622L170.242 130.487L169.981 132.913L171.229 133.047L171.49 130.622Z" fill="#263238"/>
<path d="M185.929 132.771H185.542C185.542 132.505 185.436 132.249 185.248 132.061C185.06 131.873 184.804 131.767 184.538 131.767C184.272 131.767 184.016 131.873 183.828 132.061C183.64 132.249 183.534 132.505 183.534 132.771H183.148C183.136 132.581 183.164 132.391 183.229 132.212C183.293 132.033 183.394 131.869 183.525 131.73C183.655 131.592 183.813 131.482 183.987 131.406C184.162 131.331 184.35 131.292 184.541 131.292C184.731 131.292 184.919 131.331 185.094 131.406C185.269 131.482 185.426 131.592 185.557 131.73C185.687 131.869 185.788 132.033 185.853 132.212C185.917 132.391 185.945 132.581 185.934 132.771H185.929Z" fill="#263238"/>
<g opacity="0.7">
<path d="M185.929 132.771H185.542C185.542 132.505 185.436 132.249 185.248 132.061C185.06 131.873 184.804 131.767 184.538 131.767C184.272 131.767 184.016 131.873 183.828 132.061C183.64 132.249 183.534 132.505 183.534 132.771H183.148C183.136 132.581 183.164 132.391 183.229 132.212C183.293 132.033 183.394 131.869 183.525 131.73C183.655 131.592 183.813 131.482 183.987 131.406C184.162 131.331 184.35 131.292 184.541 131.292C184.731 131.292 184.919 131.331 185.094 131.406C185.269 131.482 185.426 131.592 185.557 131.73C185.687 131.869 185.788 132.033 185.853 132.212C185.917 132.391 185.945 132.581 185.934 132.771H185.929Z" fill="white"/>
</g>
<path d="M186.772 133.218L186.626 132.801C186.589 132.698 186.521 132.609 186.431 132.546C186.341 132.483 186.234 132.449 186.124 132.45H185.216C185.105 132.445 184.996 132.476 184.905 132.54C184.814 132.603 184.747 132.695 184.714 132.801L184.568 133.218C184.111 133.462 183.75 133.852 183.54 134.326C183.33 134.8 183.285 135.33 183.411 135.832C183.537 136.335 183.827 136.781 184.235 137.099C184.644 137.418 185.147 137.591 185.665 137.591C186.183 137.591 186.686 137.418 187.095 137.099C187.503 136.781 187.794 136.335 187.92 135.832C188.046 135.33 188 134.8 187.79 134.326C187.581 133.852 187.219 133.462 186.762 133.218H186.772ZM185.673 136.812C185.365 136.812 185.064 136.721 184.808 136.55C184.552 136.379 184.353 136.136 184.235 135.851C184.117 135.567 184.086 135.254 184.146 134.952C184.206 134.65 184.355 134.373 184.572 134.155C184.79 133.938 185.067 133.79 185.369 133.73C185.671 133.669 185.984 133.7 186.268 133.818C186.553 133.936 186.796 134.135 186.967 134.391C187.138 134.647 187.229 134.948 187.229 135.256C187.229 135.461 187.188 135.665 187.109 135.855C187.03 136.045 186.914 136.217 186.768 136.362C186.622 136.506 186.448 136.621 186.258 136.698C186.067 136.775 185.863 136.814 185.658 136.812H185.673Z" fill="#263238"/>
<path opacity="0.5" d="M186.772 133.218L186.626 132.801C186.589 132.698 186.521 132.609 186.431 132.546C186.341 132.483 186.234 132.449 186.124 132.45H185.216C185.105 132.445 184.996 132.476 184.905 132.54C184.814 132.603 184.747 132.695 184.714 132.801L184.568 133.218C184.111 133.462 183.75 133.852 183.54 134.326C183.33 134.8 183.285 135.33 183.411 135.832C183.537 136.335 183.827 136.781 184.235 137.099C184.644 137.418 185.147 137.591 185.665 137.591C186.183 137.591 186.686 137.418 187.095 137.099C187.503 136.781 187.794 136.335 187.92 135.832C188.046 135.33 188 134.8 187.79 134.326C187.581 133.852 187.219 133.462 186.762 133.218H186.772ZM185.673 136.812C185.365 136.812 185.064 136.721 184.808 136.55C184.552 136.379 184.353 136.136 184.235 135.851C184.117 135.567 184.086 135.254 184.146 134.952C184.206 134.65 184.355 134.373 184.572 134.155C184.79 133.938 185.067 133.79 185.369 133.73C185.671 133.669 185.984 133.7 186.268 133.818C186.553 133.936 186.796 134.135 186.967 134.391C187.138 134.647 187.229 134.948 187.229 135.256C187.229 135.461 187.188 135.665 187.109 135.855C187.03 136.045 186.914 136.217 186.768 136.362C186.622 136.506 186.448 136.621 186.258 136.698C186.067 136.775 185.863 136.814 185.658 136.812H185.673Z" fill="white"/>
<path d="M184.87 133.218L184.724 132.801C184.687 132.698 184.618 132.609 184.529 132.546C184.439 132.483 184.332 132.449 184.222 132.45H183.313C183.204 132.449 183.097 132.483 183.007 132.546C182.917 132.609 182.849 132.698 182.811 132.801L182.671 133.218C182.214 133.462 181.852 133.852 181.642 134.326C181.433 134.8 181.387 135.33 181.513 135.832C181.639 136.335 181.929 136.781 182.338 137.099C182.746 137.418 183.25 137.591 183.768 137.591C184.286 137.591 184.789 137.418 185.197 137.099C185.606 136.781 185.896 136.335 186.022 135.832C186.148 135.33 186.103 134.8 185.893 134.326C185.683 133.852 185.321 133.462 184.865 133.218H184.87ZM183.76 136.812C183.452 136.812 183.151 136.721 182.896 136.55C182.64 136.379 182.44 136.136 182.322 135.851C182.205 135.567 182.174 135.254 182.234 134.952C182.294 134.65 182.442 134.373 182.66 134.155C182.877 133.938 183.155 133.79 183.457 133.73C183.758 133.669 184.071 133.7 184.356 133.818C184.64 133.936 184.883 134.135 185.054 134.391C185.225 134.647 185.316 134.948 185.316 135.256C185.316 135.46 185.276 135.663 185.198 135.851C185.12 136.04 185.005 136.212 184.86 136.356C184.716 136.501 184.544 136.615 184.356 136.694C184.167 136.772 183.964 136.812 183.76 136.812Z" fill="#263238"/>
<path opacity="0.7" d="M184.87 133.218L184.724 132.801C184.687 132.698 184.618 132.609 184.529 132.546C184.439 132.483 184.332 132.449 184.222 132.45H183.313C183.204 132.449 183.097 132.483 183.007 132.546C182.917 132.609 182.849 132.698 182.811 132.801L182.671 133.218C182.214 133.462 181.852 133.852 181.642 134.326C181.433 134.8 181.387 135.33 181.513 135.832C181.639 136.335 181.929 136.781 182.338 137.099C182.746 137.418 183.25 137.591 183.768 137.591C184.286 137.591 184.789 137.418 185.197 137.099C185.606 136.781 185.896 136.335 186.022 135.832C186.148 135.33 186.103 134.8 185.893 134.326C185.683 133.852 185.321 133.462 184.865 133.218H184.87ZM183.76 136.812C183.452 136.812 183.151 136.721 182.896 136.55C182.64 136.379 182.44 136.136 182.322 135.851C182.205 135.567 182.174 135.254 182.234 134.952C182.294 134.65 182.442 134.373 182.66 134.155C182.877 133.938 183.155 133.79 183.457 133.73C183.758 133.669 184.071 133.7 184.356 133.818C184.64 133.936 184.883 134.135 185.054 134.391C185.225 134.647 185.316 134.948 185.316 135.256C185.316 135.46 185.276 135.663 185.198 135.851C185.12 136.04 185.005 136.212 184.86 136.356C184.716 136.501 184.544 136.615 184.356 136.694C184.167 136.772 183.964 136.812 183.76 136.812Z" fill="white"/>
<path d="M170.937 129.333L165.003 143.659C164.874 143.969 165.022 144.325 165.331 144.453L165.61 144.568C165.92 144.697 166.275 144.55 166.403 144.24L172.338 129.913C172.466 129.603 172.319 129.248 172.009 129.12L171.731 129.004C171.421 128.876 171.065 129.023 170.937 129.333Z" fill="white"/>
<path d="M168.399 134.282L165.322 133.002C165.248 132.972 165.181 132.927 165.124 132.871C165.067 132.815 165.022 132.748 164.992 132.674C164.961 132.6 164.945 132.521 164.945 132.441C164.944 132.362 164.96 132.283 164.99 132.209C165.053 132.061 165.172 131.945 165.32 131.884C165.469 131.823 165.635 131.822 165.783 131.882L168.866 133.158C169.014 133.22 169.132 133.338 169.193 133.487C169.254 133.635 169.254 133.802 169.192 133.951C169.162 134.025 169.117 134.092 169.061 134.148C169.005 134.205 168.938 134.25 168.864 134.281C168.79 134.312 168.711 134.327 168.632 134.328C168.552 134.328 168.473 134.312 168.399 134.282Z" fill="white"/>
<g opacity="0.5">
<path d="M170.937 129.333L165.003 143.659C164.874 143.969 165.022 144.325 165.331 144.453L165.61 144.568C165.92 144.697 166.275 144.55 166.403 144.24L172.338 129.913C172.466 129.603 172.319 129.248 172.009 129.12L171.731 129.004C171.421 128.876 171.065 129.023 170.937 129.333Z" fill="black"/>
<path d="M168.399 134.282L165.322 133.002C165.248 132.972 165.181 132.927 165.124 132.871C165.067 132.814 165.022 132.748 164.992 132.674C164.961 132.6 164.945 132.521 164.945 132.441C164.944 132.362 164.96 132.283 164.99 132.209C165.053 132.061 165.172 131.945 165.32 131.884C165.469 131.823 165.635 131.822 165.783 131.882L168.866 133.157C169.014 133.22 169.132 133.338 169.193 133.487C169.254 133.635 169.254 133.802 169.192 133.951C169.162 134.024 169.117 134.092 169.061 134.148C169.005 134.205 168.938 134.25 168.864 134.281C168.79 134.311 168.711 134.327 168.632 134.328C168.552 134.328 168.473 134.312 168.399 134.282Z" fill="black"/>
</g>
<path d="M177.771 100.588C179.199 100.567 180.612 100.292 181.943 99.7745L183.182 99.3076C182.289 97.1892 181.857 94.9044 181.917 92.6059L177.304 96.8127C177.806 97.646 177.726 99.0265 175.989 100.056C175.954 100.056 175.924 100.106 175.888 100.131C176.149 100.412 176.687 100.618 177.771 100.588Z" fill="#FF8B7B"/>
<path d="M176.356 99.5485C176.356 99.5485 176.024 100.417 178.032 100.322C180.04 100.226 183.283 98.8508 183.283 98.8508L184.036 99.6489C184.036 99.6489 181.978 102.279 178.991 102.325L177.575 100.819L175.357 102.325C175.357 102.325 173.921 102.033 175.532 99.7744L176.356 99.5485Z" fill="#153B5B"/>
<path opacity="0.2" d="M176.356 99.5485C176.356 99.5485 176.024 100.417 178.032 100.322C180.04 100.226 183.283 98.8508 183.283 98.8508L184.036 99.6489C184.036 99.6489 181.978 102.279 178.991 102.325L177.575 100.819L175.357 102.325C175.357 102.325 173.921 102.033 175.532 99.7744L176.356 99.5485Z" fill="black"/>
<path opacity="0.2" d="M177.299 102.877C176.79 107.25 176.637 111.657 176.842 116.054C176.842 116.054 174.609 122.078 174.88 127.691C174.88 127.691 172.53 124.618 176.14 115.989C176.14 115.974 175.362 104.734 177.299 102.877Z" fill="black"/>
<path opacity="0.2" d="M188.971 111.486C188.916 109.518 188.805 107.806 188.67 106.346C187.625 105.547 186.777 104.995 186.777 104.995L184.769 103.685L184.026 105.588C184.026 105.588 186.486 109.779 188.971 111.486Z" fill="black"/>
<path d="M184.98 102.094C185.298 101.509 185.836 101.075 186.474 100.887C187.112 100.699 187.799 100.772 188.384 101.09C188.971 101.411 189.463 101.697 189.98 102.023C190.497 102.35 190.984 102.671 191.486 103.027C192.49 103.7 193.444 104.423 194.387 105.196C195.34 105.978 196.245 106.816 197.098 107.706C197.997 108.628 198.803 109.637 199.503 110.718C199.689 110.999 199.859 111.29 200.005 111.592C200.035 111.642 200.11 111.792 200.175 111.918C200.238 112.05 200.293 112.186 200.341 112.324C200.441 112.601 200.511 112.887 200.552 113.178C200.673 114.165 200.499 115.166 200.05 116.054C199.398 117.296 198.512 118.399 197.44 119.302C195.596 120.886 193.544 122.208 191.34 123.233C191.067 123.363 190.755 123.39 190.463 123.308C190.171 123.225 189.919 123.04 189.754 122.786C189.589 122.531 189.522 122.226 189.565 121.926C189.609 121.626 189.759 121.352 189.99 121.155L190.035 121.114C191.708 119.735 193.267 118.224 194.699 116.596C195.297 115.935 195.777 115.176 196.119 114.353C196.225 114.041 196.175 113.851 196.154 113.896C196.154 113.896 196.154 113.896 196.119 113.851C195.989 113.66 195.858 113.469 195.713 113.278C194.42 111.685 192.929 110.265 191.275 109.051C190.432 108.399 189.548 107.776 188.655 107.169C188.208 106.863 187.751 106.567 187.294 106.28C186.837 105.994 186.36 105.698 185.954 105.457L185.904 105.427C185.352 105.096 184.948 104.565 184.776 103.945C184.604 103.324 184.677 102.662 184.98 102.094Z" fill="#FF8B7B"/>
<path d="M184.694 99.9501C188.127 98.8708 194.734 104.659 194.734 104.659L192.083 110.738C189.974 110.381 187.992 109.489 186.325 108.148C183.142 105.432 181.21 101.05 184.694 99.9501Z" fill="#153B5B"/>
<path d="M191.345 120.241L188.454 121.611L190.682 124.694C190.682 124.694 193.192 123.112 192.69 121.576L191.345 120.241Z" fill="#FF8B7B"/>
<path d="M187.108 124.869L188.062 125.798C188.249 125.976 188.497 126.075 188.755 126.075C189.013 126.075 189.261 125.976 189.448 125.798L190.683 124.699L188.454 121.617L187.083 123.213C186.88 123.442 186.77 123.74 186.775 124.046C186.78 124.352 186.899 124.646 187.108 124.869Z" fill="#FF8B7B"/>
<path opacity="0.2" d="M170.743 109.463H174.879L174.769 110.231L172.279 111.044L170.743 110.231V109.463Z" fill="black"/>
<path opacity="0.2" d="M178.354 109.463H183.76L183.614 110.231L181.034 111.044L178.354 110.231V109.463Z" fill="black"/>
<path opacity="0.2" d="M181.917 92.6059L177.299 96.8127C177.453 97.0786 177.543 97.3772 177.56 97.6842C177.578 97.9912 177.523 98.298 177.399 98.5797C178.373 98.6068 179.321 98.2662 180.055 97.6259C181.245 96.6219 181.646 95.4221 181.943 93.7354C181.922 93.384 181.917 93.0025 181.917 92.6059Z" fill="black"/>
<path d="M183.293 90.4323C183.087 93.5346 183.529 94.0316 181.953 95.6029C179.583 97.9623 175.728 98.4141 175.181 95.2715C174.679 92.4453 174.418 87.3199 177.465 86.1251C178.139 85.8617 178.869 85.7736 179.586 85.8689C180.304 85.9641 180.986 86.2398 181.568 86.6699C182.15 87.1001 182.613 87.6709 182.915 88.3288C183.217 88.9868 183.347 89.7105 183.293 90.4323Z" fill="#FF8B7B"/>
<path d="M183.097 92.5306C181.993 93.5798 181.26 91.7274 181.32 91.5617C181.586 90.8388 181.476 90.2866 180.818 89.122C180.161 87.9573 181.677 86.11 183.418 86.3409C185.02 86.5618 184.217 88.1481 184.593 89.2023C185.266 91.0798 183.986 91.6822 183.097 92.5306Z" fill="#263238"/>
<path d="M176.115 94.2123C177.202 93.9257 178.312 93.7342 179.433 93.64C179.202 94.3529 178.715 94.9703 177.455 95.1059C176.195 95.2414 176.115 94.2123 176.115 94.2123Z" fill="white"/>
<path d="M184.699 92.5105C184.431 93.1767 183.92 93.7156 183.268 94.0165C182.44 94.3729 181.983 93.5597 182.179 92.631C182.354 91.7977 182.997 90.623 183.85 90.623C184.704 90.623 185.05 91.6621 184.699 92.5105Z" fill="#FF8B7B"/>
<path d="M179.031 90.7335C179.031 90.9995 178.895 91.0196 178.725 91.0146C178.554 91.0096 178.393 90.9644 178.404 90.7033C178.414 90.4423 178.564 90.2315 178.735 90.2415C178.906 90.2515 179.041 90.4724 179.031 90.7335Z" fill="#263238"/>
<path d="M176.305 90.9243C176.305 91.1903 176.175 91.2104 176.004 91.2054C175.833 91.2004 175.668 91.1552 175.683 90.8941C175.698 90.6331 175.843 90.4223 176.014 90.4323C176.185 90.4423 176.32 90.6582 176.305 90.9243Z" fill="#263238"/>
<path d="M176.807 90.8087C176.576 91.4311 176.26 92.0189 175.869 92.5557C176.009 92.6532 176.169 92.719 176.337 92.7485C176.505 92.778 176.678 92.7704 176.843 92.7264L176.807 90.8087Z" fill="#FF5652"/>
<path d="M179.523 89.5487C179.55 89.5442 179.574 89.5319 179.593 89.5135C179.609 89.4994 179.621 89.4824 179.629 89.4634C179.637 89.4444 179.642 89.4238 179.642 89.4031C179.642 89.3824 179.637 89.3619 179.629 89.3429C179.621 89.3239 179.609 89.3068 179.593 89.2927C179.431 89.1054 179.227 88.9591 178.998 88.8658C178.768 88.7724 178.52 88.7347 178.273 88.7555C178.235 88.7648 178.202 88.7882 178.18 88.8209C178.159 88.8535 178.15 88.8932 178.157 88.9319C178.163 88.9705 178.184 89.0054 178.215 89.0295C178.245 89.0536 178.284 89.0651 178.323 89.0617C178.519 89.0483 178.715 89.0813 178.896 89.158C179.077 89.2348 179.236 89.3532 179.363 89.5035C179.383 89.5242 179.409 89.5392 179.437 89.5471C179.465 89.555 179.495 89.5555 179.523 89.5487Z" fill="#263238"/>
<path d="M174.724 90.4122C174.749 90.415 174.774 90.4119 174.798 90.4032C174.821 90.3945 174.842 90.3804 174.86 90.362C174.989 90.216 175.151 90.103 175.332 90.0323C175.514 89.9616 175.71 89.9352 175.904 89.9554C175.944 89.9611 175.985 89.9507 176.018 89.9262C176.051 89.9018 176.073 89.8654 176.079 89.8249C176.083 89.8051 176.083 89.7847 176.078 89.7651C176.074 89.7454 176.065 89.7269 176.054 89.7105C176.042 89.6941 176.027 89.6803 176.01 89.6697C175.993 89.6592 175.974 89.6522 175.954 89.6492C175.71 89.6185 175.461 89.6483 175.231 89.7358C175.001 89.8233 174.796 89.9659 174.634 90.1512C174.619 90.1656 174.608 90.1828 174.6 90.2018C174.592 90.2207 174.588 90.2411 174.588 90.2616C174.588 90.2821 174.592 90.3025 174.6 90.3214C174.608 90.3404 174.619 90.3576 174.634 90.372C174.66 90.3931 174.691 90.407 174.724 90.4122Z" fill="#263238"/>
<path d="M176.843 93.384C176.843 93.384 176.155 92.8168 175.337 93.6401C174.518 94.4633 174.207 94.1019 174.207 94.1019C174.207 94.1019 174.403 94.8198 175.522 94.5688C175.832 94.5156 176.12 94.3762 176.353 94.1666C176.587 93.957 176.756 93.6858 176.843 93.384Z" fill="#263238"/>
<path d="M176.993 93.3288C176.993 93.3288 177.495 92.4804 178.629 93.0226C179.764 93.5647 179.97 93.0678 179.97 93.0678C179.97 93.0678 180.045 93.876 178.795 94.0416C178.458 94.1032 178.111 94.069 177.792 93.943C177.474 93.817 177.197 93.6042 176.993 93.3288Z" fill="#263238"/>
<path d="M176.842 95.5025C176.981 95.4013 177.153 95.3546 177.324 95.3713C177.495 95.3879 177.654 95.4668 177.771 95.5928C177.881 95.4061 178.047 95.2578 178.244 95.1681C178.442 95.0783 178.662 95.0513 178.875 95.0908C179.583 95.2665 179.026 97.5055 178.715 96.888C178.715 96.888 177.831 98.2635 177.686 97.2896C177.686 97.2896 176.857 97.9322 176.993 96.9934C177.081 96.492 177.029 95.9761 176.842 95.5025Z" fill="#263238"/>
<path d="M183.76 86.7325C183.641 85.9688 183.238 85.2781 182.633 84.798C182.027 84.3179 181.263 84.0837 180.492 84.1422C178.067 84.2526 176.029 85.5227 174.684 85.4725C174.607 85.4718 174.531 85.4905 174.463 85.5268C174.395 85.5631 174.337 85.6158 174.294 85.6802C174.252 85.7446 174.226 85.8186 174.22 85.8954C174.213 85.9722 174.226 86.0495 174.257 86.1201C174.498 86.6773 174.94 87.2596 175.693 86.9885C175.544 87.1914 175.34 87.3468 175.105 87.4359C174.869 87.5251 174.613 87.544 174.367 87.4905C174.367 87.4905 175.783 88.5648 178.414 87.4905C179.508 87.0437 180.206 87.1692 180.652 87.4654C180.993 87.6989 181.399 87.8176 181.812 87.804C182.225 87.7905 182.622 87.6454 182.947 87.3901L183.76 86.7325Z" fill="#263238"/>
<path d="M180.838 105.819C180.724 105.942 180.585 106.041 180.431 106.108C180.277 106.176 180.111 106.211 179.942 106.211C179.774 106.211 179.607 106.176 179.453 106.108C179.299 106.041 179.16 105.942 179.046 105.819C179.047 106.401 179.216 106.971 179.534 107.46C179.853 107.948 180.305 108.333 180.838 108.57C181.371 108.333 181.824 107.948 182.142 107.46C182.46 106.971 182.63 106.401 182.63 105.819C182.516 105.942 182.378 106.041 182.223 106.108C182.069 106.176 181.903 106.211 181.734 106.211C181.566 106.211 181.4 106.176 181.245 106.108C181.091 106.041 180.953 105.942 180.838 105.819Z" fill="#153B5B"/>
<path opacity="0.4" d="M180.838 105.819C180.724 105.942 180.585 106.041 180.431 106.108C180.277 106.176 180.111 106.211 179.942 106.211C179.774 106.211 179.607 106.176 179.453 106.108C179.299 106.041 179.16 105.942 179.046 105.819C179.047 106.401 179.216 106.971 179.534 107.46C179.853 107.948 180.305 108.333 180.838 108.57C181.371 108.333 181.824 107.948 182.142 107.46C182.46 106.971 182.63 106.401 182.63 105.819C182.516 105.942 182.378 106.041 182.223 106.108C182.069 106.176 181.903 106.211 181.734 106.211C181.566 106.211 181.4 106.176 181.245 106.108C181.091 106.041 180.953 105.942 180.838 105.819Z" fill="white"/>
<path opacity="0.2" d="M179.046 105.819C179.16 105.942 179.299 106.041 179.453 106.108C179.607 106.176 179.774 106.211 179.942 106.211C180.111 106.211 180.277 106.176 180.431 106.108C180.585 106.041 180.724 105.942 180.838 105.819V108.57C180.305 108.333 179.853 107.948 179.534 107.46C179.216 106.971 179.047 106.401 179.046 105.819Z" fill="white"/>
<path d="M184.583 99.6891L183.554 100.588C183.554 100.588 185.934 99.9602 187.384 101.155L188.449 100.151C188.449 100.151 187.224 99.6088 184.583 99.6891Z" fill="#153B5B"/>
<path opacity="0.4" d="M184.583 99.6891L183.554 100.588C183.554 100.588 185.934 99.9602 187.384 101.155L188.449 100.151C188.449 100.151 187.224 99.6088 184.583 99.6891Z" fill="black"/>
<path d="M175.146 99.8146L174.724 100.412C173.45 100.063 172.091 100.214 170.924 100.834L171.928 99.8296C171.928 99.8296 174.408 99.5033 175.146 99.8146Z" fill="#153B5B"/>
<path opacity="0.4" d="M175.146 99.8146L174.724 100.412C173.45 100.063 172.091 100.214 170.924 100.834L171.928 99.8296C171.928 99.8296 174.408 99.5033 175.146 99.8146Z" fill="black"/>
<path d="M150.472 100.081L148.339 98.5245L150.472 95.9744L155.091 93.5848L158.851 95.377L161.928 98.9663L159.709 100.081H150.472Z" fill="#153B5B"/>
<path opacity="0.5" d="M150.472 100.081L148.339 98.5245L150.472 95.9744L155.091 93.5848L158.851 95.377L161.928 98.9663L159.709 100.081H150.472Z" fill="black"/>
<path d="M150.472 100.081C150.472 100.081 154.92 96.5667 159.709 100.081C159.709 100.081 155.774 102.646 150.472 100.081Z" fill="#153B5B"/>
<path opacity="0.3" d="M150.472 100.081C150.472 100.081 154.92 96.5667 159.709 100.081C159.709 100.081 155.774 102.646 150.472 100.081Z" fill="black"/>
<path d="M155.146 95.6028C155.044 95.7128 154.92 95.8004 154.782 95.8603C154.644 95.9203 154.496 95.9512 154.345 95.9512C154.195 95.9512 154.047 95.9203 153.909 95.8603C153.771 95.8004 153.647 95.7128 153.545 95.6028C153.544 96.1234 153.695 96.633 153.979 97.069C154.264 97.505 154.669 97.8486 155.146 98.0576C155.622 97.8479 156.026 97.504 156.31 97.068C156.593 96.632 156.744 96.1229 156.742 95.6028C156.64 95.7126 156.517 95.8002 156.38 95.8601C156.242 95.92 156.094 95.9509 155.944 95.9509C155.794 95.9509 155.646 95.92 155.509 95.8601C155.372 95.8002 155.248 95.7126 155.146 95.6028Z" fill="#153B5B"/>
<path opacity="0.4" d="M155.146 95.6028C155.044 95.7128 154.92 95.8004 154.782 95.8603C154.644 95.9203 154.496 95.9512 154.345 95.9512C154.195 95.9512 154.047 95.9203 153.909 95.8603C153.771 95.8004 153.647 95.7128 153.545 95.6028C153.544 96.1234 153.695 96.633 153.979 97.069C154.264 97.505 154.669 97.8486 155.146 98.0576C155.622 97.8479 156.026 97.504 156.31 97.068C156.593 96.632 156.744 96.1229 156.742 95.6028C156.64 95.7126 156.517 95.8002 156.38 95.8601C156.242 95.92 156.094 95.9509 155.944 95.9509C155.794 95.9509 155.646 95.92 155.509 95.8601C155.372 95.8002 155.248 95.7126 155.146 95.6028Z" fill="white"/>
<path opacity="0.2" d="M153.535 95.6028C153.637 95.7128 153.761 95.8004 153.899 95.8603C154.037 95.9203 154.185 95.9512 154.335 95.9512C154.486 95.9512 154.634 95.9203 154.772 95.8603C154.91 95.8004 155.034 95.7128 155.136 95.6028V98.0576C154.659 97.8486 154.254 97.505 153.969 97.069C153.685 96.633 153.534 96.1234 153.535 95.6028Z" fill="white"/>
</g>
</g>
</g>
<defs>
<filter id="filter0_d_51_4389" x="0" y="0" width="238" height="252" filterUnits="userSpaceOnUse" color-interpolation-filters="sRGB">
<feFlood flood-opacity="0" result="BackgroundImageFix"/>
<feColorMatrix in="SourceAlpha" type="matrix" values="0 0 0 0 0 0 0 0 0 0 0 0 0 0 0 0 0 0 127 0" result="hardAlpha"/>
<feOffset dy="4"/>
<feGaussianBlur stdDeviation="2"/>
<feComposite in2="hardAlpha" operator="out"/>
<feColorMatrix type="matrix" values="0 0 0 0 0 0 0 0 0 0 0 0 0 0 0 0 0 0 0.25 0"/>
<feBlend mode="normal" in2="BackgroundImageFix" result="effect1_dropShadow_51_4389"/>
<feBlend mode="normal" in="SourceGraphic" in2="effect1_dropShadow_51_4389" result="shape"/>
</filter>
<clipPath id="clip0_51_4389">
<rect x="4" width="230" height="244" rx="32" fill="white"/>
</clipPath>
<clipPath id="clip1_51_4389">
<rect width="251" height="251" fill="white" transform="translate(-7 -3)"/>
</clipPath>
</defs>
</svg>
