<svg width="238" height="252" viewBox="0 0 238 252" fill="none" xmlns="http://www.w3.org/2000/svg">
<g filter="url(#filter0_d_51_4397)">
<rect x="4" width="230" height="244" rx="32" fill="#99907D"/>
<path d="M193.522 132.468C198.699 106.015 180.709 92.0438 144.547 88.2772C104.71 84.1244 117.866 58.8729 97.6535 45.0948C77.4413 31.3166 20.3232 46.2886 49.3452 109.991C78.3672 173.692 183.116 185.599 193.522 132.468Z" fill="#F5F5F5"/>
<path d="M206.212 198.495C206.212 198.554 169.771 198.601 124.832 198.601C79.892 198.601 43.447 198.542 43.447 198.495C43.447 198.447 79.8763 198.392 124.832 198.392C169.787 198.392 206.212 198.44 206.212 198.495Z" fill="#263238"/>
<path d="M91.5543 74.4556C91.5543 74.4556 91.8971 56.8005 77.2915 47.8331H123.583C123.583 47.8331 136.817 58.5577 136.927 74.4556H91.5543Z" fill="#EBEBEB"/>
<path d="M120.052 54.271C120.052 54.3301 114.765 54.3774 108.232 54.3774C101.7 54.3774 96.4124 54.3301 96.4124 54.271C96.4124 54.2119 101.7 54.1686 108.232 54.1686C114.765 54.1686 120.052 54.2159 120.052 54.271Z" fill="#455A64"/>
<path d="M125.103 57.4664C125.103 57.5215 118.098 57.5688 109.458 57.5688C100.817 57.5688 93.812 57.5215 93.812 57.4664C93.812 57.4112 100.817 57.36 109.458 57.36C118.098 57.36 125.103 57.4073 125.103 57.4664Z" fill="#263238"/>
<path d="M127.735 65.5434C127.735 65.5985 120.73 65.6458 112.09 65.6458C103.449 65.6458 96.4399 65.5985 96.4399 65.5434C96.4399 65.4882 103.445 65.4409 112.09 65.4409C120.734 65.4409 127.735 65.4882 127.735 65.5434Z" fill="#263238"/>
<path d="M111.384 61.1424C111.173 61.1745 110.96 61.189 110.746 61.1857L108.997 61.2172C107.519 61.2369 105.482 61.2488 103.229 61.2488C100.975 61.2488 98.9379 61.2488 97.4604 61.2172L95.711 61.1857C95.4974 61.189 95.2839 61.1745 95.0728 61.1424C95.2841 61.1116 95.4976 61.0984 95.711 61.103L97.4604 61.0715C98.9379 61.0715 100.975 61.0399 103.229 61.0399C105.482 61.0399 107.519 61.0399 108.997 61.0715L110.746 61.103C110.96 61.0984 111.173 61.1116 111.384 61.1424Z" fill="#263238"/>
<path d="M125.103 61.1424C124.948 61.1746 124.789 61.1891 124.631 61.1857L123.338 61.2172C122.251 61.2369 120.742 61.2488 119.079 61.2488C117.417 61.2488 115.907 61.2488 114.82 61.2172L113.528 61.1857C113.369 61.1891 113.21 61.1746 113.055 61.1424C113.211 61.1136 113.369 61.1004 113.528 61.103L114.82 61.0715C115.907 61.0715 117.417 61.0399 119.079 61.0399C120.742 61.0399 122.231 61.0399 123.338 61.0715L124.631 61.103C124.789 61.0985 124.948 61.1117 125.103 61.1424Z" fill="#263238"/>
<path d="M114.288 69.8734C114.076 69.9056 113.861 69.9201 113.646 69.9168L111.901 69.9483C110.423 69.9483 108.382 69.9798 106.132 69.9798C103.883 69.9798 101.838 69.9798 100.36 69.9483L98.6149 69.9168C98.4 69.9201 98.1852 69.9056 97.9727 69.8734C98.1853 69.8425 98.4001 69.8294 98.6149 69.834L100.36 69.8025C101.838 69.8025 103.879 69.771 106.132 69.771C108.386 69.771 110.423 69.771 111.901 69.8025L113.646 69.834C113.861 69.8294 114.076 69.8425 114.288 69.8734Z" fill="#263238"/>
<path d="M128.007 69.8734C127.852 69.9056 127.693 69.9201 127.534 69.9168L126.242 69.9483C125.151 69.9483 123.646 69.9798 121.983 69.9798C120.32 69.9798 118.831 69.9798 117.72 69.9483L116.428 69.9168C116.269 69.9201 116.11 69.9056 115.955 69.8734C116.111 69.8447 116.269 69.8315 116.428 69.834L117.72 69.8025C118.811 69.8025 120.316 69.771 121.983 69.771C123.65 69.771 125.135 69.771 126.242 69.8025L127.534 69.834C127.693 69.8315 127.851 69.8447 128.007 69.8734Z" fill="#263238"/>
<path d="M82.0905 73.9553H150.386L154.106 192.273C154.131 193.067 154 193.858 153.719 194.601C153.438 195.344 153.014 196.025 152.47 196.603C151.926 197.182 151.274 197.648 150.55 197.975C149.826 198.301 149.045 198.482 148.251 198.507H77.0433C76.04 198.507 75.075 198.121 74.3482 197.429C73.6214 196.738 73.1883 195.793 73.1388 194.791L69.8568 127.981C69.8568 127.981 49.6012 120.629 49.944 98.1981C49.944 98.1981 50.866 73.9553 82.0905 73.9553Z" fill="#263238"/>
<path d="M85.798 198.329L82.8193 73.9553H152.865L154.129 193.097C154.173 194.483 153.664 195.831 152.715 196.842C151.765 197.853 150.453 198.447 149.066 198.491H148.885L85.798 198.329Z" fill="#455A64"/>
<path d="M88.6072 81.1615L90.0256 139.072H147.073L146.305 81.1615H88.6072Z" fill="#263238"/>
<path d="M94.9192 88.6554C97.7048 89.4079 101.223 89.0888 104.084 88.9509C104.293 88.9509 104.493 88.8679 104.641 88.7201C104.789 88.5723 104.872 88.3719 104.872 88.1629C104.872 87.9539 104.789 87.7535 104.641 87.6057C104.493 87.4579 104.293 87.3749 104.084 87.3749C101.223 87.2331 97.7009 86.9139 94.9192 87.6704C94.7861 87.7097 94.6739 87.8002 94.6074 87.9221C94.541 88.044 94.5256 88.1873 94.5646 88.3205C94.59 88.4042 94.6357 88.4804 94.6975 88.5422C94.7594 88.6041 94.8355 88.6497 94.9192 88.6751V88.6554Z" fill="#E0E0E0"/>
<path d="M108.953 88.5411C111.688 89.2385 115.222 89.1124 118.015 88.8445C118.224 88.8445 118.425 88.7615 118.573 88.6137C118.72 88.4659 118.803 88.2655 118.803 88.0565C118.803 87.8475 118.72 87.6471 118.573 87.4993C118.425 87.3515 118.224 87.2685 118.015 87.2685C115.222 86.9967 111.688 86.8745 108.953 87.5719C108.889 87.5913 108.83 87.6231 108.778 87.6654C108.727 87.7078 108.684 87.7599 108.652 87.8188C108.621 87.8778 108.601 87.9423 108.595 88.0088C108.588 88.0752 108.595 88.1423 108.615 88.2062C108.638 88.2864 108.682 88.3593 108.741 88.4185C108.8 88.4776 108.873 88.5211 108.953 88.5451V88.5411Z" fill="#E0E0E0"/>
<path d="M122.799 88.2929C124.174 88.7106 125.659 88.6396 127.085 88.6633C128.542 88.75 130.003 88.7223 131.455 88.5805C132.168 88.4781 132.168 87.237 131.455 87.1385C130.003 86.9934 128.542 86.9644 127.085 87.0518C125.659 87.0755 124.174 87.0045 122.799 87.4222C122.704 87.4494 122.621 87.5066 122.562 87.5851C122.503 87.6636 122.471 87.7593 122.471 87.8575C122.471 87.9558 122.503 88.0514 122.562 88.13C122.621 88.2085 122.704 88.2657 122.799 88.2929Z" fill="#E0E0E0"/>
<path d="M135.627 88.3717C136.665 88.5227 137.711 88.603 138.76 88.6121C139.8 88.6357 140.923 88.8051 141.931 88.5175C142.073 88.4746 142.197 88.3873 142.285 88.2685C142.373 88.1496 142.421 88.0056 142.421 87.8576C142.421 87.7096 142.373 87.5655 142.285 87.4466C142.197 87.3278 142.073 87.2405 141.931 87.1976C140.923 86.91 139.8 87.0794 138.76 87.103C137.711 87.1115 136.664 87.1931 135.627 87.3473C135.518 87.381 135.422 87.4489 135.354 87.5411C135.286 87.6333 135.249 87.7449 135.249 87.8595C135.249 87.9742 135.286 88.0858 135.354 88.1779C135.422 88.2701 135.518 88.3381 135.627 88.3717Z" fill="#E0E0E0"/>
<path d="M106.578 145.959H90.0454V157.775H106.578V145.959Z" fill="#807700"/>
<path d="M93.0359 145.959H90.0454V157.775H93.0359V145.959Z" fill="#263238"/>
<path d="M126.821 145.959H110.289V157.775H126.821V145.959Z" fill="#807700"/>
<path d="M113.11 145.959H110.12V157.775H113.11V145.959Z" fill="#263238"/>
<path d="M147.069 145.959H130.537V157.775H147.069V145.959Z" fill="#807700"/>
<path d="M133.054 145.959H130.064V157.775H133.054V145.959Z" fill="#263238"/>
<path d="M147.069 161.679H130.537V173.495H147.069V161.679Z" fill="#807700"/>
<path d="M133.618 161.679H130.537V173.495H133.618V161.679Z" fill="#263238"/>
<path d="M106.578 161.679H90.0454V173.495H106.578V161.679Z" fill="#807700"/>
<path d="M93.0359 161.656H90.0454V173.472H93.0359V161.656Z" fill="#263238"/>
<path d="M106.578 177.242H90.0454V189.058H106.578V177.242Z" fill="#807700"/>
<path opacity="0.3" d="M106.578 177.242H90.0454V189.058H106.578V177.242Z" fill="black"/>
<path d="M93.0359 177.242H90.0454V189.058H93.0359V177.242Z" fill="#263238"/>
<path d="M126.731 161.679H110.198V173.495H126.731V161.679Z" fill="#807700"/>
<path d="M113.189 161.656H110.198V173.472H113.189V161.656Z" fill="#263238"/>
<path d="M126.821 177.242H110.289V189.058H126.821V177.242Z" fill="#807700"/>
<path opacity="0.3" d="M126.821 177.242H110.289V189.058H126.821V177.242Z" fill="black"/>
<path d="M113.28 177.242H110.289V189.058H113.28V177.242Z" fill="#263238"/>
<path d="M147.069 177.242H130.537V189.058H147.069V177.242Z" fill="#E0E0E0"/>
<path d="M133.527 177.242H130.537V189.058H133.527V177.242Z" fill="#263238"/>
<path d="M80.341 198.51C80.0573 198.51 79.0211 170.639 78.0243 136.258C77.0275 101.878 76.4483 73.971 76.732 73.9632C77.0157 73.9553 78.0519 101.827 79.0487 136.215C80.0455 170.603 80.6247 198.503 80.341 198.51Z" fill="#455A64"/>
<path d="M146.986 132.476V134.6L153.527 136.227L153.491 132.953L146.986 132.476Z" fill="#455A64"/>
<path d="M67.5912 128.217C67.2332 128.075 66.8489 128.012 66.4643 128.032C66.0772 128.068 65.6975 128.161 65.3375 128.308L60.8616 129.805L52.1148 132.744L35.5668 138.26C34.9139 138.447 34.3527 138.867 33.9908 139.442C33.6322 140.004 33.4986 140.681 33.6165 141.337C33.6889 141.662 33.7837 141.982 33.9002 142.295L34.2194 143.248C34.4321 143.882 34.6409 144.509 34.8537 145.135C35.6837 147.628 36.4927 150.048 37.2807 152.397C38.8567 157.085 40.3067 161.459 41.6423 165.434C44.2979 173.405 46.4531 179.859 47.9463 184.319C48.687 186.549 49.2583 188.278 49.6523 189.441C49.8415 190.028 49.9912 190.473 50.0897 190.776C50.1882 191.08 50.2315 191.233 50.2315 191.233C50.2843 191.384 50.3516 191.529 50.4325 191.667C50.6596 192.077 50.9878 192.423 51.3859 192.671C51.7085 192.871 52.0689 193.002 52.4444 193.057C52.82 193.111 53.2028 193.087 53.5687 192.987C54.4276 192.711 55.4126 192.364 56.5276 191.994L72.9811 186.446L55.4323 131.641L64.2106 128.698L80.0613 177.266L79.3678 160.371C76.1764 150.864 72.7289 140.585 69.1238 129.856C69.0016 129.488 68.8013 129.152 68.5368 128.869C68.2722 128.586 67.9497 128.364 67.5912 128.217ZM47.3632 153.185L43.4468 140.789L44.7746 140.368L48.691 152.763L47.3632 153.185ZM50.0818 146.357L47.7966 139.131L49.1244 138.713L51.4096 145.935L50.0818 146.357ZM53.1471 155.521L50.8659 148.295L52.1936 147.878L54.4749 155.1L53.1471 155.521ZM53.9351 157.46L55.2629 157.038L61.5669 177.045L60.2391 177.463L53.9351 157.46ZM62.2091 183.637L60.8577 179.362L62.1855 178.941L63.5369 183.219L62.2091 183.637ZM67.6739 181.368L66.3461 181.785L58.0051 155.387L59.3329 154.97L67.6739 181.368ZM58.6513 152.444L57.3235 152.862L52.4852 137.563L53.813 137.141L58.6513 152.444Z" fill="#807700"/>
<path opacity="0.3" d="M67.5912 128.217C67.2332 128.075 66.8489 128.012 66.4643 128.032C66.0772 128.068 65.6975 128.161 65.3375 128.308L60.8616 129.805L52.1148 132.744L35.5668 138.26C34.9139 138.447 34.3527 138.867 33.9908 139.442C33.6322 140.004 33.4986 140.681 33.6165 141.337C33.6889 141.662 33.7837 141.982 33.9002 142.295L34.2194 143.248C34.4321 143.882 34.6409 144.509 34.8537 145.135C35.6837 147.628 36.4927 150.048 37.2807 152.397C38.8567 157.085 40.3067 161.459 41.6423 165.434C44.2979 173.405 46.4531 179.859 47.9463 184.319C48.687 186.549 49.2583 188.278 49.6523 189.441C49.8415 190.028 49.9912 190.473 50.0897 190.776C50.1882 191.08 50.2315 191.233 50.2315 191.233C50.2843 191.384 50.3516 191.529 50.4325 191.667C50.6596 192.077 50.9878 192.423 51.3859 192.671C51.7085 192.871 52.0689 193.002 52.4444 193.057C52.82 193.111 53.2028 193.087 53.5687 192.987C54.4276 192.711 55.4126 192.364 56.5276 191.994L72.9811 186.446L55.4323 131.641L64.2106 128.698L80.0613 177.266L79.3678 160.371C76.1764 150.864 72.7289 140.585 69.1238 129.856C69.0016 129.488 68.8013 129.152 68.5368 128.869C68.2722 128.586 67.9497 128.364 67.5912 128.217ZM47.3632 153.185L43.4468 140.789L44.7746 140.368L48.691 152.763L47.3632 153.185ZM50.0818 146.357L47.7966 139.131L49.1244 138.713L51.4096 145.935L50.0818 146.357ZM53.1471 155.521L50.8659 148.295L52.1936 147.878L54.4749 155.1L53.1471 155.521ZM53.9351 157.46L55.2629 157.038L61.5669 177.045L60.2391 177.463L53.9351 157.46ZM62.2091 183.637L60.8577 179.362L62.1855 178.941L63.5369 183.219L62.2091 183.637ZM67.6739 181.368L66.3461 181.785L58.0051 155.387L59.3329 154.97L67.6739 181.368ZM58.6513 152.444L57.3235 152.862L52.4852 137.563L53.813 137.141L58.6513 152.444Z" fill="black"/>
<path d="M72.9929 186.521L72.9732 186.458L56.5198 192.006C55.4047 192.376 54.4197 192.723 53.5608 192.998C53.1949 193.099 52.8121 193.123 52.4366 193.069C52.061 193.014 51.7006 192.883 51.3781 192.683C50.9799 192.435 50.6518 192.089 50.4246 191.679C50.2709 191.403 50.2355 191.241 50.2236 191.245L50.263 191.359C50.4695 191.919 50.8544 192.395 51.3584 192.715C51.6832 192.923 52.0481 193.061 52.4295 193.119C52.811 193.177 53.2004 193.155 53.5726 193.054C54.4394 192.782 55.4244 192.443 56.5434 192.073L75.4278 185.769L79.9076 184.271L80.341 184.051L72.9929 186.521Z" fill="#263238"/>
<path d="M50.0819 190.784C49.9834 190.481 49.8337 190.036 49.6446 189.448C49.2506 188.266 48.6793 186.541 47.9385 184.326C46.4532 179.866 44.298 173.413 41.6345 165.442C40.2989 161.459 38.8411 157.093 37.273 152.405C36.485 150.062 35.6759 147.641 34.8459 145.143C34.6332 144.517 34.4243 143.89 34.2116 143.256L33.8924 142.302C33.7759 141.99 33.6811 141.67 33.6088 141.345C33.4966 140.686 33.6373 140.009 34.0028 139.45C34.3647 138.875 34.9258 138.454 35.5788 138.268L52.1268 132.752L60.8736 129.821L65.3494 128.323C65.7095 128.177 66.0891 128.084 66.4762 128.048C67.0583 128.017 67.6345 128.178 68.1163 128.506C68.5982 128.834 68.959 129.311 69.1436 129.864C72.7408 140.592 76.1883 150.872 79.3876 160.379L79.36 159.741C76.2317 150.395 72.8512 140.317 69.3327 129.797C69.2001 129.403 68.9839 129.043 68.699 128.741C68.414 128.439 68.067 128.203 67.6819 128.048C67.2981 127.894 66.8851 127.826 66.4723 127.851C66.0667 127.887 65.6685 127.983 65.2903 128.134L60.8184 129.635L52.0716 132.567L35.5236 138.114C34.8314 138.305 34.2337 138.744 33.8452 139.347C33.4664 139.948 33.3259 140.669 33.4512 141.369C33.5262 141.702 33.6236 142.03 33.7427 142.35C33.8491 142.669 33.9594 142.984 34.0658 143.303C34.2746 143.934 34.4874 144.564 34.6962 145.187C35.5367 147.682 36.3497 150.102 37.1351 152.448L41.5124 165.47L47.8676 184.334C48.6241 186.557 49.2072 188.274 49.6052 189.456C49.8061 190.039 49.9598 190.485 50.0622 190.788L50.2237 191.241C50.2237 191.241 50.1804 191.088 50.0819 190.784Z" fill="#263238"/>
<path d="M59.3191 154.976L57.9929 155.395L66.3356 181.791L67.6618 181.371L59.3191 154.976Z" fill="#FAFAFA"/>
<path d="M53.8115 137.141L52.4854 137.56L57.324 152.869L58.6502 152.45L53.8115 137.141Z" fill="#FAFAFA"/>
<path d="M49.1257 138.711L47.7996 139.13L50.0829 146.354L51.4091 145.935L49.1257 138.711Z" fill="#FAFAFA"/>
<path d="M44.5283 139.996L43.2058 140.414L47.1078 152.767L48.4303 152.349L44.5283 139.996Z" fill="#FAFAFA"/>
<path d="M62.2009 178.937L60.8748 179.357L62.226 183.632L63.5522 183.213L62.2009 178.937Z" fill="#FAFAFA"/>
<path d="M52.1904 147.877L50.8643 148.296L53.1476 155.52L54.4738 155.101L52.1904 147.877Z" fill="#FAFAFA"/>
<path d="M55.2473 157.049L53.9211 157.468L60.2441 177.473L61.5702 177.054L55.2473 157.049Z" fill="#FAFAFA"/>
<path d="M55.4324 131.641L72.9733 186.458L72.993 186.521L80.3411 184.059L80.0613 177.258L64.2107 128.698L55.4324 131.641Z" fill="#FAFAFA"/>
<path d="M72.8945 189.795L80.0181 187.289L79.8644 184.165L72.993 186.521L72.8945 189.795Z" fill="#263238"/>
<path d="M162.711 99.1003C162.711 99.1555 162.49 99.191 162.214 99.1791C161.939 99.1673 161.726 99.1122 161.73 99.0531C161.734 98.994 161.954 98.9624 162.226 98.9743C162.498 98.9861 162.715 99.0412 162.711 99.1003Z" fill="#263238"/>
<path d="M166.568 98.9349C166.265 99.0621 165.939 99.1225 165.611 99.1122C165.288 99.172 164.956 99.1626 164.637 99.0846C165.263 98.8994 165.921 98.8484 166.568 98.9349Z" fill="#263238"/>
<path d="M170.39 98.2532C170.106 98.4183 169.79 98.5217 169.464 98.5566C169.151 98.6555 168.821 98.6904 168.495 98.6591C169.091 98.395 169.737 98.2607 170.39 98.2651V98.2532Z" fill="#263238"/>
<path d="M174.074 97.0752C173.815 97.2753 173.517 97.4189 173.199 97.4968C172.904 97.639 172.581 97.7169 172.253 97.7253C172.511 97.5236 172.81 97.3798 173.128 97.3037C173.425 97.1651 173.746 97.0874 174.074 97.0752Z" fill="#263238"/>
<path d="M177.568 95.4086C177.064 95.822 176.479 96.1265 175.851 96.3029C176.082 96.0702 176.358 95.8866 176.662 95.7632C176.936 95.5834 177.245 95.4626 177.568 95.4086Z" fill="#263238"/>
<path d="M180.788 93.2613C180.823 93.3046 180.5 93.5962 180.063 93.9114C179.818 94.1296 179.531 94.2946 179.219 94.396C179.188 94.3487 179.511 94.0571 179.944 93.7419C180.378 93.4267 180.752 93.214 180.788 93.2613Z" fill="#263238"/>
<path d="M183.632 90.6372C183.675 90.6766 183.4 91.0312 183.021 91.3937C182.643 91.7562 182.3 92.0477 182.265 92.0044C182.229 91.9611 182.497 91.6104 182.876 91.2479C183.254 90.8854 183.589 90.586 183.632 90.6372Z" fill="#263238"/>
<path d="M185.984 87.568C186.036 87.5955 185.823 87.962 185.515 88.419C185.208 88.876 184.921 89.207 184.877 89.1558C184.975 88.8423 185.134 88.5516 185.346 88.3008C185.653 87.8674 185.937 87.5364 185.984 87.568Z" fill="#263238"/>
<path d="M187.718 84.1086C187.584 84.7489 187.315 85.3532 186.93 85.8816C187.055 85.2387 187.325 84.6325 187.718 84.1086Z" fill="#263238"/>
<path d="M188.742 80.3814C188.771 80.7076 188.732 81.0363 188.628 81.3467C188.59 81.6729 188.482 81.9872 188.313 82.2687C188.32 81.6162 188.467 80.9728 188.742 80.3814Z" fill="#263238"/>
<path d="M189.136 76.532C189.236 77.1768 189.194 77.8355 189.014 78.4626C188.934 78.1457 188.921 77.8157 188.975 77.4934C188.963 77.1653 189.018 76.8383 189.136 76.532Z" fill="#263238"/>
<path d="M188.943 72.6708C189.139 73.2931 189.197 73.9506 189.113 74.5975C188.987 74.2956 188.924 73.9711 188.927 73.644C188.868 73.3218 188.873 72.9909 188.943 72.6708Z" fill="#263238"/>
<path d="M188.159 68.8805C188.332 69.1591 188.446 69.4702 188.494 69.7946C188.605 70.1036 188.651 70.4323 188.628 70.7599C188.455 70.4813 188.341 70.1702 188.293 69.8458C188.184 69.5363 188.138 69.208 188.159 68.8805Z" fill="#263238"/>
<path d="M186.757 65.2754C186.975 65.5199 187.14 65.807 187.241 66.1186C187.406 66.4036 187.506 66.7208 187.537 67.0484C187.32 66.8013 187.155 66.5132 187.052 66.2013C186.891 65.9162 186.791 65.601 186.757 65.2754Z" fill="#263238"/>
<path d="M184.692 62.0013C184.735 61.9658 185.019 62.2928 185.33 62.7341C185.544 62.9823 185.703 63.2721 185.799 63.5852C185.752 63.6167 185.464 63.2857 185.161 62.8523C184.947 62.6042 184.788 62.3144 184.692 62.0013Z" fill="#263238"/>
<path d="M182.009 59.2276C182.044 59.1842 182.403 59.4206 182.797 59.787C183.191 60.1534 183.459 60.5002 183.419 60.5396C183.38 60.579 183.049 60.2992 182.659 59.9367C182.269 59.5743 181.973 59.2709 182.009 59.2276Z" fill="#263238"/>
<path d="M179.602 57.5648C179.629 57.5176 179.842 57.5924 180.074 57.7343C180.307 57.8761 180.468 58.0298 180.441 58.077C180.413 58.1243 180.197 58.0495 179.968 57.9116C179.74 57.7737 179.57 57.6161 179.602 57.5648Z" fill="#263238"/>
<path d="M168.916 67.2967C176.454 67.2967 182.564 61.1862 182.564 53.6485C182.564 46.1108 176.454 40.0003 168.916 40.0003C161.379 40.0003 155.268 46.1108 155.268 53.6485C155.268 61.1862 161.379 67.2967 168.916 67.2967Z" fill="#807700"/>
<path d="M160.843 54.6453L162.955 52.5335L167.029 56.1543L175.027 48.4595L176.989 50.5713L166.73 60.2283L160.843 54.6453Z" fill="#FAFAFA"/>
<path d="M176.879 113.154L174.87 105.79C174.87 105.79 165.414 108.253 164.811 107.489C161.379 103.245 159.645 97.414 159.106 95.3219C159.18 95.0224 159.283 94.6718 159.421 94.262C159.541 93.9113 159.719 93.5836 159.949 93.2928C160.22 92.9224 160.541 92.591 160.902 92.3078C161 92.2523 161.073 92.1602 161.103 92.0516C161.133 91.943 161.119 91.8268 161.064 91.7286C161.036 91.6737 160.995 91.6262 160.945 91.5899C160.895 91.5536 160.837 91.5296 160.776 91.5198C160.382 91.4922 159.389 92.0911 158.645 93.2297C157.9 94.3684 157.675 92.2408 157.581 91.4686C157.486 90.6963 157.073 88.3166 156.813 88.1471C156.419 87.9147 156.107 88.2811 156.222 89.0533C156.336 89.8256 156.513 92.1659 156.103 92.2053C155.694 92.2447 155.26 88.2653 155.26 88.2653C155.26 88.2653 155.304 87.4064 154.827 87.4261C153.964 87.4616 154.74 91.6301 154.827 92.028C154.886 92.2999 154.433 92.3511 154.393 92.0517C154.354 91.7522 154.047 88.1117 153.172 88.1117C152.498 88.1353 153.775 91.5474 153.416 92.3393C153.058 93.1312 152.711 89.6522 152.069 89.6995C151.832 89.6995 151.655 89.7625 152.144 91.7325C152.555 93.1368 153.041 94.5178 153.601 95.8695H153.566C153.566 95.8695 157.073 116.444 166.174 115.294C175.862 114.096 176.879 113.154 176.879 113.154Z" fill="#FFBE9D"/>
<path d="M163.148 133.567L105.399 129.363C104.617 129.309 103.887 128.947 103.371 128.356C102.854 127.766 102.592 126.995 102.641 126.211L105.226 90.7318C105.281 89.949 105.643 89.2196 106.233 88.7028C106.824 88.1861 107.595 87.924 108.378 87.9738L166.174 92.162C166.961 92.2175 167.693 92.5833 168.211 93.1788C168.728 93.7743 168.987 94.5508 168.932 95.3376L166.347 130.817C166.32 131.207 166.217 131.587 166.043 131.936C165.869 132.286 165.628 132.597 165.333 132.854C165.038 133.11 164.696 133.305 164.326 133.429C163.956 133.553 163.565 133.603 163.176 133.575L163.148 133.567Z" fill="#807700"/>
<path d="M163.148 133.567C163.325 133.567 163.499 133.567 163.676 133.567C164.193 133.512 164.686 133.319 165.102 133.008C165.439 132.758 165.718 132.44 165.922 132.073C166.126 131.707 166.249 131.302 166.284 130.884C166.355 129.884 166.438 128.729 166.529 127.433L168.105 105.46C168.27 103.14 168.445 100.712 168.629 98.1745C168.676 97.5441 168.719 96.9018 168.766 96.2596C168.877 95.6231 168.861 94.9711 168.719 94.3408C168.541 93.713 168.151 93.1661 167.616 92.7924C167.348 92.6024 167.049 92.4586 166.733 92.3669C166.407 92.2921 166.075 92.2486 165.741 92.2369L148.322 90.98L108.414 88.0605C107.986 88.0292 107.558 88.0941 107.159 88.2502C106.76 88.4063 106.401 88.6498 106.109 88.9627C105.816 89.2738 105.598 89.6469 105.47 90.0541C105.36 90.4708 105.302 90.8996 105.297 91.3307C105.166 93.08 105.034 94.8163 104.903 96.5394C104.64 99.9882 104.393 103.382 104.162 106.72C103.674 113.395 103.201 119.837 102.752 125.967C102.649 126.712 102.835 127.468 103.272 128.079C103.702 128.681 104.349 129.094 105.076 129.23C106.546 129.375 108.035 129.454 109.485 129.572L117.937 130.191L133.113 131.31L155.083 132.941L161.052 133.398L162.628 133.532L163.156 133.579C163.156 133.579 162.979 133.579 162.628 133.552L161.052 133.449L155.079 133.036L133.102 131.46L117.937 130.38L109.481 129.769C108.027 129.655 106.566 129.58 105.053 129.43C104.278 129.287 103.589 128.849 103.13 128.209C102.67 127.561 102.471 126.763 102.574 125.975C103.02 119.841 103.489 113.403 103.973 106.724C104.215 103.386 104.46 99.9921 104.71 96.5433C104.836 94.8176 104.967 93.0813 105.104 91.3346C105.111 90.8877 105.172 90.4432 105.285 90.0108C105.494 89.3524 105.919 88.7836 106.491 88.3961C107.063 88.0087 107.748 87.8252 108.437 87.8753L148.345 90.7909L165.76 92.0675C166.105 92.0796 166.449 92.1258 166.785 92.2054C167.284 92.3493 167.738 92.6158 168.108 92.9805C168.477 93.3453 168.75 93.7966 168.9 94.2936C168.996 94.6181 169.034 94.9566 169.015 95.2943C169.015 95.6253 168.971 95.9444 168.948 96.2714C168.9 96.9136 168.853 97.5559 168.806 98.1863C168.619 100.721 168.441 103.148 168.27 105.467C167.581 114.742 167.021 122.248 166.635 127.441C166.536 128.737 166.45 129.884 166.375 130.888C166.336 131.314 166.206 131.726 165.994 132.098C165.782 132.469 165.493 132.79 165.146 133.04C164.723 133.351 164.223 133.54 163.7 133.587C163.569 133.599 163.437 133.599 163.306 133.587L163.148 133.567Z" fill="#263238"/>
<path d="M109.174 114.62L108.918 118.166L108.555 118.138L108.788 114.927L107.957 114.868L107.98 114.545L109.174 114.62Z" fill="#FAFAFA"/>
<path d="M112.59 118.107L112.562 118.43L110.084 118.249V117.993L111.66 116.661C112.086 116.294 112.18 116.066 112.196 115.822C112.228 115.428 111.956 115.14 111.408 115.101C111.229 115.075 111.046 115.091 110.874 115.147C110.702 115.203 110.545 115.297 110.415 115.424L110.175 115.183C110.345 115.023 110.55 114.903 110.772 114.831C110.995 114.76 111.231 114.739 111.463 114.77C112.18 114.821 112.61 115.219 112.566 115.81C112.541 116.025 112.468 116.232 112.354 116.415C112.239 116.599 112.086 116.756 111.905 116.874L110.62 117.965L112.59 118.107Z" fill="#FAFAFA"/>
<path d="M116.341 117.772L115.636 117.721L115.565 118.651L115.202 118.623L115.269 117.693L113.276 117.551V117.287L115.32 115.081L115.714 115.109L113.744 117.26L115.281 117.374L115.34 116.555L115.695 116.578L115.636 117.398L116.341 117.449V117.772Z" fill="#FAFAFA"/>
<path d="M121.758 118.166L121.053 118.115L120.982 119.045L120.62 119.017L120.687 118.091L118.693 117.945V117.681L120.738 115.475L121.132 115.507L119.162 117.654L120.699 117.768L120.758 116.949L121.112 116.976L121.049 117.792L121.758 117.843V118.166Z" fill="#FAFAFA"/>
<path d="M124.855 118.28C124.812 118.883 124.359 119.32 123.496 119.257C123.029 119.241 122.587 119.045 122.263 118.71L122.46 118.438C122.735 118.732 123.113 118.907 123.516 118.926C124.115 118.97 124.453 118.698 124.485 118.268C124.516 117.839 124.256 117.512 123.358 117.445L122.605 117.39L122.917 115.633L124.851 115.774L124.828 116.098L123.212 115.979L123.007 117.094L123.464 117.13C124.528 117.205 124.903 117.654 124.855 118.28Z" fill="#FAFAFA"/>
<path d="M128.35 118.521C128.326 118.811 128.188 119.079 127.967 119.268C127.745 119.457 127.458 119.551 127.168 119.529H127.074C126.132 119.462 125.671 118.773 125.754 117.658C125.84 116.456 126.542 115.877 127.503 115.948C127.795 115.956 128.08 116.043 128.326 116.2L128.157 116.484C127.958 116.348 127.724 116.272 127.483 116.267C126.719 116.212 126.195 116.661 126.124 117.622V117.914C126.239 117.726 126.407 117.576 126.607 117.482C126.806 117.388 127.029 117.355 127.247 117.386C127.527 117.376 127.801 117.478 128.007 117.668C128.214 117.858 128.337 118.122 128.35 118.402C128.354 118.442 128.354 118.481 128.35 118.521ZM127.992 118.521C128.027 118.056 127.704 117.733 127.16 117.693C127.054 117.673 126.946 117.674 126.84 117.696C126.735 117.718 126.635 117.761 126.546 117.822C126.457 117.883 126.381 117.96 126.322 118.05C126.263 118.141 126.223 118.241 126.203 118.347C126.203 118.347 126.203 118.383 126.203 118.398C126.171 118.792 126.471 119.186 127.081 119.226C127.184 119.243 127.288 119.241 127.389 119.218C127.49 119.194 127.586 119.152 127.671 119.092C127.755 119.032 127.827 118.956 127.882 118.868C127.937 118.78 127.974 118.682 127.992 118.58C127.993 118.555 127.993 118.53 127.992 118.505V118.521Z" fill="#FAFAFA"/>
<path d="M133.184 118.915C133.141 119.506 132.68 119.927 131.825 119.864C131.357 119.848 130.914 119.652 130.588 119.316L130.785 119.045C131.064 119.338 131.445 119.513 131.849 119.533C132.436 119.573 132.779 119.324 132.81 118.887C132.842 118.45 132.562 118.162 131.908 118.099L131.656 118.079L131.675 117.811L132.743 116.657L130.935 116.527L130.958 116.204L133.232 116.369L133.212 116.625L132.121 117.807C132.877 117.922 133.224 118.347 133.184 118.915Z" fill="#FAFAFA"/>
<path d="M136.73 119.131C136.708 119.423 136.571 119.694 136.35 119.884C136.128 120.075 135.84 120.17 135.548 120.148C135.513 120.152 135.477 120.152 135.442 120.148C134.504 120.081 134.039 119.391 134.122 118.276C134.209 117.094 134.91 116.495 135.872 116.566C136.164 116.574 136.448 116.662 136.695 116.819L136.526 117.102C136.328 116.965 136.093 116.889 135.852 116.886C135.088 116.83 134.563 117.28 134.493 118.241V118.532C134.608 118.345 134.776 118.194 134.975 118.101C135.175 118.007 135.397 117.973 135.615 118.004C135.899 117.993 136.176 118.094 136.385 118.286C136.594 118.478 136.718 118.745 136.73 119.029C136.734 119.063 136.734 119.097 136.73 119.131ZM136.372 119.131C136.407 118.666 136.084 118.343 135.541 118.304C135.435 118.284 135.326 118.285 135.221 118.307C135.115 118.329 135.015 118.372 134.926 118.433C134.837 118.493 134.761 118.571 134.702 118.661C134.644 118.751 134.603 118.852 134.583 118.958C134.583 118.958 134.583 118.993 134.583 119.009C134.552 119.403 134.851 119.797 135.462 119.837C135.564 119.854 135.669 119.851 135.77 119.828C135.871 119.805 135.966 119.762 136.051 119.702C136.136 119.642 136.207 119.566 136.262 119.478C136.318 119.391 136.355 119.293 136.372 119.19C136.374 119.166 136.374 119.14 136.372 119.116V119.131Z" fill="#FAFAFA"/>
<path d="M140.17 116.889L140.15 117.146L138.433 120.298L138.039 120.27L139.729 117.165L137.912 117.031L137.861 117.693L137.503 117.67L137.578 116.685L140.17 116.889Z" fill="#FAFAFA"/>
<path d="M145.217 117.256L145.197 117.516L143.48 120.668L143.086 120.64L144.772 117.536L142.956 117.402L142.908 118.064L142.55 118.036L142.621 117.051L145.217 117.256Z" fill="#FAFAFA"/>
<path d="M148.507 120.061C148.464 120.688 147.904 121.034 147.061 120.975C146.218 120.916 145.725 120.487 145.773 119.86C145.786 119.66 145.867 119.469 146.002 119.321C146.137 119.172 146.319 119.073 146.517 119.041C146.356 118.978 146.22 118.865 146.129 118.718C146.039 118.57 145.999 118.397 146.017 118.225C146.06 117.65 146.576 117.327 147.325 117.378C148.074 117.429 148.546 117.831 148.507 118.406C148.499 118.58 148.433 118.746 148.32 118.879C148.208 119.011 148.055 119.103 147.884 119.139C148.077 119.2 148.243 119.324 148.357 119.492C148.47 119.659 148.523 119.86 148.507 120.061ZM148.137 120.03C148.168 119.592 147.814 119.293 147.187 119.242C146.561 119.19 146.175 119.439 146.143 119.876C146.111 120.313 146.458 120.613 147.085 120.664C147.711 120.715 148.105 120.467 148.137 120.03ZM147.207 118.954C147.758 118.993 148.105 118.769 148.133 118.387C148.16 118.004 147.829 117.717 147.301 117.681C146.773 117.646 146.411 117.859 146.383 118.253C146.356 118.647 146.659 118.919 147.207 118.954Z" fill="#FAFAFA"/>
<path d="M151.99 119.498C151.903 120.699 151.202 121.279 150.241 121.208C149.949 121.196 149.665 121.109 149.417 120.956L149.583 120.672C149.783 120.807 150.018 120.882 150.26 120.889C151.021 120.944 151.545 120.495 151.616 119.529V119.242C151.5 119.43 151.332 119.581 151.131 119.675C150.931 119.768 150.708 119.801 150.489 119.77C150.205 119.781 149.928 119.68 149.719 119.488C149.51 119.296 149.386 119.029 149.374 118.745C149.37 118.705 149.37 118.664 149.374 118.623C149.399 118.333 149.537 118.065 149.758 117.877C149.979 117.688 150.266 117.594 150.556 117.614H150.646C151.62 117.693 152.081 118.383 151.99 119.498ZM151.541 118.757C151.568 118.363 151.273 117.969 150.662 117.934C150.456 117.898 150.245 117.946 150.074 118.066C149.904 118.187 149.788 118.37 149.752 118.576C149.75 118.597 149.75 118.618 149.752 118.639C149.717 119.104 150.04 119.427 150.583 119.466C150.796 119.509 151.017 119.466 151.198 119.347C151.379 119.227 151.505 119.04 151.549 118.828V118.757H151.541Z" fill="#FAFAFA"/>
<path d="M134.905 122.696L134.793 124.232L163.106 126.292L163.218 124.755L134.905 122.696Z" fill="#FAFAFA"/>
<path d="M148.478 126.768L148.366 128.304L162.886 129.361L162.998 127.824L148.478 126.768Z" fill="#FAFAFA"/>
<path d="M107.73 104.52L107.367 109.495C107.288 110.571 108.097 111.507 109.174 111.586L117.155 112.168C118.231 112.246 119.168 111.437 119.246 110.361L119.609 105.386C119.687 104.31 118.878 103.373 117.802 103.295L109.821 102.713C108.744 102.634 107.808 103.443 107.73 104.52Z" fill="#455A64"/>
<path d="M107.409 108.982L107.452 108.415L113.567 108.86C113.735 108.877 113.905 108.861 114.066 108.813C114.228 108.765 114.379 108.685 114.51 108.579C114.641 108.472 114.75 108.341 114.83 108.192C114.91 108.044 114.96 107.881 114.978 107.713C114.995 107.545 114.979 107.376 114.931 107.214C114.883 107.052 114.803 106.901 114.697 106.77C114.59 106.639 114.459 106.531 114.31 106.451C114.162 106.37 113.999 106.32 113.831 106.303H113.772L107.657 105.857L107.697 105.286L113.815 105.731C114.294 105.782 114.734 106.017 115.043 106.387C115.351 106.756 115.504 107.231 115.47 107.711C115.435 108.191 115.215 108.638 114.856 108.959C114.498 109.28 114.028 109.45 113.547 109.431L107.409 108.982Z" fill="#807700"/>
<path d="M115.245 107.401L115.203 107.971L119.399 108.28L119.441 107.711L115.245 107.401Z" fill="#807700"/>
<path d="M109.807 95.3595L109.616 97.9805L140.168 100.208L140.359 97.587L109.807 95.3595Z" fill="#FAFAFA"/>
<path d="M180.547 88.4584C179.732 89.8177 179.814 91.5237 180.043 93.0958C180.271 94.6678 180.626 96.2714 180.275 97.8238C180.043 98.8442 179.487 99.8647 179.755 100.877C179.933 101.598 180.472 102.166 180.74 102.847C181.134 103.832 180.91 104.928 180.78 105.976C180.65 107.024 180.658 108.194 181.351 108.986C182.214 109.971 183.802 109.927 184.984 109.38C186.166 108.832 187.103 107.859 188.199 107.146C189.294 106.433 190.72 105.964 191.898 106.531C192.442 106.791 192.911 107.256 193.51 107.319C194.349 107.382 195.011 106.614 195.823 106.389C196.52 106.2 197.265 106.433 197.982 106.35C199.443 106.188 200.523 104.612 200.318 103.159C200.181 102.432 199.823 101.766 199.293 101.252C198.762 100.738 198.085 100.4 197.355 100.286C196.737 100.184 195.992 100.168 195.653 99.6401C195.149 98.8521 196.047 97.8632 195.878 96.953C195.767 96.299 195.145 95.8617 194.534 95.5937C193.923 95.3258 193.25 95.1485 192.777 94.6836C191.93 93.8562 192.024 92.5008 191.764 91.3425C191.335 89.4355 189.55 85.531 185.665 85.1488" fill="#263238"/>
<path d="M178.747 196.966L178.821 194.184L184.034 194.291L183.967 198.361H183.644C182.206 198.412 176.32 198.518 175.37 198.207C174.298 197.872 178.747 196.966 178.747 196.966Z" fill="#807700"/>
<path d="M182.08 198.278C182.166 197.841 182.41 197.451 182.765 197.183C183.115 196.915 183.552 196.789 183.991 196.828L183.963 198.282L182.08 198.278Z" fill="#807700"/>
<path d="M176.572 197.482C176.572 197.482 174.996 197.9 175.201 198.16C175.405 198.42 181.339 198.554 183.967 198.357V198.243L177.029 198.164C177.029 198.164 176.875 197.502 176.572 197.482Z" fill="#807700"/>
<path d="M184.042 198.239H183.695L182.75 198.262H179.621C178.4 198.262 177.293 198.195 176.493 198.152L175.547 198.093L175.291 198.073H175.547L176.497 198.109C177.285 198.14 178.4 198.18 179.621 198.203C180.843 198.227 181.946 198.231 182.746 198.227H184.042V198.239Z" fill="#263238"/>
<path d="M177.021 198.247C176.982 198.088 176.925 197.935 176.851 197.789C176.76 197.655 176.655 197.53 176.536 197.419C176.691 197.492 176.82 197.61 176.907 197.758C176.993 197.905 177.033 198.076 177.021 198.247Z" fill="#263238"/>
<path d="M178.573 197.494C178.512 197.433 178.458 197.366 178.412 197.293C178.337 197.175 178.29 197.065 178.305 197.057C178.321 197.049 178.392 197.139 178.467 197.258C178.542 197.376 178.589 197.486 178.573 197.494Z" fill="#263238"/>
<path d="M178.999 197.281C178.933 197.247 178.872 197.205 178.818 197.155C178.727 197.072 178.668 196.994 178.68 196.982C178.692 196.97 178.774 197.025 178.861 197.108C178.948 197.191 179.011 197.269 178.999 197.281Z" fill="#263238"/>
<path d="M179.274 196.793C179.274 196.812 179.152 196.824 179.003 196.824C178.853 196.824 178.731 196.824 178.731 196.789C178.818 196.758 178.911 196.749 179.003 196.761C179.094 196.752 179.187 196.763 179.274 196.793Z" fill="#263238"/>
<path d="M179.373 196.45C179.283 196.508 179.177 196.537 179.07 196.533C178.963 196.55 178.854 196.532 178.758 196.481C178.861 196.474 178.963 196.474 179.066 196.481C179.166 196.457 179.27 196.447 179.373 196.45Z" fill="#263238"/>
<path d="M178.388 197.037C178.277 197.057 178.164 197.057 178.053 197.037C177.933 197.018 177.814 196.989 177.699 196.95C177.629 196.928 177.562 196.899 177.498 196.864C177.459 196.839 177.429 196.801 177.415 196.757C177.411 196.732 177.414 196.706 177.423 196.682C177.433 196.659 177.449 196.638 177.47 196.623C177.6 196.564 177.746 196.551 177.883 196.587C178.021 196.623 178.142 196.705 178.227 196.82C178.278 196.886 178.313 196.963 178.329 197.045V197.135C178.298 197.032 178.249 196.934 178.183 196.848C178.109 196.758 178.011 196.691 177.9 196.655C177.836 196.632 177.768 196.621 177.701 196.625C177.633 196.628 177.567 196.645 177.506 196.674C177.45 196.714 177.47 196.777 177.529 196.812C177.589 196.844 177.651 196.872 177.714 196.895C177.825 196.938 177.94 196.971 178.057 196.994C178.168 197.002 178.279 197.016 178.388 197.037Z" fill="#263238"/>
<path d="M178.317 197.053C178.278 196.982 178.266 196.899 178.286 196.82C178.297 196.73 178.332 196.644 178.388 196.572C178.417 196.522 178.458 196.48 178.508 196.451C178.557 196.422 178.614 196.407 178.672 196.407C178.704 196.417 178.732 196.438 178.75 196.467C178.769 196.496 178.776 196.53 178.77 196.564C178.761 196.616 178.74 196.666 178.711 196.71C178.666 196.784 178.612 196.851 178.55 196.911C178.495 196.97 178.428 197.016 178.353 197.045C178.411 196.993 178.467 196.938 178.518 196.879C178.573 196.82 178.621 196.754 178.66 196.682C178.707 196.611 178.743 196.485 178.66 196.47C178.577 196.454 178.487 196.54 178.435 196.607C178.385 196.671 178.351 196.745 178.337 196.824C178.324 196.9 178.318 196.976 178.317 197.053Z" fill="#263238"/>
<path d="M183.963 196.812C183.832 196.8 183.7 196.8 183.569 196.812C183.261 196.84 182.967 196.954 182.721 197.143C182.476 197.331 182.289 197.586 182.182 197.876C182.1 198.097 182.088 198.247 182.076 198.247C182.072 198.211 182.072 198.175 182.076 198.14C182.124 197.773 182.299 197.435 182.571 197.184C182.844 196.933 183.196 196.786 183.565 196.769C183.66 196.761 183.755 196.761 183.849 196.769C183.889 196.779 183.927 196.793 183.963 196.812Z" fill="#263238"/>
<path d="M183.467 194.634C183.498 194.99 183.506 195.348 183.49 195.705C183.499 196.062 183.486 196.418 183.451 196.773C183.409 196.06 183.409 195.346 183.451 194.634H183.467Z" fill="#263238"/>
<path d="M181.434 197.754C181.183 197.809 180.926 197.829 180.669 197.813C180.414 197.82 180.158 197.795 179.909 197.738C179.909 197.738 180.252 197.738 180.673 197.738C181.095 197.738 181.43 197.754 181.434 197.754Z" fill="#263238"/>
<path d="M182.454 197.778C182.434 197.827 182.412 197.876 182.387 197.923C182.348 197.998 182.332 198.073 182.312 198.069C182.293 198.065 182.289 197.986 182.332 197.9C182.375 197.813 182.442 197.754 182.454 197.778Z" fill="#263238"/>
<path d="M182.848 197.305C182.831 197.349 182.804 197.39 182.769 197.423C182.714 197.474 182.663 197.51 182.651 197.498C182.639 197.486 182.671 197.431 182.726 197.38C182.781 197.328 182.836 197.293 182.848 197.305Z" fill="#263238"/>
<path d="M183.404 197.096C183.404 197.116 183.329 197.096 183.254 197.139C183.179 197.183 183.12 197.202 183.108 197.191C183.096 197.179 183.14 197.108 183.234 197.076C183.329 197.045 183.408 197.08 183.404 197.096Z" fill="#263238"/>
<path d="M183.798 197.001C183.782 197.028 183.759 197.049 183.731 197.061C183.701 197.069 183.67 197.069 183.64 197.061C183.654 197.033 183.678 197.012 183.707 197.001C183.75 196.986 183.79 196.986 183.798 197.001Z" fill="#263238"/>
<path d="M193.533 196.966L193.608 194.184L198.817 194.291L198.75 198.361H198.427C196.989 198.412 191.106 198.518 190.153 198.207C189.085 197.872 193.533 196.966 193.533 196.966Z" fill="#807700"/>
<path d="M196.863 198.278C196.949 197.84 197.195 197.45 197.552 197.183C197.901 196.913 198.339 196.787 198.778 196.828L198.746 198.282L196.863 198.278Z" fill="#807700"/>
<path d="M191.359 197.482C191.359 197.482 189.783 197.9 189.984 198.16C190.184 198.42 196.122 198.554 198.75 198.357V198.243L191.808 198.164C191.808 198.164 191.662 197.502 191.359 197.482Z" fill="#807700"/>
<path d="M198.829 198.239H198.482L197.533 198.262H194.404C193.183 198.262 192.076 198.195 191.28 198.152L190.33 198.093L190.074 198.073H190.334L191.28 198.109C192.068 198.14 193.183 198.18 194.404 198.203C195.626 198.227 196.733 198.231 197.533 198.227H198.829V198.239Z" fill="#263238"/>
<path d="M191.804 198.247C191.766 198.088 191.711 197.935 191.638 197.789C191.547 197.655 191.442 197.53 191.323 197.419C191.478 197.492 191.606 197.61 191.692 197.758C191.778 197.906 191.817 198.076 191.804 198.247Z" fill="#263238"/>
<path d="M193.36 197.494C193.3 197.434 193.247 197.366 193.203 197.293C193.132 197.175 193.08 197.065 193.096 197.057C193.112 197.049 193.183 197.139 193.254 197.258C193.299 197.331 193.335 197.411 193.36 197.494Z" fill="#263238"/>
<path d="M193.785 197.281C193.719 197.248 193.658 197.206 193.604 197.155C193.517 197.072 193.454 196.994 193.466 196.982C193.478 196.97 193.557 197.025 193.648 197.108C193.738 197.191 193.797 197.269 193.785 197.281Z" fill="#263238"/>
<path d="M194.061 196.793C194.061 196.812 193.939 196.824 193.789 196.824C193.64 196.824 193.518 196.824 193.518 196.789C193.605 196.758 193.698 196.749 193.789 196.761C193.881 196.752 193.974 196.763 194.061 196.793Z" fill="#263238"/>
<path d="M194.148 196.45C194.056 196.506 193.949 196.535 193.841 196.533C193.734 196.55 193.625 196.532 193.53 196.481C193.632 196.473 193.735 196.473 193.837 196.481C193.939 196.457 194.043 196.447 194.148 196.45Z" fill="#263238"/>
<path d="M193.191 197.037C193.08 197.057 192.967 197.057 192.856 197.037C192.735 197.018 192.617 196.989 192.501 196.95C192.43 196.93 192.361 196.9 192.296 196.864C192.257 196.84 192.229 196.801 192.217 196.757C192.213 196.732 192.216 196.707 192.225 196.683C192.234 196.66 192.249 196.639 192.269 196.623C192.398 196.564 192.544 196.551 192.682 196.587C192.82 196.623 192.941 196.705 193.025 196.82C193.076 196.887 193.112 196.963 193.132 197.045C193.139 197.075 193.139 197.106 193.132 197.135C193.099 197.031 193.049 196.934 192.982 196.848C192.91 196.757 192.813 196.69 192.702 196.655C192.573 196.61 192.432 196.617 192.308 196.674C192.257 196.714 192.277 196.777 192.332 196.812C192.391 196.848 192.455 196.876 192.521 196.895C192.632 196.938 192.747 196.971 192.864 196.994C193.061 197.025 193.191 197.025 193.191 197.037Z" fill="#263238"/>
<path d="M193.104 197.053C193.063 196.983 193.05 196.899 193.068 196.82C193.081 196.732 193.115 196.648 193.167 196.576C193.196 196.527 193.237 196.487 193.286 196.458C193.335 196.429 193.39 196.413 193.447 196.41C193.48 196.419 193.51 196.44 193.529 196.469C193.548 196.498 193.555 196.534 193.549 196.568C193.54 196.621 193.518 196.671 193.486 196.714C193.442 196.788 193.388 196.856 193.325 196.915C193.272 196.975 193.206 197.021 193.131 197.049C193.188 196.997 193.242 196.941 193.293 196.883C193.348 196.823 193.397 196.757 193.439 196.686C193.486 196.615 193.518 196.489 193.439 196.474C193.36 196.458 193.269 196.544 193.214 196.611C193.168 196.677 193.135 196.75 193.116 196.828C193.104 196.902 193.1 196.978 193.104 197.053Z" fill="#263238"/>
<path d="M198.75 196.812C198.619 196.8 198.487 196.8 198.356 196.812C198.048 196.84 197.754 196.955 197.508 197.143C197.263 197.332 197.076 197.586 196.969 197.876C196.886 198.097 196.874 198.247 196.863 198.247C196.855 198.212 196.855 198.175 196.863 198.14C196.874 198.045 196.895 197.951 196.926 197.86C197.024 197.555 197.212 197.288 197.467 197.093C197.721 196.898 198.028 196.785 198.348 196.769C198.444 196.761 198.54 196.761 198.636 196.769C198.676 196.776 198.715 196.79 198.75 196.812Z" fill="#263238"/>
<path d="M198.253 194.634C198.295 195.346 198.295 196.06 198.253 196.773C198.222 196.418 198.214 196.061 198.23 195.705C198.216 195.348 198.224 194.99 198.253 194.634Z" fill="#263238"/>
<path d="M196.217 197.754C195.967 197.809 195.711 197.829 195.456 197.813C195.201 197.822 194.945 197.797 194.696 197.738C194.696 197.738 195.039 197.738 195.456 197.738C195.874 197.738 196.217 197.754 196.217 197.754Z" fill="#263238"/>
<path d="M197.237 197.778C197.237 197.778 197.209 197.849 197.174 197.923C197.139 197.998 197.115 198.073 197.099 198.069C197.083 198.065 197.076 197.986 197.099 197.9C197.123 197.813 197.229 197.754 197.237 197.778Z" fill="#263238"/>
<path d="M197.635 197.305C197.617 197.349 197.591 197.39 197.556 197.423C197.501 197.474 197.446 197.51 197.434 197.498C197.422 197.486 197.458 197.431 197.513 197.38C197.568 197.328 197.619 197.293 197.635 197.305Z" fill="#263238"/>
<path d="M198.186 197.096C198.186 197.116 198.116 197.096 198.037 197.139C197.958 197.183 197.907 197.202 197.891 197.191C197.875 197.179 197.922 197.108 198.017 197.076C198.112 197.045 198.194 197.08 198.186 197.096Z" fill="#263238"/>
<path d="M198.58 197.001C198.565 197.028 198.542 197.049 198.513 197.061C198.484 197.069 198.452 197.069 198.423 197.061C198.423 197.061 198.45 197.017 198.494 197.001C198.537 196.986 198.577 196.986 198.58 197.001Z" fill="#263238"/>
<path d="M177.695 125.475L175.197 162.712V196.292H185.181C185.181 196.292 185.602 167.333 185.338 165.438C185.338 165.438 186.969 136.432 187.155 136.846C187.549 137.693 187.525 162.349 188.085 165.403C188.644 168.456 191.237 196.292 191.237 196.292H200.846L197.615 164.378C197.548 160.533 196.559 126.763 196.559 126.763L177.695 125.475Z" fill="#263238"/>
<path d="M200.629 194.385C200.521 194.463 200.392 194.508 200.259 194.515C199.898 194.547 199.535 194.488 199.203 194.342C198.742 194.114 198.257 193.94 197.757 193.822C197.194 193.739 196.606 194.035 196.047 194.409C195.532 194.815 194.929 195.093 194.286 195.221C193.753 195.271 193.215 195.205 192.71 195.028C192.374 194.916 192.045 194.784 191.725 194.634C191.604 194.587 191.491 194.522 191.39 194.44C191.39 194.405 191.906 194.645 192.749 194.898C193.239 195.047 193.753 195.095 194.262 195.039C194.874 194.91 195.447 194.64 195.937 194.251C196.217 194.062 196.515 193.901 196.827 193.771C197.13 193.651 197.458 193.611 197.781 193.652C198.299 193.773 198.799 193.96 199.27 194.208C199.58 194.357 199.919 194.433 200.263 194.433C200.495 194.425 200.621 194.366 200.629 194.385Z" fill="#455A64"/>
<path d="M185.263 194.153C185.165 194.06 185.059 193.974 184.948 193.897C184.628 193.718 184.254 193.662 183.896 193.739C183.365 193.889 182.868 194.139 182.431 194.476C182.15 194.665 181.852 194.826 181.54 194.957C181.192 195.1 180.812 195.145 180.441 195.087C179.684 194.957 179.086 194.563 178.471 194.429C177.935 194.314 177.379 194.338 176.855 194.5C175.949 194.771 175.417 195.051 175.402 195.012C175.512 194.925 175.634 194.853 175.764 194.799C176.103 194.624 176.454 194.477 176.816 194.358C177.362 194.169 177.948 194.129 178.514 194.243C179.156 194.381 179.763 194.771 180.457 194.886C181.15 195 181.784 194.641 182.308 194.314C182.768 193.974 183.292 193.73 183.849 193.597C184.24 193.526 184.644 193.61 184.976 193.83C185.105 193.903 185.206 194.016 185.263 194.153Z" fill="#455A64"/>
<path d="M195.886 133.197C195.711 133.311 195.51 133.379 195.302 133.394C194.806 133.468 194.3 133.437 193.817 133.301C193.334 133.165 192.886 132.928 192.501 132.606C192.21 132.358 192.08 132.157 192.107 132.141C192.618 132.591 193.224 132.918 193.88 133.099C194.536 133.28 195.224 133.309 195.893 133.185L195.886 133.197Z" fill="#455A64"/>
<path d="M179.31 131.743C179.333 131.743 179.333 131.944 179.231 132.236C179.092 132.617 178.861 132.959 178.557 133.229C178.253 133.498 177.888 133.689 177.494 133.788C177.19 133.855 176.997 133.831 176.997 133.808C177.526 133.688 178.016 133.436 178.42 133.074C178.825 132.713 179.131 132.255 179.31 131.743Z" fill="#455A64"/>
<path d="M155.713 118.02L155.453 121.566L155.091 121.543L155.323 118.331L154.492 118.268L154.516 117.945L155.713 118.02Z" fill="#FAFAFA"/>
<path d="M159.113 121.495L159.09 121.818L156.612 121.641V121.381L158.188 120.049C158.613 119.687 158.708 119.454 158.727 119.21C158.755 118.816 158.487 118.528 157.939 118.489C157.76 118.466 157.578 118.482 157.406 118.538C157.235 118.594 157.077 118.688 156.946 118.812L156.718 118.56C156.889 118.4 157.093 118.279 157.315 118.208C157.538 118.136 157.774 118.115 158.006 118.146C158.723 118.198 159.153 118.595 159.11 119.186C159.086 119.525 158.956 119.821 158.448 120.25L157.163 121.346L159.113 121.495Z" fill="#FAFAFA"/>
<path d="M162.333 121.038C162.289 121.625 161.828 122.051 160.977 121.988C160.508 121.972 160.064 121.776 159.736 121.44L159.933 121.164C160.07 121.312 160.235 121.431 160.418 121.515C160.602 121.599 160.799 121.646 161.001 121.653C161.584 121.696 161.927 121.448 161.962 121.011C161.998 120.573 161.714 120.286 161.056 120.223H160.804L160.824 119.955L161.895 118.8L160.087 118.67L160.11 118.347L162.38 118.513V118.769L161.288 119.951C162.025 120.045 162.376 120.471 162.333 121.038Z" fill="#FAFAFA"/>
<path d="M180.949 86.3781C180.597 86.7361 180.326 87.1654 180.154 87.6371C179.982 88.1088 179.913 88.6119 179.952 89.1124C180.04 90.1137 180.365 91.0796 180.902 91.9295" fill="#263238"/>
<path d="M189.55 101.78L190.086 89.4355L185.133 85.6846L180.634 87.8832C180.634 87.8832 180.484 93.5331 180.634 95.9838C180.784 98.4345 183.254 98.6945 183.254 98.6945C183.254 98.6945 183.183 100.046 183.104 101.453C183.061 102.298 183.351 103.126 183.911 103.761C184.472 104.395 185.258 104.784 186.103 104.845C186.956 104.904 187.799 104.622 188.445 104.061C189.09 103.499 189.487 102.704 189.546 101.85C189.546 101.827 189.55 101.803 189.55 101.78Z" fill="#FFBE9D"/>
<path d="M181.438 92.0044C181.437 92.0668 181.456 92.1277 181.491 92.1795C181.525 92.2314 181.574 92.2718 181.632 92.2956C181.69 92.3195 181.753 92.3257 181.814 92.3136C181.875 92.3014 181.932 92.2714 181.976 92.2273C182.02 92.1832 182.05 92.127 182.062 92.0659C182.074 92.0048 182.068 91.9414 182.044 91.8838C182.02 91.8262 181.98 91.777 181.928 91.7423C181.876 91.7077 181.815 91.6892 181.753 91.6892C181.711 91.6892 181.67 91.6974 181.632 91.7132C181.594 91.729 181.559 91.7523 181.53 91.7815C181.501 91.8108 181.477 91.8455 181.461 91.8838C181.446 91.922 181.438 91.963 181.438 92.0044Z" fill="#263238"/>
<path d="M180.823 91.6616C180.862 91.701 181.095 91.504 181.43 91.4843C181.765 91.4646 182.021 91.6301 182.056 91.5868C182.092 91.5434 182.033 91.4922 181.922 91.4134C181.773 91.3161 181.596 91.2704 181.418 91.2834C181.24 91.2917 181.071 91.3598 180.937 91.4764C180.835 91.5631 180.803 91.6419 180.823 91.6616Z" fill="#263238"/>
<path d="M185.086 92.0044C185.086 92.087 185.119 92.1661 185.177 92.2245C185.235 92.2829 185.315 92.3157 185.397 92.3157C185.46 92.3165 185.521 92.2987 185.573 92.2647C185.625 92.2308 185.666 92.182 185.691 92.1247C185.715 92.0675 185.722 92.0042 185.711 91.9429C185.7 91.8816 185.67 91.8251 185.627 91.7804C185.583 91.7358 185.527 91.7051 185.466 91.6922C185.405 91.6792 185.342 91.6847 185.284 91.7078C185.226 91.7309 185.177 91.7707 185.141 91.8221C185.106 91.8735 185.087 91.9342 185.086 91.9965V92.0044Z" fill="#263238"/>
<path d="M184.566 91.6616C184.605 91.701 184.838 91.504 185.173 91.4843C185.508 91.4646 185.764 91.6301 185.799 91.5868C185.835 91.5434 185.775 91.4922 185.665 91.4134C185.515 91.3176 185.338 91.272 185.16 91.2834C184.983 91.2947 184.813 91.3623 184.676 91.4764C184.578 91.5631 184.546 91.6419 184.566 91.6616Z" fill="#263238"/>
<path d="M184.46 94.8333C183.944 95.0937 183.395 95.2819 182.828 95.3928C182.954 95.562 183.131 95.6851 183.334 95.7429C183.536 95.8006 183.752 95.7897 183.947 95.7119C184.036 95.6924 184.12 95.6554 184.195 95.6032C184.27 95.5509 184.333 95.4844 184.382 95.4075C184.43 95.3305 184.463 95.2447 184.479 95.155C184.494 95.0652 184.492 94.9733 184.471 94.8846L184.46 94.8333Z" fill="#FAFAFA"/>
<path d="M183.254 98.6945C184.418 98.6463 185.545 98.2662 186.5 97.5992C186.5 97.5992 185.764 99.3998 183.309 99.2974L183.254 98.6945Z" fill="#EB996E"/>
<path d="M183.345 94.526C183.164 94.4821 182.979 94.4596 182.793 94.459C182.706 94.459 182.624 94.459 182.604 94.3802C182.593 94.2852 182.611 94.1892 182.655 94.1044C182.726 93.8838 182.805 93.6513 182.884 93.407C183.045 92.9067 183.183 92.4575 183.278 92.1265C183.344 91.952 183.385 91.7689 183.4 91.5828C183.309 91.7449 183.238 91.9167 183.187 92.095C183.069 92.4181 182.915 92.883 182.754 93.3637C182.679 93.6119 182.604 93.8444 182.533 94.069C182.485 94.1795 182.474 94.3024 182.501 94.4196C182.513 94.45 182.533 94.4769 182.557 94.4982C182.582 94.5195 182.611 94.5344 182.643 94.5418C182.692 94.5496 182.741 94.5496 182.789 94.5418C182.974 94.5621 183.161 94.5568 183.345 94.526Z" fill="#263238"/>
<path d="M189.724 93.8247C189.685 93.4166 189.73 93.0049 189.857 92.6151C189.921 92.4205 190.036 92.2469 190.191 92.1129C190.346 91.9789 190.534 91.8897 190.736 91.8547C190.97 91.8423 191.2 91.9155 191.383 92.0605C191.567 92.2056 191.691 92.4126 191.733 92.6427C191.762 92.8778 191.72 93.1162 191.611 93.327C191.503 93.5378 191.334 93.7112 191.126 93.8247C190.916 93.9323 190.685 93.9914 190.449 93.9975C190.213 94.0036 189.978 93.9567 189.763 93.8601" fill="#FFBE9D"/>
<path d="M190.44 93.4661C190.44 93.4386 190.571 93.5016 190.744 93.4464C190.852 93.4092 190.945 93.3389 191.011 93.2456C191.077 93.1522 191.112 93.0406 191.11 92.9264C191.121 92.8688 191.119 92.8096 191.104 92.7531C191.089 92.6965 191.061 92.644 191.024 92.5993C190.947 92.5412 190.852 92.5132 190.756 92.5205C190.574 92.5205 190.444 92.5836 190.433 92.556C190.421 92.5284 190.515 92.4417 190.736 92.3787C190.803 92.3629 190.874 92.3618 190.942 92.3753C191.01 92.3889 191.074 92.417 191.13 92.4575C191.194 92.5193 191.243 92.5954 191.273 92.6796C191.302 92.7638 191.311 92.8537 191.299 92.9421C191.289 93.1099 191.226 93.27 191.118 93.3992C191.025 93.5045 190.896 93.5718 190.756 93.5883C190.531 93.6119 190.417 93.4819 190.44 93.4661Z" fill="#EB996E"/>
<path d="M180.669 86.6184C179.582 87.9698 181.032 88.8209 181.753 89.3764C182.308 89.8098 183.947 90.9524 185.385 90.4126C184.877 89.731 184.298 89.4316 184.073 88.7815C184.66 89.6089 185.279 90.2353 186.288 90.3575C186.087 89.7704 185.803 88.5766 186.02 88.5293C186.288 90.8618 188.474 92.8239 189.979 92.0753C190.261 91.3416 190.366 90.5518 190.285 89.77C190.204 88.9882 189.94 88.2365 189.514 87.5758C189.078 86.9226 188.51 86.3671 187.847 85.9446C187.185 85.5221 186.442 85.2417 185.665 85.1212C184.773 84.9856 183.863 85.0496 182.999 85.3085C182.135 85.5674 181.339 86.0148 180.669 86.6184Z" fill="#263238"/>
<path d="M190.996 94.0493C190.996 94.0256 191.181 94.2029 191.106 94.5378C191.083 94.6344 191.038 94.7245 190.976 94.8015C190.913 94.8785 190.834 94.9406 190.744 94.983C190.632 95.0342 190.509 95.0584 190.386 95.0536C190.263 95.0488 190.142 95.0152 190.035 94.9555C189.929 94.8915 189.839 94.805 189.771 94.7022C189.703 94.5993 189.658 94.4826 189.641 94.3605C189.617 94.1641 189.667 93.9658 189.783 93.805C189.98 93.5371 190.2 93.5095 190.2 93.5292C190.083 93.6307 189.983 93.7505 189.905 93.8838C189.829 94.0206 189.803 94.1791 189.83 94.3329C189.845 94.4238 189.879 94.5106 189.93 94.5873C189.981 94.6641 190.047 94.7291 190.125 94.7782C190.205 94.8227 190.294 94.8491 190.385 94.8552C190.477 94.8613 190.568 94.8471 190.653 94.8136C190.723 94.7847 190.787 94.7414 190.839 94.6864C190.891 94.6314 190.931 94.566 190.957 94.4945C190.999 94.3501 191.013 94.1988 190.996 94.0493Z" fill="#807700"/>
<path d="M173.963 114.348L177.659 113.58L178.782 119.797C177.833 122.984 177.044 126.216 176.418 129.482L185.086 134.891L186.422 132.354L188.561 134.387L197.785 129.482C196.646 123.572 193.77 122.027 193.77 121.066C193.77 118.308 193.376 120.987 195.689 111.85C198.001 102.713 189.562 101.78 189.562 101.78C189.562 101.78 189.751 103.056 183.037 101.839C180.579 101.393 170.764 106.547 170.764 106.547L173.963 114.348Z" fill="#807700"/>
<path d="M183.026 101.839C183.026 101.839 182.947 108.6 184.558 108.143C186.17 107.686 189.416 104.798 189.55 101.764L183.026 101.839Z" fill="#FFBE9D"/>
<path d="M183.435 113.686C183.416 112.885 183.462 112.084 183.573 111.291C183.619 110.494 183.735 109.703 183.92 108.927C183.94 109.729 183.892 110.532 183.778 111.326C183.731 112.121 183.616 112.911 183.435 113.686Z" fill="#263238"/>
<path d="M184.464 113.139C184.345 112.506 184.294 111.863 184.31 111.22C184.26 110.578 184.277 109.932 184.361 109.293C184.479 109.927 184.531 110.571 184.515 111.216C184.569 111.857 184.551 112.502 184.464 113.139Z" fill="#263238"/>
<path d="M183.018 114.348C182.962 114.348 182.923 114.175 183.018 113.982C183.112 113.789 183.266 113.702 183.301 113.745C183.337 113.789 183.274 113.915 183.207 114.064C183.14 114.214 183.077 114.352 183.018 114.348Z" fill="#263238"/>
<path d="M183.238 114.348C183.183 114.348 183.163 114.206 183.191 114.053C183.218 113.899 183.293 113.789 183.348 113.8C183.404 113.812 183.423 113.942 183.396 114.096C183.368 114.25 183.293 114.36 183.238 114.348Z" fill="#263238"/>
<path d="M183.447 114.352C183.392 114.352 183.333 114.238 183.317 114.084C183.301 113.931 183.337 113.804 183.396 113.8C183.455 113.797 183.51 113.915 183.522 114.064C183.534 114.214 183.51 114.344 183.447 114.352Z" fill="#263238"/>
<path d="M183.79 114.458C183.731 114.458 183.687 114.261 183.585 114.064C183.483 113.867 183.364 113.694 183.404 113.647C183.443 113.6 183.652 113.718 183.774 113.978C183.896 114.238 183.845 114.462 183.79 114.458Z" fill="#263238"/>
<path d="M184.503 113.745C184.452 113.765 184.345 113.596 184.345 113.351C184.345 113.107 184.452 112.957 184.503 112.957C184.554 112.957 184.55 113.143 184.55 113.351C184.55 113.56 184.558 113.726 184.503 113.745Z" fill="#263238"/>
<path d="M184.716 113.635C184.66 113.635 184.601 113.509 184.586 113.343C184.57 113.178 184.586 113.036 184.66 113.032C184.735 113.028 184.775 113.158 184.79 113.324C184.806 113.489 184.771 113.631 184.716 113.635Z" fill="#263238"/>
<path d="M185.05 113.58C185.007 113.615 184.885 113.533 184.779 113.395C184.672 113.257 184.621 113.119 184.668 113.087C184.716 113.056 184.834 113.135 184.94 113.269C185.047 113.403 185.086 113.544 185.05 113.58Z" fill="#263238"/>
<path d="M185.161 113.47C185.11 113.493 185.011 113.391 184.885 113.28C184.759 113.17 184.649 113.087 184.668 113.032C184.688 112.977 184.865 112.985 185.023 113.127C185.181 113.269 185.212 113.438 185.161 113.47Z" fill="#263238"/>
<path d="M182.533 102.583C182.533 102.56 182.651 102.501 182.789 102.627C182.846 102.693 182.874 102.779 182.867 102.866C182.86 102.953 182.82 103.034 182.753 103.092C182.721 103.121 182.683 103.143 182.642 103.157C182.601 103.171 182.557 103.176 182.513 103.173C182.47 103.17 182.428 103.158 182.389 103.138C182.35 103.117 182.316 103.09 182.289 103.056C182.269 103.036 182.253 103.014 182.241 102.989C182.223 102.937 182.217 102.881 182.225 102.826C182.232 102.771 182.253 102.719 182.285 102.674C182.399 102.524 182.537 102.56 182.529 102.583C182.48 102.631 182.44 102.687 182.411 102.749C182.371 102.855 182.411 102.997 182.572 102.977C182.734 102.958 182.746 102.82 182.683 102.721C182.62 102.623 182.537 102.615 182.533 102.583Z" fill="#263238"/>
<path d="M182.69 103.856C182.655 103.899 182.545 103.856 182.438 103.801C182.332 103.746 182.273 103.627 182.304 103.58C182.336 103.533 182.45 103.556 182.557 103.635C182.663 103.714 182.722 103.809 182.69 103.856Z" fill="#263238"/>
<path d="M182.793 104.124C182.84 104.159 182.793 104.297 182.635 104.356C182.478 104.415 182.348 104.356 182.36 104.297C182.371 104.238 182.462 104.207 182.561 104.167C182.659 104.128 182.75 104.088 182.793 104.124Z" fill="#263238"/>
<path d="M182.801 104.79C182.844 104.825 182.801 104.928 182.742 105.018C182.683 105.109 182.568 105.156 182.525 105.117C182.482 105.077 182.505 104.979 182.584 104.888C182.663 104.798 182.754 104.77 182.801 104.79Z" fill="#263238"/>
<path d="M182.631 105.511C182.631 105.487 182.789 105.432 182.974 105.601C183.026 105.651 183.064 105.714 183.082 105.783C183.101 105.853 183.101 105.926 183.081 105.995C183.054 106.086 182.999 106.167 182.924 106.225C182.849 106.283 182.758 106.316 182.663 106.318C182.57 106.311 182.481 106.275 182.41 106.214C182.339 106.153 182.29 106.071 182.269 105.98C182.252 105.904 182.26 105.824 182.292 105.753C182.324 105.682 182.378 105.623 182.446 105.586C182.675 105.46 182.84 105.586 182.801 105.605C182.704 105.615 182.61 105.649 182.529 105.704C182.494 105.729 182.468 105.765 182.455 105.806C182.441 105.847 182.441 105.891 182.454 105.932C182.47 105.981 182.501 106.024 182.541 106.056C182.582 106.087 182.631 106.106 182.683 106.11C182.718 106.108 182.753 106.099 182.785 106.083C182.817 106.067 182.846 106.046 182.869 106.019C182.893 105.992 182.91 105.961 182.922 105.927C182.933 105.893 182.937 105.858 182.935 105.822C182.931 105.768 182.912 105.716 182.88 105.672C182.761 105.558 182.627 105.558 182.631 105.511Z" fill="#263238"/>
<path d="M183.073 106.657C183.1 106.708 183.014 106.803 182.919 106.909C182.824 107.016 182.746 107.114 182.69 107.095C182.635 107.075 182.643 106.917 182.765 106.775C182.887 106.634 183.049 106.606 183.073 106.657Z" fill="#263238"/>
<path d="M183.293 107.37C183.344 107.39 183.337 107.548 183.214 107.69C183.092 107.831 182.935 107.859 182.907 107.812C182.879 107.764 182.966 107.662 183.061 107.556C183.155 107.449 183.238 107.351 183.293 107.37Z" fill="#263238"/>
<path d="M183.412 108.525C183.356 108.525 183.297 108.399 183.285 108.229C183.274 108.06 183.285 107.926 183.36 107.918C183.435 107.91 183.475 108.044 183.486 108.214C183.498 108.383 183.471 108.521 183.412 108.525Z" fill="#263238"/>
<path d="M185.326 108.71C185.299 108.757 185.189 108.749 185.082 108.71C184.976 108.671 184.913 108.56 184.94 108.509C184.968 108.458 185.078 108.47 185.185 108.509C185.291 108.548 185.354 108.639 185.326 108.71Z" fill="#263238"/>
<path d="M185.992 107.922C186.032 107.961 185.965 108.091 185.846 108.214C185.728 108.336 185.594 108.403 185.555 108.363C185.516 108.324 185.579 108.194 185.701 108.072C185.823 107.95 185.949 107.887 185.992 107.922Z" fill="#263238"/>
<path d="M186.536 107.481C186.536 107.449 186.638 107.433 186.788 107.437H186.808L186.835 107.461C186.87 107.496 186.896 107.539 186.91 107.587C186.925 107.634 186.928 107.684 186.918 107.733C186.907 107.795 186.876 107.852 186.83 107.894C186.784 107.937 186.725 107.963 186.662 107.969C186.595 107.975 186.528 107.96 186.471 107.925C186.413 107.89 186.369 107.838 186.343 107.776C186.322 107.727 186.317 107.673 186.328 107.621C186.34 107.568 186.367 107.521 186.406 107.485C186.536 107.366 186.658 107.426 186.642 107.449C186.627 107.473 186.563 107.489 186.52 107.575C186.509 107.594 186.503 107.616 186.503 107.638C186.503 107.661 186.509 107.682 186.52 107.701C186.534 107.723 186.554 107.74 186.577 107.751C186.599 107.762 186.625 107.767 186.65 107.764C186.733 107.764 186.772 107.619 186.729 107.567L186.776 107.591C186.623 107.552 186.532 107.528 186.536 107.481Z" fill="#263238"/>
<path d="M187.099 107.374C187.044 107.374 187.02 107.229 187.052 107.079C187.083 106.929 187.154 106.815 187.21 106.823C187.265 106.831 187.284 106.969 187.253 107.118C187.221 107.268 187.154 107.386 187.099 107.374Z" fill="#263238"/>
<path d="M187.962 106.768C187.943 106.819 187.813 106.811 187.675 106.768C187.537 106.724 187.446 106.614 187.47 106.563C187.493 106.511 187.623 106.519 187.757 106.563C187.891 106.606 187.986 106.716 187.962 106.768Z" fill="#263238"/>
<path d="M188.061 106.019C188.084 106.019 188.081 106.09 188.128 106.141C188.175 106.192 188.234 106.204 188.278 106.141C188.321 106.078 188.278 106.031 188.215 106.007C188.168 105.995 188.119 105.995 188.073 106.007C188.049 106.007 188.073 105.897 188.207 105.869C188.248 105.861 188.291 105.865 188.331 105.878C188.371 105.892 188.407 105.916 188.435 105.948C188.471 105.99 188.493 106.043 188.496 106.098C188.5 106.154 188.485 106.209 188.455 106.255C188.427 106.304 188.384 106.342 188.333 106.365C188.283 106.387 188.226 106.393 188.171 106.381C188.13 106.372 188.092 106.351 188.062 106.322C188.031 106.293 188.009 106.257 187.998 106.216C187.958 106.066 188.041 105.999 188.061 106.019Z" fill="#263238"/>
<path d="M188.664 105.396C188.629 105.391 188.596 105.376 188.569 105.353C188.541 105.33 188.521 105.3 188.509 105.267C188.497 105.233 188.495 105.197 188.502 105.163C188.509 105.128 188.525 105.096 188.549 105.069C188.589 105.069 188.671 105.109 188.703 105.199C188.734 105.29 188.715 105.381 188.664 105.396Z" fill="#263238"/>
<path d="M189.227 104.845C189.199 104.892 189.089 104.884 188.983 104.821C188.876 104.758 188.813 104.671 188.845 104.624C188.876 104.577 188.979 104.585 189.085 104.644C189.192 104.703 189.255 104.794 189.227 104.845Z" fill="#263238"/>
<path d="M189.613 104.017C189.637 104.073 189.542 104.163 189.408 104.222C189.274 104.281 189.14 104.289 189.117 104.222C189.093 104.155 189.188 104.081 189.322 104.021C189.366 103.996 189.416 103.982 189.467 103.982C189.518 103.981 189.568 103.993 189.613 104.017Z" fill="#263238"/>
<path d="M189.79 103.029C189.79 103.009 189.865 102.934 189.999 103.005C190.038 103.026 190.071 103.058 190.095 103.096C190.118 103.134 190.131 103.177 190.133 103.222C190.133 103.28 190.115 103.336 190.083 103.384C190.05 103.432 190.003 103.469 189.949 103.489C189.895 103.51 189.836 103.514 189.779 103.501C189.723 103.488 189.672 103.458 189.633 103.415C189.604 103.38 189.585 103.339 189.577 103.294C189.57 103.25 189.574 103.205 189.59 103.162C189.641 103.025 189.751 103.017 189.755 103.044C189.759 103.072 189.723 103.115 189.731 103.19C189.739 103.265 189.787 103.332 189.873 103.3C189.96 103.269 189.96 103.19 189.909 103.123C189.857 103.056 189.814 103.056 189.79 103.029Z" fill="#263238"/>
<path d="M190.33 102.166C190.33 102.221 190.243 102.292 190.106 102.323C189.968 102.355 189.849 102.323 189.838 102.28C189.826 102.237 189.924 102.154 190.062 102.122C190.2 102.091 190.318 102.111 190.33 102.166Z" fill="#263238"/>
<path d="M189.779 101.878L189.995 101.713L189.779 101.878Z" fill="#263238"/>
<path d="M171.883 107.496C171.832 107.496 171.812 107.382 171.848 107.28C171.883 107.177 171.95 107.11 172.001 107.126C172.052 107.142 172.072 107.24 172.041 107.343C172.009 107.445 171.938 107.528 171.883 107.496Z" fill="#263238"/>
<path d="M172.356 108.068C172.356 108.044 172.427 107.969 172.569 108.032C172.618 108.054 172.659 108.089 172.688 108.134C172.717 108.179 172.733 108.231 172.733 108.284C172.733 108.338 172.717 108.39 172.688 108.435C172.659 108.48 172.618 108.515 172.569 108.537C172.516 108.565 172.456 108.577 172.397 108.57C172.338 108.563 172.282 108.537 172.238 108.497C172.205 108.466 172.181 108.426 172.167 108.383C172.153 108.34 172.151 108.294 172.159 108.249C172.187 108.095 172.301 108.072 172.309 108.095C172.317 108.119 172.285 108.174 172.309 108.253C172.332 108.332 172.387 108.403 172.486 108.355C172.584 108.308 172.565 108.221 172.486 108.154C172.407 108.087 172.368 108.095 172.356 108.068Z" fill="#263238"/>
<path d="M172.943 109.356C172.919 109.407 172.797 109.407 172.667 109.356C172.537 109.305 172.454 109.218 172.474 109.167C172.494 109.116 172.62 109.116 172.75 109.167C172.88 109.218 172.963 109.305 172.943 109.356Z" fill="#263238"/>
<path d="M173.089 110.144C173.069 110.199 172.974 110.215 172.872 110.184C172.77 110.152 172.703 110.081 172.718 110.026C172.734 109.971 172.833 109.955 172.935 109.991C173.038 110.026 173.104 110.093 173.089 110.144Z" fill="#263238"/>
<path d="M173.329 110.68C173.376 110.708 173.364 110.822 173.297 110.932C173.231 111.042 173.14 111.113 173.093 111.082C173.045 111.05 173.057 110.94 173.12 110.83C173.139 110.789 173.168 110.753 173.204 110.727C173.241 110.7 173.284 110.684 173.329 110.68Z" fill="#263238"/>
<path d="M173.471 111.228C173.443 111.228 173.538 111.082 173.739 111.137C173.796 111.153 173.849 111.183 173.893 111.224C173.936 111.265 173.968 111.317 173.987 111.373C174.01 111.453 174.001 111.538 173.963 111.611C173.925 111.685 173.86 111.74 173.782 111.767C173.711 111.796 173.634 111.803 173.559 111.789C173.484 111.774 173.415 111.738 173.361 111.685C173.317 111.634 173.292 111.569 173.292 111.502C173.292 111.434 173.317 111.369 173.361 111.318C173.393 111.286 173.437 111.268 173.483 111.268C173.528 111.268 173.572 111.286 173.605 111.318C173.648 111.37 173.628 111.409 173.605 111.409C173.594 111.41 173.583 111.409 173.572 111.405C173.562 111.4 173.553 111.394 173.546 111.385C173.538 111.381 173.53 111.378 173.521 111.377C173.512 111.376 173.503 111.377 173.495 111.38C173.487 111.383 173.479 111.388 173.473 111.394C173.467 111.401 173.462 111.408 173.459 111.417C173.45 111.441 173.448 111.468 173.454 111.493C173.461 111.519 173.475 111.542 173.495 111.559C173.524 111.58 173.559 111.593 173.596 111.597C173.632 111.602 173.669 111.596 173.703 111.582C173.865 111.523 173.798 111.342 173.68 111.283C173.562 111.224 173.491 111.251 173.471 111.228Z" fill="#263238"/>
<path d="M174.054 112.256C174.094 112.295 174.054 112.386 173.983 112.457C173.912 112.528 173.814 112.544 173.774 112.504C173.735 112.465 173.774 112.37 173.845 112.303C173.916 112.236 174.003 112.205 174.054 112.256Z" fill="#263238"/>
<path d="M174.267 112.934C174.31 112.973 174.267 113.072 174.2 113.154C174.133 113.237 174.023 113.276 173.979 113.237C173.936 113.198 173.979 113.099 174.05 113.016C174.121 112.934 174.227 112.894 174.267 112.934Z" fill="#263238"/>
<path d="M178.289 130.479C178.242 130.506 178.136 130.415 178.061 130.274C177.986 130.132 177.958 129.998 178.006 129.97C178.053 129.943 178.159 130.033 178.238 130.175C178.317 130.317 178.341 130.451 178.289 130.479Z" fill="#263238"/>
<path d="M178.632 130.479C178.581 130.502 178.487 130.408 178.424 130.266C178.361 130.124 178.353 129.994 178.424 129.97C178.494 129.947 178.569 130.041 178.632 130.183C178.695 130.325 178.684 130.455 178.632 130.479Z" fill="#263238"/>
<path d="M179.117 130.735V130.861C179.117 130.92 179.176 130.943 179.231 130.912C179.286 130.88 179.282 130.837 179.231 130.786C179.18 130.735 179.14 130.742 179.125 130.715C179.109 130.687 179.172 130.616 179.298 130.656C179.357 130.675 179.405 130.716 179.434 130.77C179.463 130.825 179.469 130.888 179.452 130.947C179.432 131.007 179.389 131.057 179.333 131.085C179.291 131.116 179.24 131.133 179.188 131.133C179.135 131.133 179.084 131.116 179.042 131.085C179.013 131.059 178.991 131.025 178.978 130.988C178.965 130.951 178.961 130.911 178.967 130.873C179.01 130.727 179.109 130.707 179.117 130.735Z" fill="#263238"/>
<path d="M180.331 130.991C180.366 131.034 180.291 131.148 180.165 131.243C180.039 131.337 179.913 131.377 179.877 131.33C179.842 131.282 179.917 131.172 180.043 131.077C180.169 130.983 180.299 130.943 180.331 130.991Z" fill="#263238"/>
<path d="M180.728 131.385C180.752 131.436 180.697 131.515 180.606 131.562C180.516 131.609 180.413 131.605 180.39 131.562C180.366 131.519 180.417 131.432 180.512 131.385C180.606 131.337 180.705 131.337 180.728 131.385Z" fill="#263238"/>
<path d="M181.288 132.011C181.229 132.011 181.174 131.936 181.154 131.826C181.134 131.716 181.174 131.621 181.229 131.613C181.284 131.605 181.343 131.688 181.359 131.798C181.374 131.909 181.343 132.003 181.288 132.011Z" fill="#263238"/>
<path d="M182.19 131.999C182.177 132.05 182.177 132.103 182.19 132.153C182.214 132.232 182.265 132.287 182.352 132.236C182.438 132.185 182.415 132.11 182.352 132.055C182.289 131.999 182.226 132.015 182.21 131.991C182.194 131.968 182.257 131.881 182.407 131.921C182.451 131.933 182.49 131.956 182.523 131.987C182.555 132.019 182.579 132.058 182.592 132.102C182.609 132.176 182.595 132.254 182.554 132.318C182.514 132.382 182.449 132.428 182.375 132.445C182.333 132.455 182.289 132.455 182.247 132.445C182.204 132.436 182.165 132.417 182.131 132.389C182.098 132.359 182.073 132.321 182.058 132.278C182.044 132.235 182.04 132.19 182.048 132.145C182.068 131.991 182.182 131.956 182.19 131.999Z" fill="#263238"/>
<path d="M183.262 132.413C183.301 132.456 183.242 132.567 183.132 132.661C183.022 132.756 182.903 132.799 182.868 132.756C182.832 132.712 182.888 132.602 182.998 132.508C183.108 132.413 183.226 132.37 183.262 132.413Z" fill="#263238"/>
<path d="M183.971 132.835C184.01 132.874 183.947 132.996 183.802 133.063C183.656 133.13 183.518 133.095 183.514 133.036C183.51 132.976 183.605 132.925 183.715 132.874C183.825 132.823 183.928 132.791 183.971 132.835Z" fill="#263238"/>
<path d="M184.507 133.603C184.452 133.623 184.381 133.56 184.349 133.465C184.318 133.37 184.349 133.28 184.389 133.264C184.428 133.248 184.515 133.307 184.546 133.402C184.578 133.497 184.558 133.587 184.507 133.603Z" fill="#263238"/>
<path d="M185.114 133.24C185.09 133.24 185.137 133.122 185.287 133.13C185.341 133.133 185.392 133.154 185.432 133.188C185.473 133.223 185.501 133.271 185.512 133.323C185.524 133.375 185.517 133.43 185.494 133.479C185.471 133.527 185.433 133.567 185.386 133.591C185.335 133.625 185.273 133.64 185.212 133.632C185.151 133.624 185.095 133.594 185.055 133.548C185.027 133.511 185.011 133.466 185.008 133.421C185.004 133.375 185.014 133.329 185.035 133.288C185.11 133.154 185.236 133.181 185.224 133.209C185.196 133.247 185.178 133.292 185.173 133.339C185.173 133.41 185.204 133.457 185.279 133.414C185.354 133.37 185.326 133.315 185.255 133.272C185.185 133.229 185.137 133.26 185.114 133.24Z" fill="#263238"/>
<path d="M185.681 132.689C185.634 132.72 185.551 132.689 185.496 132.606C185.441 132.523 185.437 132.437 185.496 132.405C185.555 132.374 185.626 132.405 185.681 132.488C185.736 132.571 185.728 132.657 185.681 132.689Z" fill="#263238"/>
<path d="M185.961 132.236C185.921 132.275 185.839 132.259 185.776 132.196C185.713 132.133 185.693 132.051 185.732 132.011C185.772 131.972 185.858 131.988 185.921 132.051C185.984 132.114 186 132.196 185.961 132.236Z" fill="#263238"/>
<path d="M186.268 131.369C186.24 131.369 186.3 131.263 186.422 131.306C186.458 131.319 186.49 131.342 186.513 131.373C186.536 131.404 186.549 131.441 186.552 131.479C186.547 131.54 186.518 131.597 186.471 131.637C186.425 131.676 186.365 131.696 186.303 131.692C186.268 131.69 186.233 131.68 186.202 131.662C186.172 131.644 186.146 131.619 186.126 131.59C186.109 131.559 186.1 131.524 186.1 131.489C186.1 131.454 186.109 131.419 186.126 131.389C186.173 131.286 186.26 131.282 186.268 131.306C186.272 131.345 186.272 131.385 186.268 131.424C186.268 131.435 186.271 131.446 186.276 131.456C186.28 131.467 186.287 131.476 186.296 131.483H186.374V131.44C186.374 131.44 186.3 131.389 186.268 131.369Z" fill="#263238"/>
<path d="M186.898 132.011C186.87 131.999 186.846 131.976 186.833 131.948C186.82 131.92 186.818 131.887 186.828 131.858C186.829 131.842 186.833 131.828 186.841 131.815C186.848 131.801 186.857 131.79 186.869 131.78C186.881 131.77 186.894 131.763 186.909 131.759C186.923 131.755 186.939 131.753 186.954 131.755C186.982 131.767 187.005 131.788 187.018 131.816C187.031 131.844 187.034 131.875 187.025 131.905C187.02 131.935 187.004 131.962 186.981 131.981C186.958 132.001 186.929 132.012 186.898 132.011Z" fill="#263238"/>
<path d="M187.186 132.35C187.164 132.328 187.149 132.301 187.14 132.271C187.132 132.242 187.132 132.211 187.139 132.181C187.139 132.149 187.149 132.119 187.167 132.093C187.185 132.068 187.211 132.049 187.241 132.039C187.296 132.039 187.363 132.106 187.344 132.216C187.324 132.326 187.229 132.385 187.186 132.35Z" fill="#263238"/>
<path d="M187.584 132.807C187.563 132.831 187.535 132.848 187.504 132.856C187.474 132.865 187.441 132.864 187.411 132.854C187.379 132.854 187.348 132.844 187.322 132.824C187.297 132.805 187.278 132.778 187.269 132.748C187.269 132.693 187.34 132.63 187.45 132.649C187.56 132.669 187.612 132.744 187.584 132.807Z" fill="#263238"/>
<path d="M187.907 133.193C187.887 133.173 187.939 133.095 188.061 133.114C188.098 133.122 188.134 133.14 188.163 133.164C188.193 133.189 188.216 133.221 188.23 133.256C188.247 133.316 188.24 133.381 188.21 133.435C188.179 133.49 188.129 133.53 188.069 133.548C188.028 133.559 187.985 133.56 187.944 133.549C187.904 133.539 187.866 133.518 187.836 133.489C187.813 133.456 187.801 133.417 187.801 133.376C187.801 133.336 187.813 133.297 187.836 133.264C187.899 133.146 188.01 133.177 187.998 133.205C187.978 133.237 187.969 133.274 187.97 133.311C187.97 133.363 187.97 133.363 187.994 133.363H188.033C188.073 133.363 188.061 133.339 188.065 133.327C188.061 133.304 188.048 133.283 188.029 133.268C187.97 133.217 187.923 133.217 187.907 133.193Z" fill="#263238"/>
<path d="M188.411 133.973C188.382 133.965 188.356 133.946 188.34 133.919C188.324 133.893 188.319 133.862 188.325 133.831C188.324 133.816 188.327 133.801 188.332 133.787C188.338 133.773 188.346 133.76 188.357 133.749C188.368 133.739 188.38 133.73 188.395 133.725C188.409 133.719 188.424 133.717 188.439 133.717C188.454 133.72 188.468 133.726 188.48 133.734C188.493 133.742 188.504 133.753 188.512 133.765C188.52 133.778 188.526 133.792 188.529 133.807C188.532 133.821 188.532 133.836 188.53 133.851C188.529 133.883 188.516 133.913 188.494 133.935C188.472 133.958 188.443 133.971 188.411 133.973Z" fill="#263238"/>
<path d="M189.176 133.567C189.176 133.623 189.065 133.65 188.955 133.623C188.845 133.595 188.766 133.532 188.778 133.477C188.79 133.422 188.892 133.398 189.002 133.422C189.113 133.445 189.188 133.532 189.176 133.567Z" fill="#263238"/>
<path d="M189.463 133.43C189.432 133.426 189.403 133.41 189.381 133.386C189.36 133.362 189.349 133.331 189.349 133.3C189.349 133.221 189.381 133.15 189.44 133.146C189.499 133.142 189.546 133.201 189.554 133.28C189.562 133.359 189.522 133.426 189.463 133.43Z" fill="#263238"/>
<path d="M189.999 133.004C189.944 133.004 189.897 132.941 189.897 132.862C189.897 132.783 189.944 132.72 189.999 132.72C190.054 132.72 190.102 132.783 190.102 132.862C190.102 132.941 190.058 133.004 189.999 133.004Z" fill="#263238"/>
<path d="M190.413 132.425C190.413 132.405 190.484 132.326 190.614 132.405C190.652 132.429 190.683 132.463 190.702 132.503C190.72 132.544 190.727 132.589 190.72 132.634C190.71 132.693 190.677 132.747 190.629 132.783C190.581 132.82 190.52 132.837 190.46 132.831C190.406 132.835 190.352 132.821 190.308 132.789C190.264 132.758 190.233 132.711 190.219 132.659C190.206 132.606 190.212 132.551 190.236 132.502C190.26 132.453 190.3 132.415 190.35 132.393C190.484 132.326 190.567 132.417 190.543 132.437C190.519 132.456 190.472 132.437 190.433 132.512C190.423 132.523 190.415 132.536 190.41 132.55C190.405 132.564 190.404 132.579 190.405 132.594C190.422 132.612 190.444 132.623 190.468 132.626C190.508 132.626 190.527 132.626 190.535 132.598C190.539 132.571 190.539 132.543 190.535 132.516C190.535 132.488 190.425 132.449 190.413 132.425Z" fill="#263238"/>
<path d="M191.481 132.094C191.437 132.137 191.362 132.125 191.288 132.118C191.213 132.11 191.134 132.086 191.11 132.035C191.087 131.984 191.173 131.889 191.319 131.913C191.465 131.936 191.52 132.058 191.481 132.094Z" fill="#263238"/>
<path d="M192.02 131.81C191.993 131.861 191.882 131.858 191.764 131.838C191.646 131.818 191.544 131.783 191.536 131.724C191.528 131.664 191.65 131.605 191.8 131.633C191.949 131.661 192.048 131.763 192.02 131.81Z" fill="#263238"/>
<path d="M192.328 131.562C192.273 131.562 192.233 131.487 192.237 131.408C192.241 131.33 192.296 131.27 192.355 131.278C192.414 131.286 192.45 131.349 192.442 131.428C192.442 131.46 192.431 131.492 192.41 131.516C192.389 131.541 192.36 131.557 192.328 131.562Z" fill="#263238"/>
<path d="M192.793 130.833C192.773 130.833 192.832 130.727 192.974 130.754C193.018 130.766 193.057 130.79 193.087 130.823C193.117 130.857 193.137 130.899 193.143 130.943C193.151 131.001 193.139 131.059 193.11 131.109C193.081 131.159 193.036 131.198 192.982 131.219C192.925 131.237 192.864 131.234 192.809 131.211C192.754 131.188 192.709 131.146 192.682 131.093C192.659 131.051 192.652 131.002 192.662 130.955C192.673 130.908 192.699 130.866 192.738 130.837C192.864 130.746 192.954 130.837 192.935 130.837C192.915 130.837 192.868 130.873 192.84 130.928C192.812 130.983 192.84 130.975 192.84 130.987C192.848 130.996 192.857 131.003 192.868 131.008C192.879 131.013 192.891 131.015 192.903 131.014C192.914 131.007 192.924 130.997 192.932 130.985C192.939 130.974 192.944 130.961 192.946 130.947C192.947 130.934 192.945 130.921 192.939 130.91C192.934 130.898 192.925 130.888 192.915 130.88C192.871 130.849 192.808 130.857 192.793 130.833Z" fill="#263238"/>
<path d="M193.467 130.813C193.436 130.8 193.412 130.777 193.398 130.747C193.385 130.717 193.382 130.683 193.392 130.652C193.392 130.635 193.395 130.619 193.402 130.603C193.408 130.588 193.418 130.574 193.43 130.563C193.442 130.551 193.457 130.542 193.473 130.537C193.488 130.531 193.505 130.529 193.522 130.53C193.577 130.53 193.608 130.612 193.593 130.691C193.577 130.77 193.522 130.825 193.467 130.813Z" fill="#263238"/>
<path d="M194.038 130.333C194.008 130.324 193.982 130.305 193.966 130.279C193.95 130.253 193.945 130.221 193.951 130.191C193.949 130.177 193.949 130.163 193.953 130.15C193.956 130.136 193.962 130.123 193.971 130.112C193.979 130.101 193.99 130.092 194.002 130.085C194.014 130.078 194.028 130.074 194.042 130.073C194.056 130.07 194.07 130.071 194.084 130.074C194.097 130.078 194.11 130.084 194.122 130.092C194.133 130.101 194.143 130.111 194.15 130.124C194.157 130.136 194.162 130.149 194.164 130.163C194.167 130.18 194.167 130.198 194.164 130.215C194.162 130.247 194.148 130.277 194.124 130.299C194.101 130.321 194.07 130.333 194.038 130.333Z" fill="#263238"/>
<path d="M194.842 129.868C194.81 129.915 194.711 129.907 194.609 129.868C194.507 129.828 194.416 129.809 194.408 129.75C194.4 129.69 194.514 129.635 194.656 129.667C194.798 129.698 194.873 129.821 194.842 129.868Z" fill="#263238"/>
<path d="M195.228 129.592C195.176 129.616 195.098 129.541 195.129 129.438C195.161 129.336 195.263 129.316 195.295 129.363C195.308 129.383 195.317 129.405 195.322 129.428C195.326 129.451 195.327 129.474 195.322 129.497C195.314 129.519 195.301 129.539 195.285 129.555C195.269 129.571 195.249 129.584 195.228 129.592Z" fill="#263238"/>
<path d="M195.692 129.139C195.663 129.131 195.637 129.111 195.621 129.085C195.605 129.059 195.6 129.027 195.606 128.997C195.606 128.982 195.609 128.967 195.615 128.952C195.621 128.938 195.63 128.925 195.641 128.915C195.652 128.904 195.665 128.896 195.679 128.89C195.693 128.885 195.709 128.882 195.724 128.883C195.753 128.89 195.779 128.909 195.795 128.934C195.811 128.96 195.817 128.991 195.811 129.021C195.809 129.051 195.796 129.08 195.774 129.102C195.752 129.124 195.723 129.137 195.692 129.139Z" fill="#263238"/>
<path d="M190.011 108.21L187.399 110.838L193.727 117.059C193.727 117.059 195.015 113.308 195.913 110.006C196.548 107.674 190.011 108.21 190.011 108.21Z" fill="#807700"/>
<path d="M188.99 111.074C188.935 111.074 188.876 110.96 188.86 110.81C188.845 110.66 188.88 110.53 188.935 110.526C188.99 110.522 189.05 110.637 189.065 110.79C189.081 110.944 189.046 111.074 188.99 111.074Z" fill="#263238"/>
<path d="M189.593 111.196C189.593 111.251 189.495 111.299 189.373 111.299C189.251 111.299 189.156 111.251 189.156 111.196C189.156 111.141 189.255 111.094 189.373 111.094C189.491 111.094 189.593 111.137 189.593 111.196Z" fill="#263238"/>
<path d="M189.759 112.071C189.708 112.039 189.711 111.949 189.711 111.85C189.711 111.752 189.711 111.665 189.759 111.633C189.806 111.602 189.916 111.689 189.916 111.85C189.916 112.012 189.814 112.106 189.759 112.071Z" fill="#263238"/>
<path d="M190.279 112.158C190.255 112.158 190.346 112.031 190.515 112.087C190.567 112.103 190.613 112.133 190.649 112.173C190.685 112.213 190.71 112.262 190.72 112.315C190.728 112.387 190.711 112.459 190.671 112.518C190.631 112.578 190.572 112.623 190.503 112.643C190.434 112.664 190.36 112.66 190.294 112.631C190.228 112.603 190.174 112.553 190.141 112.488C190.123 112.436 190.121 112.379 190.135 112.325C190.149 112.271 190.178 112.222 190.22 112.185C190.244 112.161 190.274 112.142 190.307 112.131C190.34 112.121 190.375 112.117 190.409 112.122C190.46 112.122 190.476 112.161 190.468 112.169C190.411 112.19 190.363 112.229 190.33 112.28C190.279 112.366 190.307 112.481 190.445 112.445C190.582 112.41 190.547 112.284 190.445 112.221C190.342 112.158 190.295 112.181 190.279 112.158Z" fill="#263238"/>
<path d="M190.961 113.221C190.909 113.221 190.89 113.115 190.917 113.024C190.945 112.934 191.016 112.875 191.071 112.89C191.126 112.906 191.146 112.997 191.114 113.087C191.083 113.178 191.016 113.237 190.961 113.221Z" fill="#263238"/>
<path d="M191.552 113.107C191.607 113.107 191.626 113.273 191.595 113.454C191.563 113.635 191.492 113.777 191.437 113.765C191.382 113.753 191.362 113.6 191.394 113.418C191.425 113.237 191.496 113.099 191.552 113.107Z" fill="#263238"/>
<path d="M192.178 113.832C192.178 113.887 192.079 113.946 191.942 113.962C191.804 113.978 191.693 113.942 191.685 113.887C191.678 113.832 191.784 113.773 191.922 113.757C192.06 113.741 192.178 113.765 192.178 113.832Z" fill="#263238"/>
<path d="M192.434 114.131C192.434 114.108 192.517 114.045 192.667 114.108C192.712 114.127 192.753 114.157 192.785 114.194C192.817 114.232 192.84 114.277 192.852 114.325C192.865 114.39 192.857 114.459 192.827 114.519C192.798 114.58 192.75 114.629 192.69 114.659C192.629 114.696 192.556 114.708 192.487 114.692C192.417 114.677 192.356 114.636 192.316 114.577C192.29 114.527 192.282 114.47 192.292 114.416C192.302 114.361 192.33 114.311 192.371 114.273C192.396 114.247 192.429 114.228 192.464 114.22C192.5 114.211 192.537 114.214 192.572 114.226C192.619 114.246 192.627 114.273 192.619 114.281C192.592 114.284 192.566 114.295 192.544 114.312C192.521 114.328 192.504 114.35 192.493 114.376C192.45 114.47 192.493 114.533 192.607 114.486C192.722 114.439 192.682 114.313 192.607 114.242C192.533 114.171 192.438 114.163 192.434 114.131Z" fill="#263238"/>
<path d="M193.096 115.522C193.041 115.522 192.994 115.373 192.994 115.191C192.994 115.01 193.041 114.864 193.096 114.864C193.151 114.864 193.199 115.01 193.199 115.191C193.199 115.373 193.155 115.522 193.096 115.522Z" fill="#263238"/>
<path d="M192.143 105.515C191.993 105.822 191.802 106.107 191.575 106.362C191.181 106.858 190.637 107.544 189.999 108.241C189.361 108.939 188.778 109.597 188.348 110.054C188.128 110.312 187.884 110.55 187.619 110.763C187.798 110.474 188.005 110.203 188.238 109.955C188.632 109.478 189.215 108.824 189.845 108.107L191.461 106.267C191.67 106.001 191.898 105.749 192.143 105.515Z" fill="#263238"/>
<path d="M196.567 129.092C196.567 129.147 196.449 129.166 196.331 129.139C196.213 129.111 196.13 129.04 196.142 128.985C196.154 128.93 196.264 128.91 196.378 128.938C196.492 128.966 196.579 129.036 196.567 129.092Z" fill="#263238"/>
<path d="M196.867 128.611C196.867 128.591 196.89 128.528 197.004 128.52C197.042 128.521 197.078 128.532 197.109 128.553C197.14 128.574 197.164 128.604 197.178 128.639C197.189 128.66 197.196 128.684 197.198 128.708C197.2 128.733 197.197 128.757 197.189 128.78C197.182 128.803 197.169 128.825 197.153 128.843C197.137 128.861 197.117 128.876 197.095 128.887H197.056C196.859 128.938 196.689 128.745 196.776 128.595C196.789 128.573 196.808 128.554 196.831 128.543C196.854 128.532 196.88 128.528 196.906 128.532C196.912 128.532 196.918 128.533 196.923 128.535C196.928 128.538 196.933 128.542 196.936 128.546C196.94 128.551 196.942 128.556 196.943 128.562C196.944 128.568 196.943 128.574 196.941 128.579C196.929 128.588 196.919 128.6 196.913 128.614C196.907 128.628 196.904 128.643 196.906 128.658C196.906 128.658 196.965 128.702 197.001 128.69C197.002 128.681 197 128.673 196.996 128.666C196.992 128.658 196.985 128.653 196.977 128.65C196.934 128.639 196.878 128.639 196.867 128.611Z" fill="#263238"/>
<path d="M163.333 114.644C163.109 113.899 160.284 112.37 160.709 111.957C161.261 111.413 163.586 113.682 163.794 113.86C164.003 114.037 164.259 113.733 164.062 113.584C163.779 113.367 160.839 111.035 161.379 110.499C161.679 110.199 162.167 110.802 162.167 110.802C162.167 110.802 164.76 113.194 165.008 112.93C165.256 112.666 163.779 111.208 163.247 110.755C162.715 110.302 162.719 109.864 163.105 109.793C163.365 109.742 165.028 111.098 165.54 111.563C166.052 112.027 167.451 113.32 167.266 112.11V112.055C167.053 110.873 167.266 109.884 167.541 109.648C167.599 109.59 167.674 109.551 167.755 109.538C167.836 109.524 167.919 109.536 167.993 109.572C168.067 109.608 168.127 109.666 168.167 109.738C168.206 109.811 168.221 109.893 168.211 109.975C168.223 110.033 168.223 110.094 168.211 110.152V110.239C168.199 110.651 168.227 111.064 168.294 111.472C168.348 111.838 168.464 112.192 168.637 112.52C168.838 112.914 169.031 113.213 169.188 113.477C171.075 114.518 176.509 117.264 181.95 117.681C182.935 117.756 187.919 111.31 187.919 111.31L192.809 116.113C192.147 117.244 191.914 117.504 188.593 122.047C183.175 129.458 166.135 117.185 166.135 117.185L165.977 117.106C164.682 116.474 163.425 115.769 162.21 114.994C160.745 113.966 160.831 113.832 160.977 113.674C161.308 113.261 163.562 115.408 163.333 114.644Z" fill="#FFBE9D"/>
</g>
<defs>
<filter id="filter0_d_51_4397" x="0" y="0" width="238" height="252" filterUnits="userSpaceOnUse" color-interpolation-filters="sRGB">
<feFlood flood-opacity="0" result="BackgroundImageFix"/>
<feColorMatrix in="SourceAlpha" type="matrix" values="0 0 0 0 0 0 0 0 0 0 0 0 0 0 0 0 0 0 127 0" result="hardAlpha"/>
<feOffset dy="4"/>
<feGaussianBlur stdDeviation="2"/>
<feComposite in2="hardAlpha" operator="out"/>
<feColorMatrix type="matrix" values="0 0 0 0 0 0 0 0 0 0 0 0 0 0 0 0 0 0 0.25 0"/>
<feBlend mode="normal" in2="BackgroundImageFix" result="effect1_dropShadow_51_4397"/>
<feBlend mode="normal" in="SourceGraphic" in2="effect1_dropShadow_51_4397" result="shape"/>
</filter>
</defs>
</svg>
