<svg width="29" height="29" viewBox="0 0 29 29" fill="none" xmlns="http://www.w3.org/2000/svg">
<circle cx="14.1595" cy="14.4043" r="13.4852" stroke="#FFFAF1" stroke-width="1.34852"/>
<path d="M14.8526 7.66174C15.6112 7.66377 15.9962 7.66781 16.3286 7.67725L16.4594 7.68197C16.6104 7.68737 16.7594 7.69411 16.9395 7.7022C17.6569 7.73591 18.1464 7.84919 18.5759 8.01573C19.0209 8.18699 19.3958 8.41894 19.7707 8.79315C20.1137 9.1301 20.379 9.53785 20.5481 9.98794C20.7147 10.4174 20.8279 10.907 20.8616 11.625C20.8697 11.8044 20.8765 11.9534 20.8819 12.1051L20.8859 12.2359C20.896 12.5677 20.9001 12.9527 20.9014 13.7112L20.9021 14.2142V15.0975C20.9037 15.5893 20.8986 16.0811 20.8866 16.5728L20.8825 16.7036C20.8771 16.8553 20.8704 17.0043 20.8623 17.1836C20.8286 17.9017 20.714 18.3906 20.5481 18.8208C20.379 19.2708 20.1137 19.6786 19.7707 20.0155C19.4337 20.3585 19.026 20.6238 18.5759 20.793C18.1464 20.9595 17.6569 21.0728 16.9395 21.1065L16.4594 21.1267L16.3286 21.1308C15.9962 21.1402 15.6112 21.1449 14.8526 21.1463L14.3496 21.147H13.467C12.975 21.1487 12.483 21.1435 11.9911 21.1314L11.8603 21.1274C11.7002 21.1213 11.5402 21.1144 11.3802 21.1065C10.6628 21.0728 10.1733 20.9595 9.74309 20.793C9.29324 20.6238 8.88573 20.3585 8.54897 20.0155C8.20574 19.6787 7.94019 19.2709 7.77087 18.8208C7.60433 18.3912 7.49106 17.9017 7.45734 17.1836L7.43712 16.7036L7.43374 16.5728C7.42131 16.0811 7.4157 15.5893 7.41689 15.0975V13.7112C7.41502 13.2194 7.41997 12.7276 7.43172 12.2359L7.43644 12.1051C7.44184 11.9534 7.44858 11.8044 7.45667 11.625C7.49038 10.907 7.60366 10.4181 7.7702 9.98794C7.93991 9.53767 8.20592 9.1299 8.54964 8.79315C8.8862 8.45032 9.29348 8.18502 9.74309 8.01573C10.1733 7.84919 10.6621 7.73591 11.3802 7.7022C11.5595 7.69411 11.7092 7.68737 11.8603 7.68197L11.9911 7.67793C12.4827 7.66595 12.9745 7.66078 13.4664 7.66242L14.8526 7.66174ZM14.1595 11.033C13.2654 11.033 12.4079 11.3882 11.7756 12.0205C11.1434 12.6527 10.7882 13.5102 10.7882 14.4043C10.7882 15.2985 11.1434 16.156 11.7756 16.7882C12.4079 17.4205 13.2654 17.7756 14.1595 17.7756C15.0536 17.7756 15.9111 17.4205 16.5434 16.7882C17.1756 16.156 17.5308 15.2985 17.5308 14.4043C17.5308 13.5102 17.1756 12.6527 16.5434 12.0205C15.9111 11.3882 15.0536 11.033 14.1595 11.033ZM14.1595 12.3816C14.4251 12.3815 14.6882 12.4338 14.9336 12.5354C15.179 12.637 15.402 12.786 15.5899 12.9738C15.7778 13.1616 15.9268 13.3846 16.0285 13.63C16.1302 13.8753 16.1826 14.1384 16.1826 14.404C16.1827 14.6696 16.1304 14.9327 16.0288 15.1781C15.9272 15.4236 15.7782 15.6466 15.5904 15.8344C15.4026 16.0223 15.1796 16.1713 14.9342 16.273C14.6888 16.3747 14.4258 16.4271 14.1602 16.4271C13.6237 16.4271 13.1092 16.214 12.7298 15.8347C12.3505 15.4553 12.1374 14.9408 12.1374 14.4043C12.1374 13.8679 12.3505 13.3534 12.7298 12.974C13.1092 12.5947 13.6237 12.3816 14.1602 12.3816M17.7 10.0217C17.4765 10.0217 17.2621 10.1105 17.1041 10.2685C16.946 10.4266 16.8572 10.6409 16.8572 10.8645C16.8572 11.088 16.946 11.3024 17.1041 11.4604C17.2621 11.6185 17.4765 11.7073 17.7 11.7073C17.9236 11.7073 18.1379 11.6185 18.296 11.4604C18.4541 11.3024 18.5429 11.088 18.5429 10.8645C18.5429 10.6409 18.4541 10.4266 18.296 10.2685C18.1379 10.1105 17.9236 10.0217 17.7 10.0217Z" fill="#FFFAF1"/>
</svg>
